<?xml version="1.0" encoding="UTF-8"?>
<!-- Generator: visioncortex VTracer 0.6.12 -->
<svg version="1.1" xmlns="http://www.w3.org/2000/svg" width="500" height="423">
<path d="M0 0 C0.9 -0.007 1.8 -0.014 2.728 -0.022 C40.925 -0.256 79.298 3.814 114.07 21.137 C114.727 21.464 115.384 21.791 116.061 22.128 C116.415 22.306 116.415 22.306 118.207 23.203 C119.004 23.598 119.801 23.992 120.623 24.399 C172.124 50.037 172.124 50.037 180.207 66.203 C180.375 68.262 180.375 68.262 180.395 70.641 C180.409 71.423 180.423 72.206 180.438 73.012 C180.207 75.203 180.207 75.203 178.207 78.203 C178.52 82.856 180.805 86.837 182.832 90.953 C187.181 99.954 191.337 109.034 195.457 118.141 C200.242 128.705 205.062 139.252 209.957 149.766 C215.221 161.074 220.448 172.397 225.626 183.745 C227.139 187.055 228.657 190.364 230.175 193.672 C231.572 196.719 232.966 199.766 234.359 202.815 C235.047 204.318 235.736 205.821 236.426 207.323 C237.392 209.425 238.353 211.528 239.312 213.633 C239.606 214.268 239.899 214.903 240.201 215.558 C242.207 219.975 242.207 219.975 242.207 222.203 C243.403 222.121 244.6 222.038 245.832 221.953 C250.29 221.937 252.751 223.337 256.207 226.203 C257.739 229.267 257.436 231.82 257.207 235.203 C255.976 237.972 255.053 239.641 252.521 241.323 C249.409 242.507 246.757 242.465 243.426 242.477 C242.745 242.483 242.064 242.488 241.362 242.493 C239.081 242.508 236.8 242.509 234.518 242.51 C232.882 242.517 231.246 242.526 229.61 242.535 C225.165 242.557 220.721 242.565 216.277 242.571 C213.5 242.574 210.723 242.58 207.947 242.588 C198.259 242.612 188.572 242.625 178.885 242.629 C169.855 242.632 160.826 242.662 151.796 242.704 C144.043 242.739 136.29 242.754 128.537 242.755 C123.907 242.756 119.277 242.764 114.647 242.793 C110.292 242.819 105.937 242.821 101.582 242.805 C99.984 242.803 98.387 242.81 96.79 242.826 C94.607 242.847 92.425 242.836 90.242 242.818 C89.021 242.82 87.8 242.822 86.542 242.824 C82.076 241.993 80.42 240.371 77.207 237.203 C75.756 234.3 75.835 232.431 76.207 229.203 C78.02 226.274 80.08 223.767 83.207 222.203 C85.879 222.069 88.53 222.16 91.207 222.203 C91.464 221.375 91.722 220.546 91.987 219.693 C93.35 215.793 94.994 212.11 96.734 208.367 C96.907 207.994 96.907 207.994 97.778 206.103 C98.898 203.676 100.021 201.252 101.145 198.828 C101.925 197.139 102.704 195.449 103.484 193.759 C105.026 190.415 106.57 187.072 108.116 183.729 C110.698 178.142 113.268 172.549 115.832 166.953 C116.253 166.035 116.674 165.117 117.108 164.171 C119.668 158.583 122.214 152.989 124.754 147.391 C130.86 133.932 136.981 120.482 143.207 107.078 C143.74 105.927 144.273 104.775 144.822 103.589 C147.047 98.792 149.285 94.008 151.641 89.273 C151.987 88.568 152.333 87.864 152.689 87.137 C153.556 85.382 154.441 83.636 155.328 81.891 C156.207 79.203 156.207 79.203 155.488 77.225 C153.125 73.495 149.424 71.269 145.895 68.703 C145.058 68.091 144.221 67.479 143.36 66.848 C127.793 55.686 110.665 46.366 92.707 39.703 C92.183 39.508 92.183 39.508 89.533 38.523 C67.767 30.558 46.423 26.569 23.207 25.203 C23.207 114.963 23.207 204.723 23.207 297.203 C42.017 297.203 60.827 297.203 80.207 297.203 C87.707 302.203 87.707 302.203 89.207 305.203 C89.76 310.104 89.74 312.211 87.395 316.578 C85.207 319.203 85.207 319.203 82.207 321.203 C83.043 321.207 83.88 321.21 84.741 321.214 C92.642 321.252 100.542 321.309 108.443 321.387 C112.504 321.426 116.565 321.459 120.626 321.474 C124.549 321.489 128.472 321.524 132.395 321.571 C133.887 321.586 135.381 321.594 136.874 321.595 C151.541 321.612 151.541 321.612 157.207 326.203 C160.041 330.453 159.733 334.214 159.207 339.203 C157.594 342.889 156.577 343.957 153.207 346.203 C153.643 346.208 153.643 346.208 155.85 346.231 C159.114 346.276 162.377 346.337 165.64 346.411 C167.047 346.439 168.454 346.46 169.862 346.474 C184.687 346.632 184.687 346.632 190.207 351.203 C193.028 355.127 192.731 359.556 192.207 364.203 C190.815 367.76 189.757 368.881 186.463 370.812 C183.077 372.259 180.893 372.581 177.241 372.589 C176.063 372.599 174.885 372.608 173.671 372.618 C172.386 372.614 171.101 372.609 169.777 372.604 C168.391 372.61 167.004 372.617 165.618 372.625 C161.814 372.643 158.011 372.643 154.207 372.639 C150.102 372.639 145.998 372.655 141.894 372.669 C133.855 372.694 125.816 372.703 117.778 372.704 C111.244 372.706 104.711 372.712 98.177 372.721 C79.655 372.748 61.132 372.762 42.61 372.759 C41.611 372.759 40.613 372.759 39.584 372.759 C38.585 372.759 37.585 372.759 36.555 372.759 C20.349 372.757 4.142 372.786 -12.064 372.828 C-28.704 372.872 -45.344 372.892 -61.983 372.89 C-71.326 372.889 -80.668 372.897 -90.01 372.929 C-97.963 372.956 -105.916 372.963 -113.869 372.943 C-117.926 372.933 -121.983 372.933 -126.041 372.959 C-129.757 372.982 -133.471 372.978 -137.187 372.952 C-139.166 372.945 -141.144 372.968 -143.123 372.992 C-149.693 372.915 -153.881 372.539 -158.641 367.783 C-160.94 364.631 -161.24 361.165 -161.219 357.34 C-160.437 353.415 -157.705 350.806 -154.793 348.203 C-152.221 346.917 -150.224 346.993 -147.348 346.887 C-146.271 346.845 -145.195 346.803 -144.086 346.76 C-142.958 346.72 -141.83 346.681 -140.668 346.641 C-139.532 346.597 -138.397 346.554 -137.227 346.51 C-134.415 346.403 -131.604 346.301 -128.793 346.203 C-129.216 345.756 -129.639 345.309 -130.075 344.848 C-135.653 338.704 -135.653 338.704 -135.668 334.203 C-135.146 329.074 -133.459 326.858 -129.523 323.646 C-123.802 320.623 -117.231 321.236 -110.918 321.301 C-109.382 321.291 -107.847 321.279 -106.311 321.264 C-102.293 321.231 -98.276 321.241 -94.258 321.259 C-90.148 321.27 -86.039 321.242 -81.93 321.217 C-73.884 321.174 -65.839 321.174 -57.793 321.203 C-58.591 320.592 -59.389 319.981 -60.211 319.352 C-63.857 316.318 -64.578 313.886 -65.168 309.266 C-64.684 305.311 -63.265 303.294 -60.793 300.203 C-43.974 287.589 -18.817 297.203 2.207 297.203 C2.207 207.113 2.207 117.023 2.207 24.203 C-42.812 29.831 -83.323 40.477 -119.793 68.203 C-120.8 68.951 -121.806 69.698 -122.844 70.469 C-129.505 75.556 -129.505 75.556 -130.561 77.927 C-130.902 81.273 -129.691 83.371 -128.293 86.41 C-128.02 87.013 -127.746 87.615 -127.465 88.236 C-126.585 90.168 -125.689 92.091 -124.793 94.016 C-124.22 95.267 -123.649 96.519 -123.078 97.771 C-121.334 101.59 -119.566 105.398 -117.793 109.203 C-117.649 109.513 -117.649 109.513 -116.92 111.081 C-113.678 118.05 -110.416 125.01 -107.145 131.965 C-95.511 156.698 -95.511 156.698 -90.077 168.885 C-87.022 175.728 -83.88 182.529 -80.73 189.328 C-73.488 204.999 -73.488 204.999 -70.043 212.641 C-69.708 213.374 -69.372 214.107 -69.027 214.862 C-67.705 217.818 -66.793 219.926 -66.793 223.203 C-66.461 223.174 -66.461 223.174 -64.781 223.027 C-60.219 222.794 -57.597 222.688 -53.668 225.203 C-51.275 229.032 -50.815 231.801 -51.793 236.203 C-53.917 239.646 -54.941 240.919 -58.793 242.203 C-61.026 242.308 -63.262 242.351 -65.498 242.364 C-66.183 242.369 -66.868 242.374 -67.574 242.379 C-69.875 242.395 -72.175 242.403 -74.476 242.412 C-76.124 242.421 -77.771 242.431 -79.419 242.442 C-84.832 242.473 -90.246 242.493 -95.66 242.512 C-96.581 242.515 -97.502 242.518 -98.45 242.522 C-107.131 242.552 -115.813 242.579 -124.494 242.596 C-135.603 242.618 -146.711 242.66 -157.82 242.73 C-165.629 242.777 -173.438 242.801 -181.247 242.808 C-185.913 242.813 -190.578 242.828 -195.243 242.868 C-199.631 242.905 -204.019 242.913 -208.407 242.9 C-210.017 242.9 -211.628 242.91 -213.238 242.932 C-215.438 242.959 -217.634 242.95 -219.834 242.931 C-220.449 242.933 -220.449 242.933 -223.562 242.944 C-228.13 241.896 -229.184 240.029 -231.793 236.203 C-232.75 233.091 -232.327 231.57 -231.793 228.203 C-229.855 225.203 -229.855 225.203 -226.793 223.203 C-223.744 222.81 -220.848 222.904 -217.793 223.203 C-217.703 222.538 -217.613 221.873 -217.52 221.188 C-216.583 217.342 -214.907 213.984 -213.168 210.453 C-208.931 201.679 -204.871 192.83 -200.855 183.953 C-195.222 171.511 -189.527 159.099 -183.793 146.703 C-177.389 132.858 -171.034 118.991 -164.738 105.096 C-164.452 104.465 -164.166 103.834 -163.871 103.184 C-163.047 101.365 -162.228 99.543 -161.408 97.722 C-160.304 95.315 -159.18 92.939 -158.006 90.567 C-157.446 89.419 -156.886 88.27 -156.309 87.086 C-155.801 86.072 -155.293 85.057 -154.771 84.012 C-153.669 80.848 -153.854 79.367 -154.793 76.203 C-155.452 71.661 -155.994 67.262 -153.605 63.168 C-151.481 60.935 -149.226 59.1 -146.793 57.203 C-145.577 56.216 -144.361 55.229 -143.145 54.242 C-122.584 37.842 -99.517 24.25 -74.793 15.203 C-73.741 14.788 -72.689 14.373 -71.605 13.945 C-49.13 5.355 -24.078 0.127 0 0 Z " fill="#035C9B" transform="translate(237.79296875,45.796875)"/>
<path d="M0 0 C1.98 0 3.96 0 6 0 C6 0.33 6 0.66 6 1 C4.35 1 2.7 1 1 1 C1 90.76 1 180.52 1 273 C19.81 273 38.62 273 58 273 C65.5 278 65.5 278 67 281 C67.553 285.901 67.533 288.008 65.188 292.375 C63 295 63 295 60 297 C60.836 297.004 61.673 297.007 62.534 297.011 C70.435 297.049 78.335 297.106 86.236 297.184 C90.297 297.223 94.358 297.256 98.419 297.271 C102.342 297.286 106.265 297.321 110.187 297.368 C111.68 297.383 113.174 297.391 114.667 297.392 C129.334 297.409 129.334 297.409 135 302 C137.833 306.25 137.526 310.011 137 315 C135.387 318.686 134.37 319.754 131 322 C131.436 322.005 131.436 322.005 133.643 322.028 C136.907 322.073 140.169 322.134 143.433 322.208 C144.84 322.236 146.247 322.257 147.655 322.271 C162.48 322.429 162.48 322.429 168 327 C170.821 330.924 170.524 335.353 170 340 C168.608 343.557 167.55 344.677 164.256 346.609 C160.87 348.055 158.686 348.378 155.034 348.386 C153.856 348.396 152.678 348.405 151.464 348.415 C150.179 348.411 148.894 348.406 147.57 348.401 C146.184 348.407 144.797 348.414 143.411 348.422 C139.607 348.44 135.804 348.44 132 348.436 C127.895 348.436 123.791 348.452 119.687 348.466 C111.648 348.491 103.609 348.499 95.571 348.501 C89.037 348.503 82.504 348.509 75.97 348.518 C57.448 348.545 38.925 348.559 20.403 348.556 C19.404 348.556 18.406 348.556 17.377 348.556 C16.378 348.556 15.378 348.556 14.348 348.556 C-1.859 348.554 -18.065 348.583 -34.271 348.625 C-50.911 348.668 -67.551 348.689 -84.19 348.687 C-93.533 348.686 -102.875 348.694 -112.217 348.726 C-120.17 348.753 -128.123 348.76 -136.076 348.74 C-140.133 348.73 -144.19 348.73 -148.248 348.756 C-151.964 348.779 -155.678 348.775 -159.394 348.749 C-161.373 348.742 -163.351 348.765 -165.33 348.788 C-171.9 348.712 -176.088 348.336 -180.848 343.579 C-183.147 340.428 -183.447 336.962 -183.426 333.137 C-182.644 329.212 -179.912 326.603 -177 324 C-174.428 322.714 -172.431 322.79 -169.555 322.684 C-168.478 322.642 -167.402 322.6 -166.293 322.557 C-165.165 322.517 -164.037 322.478 -162.875 322.438 C-161.739 322.394 -160.604 322.351 -159.434 322.307 C-156.623 322.2 -153.811 322.098 -151 322 C-151.423 321.553 -151.846 321.105 -152.282 320.645 C-157.86 314.501 -157.86 314.501 -157.875 310 C-157.353 304.871 -155.666 302.654 -151.73 299.443 C-146.009 296.42 -139.438 297.033 -133.125 297.098 C-131.589 297.088 -130.054 297.076 -128.518 297.06 C-124.5 297.028 -120.483 297.038 -116.465 297.056 C-112.355 297.067 -108.246 297.039 -104.137 297.014 C-96.091 296.971 -88.046 296.971 -80 297 C-80.798 296.389 -81.596 295.778 -82.418 295.148 C-86.064 292.115 -86.785 289.683 -87.375 285.062 C-86.891 281.108 -85.472 279.09 -83 276 C-60.852 259.389 -27.685 273 0 273 C0 182.91 0 92.82 0 0 Z " fill="#01B0EA" transform="translate(260,70)"/>
<path d="M0 0 C6.782 14.529 13.51 29.081 20.125 43.688 C25.83 56.281 31.615 68.836 37.438 81.375 C43.331 94.074 49.223 106.774 55.062 119.499 C55.765 121.028 56.469 122.558 57.174 124.086 C58.143 126.188 59.107 128.291 60.07 130.395 C60.614 131.579 61.159 132.763 61.719 133.984 C63 137 63 137 64 141 C18.46 141 -27.08 141 -74 141 C-73.152 136.758 -72.19 133.928 -70.375 130.09 C-69.838 128.945 -69.301 127.801 -68.748 126.622 C-68.463 126.021 -68.178 125.42 -67.884 124.801 C-66.383 121.637 -64.9 118.464 -63.414 115.293 C-63.118 114.662 -62.821 114.031 -62.516 113.381 C-60.082 108.194 -57.711 102.982 -55.375 97.75 C-49.18 83.905 -42.873 70.11 -36.438 56.375 C-33.133 49.322 -29.918 42.23 -26.702 35.137 C-23.689 28.498 -20.646 21.876 -17.512 15.293 C-16.512 13.116 -15.575 10.909 -14.707 8.676 C-13.625 5.94 -12.624 3.453 -11 1 C-7.035 -0.322 -4.161 0 0 0 Z " fill="none" transform="translate(101,128)"/>
<path d="M0 0 C3.627 -0.373 6.544 -0.211 10 1 C11.589 3.202 11.589 3.202 12.895 6.109 C13.145 6.654 13.145 6.654 14.415 9.411 C14.677 10.003 14.677 10.003 16 13 C16.844 14.832 17.688 16.665 18.533 18.497 C19.741 21.127 20.93 23.766 22.119 26.405 C23.762 30.054 25.414 33.699 27.066 37.344 C27.4 38.079 27.733 38.815 28.076 39.573 C31.175 46.402 34.33 53.204 37.5 60 C42.893 71.569 48.191 83.179 53.456 94.806 C56.455 101.427 59.472 108.039 62.547 114.625 C63.099 115.81 63.651 116.995 64.22 118.216 C65.249 120.419 66.282 122.62 67.321 124.819 C67.778 125.799 68.236 126.779 68.707 127.789 C68.905 128.21 68.905 128.21 69.909 130.342 C71.193 133.469 72.071 136.75 73 140 C27.79 140 -17.42 140 -64 140 C-62.189 134.566 -60.611 129.849 -58.207 124.789 C-57.667 123.645 -57.128 122.5 -56.572 121.321 C-56.286 120.721 -56 120.121 -55.706 119.502 C-54.135 116.202 -52.582 112.893 -51.027 109.586 C-50.7 108.891 -50.373 108.195 -50.035 107.479 C-46.251 99.432 -42.563 91.342 -38.875 83.25 C-37.519 80.276 -36.162 77.302 -34.805 74.328 C-34.477 73.611 -34.15 72.893 -33.813 72.154 C-30.432 64.748 -27.018 57.358 -23.597 49.971 C-20.646 43.588 -17.719 37.194 -14.809 30.793 C-14.078 29.187 -13.346 27.581 -12.615 25.975 C-11.188 22.838 -9.764 19.7 -8.342 16.561 C-7.685 15.117 -7.028 13.674 -6.371 12.23 C-6.223 11.902 -6.223 11.902 -5.473 10.239 C-3.849 6.681 -2.084 3.31 0 0 Z " fill="none" transform="translate(400,128)"/>
<path d="M0 0 C1.17 -0.004 2.34 -0.009 3.546 -0.014 C4.842 -0.013 6.139 -0.013 7.475 -0.013 C8.858 -0.016 10.241 -0.02 11.623 -0.024 C15.436 -0.034 19.249 -0.038 23.062 -0.04 C27.169 -0.044 31.276 -0.054 35.383 -0.063 C45.309 -0.082 55.235 -0.093 65.161 -0.101 C69.833 -0.106 74.505 -0.111 79.176 -0.116 C94.702 -0.133 110.228 -0.148 125.754 -0.155 C129.785 -0.157 133.816 -0.159 137.847 -0.161 C138.348 -0.161 138.348 -0.161 140.883 -0.162 C157.116 -0.171 173.348 -0.196 189.581 -0.229 C206.238 -0.262 222.896 -0.28 239.554 -0.283 C248.91 -0.285 258.265 -0.294 267.621 -0.319 C275.589 -0.341 283.556 -0.349 291.524 -0.339 C295.589 -0.335 299.655 -0.337 303.72 -0.356 C307.443 -0.374 311.166 -0.373 314.889 -0.357 C316.872 -0.354 318.855 -0.37 320.838 -0.387 C327.6 -0.338 332.078 -0.028 337.526 4.134 C340.347 8.059 340.05 12.487 339.526 17.134 C338.134 20.691 337.076 21.812 333.782 23.743 C330.396 25.19 328.212 25.513 324.56 25.52 C323.382 25.53 322.204 25.539 320.99 25.549 C319.705 25.545 318.42 25.54 317.096 25.535 C315.71 25.541 314.323 25.548 312.937 25.556 C309.133 25.574 305.33 25.574 301.526 25.57 C297.421 25.57 293.317 25.586 289.213 25.601 C281.174 25.625 273.135 25.634 265.097 25.635 C258.563 25.637 252.03 25.643 245.496 25.652 C226.974 25.679 208.451 25.693 189.929 25.69 C188.93 25.69 187.932 25.69 186.903 25.69 C185.904 25.69 184.904 25.69 183.874 25.69 C167.668 25.689 151.461 25.717 135.255 25.76 C118.615 25.803 101.975 25.823 85.336 25.821 C75.993 25.82 66.651 25.828 57.309 25.86 C49.356 25.888 41.403 25.894 33.45 25.874 C29.393 25.864 25.336 25.864 21.278 25.89 C17.562 25.913 13.848 25.909 10.132 25.883 C8.153 25.876 6.175 25.899 4.196 25.923 C-2.374 25.846 -6.562 25.47 -11.322 20.714 C-13.621 17.562 -13.921 14.096 -13.9 10.271 C-13.118 6.346 -10.386 3.737 -7.474 1.134 C-4.856 -0.175 -2.933 0.005 0 0 Z " fill="#015B9A" transform="translate(90.47397899627686,392.86577892303467)"/>
<path d="M0 0 C1.65 0.99 3.3 1.98 5 3 C3.476 7.941 1.472 12.515 -0.719 17.184 C-0.904 17.581 -0.904 17.581 -1.84 19.595 C-3.057 22.21 -4.279 24.824 -5.5 27.438 C-6.354 29.271 -7.207 31.105 -8.061 32.939 C-9.381 35.779 -10.703 38.618 -12.025 41.457 C-16.539 51.149 -21.022 60.854 -25.5 70.562 C-25.877 71.38 -26.254 72.197 -26.642 73.038 C-32.349 85.406 -38.037 97.781 -43.703 110.167 C-45.134 113.292 -46.569 116.416 -48.004 119.539 C-48.505 120.63 -49.006 121.72 -49.522 122.844 C-50.476 124.922 -51.431 126.999 -52.386 129.076 C-52.816 130.011 -53.245 130.947 -53.688 131.91 C-54.063 132.726 -54.438 133.542 -54.824 134.383 C-56.256 137.571 -57.623 140.788 -59 144 C-13.79 144 31.42 144 78 144 C74.37 136.08 70.74 128.16 67 120 C64.673 114.907 62.345 109.815 60.02 104.721 C55.034 93.804 50.037 82.893 45 72 C38.525 57.994 32.096 43.968 25.703 29.925 C23.871 25.902 22.025 21.886 20.168 17.875 C19.424 16.25 18.681 14.625 17.938 13 C17.609 12.301 17.281 11.603 16.942 10.883 C14.886 6.342 14.886 6.342 16 3 C18.062 1.812 18.062 1.812 20 1 C26.65 14.68 33.064 28.454 39.336 42.31 C43.759 52.084 48.221 61.837 52.75 71.562 C58.014 82.87 63.241 94.194 68.419 105.542 C69.932 108.852 71.45 112.161 72.968 115.469 C74.365 118.515 75.759 121.563 77.152 124.611 C77.84 126.115 78.529 127.618 79.219 129.12 C80.185 131.221 81.146 133.325 82.105 135.43 C82.399 136.065 82.692 136.7 82.994 137.355 C85 141.772 85 141.772 85 144 C86.196 143.918 87.393 143.835 88.625 143.75 C93.083 143.734 95.544 145.134 99 148 C100.532 151.064 100.229 153.617 100 157 C98.769 159.769 97.846 161.438 95.314 163.12 C92.202 164.304 89.55 164.261 86.219 164.274 C85.538 164.279 84.857 164.285 84.155 164.29 C81.874 164.305 79.593 164.306 77.311 164.306 C75.675 164.314 74.039 164.322 72.403 164.332 C67.958 164.354 63.514 164.362 59.07 164.367 C56.293 164.371 53.516 164.377 50.74 164.384 C41.052 164.409 31.365 164.422 21.678 164.426 C12.648 164.429 3.619 164.459 -5.411 164.501 C-13.164 164.536 -20.917 164.551 -28.67 164.552 C-33.3 164.553 -37.93 164.561 -42.56 164.59 C-46.915 164.616 -51.27 164.618 -55.625 164.602 C-57.223 164.6 -58.82 164.607 -60.417 164.623 C-62.6 164.643 -64.782 164.633 -66.965 164.615 C-68.186 164.617 -69.407 164.619 -70.665 164.621 C-75.131 163.79 -76.787 162.168 -80 159 C-81.451 156.097 -81.372 154.227 -81 151 C-79.187 148.071 -77.127 145.564 -74 144 C-71.328 143.866 -68.677 143.957 -66 144 C-65.743 143.172 -65.486 142.343 -65.22 141.49 C-63.857 137.59 -62.214 133.907 -60.473 130.164 C-60.128 129.417 -59.784 128.669 -59.429 127.899 C-58.309 125.473 -57.186 123.049 -56.062 120.625 C-55.282 118.935 -54.503 117.246 -53.723 115.556 C-52.181 112.212 -50.637 108.869 -49.091 105.526 C-46.509 99.939 -43.939 94.346 -41.375 88.75 C-40.954 87.832 -40.533 86.914 -40.099 85.968 C-37.539 80.38 -34.993 74.785 -32.453 69.188 C-9.091 17.687 -9.091 17.687 0 0 Z " fill="#2F7213" transform="translate(395,124)"/>
<path d="M0 0 C1.985 2.977 3.344 5.842 4.793 9.109 C5.062 9.713 5.331 10.317 5.608 10.939 C6.471 12.875 7.329 14.812 8.188 16.75 C12.685 26.885 17.279 36.967 22 47 C22.604 48.285 23.208 49.571 23.812 50.856 C24.73 52.809 25.648 54.761 26.567 56.714 C32.032 68.334 37.487 79.954 42.716 91.682 C45.771 98.525 48.913 105.325 52.062 112.125 C59.305 127.796 59.305 127.796 62.75 135.438 C63.085 136.17 63.42 136.903 63.766 137.659 C65.088 140.615 66 142.723 66 146 C66.332 145.971 66.332 145.971 68.012 145.824 C72.574 145.591 75.196 145.485 79.125 148 C81.518 151.829 81.978 154.598 81 159 C78.876 162.443 77.851 163.716 74 165 C71.767 165.105 69.531 165.148 67.295 165.161 C66.61 165.166 65.925 165.171 65.219 165.176 C62.918 165.192 60.618 165.2 58.317 165.209 C56.669 165.218 55.022 165.228 53.374 165.238 C47.961 165.27 42.547 165.29 37.133 165.309 C36.212 165.312 35.291 165.315 34.343 165.319 C25.662 165.349 16.98 165.376 8.299 165.393 C-2.81 165.415 -13.918 165.457 -25.027 165.526 C-32.836 165.574 -40.645 165.598 -48.454 165.605 C-53.12 165.61 -57.785 165.625 -62.45 165.665 C-66.838 165.702 -71.226 165.71 -75.614 165.697 C-77.224 165.697 -78.835 165.707 -80.445 165.729 C-82.645 165.756 -84.841 165.747 -87.041 165.728 C-87.656 165.73 -87.656 165.73 -90.769 165.741 C-95.337 164.693 -96.391 162.826 -99 159 C-99.957 155.887 -99.534 154.367 -99 151 C-97.063 148 -97.063 148 -94 146 C-90.951 145.607 -88.055 145.701 -85 146 C-84.91 145.335 -84.82 144.67 -84.727 143.984 C-83.79 140.139 -82.114 136.781 -80.375 133.25 C-76.138 124.475 -72.078 115.627 -68.062 106.75 C-62.429 94.308 -56.734 81.896 -51 69.5 C-44.623 55.714 -38.295 41.907 -32.033 28.068 C-28.085 19.349 -24.065 10.666 -20 2 C-18.02 2.99 -16.04 3.98 -14 5 C-14.252 5.559 -14.503 6.117 -14.763 6.693 C-15.925 9.274 -17.088 11.856 -18.25 14.438 C-18.646 15.316 -19.041 16.194 -19.449 17.1 C-21.275 21.156 -23.096 25.215 -24.891 29.285 C-27.952 36.185 -31.174 43.012 -34.364 49.853 C-37.276 56.101 -40.172 62.353 -42.954 68.662 C-45.301 73.908 -47.758 79.104 -50.188 84.312 C-59.708 104.766 -68.836 125.382 -78 146 C-32.46 146 13.08 146 60 146 C58.185 142.205 58.185 142.205 49 123 C46.897 118.431 44.797 113.865 42.733 109.28 C41.169 105.806 39.595 102.337 38.023 98.867 C37.697 98.145 37.37 97.423 37.033 96.68 C33.576 89.051 30.076 81.442 26.574 73.834 C20.971 61.661 15.381 49.483 9.83 37.287 C9.209 35.922 8.588 34.557 7.966 33.192 C3.55 23.502 -0.754 13.766 -5 4 C-3.35 2.68 -1.7 1.36 0 0 Z " fill="#2A6F0D" transform="translate(105,123)"/>
<path d="M0 0 C0.789 0.447 1.578 0.895 2.391 1.355 C11.475 6.965 17.206 14.655 20.605 24.809 C22.891 37.503 20.991 47.263 14 58 C13.747 58.396 13.747 58.396 12.469 60.398 C7.379 67.176 -2.618 72.681 -11 74 C-29.19 75.143 -29.19 75.143 -37 70 C-37.682 69.564 -38.364 69.129 -39.066 68.68 C-47.955 62.506 -54.402 54.643 -57 44 C-58.138 34.525 -58.572 24.15 -53 16 C-52.564 15.321 -52.129 14.641 -51.68 13.941 C-40.15 -2.724 -18.488 -10.588 0 0 Z " fill="none" transform="translate(114,189)"/>
<path d="M0 0 C1.98 0 3.96 0 6 0 C6 0.33 6 0.66 6 1 C4.35 1 2.7 1 1 1 C1 90.76 1 180.52 1 273 C19.81 273 38.62 273 58 273 C65.5 278 65.5 278 67 281 C67.542 285.8 67.511 287.997 65.312 292.312 C62.359 295.745 59.834 297.744 55.278 298.38 C54.782 298.382 54.782 298.382 52.276 298.388 C51.705 298.393 51.705 298.393 48.814 298.418 C47.57 298.413 46.325 298.409 45.043 298.404 C44.384 298.407 44.384 298.407 41.051 298.425 C37.443 298.443 33.836 298.442 30.228 298.436 C27.214 298.433 24.199 298.439 21.185 298.445 C14.072 298.459 6.96 298.457 -0.153 298.446 C-7.485 298.435 -14.816 298.449 -22.148 298.475 C-28.449 298.498 -34.749 298.504 -41.05 298.498 C-44.811 298.495 -48.571 298.497 -52.332 298.515 C-56.526 298.533 -60.72 298.519 -64.914 298.502 C-66.156 298.511 -67.398 298.521 -68.678 298.531 C-75.036 298.476 -79.249 298.439 -84 294 C-86.642 289.949 -87.702 286.816 -87 282 C-84.706 277.821 -82.873 275.905 -79 273 C-52.93 273 -26.86 273 0 273 C0 182.91 0 92.82 0 0 Z " fill="#5EC5F0" transform="translate(260,70)"/>
<path d="M0 0 C6.637 4.866 10.43 10.866 12 19 C13.493 31.265 6.817 40.177 0.145 49.777 C-2 53 -2 53 -3 56 C-13.23 56 -23.46 56 -34 56 C-35.65 52.7 -37.3 49.4 -39 46 C-42.125 41.812 -42.125 41.812 -43.641 39.836 C-49.032 32.555 -48.97 24.823 -48 16 C-45.707 8.305 -40.757 1.922 -33.914 -2.281 C-22.074 -8.443 -11.182 -7.076 0 0 Z " fill="none" transform="translate(423,181)"/>
<path d="M0 0 C0.789 0.447 1.578 0.895 2.391 1.355 C11.475 6.965 17.206 14.655 20.605 24.809 C22.891 37.503 20.991 47.263 14 58 C13.747 58.396 13.747 58.396 12.469 60.398 C7.379 67.176 -2.618 72.681 -11 74 C-29.19 75.143 -29.19 75.143 -37 70 C-37.682 69.564 -38.364 69.129 -39.066 68.68 C-47.955 62.506 -54.402 54.643 -57 44 C-58.138 34.525 -58.572 24.15 -53 16 C-52.564 15.321 -52.129 14.641 -51.68 13.941 C-40.15 -2.724 -18.488 -10.588 0 0 Z M-46 14 C-52.008 21.242 -53.688 29.743 -53 39 C-50.946 49.083 -46.048 57.583 -38 64 C-28.832 69.741 -18.367 70.517 -7.852 68.352 C1.123 65.41 8.516 59.373 13 51 C17.007 41.872 17.491 31.755 14.5 22.25 C10.017 11.557 2.466 6.341 -8 2 C-22.964 -2.988 -35.787 3.264 -46 14 Z " fill="#12B6EC" transform="translate(114,189)"/>
<path d="M0 0 C1.985 2.977 3.344 5.842 4.793 9.109 C5.062 9.713 5.331 10.317 5.608 10.939 C6.471 12.875 7.329 14.812 8.188 16.75 C12.685 26.885 17.279 36.967 22 47 C22.604 48.285 23.208 49.571 23.812 50.856 C24.73 52.809 25.648 54.761 26.567 56.714 C32.032 68.334 37.487 79.954 42.716 91.682 C45.771 98.525 48.913 105.325 52.062 112.125 C59.305 127.796 59.305 127.796 62.75 135.438 C63.085 136.17 63.42 136.903 63.766 137.659 C65.088 140.615 66 142.723 66 146 C64.02 146 62.04 146 60 146 C53.107 131.819 46.474 117.535 39.972 103.172 C39.323 101.737 38.673 100.302 38.023 98.867 C37.697 98.146 37.37 97.425 37.034 96.682 C33.577 89.053 30.077 81.443 26.574 73.834 C20.971 61.661 15.381 49.483 9.83 37.287 C9.209 35.922 8.588 34.557 7.966 33.192 C3.55 23.502 -0.754 13.766 -5 4 C-3.35 2.68 -1.7 1.36 0 0 Z " fill="#5ADC22" transform="translate(105,123)"/>
<path d="M0 0 C1.65 0.99 3.3 1.98 5 3 C3.476 7.941 1.472 12.515 -0.719 17.184 C-0.904 17.581 -0.904 17.581 -1.84 19.595 C-3.057 22.21 -4.279 24.824 -5.5 27.438 C-6.354 29.271 -7.207 31.105 -8.061 32.939 C-9.381 35.779 -10.703 38.618 -12.025 41.457 C-16.539 51.149 -21.022 60.854 -25.5 70.562 C-25.877 71.38 -26.254 72.197 -26.642 73.038 C-32.349 85.406 -38.037 97.781 -43.703 110.167 C-45.134 113.292 -46.569 116.416 -48.004 119.539 C-48.505 120.63 -49.006 121.72 -49.522 122.844 C-50.476 124.922 -51.431 126.999 -52.386 129.076 C-54.658 134.024 -56.885 138.983 -59 144 C-61.31 144 -63.62 144 -66 144 C-64.507 139.191 -62.591 134.718 -60.473 130.164 C-60.128 129.417 -59.784 128.669 -59.429 127.899 C-58.309 125.473 -57.186 123.049 -56.062 120.625 C-55.282 118.935 -54.503 117.246 -53.723 115.556 C-52.181 112.212 -50.637 108.869 -49.091 105.526 C-46.509 99.939 -43.939 94.346 -41.375 88.75 C-40.954 87.832 -40.533 86.914 -40.099 85.968 C-37.539 80.38 -34.993 74.785 -32.453 69.188 C-9.091 17.687 -9.091 17.687 0 0 Z " fill="#5ADC21" transform="translate(395,124)"/>
<path d="M0 0 C1.98 0.99 3.96 1.98 6 3 C5.748 3.559 5.497 4.117 5.237 4.693 C4.075 7.274 2.912 9.856 1.75 12.438 C1.354 13.316 0.959 14.194 0.551 15.1 C-1.275 19.156 -3.096 23.215 -4.891 27.285 C-7.952 34.185 -11.174 41.012 -14.364 47.853 C-17.276 54.101 -20.172 60.353 -22.954 66.662 C-25.301 71.908 -27.758 77.104 -30.188 82.312 C-35.551 93.834 -40.832 105.389 -46 117 C-46.51 118.146 -47.021 119.293 -47.547 120.474 C-51.037 128.314 -54.52 136.156 -58 144 C-60.31 144 -62.62 144 -65 144 C-64.366 139.323 -62.436 135.434 -60.375 131.25 C-56.138 122.475 -52.078 113.627 -48.062 104.75 C-42.429 92.308 -36.734 79.896 -31 67.5 C-24.623 53.714 -18.295 39.907 -12.033 26.068 C-8.085 17.349 -4.065 8.666 0 0 Z " fill="#5ADC21" transform="translate(85,125)"/>
<path d="M0 0 C2.958 3.551 4.817 7.527 6.75 11.688 C6.94 12.092 6.94 12.092 7.901 14.141 C12.414 23.803 16.798 33.525 21.199 43.239 C25.338 52.368 29.519 61.476 33.75 70.562 C39.014 81.87 44.241 93.194 49.419 104.542 C50.932 107.852 52.45 111.161 53.968 114.469 C55.365 117.515 56.759 120.563 58.152 123.611 C58.84 125.115 59.529 126.618 60.219 128.12 C61.185 130.221 62.146 132.325 63.105 134.43 C63.252 134.747 63.252 134.747 63.994 136.355 C66 140.772 66 140.772 66 143 C63.69 143 61.38 143 59 143 C54.036 132.179 49.075 121.357 44.129 110.527 C32.06 84.103 32.06 84.103 26 71 C19.525 56.994 13.096 42.968 6.703 28.925 C4.871 24.902 3.025 20.886 1.168 16.875 C0.424 15.25 -0.319 13.625 -1.062 12 C-1.227 11.651 -1.227 11.651 -2.058 9.883 C-4.114 5.342 -4.114 5.342 -3 2 C-2.01 1.34 -1.02 0.68 0 0 Z " fill="#59DC21" transform="translate(414,125)"/>
<path d="M0 0 C6.637 4.866 10.43 10.866 12 19 C13.493 31.265 6.817 40.177 0.145 49.777 C-2 53 -2 53 -3 56 C-13.23 56 -23.46 56 -34 56 C-35.65 52.7 -37.3 49.4 -39 46 C-42.125 41.812 -42.125 41.812 -43.641 39.836 C-49.032 32.555 -48.97 24.823 -48 16 C-45.707 8.305 -40.757 1.922 -33.914 -2.281 C-22.074 -8.443 -11.182 -7.076 0 0 Z M-38.457 6.988 C-42.806 12.659 -44.74 18.395 -44.367 25.551 C-43.713 29.914 -42.118 33.16 -40 37 C-39.451 38.299 -38.901 39.599 -38.352 40.898 C-36.245 45.325 -34.122 49.188 -30 52 C-22.391 54.437 -13.621 54.395 -6 52 C-1.916 48.49 -0.725 44.982 1 40 C2.333 38.333 3.667 36.667 5 35 C7.888 28.075 8.537 20.273 5.973 13.145 C2.416 6.633 -2.766 1.77 -9.883 -0.637 C-20.939 -2.534 -30.721 -1.456 -38.457 6.988 Z " fill="#15B7EC" transform="translate(423,181)"/>
<path d="M0 0 C3.494 1.668 4.827 2.74 7 6 C7.227 8.727 7.227 8.727 7.195 11.98 C7.189 13.144 7.182 14.307 7.176 15.506 C7.159 16.721 7.142 17.936 7.125 19.188 C7.116 20.414 7.107 21.641 7.098 22.904 C7.074 25.936 7.038 28.968 7 32 C0.4 32 -6.2 32 -13 32 C-13.135 27.957 -13.234 23.919 -13.312 19.875 C-13.354 18.733 -13.396 17.591 -13.439 16.414 C-13.578 6.91 -13.578 6.91 -10.605 3.258 C-6.862 0.013 -4.935 -0.387 0 0 Z " fill="#A0D9F6" transform="translate(253,14)"/>
<path d="M0 0 C3.438 1.688 3.438 1.688 6 4 C6.875 6.75 6.875 6.75 7 9 C2.25 8.25 2.25 8.25 0 6 C-3.008 5.655 -5.094 5.442 -8 6 C-11.037 8.443 -12.844 10.766 -15 14 C-10.71 14 -6.42 14 -2 14 C-1.67 15.65 -1.34 17.3 -1 19 C-6.28 19 -11.56 19 -17 19 C-17 21.64 -17 24.28 -17 27 C-13.04 27 -9.08 27 -5 27 C-5.33 28.65 -5.66 30.3 -6 32 C-8.97 32 -11.94 32 -15 32 C-11.375 37.75 -11.375 37.75 -8 40 C-3.046 40.45 -0.789 40.135 3 37 C4.32 37 5.64 37 7 37 C6.666 40.093 6.44 41.589 4.125 43.75 C-0.053 46.208 -4.253 46.759 -9 46 C-14.628 43.47 -17.429 39.45 -20 34 C-20 33.34 -20 32.68 -20 32 C-21.65 32 -23.3 32 -25 32 C-25.33 30.35 -25.66 28.7 -26 27 C-24.68 27 -23.36 27 -22 27 C-22 24.36 -22 21.72 -22 19 C-23.32 19 -24.64 19 -26 19 C-25.67 17.35 -25.34 15.7 -25 14 C-23.35 14 -21.7 14 -20 14 C-19.938 13.299 -19.876 12.597 -19.812 11.875 C-18.395 6.859 -15.396 3.931 -11.188 1.125 C-7.277 -0.255 -4.096 -0.733 0 0 Z " fill="#13B6EC" transform="translate(103,201)"/>
<path d="M0 0 C9.9 0 19.8 0 30 0 C30 8 30 8 28.856 9.977 C26.259 11.408 24.267 11.372 21.309 11.363 C20.199 11.363 19.09 11.362 17.947 11.361 C17.368 11.353 17.368 11.353 14.438 11.312 C13.275 11.316 12.113 11.319 10.916 11.322 C2.267 11.267 2.267 11.267 0 9 C0 6.03 0 3.06 0 0 Z " fill="#31C0EE" transform="translate(390,250)"/>
<path d="M0 0 C0.33 0 0.66 0 1 0 C1 3.96 1 7.92 1 12 C3.64 12 6.28 12 9 12 C5.503 18.671 1.627 25.043 -3 31 C-3.33 31 -3.66 31 -4 31 C-4 27.04 -4 23.08 -4 19 C-6.64 19 -9.28 19 -12 19 C-10.175 15.041 -7.802 11.462 -5.438 7.812 C-5.026 7.171 -4.614 6.53 -4.189 5.869 C-1.135 1.135 -1.135 1.135 0 0 Z " fill="#18B8EC" transform="translate(406,193)"/>
<path d="M0 0 C10.23 0 20.46 0 31 0 C31 1.65 31 3.3 31 5 C20.77 5 10.54 5 0 5 C0 3.35 0 1.7 0 0 Z " fill="#2BBEEE" transform="translate(389,241)"/>
</svg>
