<?xml version="1.0" encoding="UTF-8"?>
<!-- Generator: visioncortex VTracer 0.6.12 -->
<svg version="1.1" xmlns="http://www.w3.org/2000/svg" width="500" height="159">
<path d="M0 0 C0.396 0.002 0.396 0.002 2.402 0.012 C3.216 0.01 4.03 0.008 4.868 0.006 C6.589 0.005 8.311 0.009 10.033 0.017 C12.673 0.028 15.313 0.017 17.953 0.004 C19.624 0.006 21.294 0.008 22.965 0.012 C23.361 0.01 23.361 0.01 25.367 0 C30.954 0.048 30.954 0.048 33.183 2.278 C33.308 4.903 33.308 4.903 33.183 7.278 C33.961 7.267 34.738 7.257 35.538 7.246 C39.045 7.205 42.552 7.179 46.058 7.153 C47.282 7.136 48.505 7.119 49.766 7.102 C50.932 7.096 52.099 7.089 53.301 7.083 C54.379 7.072 55.458 7.062 56.57 7.051 C59.183 7.278 59.183 7.278 61.183 9.278 C61.502 11.892 61.502 11.892 61.598 15.161 C61.636 16.327 61.675 17.494 61.715 18.696 C61.746 19.919 61.777 21.143 61.808 22.403 C61.847 23.634 61.886 24.865 61.926 26.133 C62.02 29.181 62.106 32.229 62.183 35.278 C63.269 35.243 64.354 35.208 65.473 35.172 C66.918 35.144 68.363 35.117 69.808 35.09 C70.521 35.065 71.234 35.04 71.969 35.014 C77.498 34.938 81.635 35.899 85.828 39.813 C89.268 44.311 90.31 46.316 90.281 51.942 C90.278 53.063 90.275 54.185 90.271 55.34 C90.263 56.516 90.255 57.692 90.246 58.903 C90.241 60.086 90.237 61.27 90.232 62.489 C90.22 65.419 90.204 68.348 90.183 71.278 C91.435 71.267 92.686 71.257 93.975 71.246 C98.62 71.21 103.264 71.187 107.908 71.168 C109.918 71.158 111.928 71.144 113.937 71.127 C116.827 71.103 119.716 71.091 122.605 71.083 C123.503 71.072 124.401 71.062 125.327 71.051 C126.167 71.051 127.008 71.051 127.874 71.051 C128.611 71.046 129.348 71.042 130.108 71.037 C132.489 71.313 134.114 72.099 136.183 73.278 C136.843 72.618 137.503 71.958 138.183 71.278 C142.311 70.82 146.471 70.954 150.621 70.965 C151.779 70.949 152.937 70.933 154.131 70.917 C155.24 70.916 156.349 70.915 157.492 70.915 C158.002 70.913 158.002 70.913 160.58 70.906 C163.519 71.326 164.396 71.97 166.183 74.278 C166.56 73.79 166.936 73.302 167.324 72.799 C169.911 70.683 171.623 70.916 174.94 70.937 C176.121 70.938 177.302 70.938 178.519 70.938 C179.794 70.953 181.069 70.969 182.383 70.985 C183.688 70.989 184.993 70.993 186.338 70.998 C189.806 71.009 193.272 71.039 196.74 71.072 C200.279 71.103 203.818 71.116 207.357 71.131 C214.3 71.162 221.241 71.221 228.183 71.278 C228.183 62.698 228.183 54.118 228.183 45.278 C226.08 46.412 223.976 47.547 221.808 48.715 C215.971 51.746 210.859 53.386 204.183 53.278 C208.097 49.958 212.149 47.373 216.621 44.903 C217.264 44.523 217.906 44.142 218.568 43.751 C222.054 41.833 223.712 41.173 227.656 42.051 C228.49 42.456 229.324 42.861 230.183 43.278 C230.183 42.618 230.183 41.958 230.183 41.278 C230.843 41.278 231.503 41.278 232.183 41.278 C232.183 40.288 232.183 39.298 232.183 38.278 C231.523 38.278 230.863 38.278 230.183 38.278 C229.853 39.268 229.523 40.258 229.183 41.278 C228.853 39.958 228.523 38.638 228.183 37.278 C229.833 36.948 231.483 36.618 233.183 36.278 C233.39 36.917 233.596 37.557 233.808 38.215 C234.262 38.896 234.716 39.577 235.183 40.278 C237.172 40.676 239.175 41.002 241.183 41.278 C241.596 41.556 241.596 41.556 243.683 42.965 C246.183 44.278 246.183 44.278 248.801 43.657 C253.806 41.616 258.416 38.921 263.082 36.204 C263.809 35.8 264.536 35.397 265.285 34.981 C265.938 34.606 266.591 34.231 267.264 33.845 C269.183 33.278 269.183 33.278 271.193 34.101 C271.85 34.489 272.507 34.878 273.183 35.278 C275.508 35.975 277.84 36.647 280.183 37.278 C281.312 44.458 281.297 51.521 281.246 58.778 C281.225 62.903 281.205 67.028 281.183 71.278 C292.073 71.278 302.963 71.278 314.183 71.278 C314.183 64.678 314.183 58.078 314.183 51.278 C311.543 52.598 308.903 53.918 306.183 55.278 C302.332 56.788 299.321 57.521 295.183 57.278 C298.385 54.625 301.601 52.379 305.183 50.278 C304.659 49.96 304.135 49.643 303.595 49.316 C301.206 47.868 298.82 46.417 296.433 44.965 C296.021 44.716 296.021 44.716 293.933 43.452 C293.134 42.965 292.335 42.478 291.512 41.977 C290.778 41.532 290.045 41.087 289.29 40.628 C287.173 39.271 285.176 37.812 283.183 36.278 C283.513 34.958 283.843 33.638 284.183 32.278 C289.09 32.762 291.851 34.104 295.746 37.09 C296.655 37.777 297.564 38.465 298.5 39.172 C299.385 39.867 300.271 40.562 301.183 41.278 C302.079 41.962 302.975 42.647 303.898 43.352 C306.183 45.278 306.183 45.278 308.183 48.278 C311.058 48.028 311.058 48.028 314.183 47.278 C315.558 45.215 315.558 45.215 316.183 43.278 C318.121 43.653 318.121 43.653 320.183 44.278 C320.513 44.938 320.843 45.598 321.183 46.278 C322.083 46.558 322.983 46.837 323.91 47.126 C327.613 48.429 329.674 50.078 332.558 52.715 C333.432 53.498 334.306 54.28 335.207 55.086 C337.183 57.278 337.183 57.278 337.183 60.278 C336.696 59.959 336.696 59.959 334.226 58.344 C332.941 57.509 331.656 56.675 330.371 55.84 C329.728 55.42 329.086 54.999 328.424 54.565 C325.7 52.801 323.276 51.309 320.183 50.278 C319.853 57.208 319.523 64.138 319.183 71.278 C320.726 71.275 320.726 71.275 328.531 71.262 C338.697 71.245 348.863 71.234 359.029 71.226 C365.196 71.221 371.362 71.214 377.529 71.202 C383.475 71.192 389.42 71.186 395.366 71.183 C397.64 71.181 399.914 71.178 402.188 71.172 C405.361 71.165 408.534 71.164 411.707 71.164 C412.657 71.161 413.607 71.157 414.586 71.153 C421.069 71.164 421.069 71.164 422.183 72.278 C422.308 74.778 422.308 74.778 422.183 77.278 C421.853 77.608 421.523 77.938 421.183 78.278 C421.677 78.302 421.677 78.302 424.176 78.426 C425.457 78.501 426.738 78.576 428.058 78.653 C429.335 78.723 430.611 78.792 431.926 78.864 C435.183 79.278 435.183 79.278 437.183 81.278 C437.183 82.268 437.183 83.258 437.183 84.278 C437.843 84.278 438.503 84.278 439.183 84.278 C439.183 96.818 439.183 109.358 439.183 122.278 C274.183 122.278 109.183 122.278 -60.817 122.278 C-60.817 85.278 -60.817 85.278 -56.817 79.278 C-53.363 78.473 -53.363 78.473 -49.567 78.403 C-48.303 78.364 -47.04 78.326 -45.738 78.286 C-45.256 78.284 -45.256 78.284 -42.817 78.278 C-42.982 78.113 -42.982 78.113 -43.817 77.278 C-43.942 74.778 -43.942 74.778 -43.817 72.278 C-42.817 71.278 -42.817 71.278 -40.041 71.164 C-38.831 71.17 -37.621 71.175 -36.375 71.18 C-35.07 71.183 -33.765 71.187 -32.42 71.19 C-31.031 71.198 -29.643 71.207 -28.254 71.215 C-26.861 71.22 -25.469 71.225 -24.076 71.229 C-20.656 71.241 -17.236 71.257 -13.817 71.278 C-14.147 70.618 -14.477 69.958 -14.817 69.278 C-15.806 57.221 -15.142 45.586 -11.061 34.164 C-8.773 27.322 -8.346 20.96 -8.254 13.778 C-8.22 11.642 -8.177 9.507 -8.125 7.372 C-8.113 6.44 -8.1 5.509 -8.088 4.549 C-7.493 -0.429 -4.257 0.037 0 0 Z " fill="none" transform="translate(60.8165283203125,36.72210693359375)"/>
<path d="M0 0 C0.396 0.002 0.396 0.002 2.402 0.012 C2.809 0.011 2.809 0.011 4.868 0.006 C6.589 0.005 8.311 0.009 10.033 0.017 C12.673 0.028 15.313 0.017 17.953 0.004 C19.624 0.006 21.294 0.008 22.965 0.012 C23.361 0.01 23.361 0.01 25.367 0 C30.954 0.048 30.954 0.048 33.183 2.278 C33.308 4.903 33.308 4.903 33.183 7.278 C33.961 7.267 34.738 7.257 35.538 7.246 C39.045 7.205 42.552 7.179 46.058 7.153 C47.282 7.136 48.505 7.119 49.766 7.102 C50.932 7.096 52.099 7.089 53.301 7.083 C54.379 7.072 55.458 7.062 56.57 7.051 C59.183 7.278 59.183 7.278 61.183 9.278 C61.502 11.892 61.502 11.892 61.598 15.161 C61.636 16.327 61.675 17.494 61.715 18.696 C61.746 19.919 61.777 21.143 61.808 22.403 C61.847 23.634 61.886 24.865 61.926 26.133 C62.02 29.181 62.106 32.229 62.183 35.278 C63.269 35.243 64.354 35.208 65.473 35.172 C66.918 35.144 68.363 35.117 69.808 35.09 C70.521 35.065 71.234 35.04 71.969 35.014 C77.498 34.938 81.635 35.899 85.828 39.813 C89.268 44.311 90.31 46.316 90.281 51.942 C90.278 53.063 90.275 54.185 90.271 55.34 C90.263 56.516 90.255 57.692 90.246 58.903 C90.241 60.086 90.237 61.27 90.232 62.489 C90.22 65.419 90.204 68.348 90.183 71.278 C91.435 71.267 92.686 71.257 93.975 71.246 C98.62 71.21 103.264 71.187 107.908 71.168 C109.918 71.158 111.928 71.144 113.937 71.127 C116.827 71.103 119.716 71.091 122.605 71.083 C123.503 71.072 124.401 71.062 125.327 71.051 C126.167 71.051 127.008 71.051 127.874 71.051 C128.611 71.046 129.348 71.042 130.108 71.037 C132.489 71.313 134.114 72.099 136.183 73.278 C136.843 72.618 137.503 71.958 138.183 71.278 C142.311 70.82 146.471 70.954 150.621 70.965 C151.779 70.949 152.937 70.933 154.131 70.917 C155.24 70.916 156.349 70.915 157.492 70.915 C158.002 70.913 158.002 70.913 160.58 70.906 C163.519 71.326 164.396 71.97 166.183 74.278 C166.56 73.79 166.936 73.302 167.324 72.799 C169.911 70.683 171.623 70.916 174.94 70.937 C176.121 70.938 177.302 70.938 178.519 70.938 C179.794 70.953 181.069 70.969 182.383 70.985 C183.688 70.989 184.993 70.993 186.338 70.998 C189.806 71.009 193.272 71.039 196.74 71.072 C200.279 71.103 203.818 71.116 207.357 71.131 C214.3 71.162 221.241 71.221 228.183 71.278 C228.183 62.698 228.183 54.118 228.183 45.278 C226.08 46.412 223.976 47.547 221.808 48.715 C215.971 51.746 210.859 53.386 204.183 53.278 C208.097 49.958 212.149 47.373 216.621 44.903 C217.264 44.523 217.906 44.142 218.568 43.751 C222.054 41.833 223.712 41.173 227.656 42.051 C228.49 42.456 229.324 42.861 230.183 43.278 C230.183 42.618 230.183 41.958 230.183 41.278 C230.843 41.278 231.503 41.278 232.183 41.278 C232.183 40.288 232.183 39.298 232.183 38.278 C231.523 38.278 230.863 38.278 230.183 38.278 C229.853 39.268 229.523 40.258 229.183 41.278 C228.853 39.958 228.523 38.638 228.183 37.278 C229.833 36.948 231.483 36.618 233.183 36.278 C233.39 36.917 233.596 37.557 233.808 38.215 C234.262 38.896 234.716 39.577 235.183 40.278 C237.172 40.676 239.175 41.002 241.183 41.278 C241.596 41.556 241.596 41.556 243.683 42.965 C246.183 44.278 246.183 44.278 248.801 43.657 C253.806 41.616 258.416 38.921 263.082 36.204 C263.809 35.8 264.536 35.397 265.285 34.981 C265.938 34.606 266.591 34.231 267.264 33.845 C269.183 33.278 269.183 33.278 271.193 34.101 C271.85 34.489 272.507 34.878 273.183 35.278 C275.508 35.975 277.84 36.647 280.183 37.278 C281.312 44.458 281.297 51.521 281.246 58.778 C281.225 62.903 281.205 67.028 281.183 71.278 C292.073 71.278 302.963 71.278 314.183 71.278 C314.183 64.678 314.183 58.078 314.183 51.278 C311.543 52.598 308.903 53.918 306.183 55.278 C302.332 56.788 299.321 57.521 295.183 57.278 C298.385 54.625 301.601 52.379 305.183 50.278 C304.659 49.96 304.135 49.643 303.595 49.316 C301.206 47.868 298.82 46.417 296.433 44.965 C296.021 44.716 296.021 44.716 293.933 43.452 C293.134 42.965 292.335 42.478 291.512 41.977 C290.778 41.532 290.045 41.087 289.29 40.628 C287.173 39.271 285.176 37.812 283.183 36.278 C283.513 34.958 283.843 33.638 284.183 32.278 C289.09 32.762 291.851 34.104 295.746 37.09 C296.655 37.777 297.564 38.465 298.5 39.172 C299.385 39.867 300.271 40.562 301.183 41.278 C302.079 41.962 302.975 42.647 303.898 43.352 C306.183 45.278 306.183 45.278 308.183 48.278 C311.058 48.028 311.058 48.028 314.183 47.278 C315.558 45.215 315.558 45.215 316.183 43.278 C318.121 43.653 318.121 43.653 320.183 44.278 C320.513 44.938 320.843 45.598 321.183 46.278 C322.083 46.558 322.983 46.837 323.91 47.126 C327.613 48.429 329.674 50.078 332.558 52.715 C333.432 53.498 334.306 54.28 335.207 55.086 C337.183 57.278 337.183 57.278 337.183 60.278 C336.696 59.959 336.696 59.959 334.226 58.344 C332.941 57.509 331.656 56.675 330.371 55.84 C329.728 55.42 329.086 54.999 328.424 54.565 C325.7 52.801 323.276 51.309 320.183 50.278 C319.853 57.208 319.523 64.138 319.183 71.278 C320.726 71.275 320.726 71.275 328.531 71.262 C338.697 71.245 348.863 71.234 359.029 71.226 C365.196 71.221 371.362 71.214 377.529 71.202 C383.475 71.192 389.42 71.186 395.366 71.183 C397.64 71.181 399.914 71.178 402.188 71.172 C405.361 71.165 408.534 71.164 411.707 71.164 C412.657 71.161 413.607 71.157 414.586 71.153 C421.069 71.164 421.069 71.164 422.183 72.278 C422.308 74.778 422.308 74.778 422.183 77.278 C421.853 77.608 421.523 77.938 421.183 78.278 C421.677 78.302 421.677 78.302 424.176 78.426 C425.457 78.501 426.738 78.576 428.058 78.653 C429.335 78.723 430.611 78.792 431.926 78.864 C435.183 79.278 435.183 79.278 437.183 81.278 C436.628 85.833 436.628 85.833 435.183 87.278 C424.491 88.484 413.712 88.413 402.969 88.376 C401.376 88.374 399.783 88.372 398.19 88.371 C394.052 88.367 389.915 88.358 385.777 88.347 C381.533 88.336 377.289 88.332 373.045 88.327 C364.758 88.316 356.471 88.299 348.183 88.278 C348.183 87.948 348.183 87.618 348.183 87.278 C338.118 87.113 338.118 87.113 287.183 86.278 C286.853 84.628 286.523 82.978 286.183 81.278 C286.843 80.618 287.503 79.958 288.183 79.278 C281.563 79.135 274.943 78.993 268.323 78.851 C266.07 78.802 263.818 78.754 261.566 78.705 C258.329 78.635 255.092 78.566 251.855 78.497 C250.848 78.475 249.841 78.453 248.803 78.43 C247.862 78.41 246.921 78.39 245.952 78.37 C245.126 78.352 244.3 78.334 243.449 78.316 C241.361 78.281 239.272 78.278 237.183 78.278 C237.73 78.286 238.277 78.294 238.84 78.302 C244.518 78.388 250.195 78.488 255.872 78.595 C257.993 78.634 260.113 78.668 262.234 78.7 C265.277 78.745 268.32 78.803 271.363 78.864 C272.315 78.875 273.267 78.887 274.248 78.899 C275.129 78.919 276.01 78.939 276.917 78.959 C277.695 78.972 278.472 78.986 279.273 78.999 C281.183 79.278 281.183 79.278 283.183 81.278 C282.808 83.903 282.808 83.903 282.183 86.278 C266.05 86.325 249.917 86.36 233.784 86.382 C226.294 86.392 218.803 86.406 211.313 86.429 C204.786 86.449 198.259 86.462 191.732 86.466 C188.274 86.469 184.817 86.475 181.359 86.489 C177.504 86.505 173.649 86.506 169.793 86.505 C168.641 86.512 167.489 86.519 166.302 86.527 C165.255 86.524 164.209 86.521 163.132 86.518 C162.219 86.52 161.306 86.522 160.366 86.524 C158.183 86.278 158.183 86.278 156.183 84.278 C156.719 80.742 156.719 80.742 158.183 79.278 C154.934 79.11 151.684 78.944 148.433 78.778 C147.513 78.73 146.593 78.683 145.644 78.633 C144.755 78.588 143.866 78.543 142.949 78.497 C142.132 78.455 141.315 78.413 140.474 78.37 C138.378 78.286 136.28 78.278 134.183 78.278 C134.822 78.302 134.822 78.302 138.051 78.426 C139.72 78.501 141.389 78.577 143.058 78.653 C143.9 78.684 144.742 78.715 145.609 78.747 C146.415 78.785 147.221 78.824 148.051 78.864 C148.422 78.88 148.422 78.88 150.304 78.959 C152.183 79.278 152.183 79.278 154.183 81.278 C154.183 82.598 154.183 83.918 154.183 85.278 C150.977 86.881 147.492 86.411 143.971 86.398 C143.111 86.399 142.252 86.4 141.367 86.401 C138.471 86.402 135.575 86.397 132.679 86.391 C130.61 86.391 128.541 86.391 126.471 86.392 C120.839 86.392 115.208 86.386 109.576 86.379 C103.695 86.373 97.815 86.372 91.934 86.371 C80.793 86.368 69.651 86.36 58.509 86.35 C45.827 86.339 33.146 86.333 20.464 86.328 C-5.63 86.318 -31.723 86.3 -57.817 86.278 C-58.442 83.903 -58.442 83.903 -58.817 81.278 C-55.959 78.42 -53.67 78.87 -49.692 78.653 C-49.051 78.616 -49.051 78.616 -45.809 78.426 C-44.821 78.377 -43.834 78.328 -42.817 78.278 C-43.147 77.948 -43.477 77.618 -43.817 77.278 C-43.942 74.778 -43.942 74.778 -43.817 72.278 C-42.817 71.278 -42.817 71.278 -40.041 71.164 C-38.831 71.17 -37.621 71.175 -36.375 71.18 C-35.07 71.183 -33.765 71.187 -32.42 71.19 C-31.031 71.198 -29.643 71.207 -28.254 71.215 C-26.861 71.22 -25.469 71.225 -24.076 71.229 C-20.656 71.241 -17.236 71.257 -13.817 71.278 C-14.147 70.618 -14.477 69.958 -14.817 69.278 C-15.806 57.221 -15.142 45.586 -11.061 34.164 C-8.773 27.322 -8.346 20.96 -8.254 13.778 C-8.22 11.642 -8.177 9.507 -8.125 7.372 C-8.113 6.44 -8.1 5.509 -8.088 4.549 C-7.493 -0.429 -4.257 0.037 0 0 Z " fill="none" transform="translate(60.8165283203125,36.72210693359375)"/>
<path d="M0 0 C5.251 -0.025 10.502 -0.043 15.753 -0.055 C17.541 -0.06 19.329 -0.067 21.116 -0.075 C23.681 -0.088 26.245 -0.093 28.809 -0.098 C29.613 -0.103 30.417 -0.108 31.245 -0.113 C33.164 -0.113 35.082 -0.062 37 0 C38 1 38 1 38 7 C46.91 7 55.82 7 65 7 C65.437 15.937 65.437 15.937 65.568 18.695 C65.846 24.163 66.347 29.564 67 35 C67.99 34.67 68.98 34.34 70 34 C77.321 33.299 83.427 33.113 89.48 37.637 C93.346 41.105 94.835 44.105 95.129 49.274 C95.13 49.679 95.13 49.679 95.133 51.73 C95.134 52.615 95.135 53.5 95.137 54.412 C95.133 55.328 95.129 56.244 95.125 57.188 C95.129 58.115 95.133 59.042 95.137 59.998 C95.135 60.879 95.134 61.76 95.133 62.668 C95.132 63.475 95.131 64.282 95.129 65.114 C95 67 95 67 94 68 C90.9 68.101 87.823 68.136 84.723 68.129 C84.236 68.13 84.236 68.13 81.771 68.135 C78.535 68.139 75.299 68.136 72.062 68.133 C69.824 68.133 67.586 68.134 65.348 68.136 C60.65 68.137 55.953 68.135 51.255 68.13 C45.218 68.125 39.182 68.128 33.145 68.134 C28.522 68.138 23.898 68.136 19.274 68.134 C17.048 68.133 14.821 68.134 12.595 68.136 C9.489 68.139 6.383 68.135 3.277 68.129 C2.347 68.131 1.418 68.133 0.459 68.136 C-5.886 68.114 -5.886 68.114 -7 67 C-8.206 54.677 -7.573 42.959 -3.191 31.375 C-0.756 24.477 -0.739 17.304 -0.438 10.062 C-0.394 9.092 -0.351 8.122 -0.307 7.123 C-0.201 4.749 -0.099 2.374 0 0 Z " fill="#E6E6E6" transform="translate(55,39)"/>
<path d="M0 0 C4.907 0.484 7.668 1.826 11.562 4.812 C12.471 5.5 13.38 6.187 14.316 6.895 C15.202 7.589 16.088 8.284 17 9 C17.896 9.684 18.792 10.369 19.715 11.074 C22 13 22 13 24 16 C26.875 15.75 26.875 15.75 30 15 C31.375 12.938 31.375 12.938 32 11 C33.938 11.375 33.938 11.375 36 12 C36.165 12.33 36.165 12.33 37 14 C37.9 14.28 38.8 14.559 39.727 14.848 C43.429 16.151 45.491 17.8 48.375 20.438 C49.249 21.22 50.123 22.002 51.023 22.809 C53 25 53 25 53 28 C52.024 27.362 51.048 26.724 50.043 26.066 C48.758 25.232 47.473 24.397 46.188 23.562 C45.545 23.142 44.902 22.721 44.24 22.287 C41.516 20.523 39.092 19.031 36 18 C35.67 24.93 35.34 31.86 35 39 C36.542 38.997 36.542 38.997 44.347 38.984 C54.513 38.968 64.68 38.957 74.846 38.948 C81.012 38.943 87.179 38.936 93.345 38.925 C99.291 38.914 105.237 38.908 111.183 38.905 C113.456 38.903 115.73 38.9 118.004 38.894 C121.177 38.887 124.35 38.886 127.523 38.886 C128.473 38.883 129.424 38.879 130.403 38.876 C136.886 38.886 136.886 38.886 138 40 C138.125 42.5 138.125 42.5 138 45 C137.67 45.33 137.34 45.66 137 46 C137.987 46.049 138.975 46.098 139.992 46.148 C141.274 46.223 142.555 46.298 143.875 46.375 C145.151 46.445 146.427 46.514 147.742 46.586 C151 47 151 47 153 49 C152.444 53.556 152.444 53.556 151 55 C140.308 56.206 129.529 56.135 118.785 56.098 C117.192 56.096 115.6 56.094 114.007 56.093 C109.869 56.09 105.731 56.08 101.594 56.069 C97.349 56.058 93.105 56.054 88.861 56.049 C80.574 56.038 72.287 56.021 64 56 C64 55.67 64 55.34 64 55 C53.935 54.835 53.935 54.835 3 54 C2.67 52.35 2.34 50.7 2 49 C2.66 48.34 3.32 47.68 4 47 C3.413 46.99 2.827 46.979 2.222 46.969 C-3.86 46.861 -9.943 46.746 -16.026 46.628 C-18.298 46.584 -20.571 46.543 -22.844 46.503 C-26.103 46.445 -29.362 46.381 -32.621 46.316 C-33.644 46.3 -34.667 46.283 -35.721 46.266 C-36.191 46.256 -36.191 46.256 -38.572 46.205 C-39.405 46.19 -40.237 46.174 -41.095 46.158 C-43 46 -43 46 -44 45 C-44.125 42.5 -44.125 42.5 -44 40 C-43 39 -43 39 -40.108 38.88 C-38.814 38.882 -37.519 38.884 -36.185 38.886 C-35.829 38.886 -35.829 38.886 -34.027 38.886 C-31.663 38.887 -29.298 38.895 -26.934 38.902 C-25.298 38.904 -23.663 38.906 -22.028 38.907 C-17.716 38.91 -13.403 38.92 -9.091 38.931 C-4.694 38.942 -0.297 38.946 4.1 38.951 C12.733 38.962 21.367 38.98 30 39 C30 32.4 30 25.8 30 19 C28.68 19.66 28.68 19.66 22 23 C18.149 24.51 15.138 25.243 11 25 C14.201 22.348 17.417 20.102 21 18 C20.476 17.682 19.951 17.365 19.411 17.038 C17.023 15.59 14.636 14.139 12.25 12.688 C11.425 12.188 10.6 11.688 9.75 11.174 C8.951 10.687 8.152 10.201 7.328 9.699 C6.595 9.254 5.862 8.809 5.106 8.35 C2.989 6.993 0.992 5.534 -1 4 C-0.67 2.68 -0.34 1.36 0 0 Z " fill="#10B5EB" transform="translate(345,69)"/>
<path d="M0 0 C0.396 0.002 0.396 0.002 2.402 0.012 C2.809 0.011 2.809 0.011 4.868 0.006 C6.589 0.005 8.311 0.009 10.033 0.017 C12.673 0.028 15.313 0.017 17.953 0.004 C19.624 0.006 21.294 0.008 22.965 0.012 C23.361 0.01 23.361 0.01 25.367 0 C30.954 0.048 30.954 0.048 33.183 2.278 C33.308 4.903 33.308 4.903 33.183 7.278 C33.961 7.267 34.738 7.257 35.538 7.246 C39.045 7.205 42.552 7.179 46.058 7.153 C47.282 7.136 48.505 7.119 49.766 7.102 C50.932 7.096 52.099 7.089 53.301 7.083 C54.379 7.072 55.458 7.062 56.57 7.051 C59.183 7.278 59.183 7.278 61.183 9.278 C61.502 11.892 61.502 11.892 61.598 15.161 C61.636 16.327 61.675 17.494 61.715 18.696 C61.746 19.919 61.777 21.143 61.808 22.403 C61.847 23.634 61.886 24.865 61.926 26.133 C62.02 29.181 62.106 32.229 62.183 35.278 C63.269 35.243 64.354 35.208 65.473 35.172 C66.918 35.144 68.363 35.117 69.808 35.09 C70.521 35.065 71.234 35.04 71.969 35.014 C77.498 34.938 81.635 35.899 85.828 39.813 C89.268 44.311 90.31 46.316 90.281 51.942 C90.278 53.063 90.275 54.185 90.271 55.34 C90.263 56.516 90.255 57.692 90.246 58.903 C90.241 60.086 90.237 61.27 90.232 62.489 C90.22 65.419 90.204 68.348 90.183 71.278 C91.445 71.267 92.707 71.257 94.007 71.246 C98.677 71.21 103.348 71.187 108.018 71.168 C110.041 71.158 112.065 71.144 114.088 71.127 C116.992 71.103 119.896 71.091 122.801 71.083 C123.709 71.072 124.617 71.062 125.553 71.051 C126.394 71.051 127.235 71.051 128.101 71.051 C128.843 71.046 129.584 71.042 130.348 71.037 C132.183 71.278 132.183 71.278 134.183 73.278 C133.853 74.598 133.523 75.918 133.183 77.278 C94.243 77.278 55.303 77.278 15.183 77.278 C15.183 75.628 15.183 73.978 15.183 72.278 C14.193 72.608 13.203 72.938 12.183 73.278 C12.018 73.938 12.018 73.938 11.183 77.278 C-6.967 77.278 -25.117 77.278 -43.817 77.278 C-43.817 72.278 -43.817 72.278 -42.817 71.278 C-40.671 71.19 -38.522 71.171 -36.375 71.18 C-35.07 71.183 -33.765 71.187 -32.42 71.19 C-31.031 71.198 -29.643 71.207 -28.254 71.215 C-26.861 71.22 -25.469 71.225 -24.076 71.229 C-20.656 71.241 -17.236 71.257 -13.817 71.278 C-13.982 70.948 -13.982 70.948 -14.817 69.278 C-15.806 57.221 -15.142 45.586 -11.061 34.164 C-8.773 27.322 -8.346 20.96 -8.254 13.778 C-8.22 11.642 -8.177 9.507 -8.125 7.372 C-8.113 6.44 -8.1 5.509 -8.088 4.549 C-7.493 -0.429 -4.257 0.037 0 0 Z M-5.817 2.278 C-5.836 2.862 -5.856 3.445 -5.877 4.047 C-5.973 6.749 -6.082 9.451 -6.192 12.153 C-6.222 13.071 -6.253 13.989 -6.285 14.934 C-6.641 23.357 -7.841 31.098 -10.942 38.965 C-14.034 48.518 -13.688 59.342 -12.817 69.278 C-10.876 71.219 -7.94 70.405 -5.357 70.413 C-4.427 70.411 -3.497 70.409 -2.539 70.407 C-1.565 70.409 -0.591 70.411 0.412 70.413 C3.648 70.417 6.885 70.414 10.121 70.411 C12.359 70.411 14.597 70.412 16.836 70.414 C21.533 70.415 26.231 70.413 30.929 70.408 C36.965 70.403 43.002 70.406 49.038 70.412 C53.662 70.415 58.286 70.414 62.909 70.412 C65.136 70.411 67.362 70.412 69.589 70.414 C72.695 70.417 75.8 70.413 78.906 70.407 C79.371 70.408 79.371 70.408 81.724 70.413 C88.069 70.392 88.069 70.392 89.183 69.278 C89.464 66.078 89.415 62.863 89.433 59.653 C89.454 58.762 89.475 57.871 89.496 56.954 C89.529 51.266 88.923 47.293 86.183 42.278 C81.204 37.554 77.462 36.005 70.621 36.09 C69.485 36.097 68.35 36.103 67.18 36.11 C64.183 36.278 64.183 36.278 61.183 37.278 C60.523 28.038 59.863 18.798 59.183 9.278 C50.273 9.278 41.363 9.278 32.183 9.278 C32.183 7.298 32.183 5.318 32.183 3.278 C31.183 2.278 31.183 2.278 27.673 2.164 C26.113 2.165 24.553 2.17 22.992 2.18 C22.582 2.181 22.582 2.181 20.508 2.185 C17.879 2.19 15.25 2.203 12.621 2.215 C10.843 2.22 9.065 2.225 7.287 2.229 C2.919 2.24 -1.449 2.257 -5.817 2.278 Z " fill="#5F1E14" transform="translate(60.8165283203125,36.72210693359375)"/>
<path d="M0 0 C59.4 0 118.8 0 180 0 C180 0.33 180 0.66 180 1 C180.494 1.024 180.494 1.024 182.992 1.148 C183.633 1.186 183.633 1.186 186.875 1.375 C188.151 1.445 189.427 1.514 190.742 1.586 C194 2 194 2 196 4 C195.444 8.556 195.444 8.556 194 10 C183.308 11.206 172.529 11.135 161.785 11.098 C160.192 11.096 158.6 11.094 157.007 11.093 C152.869 11.09 148.731 11.08 144.594 11.069 C140.349 11.058 136.105 11.054 131.861 11.049 C123.574 11.038 115.287 11.021 107 11 C107 10.67 107 10.34 107 10 C96.935 9.835 96.935 9.835 46 9 C45.835 8.175 45.835 8.175 45 4 C45.66 3.34 46.32 2.68 47 2 C39.245 1.835 39.245 1.835 0 1 C0 0.67 0 0.34 0 0 Z " fill="#C6E8ED" transform="translate(302,114)"/>
<path d="M0 0 C0.813 0.002 1.626 0.003 2.463 0.005 C3.32 0.002 4.177 0 5.06 -0.002 C7.954 -0.009 10.849 -0.008 13.743 -0.007 C15.809 -0.01 17.875 -0.013 19.941 -0.017 C25.569 -0.026 31.197 -0.028 36.825 -0.029 C41.514 -0.03 46.204 -0.033 50.894 -0.037 C61.953 -0.045 73.012 -0.048 84.071 -0.047 C95.499 -0.046 106.928 -0.057 118.356 -0.073 C128.151 -0.086 137.945 -0.091 147.739 -0.09 C153.597 -0.09 159.454 -0.093 165.312 -0.104 C170.818 -0.113 176.325 -0.113 181.832 -0.106 C183.858 -0.105 185.884 -0.107 187.91 -0.113 C190.666 -0.121 193.422 -0.117 196.178 -0.109 C196.988 -0.114 197.799 -0.119 198.634 -0.124 C204.156 -0.09 204.156 -0.09 206.384 2.138 C206.054 3.458 205.724 4.778 205.384 6.138 C135.424 6.138 65.464 6.138 -6.616 6.138 C-6.616 -0.701 -6.22 0.027 0 0 Z " fill="#317315" transform="translate(197.6161112189293,124.8615944981575)"/>
<path d="M0 0 C0.818 0.003 1.636 0.006 2.479 0.009 C2.91 0.008 2.91 0.008 5.093 0.006 C8.005 0.005 10.918 0.01 13.831 0.016 C15.91 0.016 17.989 0.016 20.068 0.015 C25.731 0.015 31.394 0.021 37.057 0.028 C42.968 0.034 48.879 0.035 54.79 0.036 C65.992 0.039 77.194 0.047 88.396 0.057 C101.146 0.068 113.895 0.074 126.645 0.079 C152.879 0.089 179.114 0.107 205.348 0.129 C205.678 1.779 206.008 3.429 206.348 5.129 C203.142 6.732 199.657 6.262 196.135 6.249 C195.276 6.25 194.417 6.251 193.532 6.252 C190.636 6.254 187.74 6.248 184.844 6.243 C182.775 6.242 180.706 6.242 178.636 6.243 C173.004 6.243 167.372 6.237 161.74 6.23 C155.86 6.224 149.98 6.224 144.099 6.222 C132.958 6.219 121.816 6.211 110.674 6.201 C97.992 6.19 85.31 6.184 72.629 6.179 C46.535 6.169 20.442 6.151 -5.652 6.129 C-6.034 4.473 -6.366 2.805 -6.652 1.129 C-4.851 -0.671 -2.397 0.006 0 0 Z " fill="#DC971F" transform="translate(8.651608526706696,116.8709186911583)"/>
<path d="M0 0 C10.89 0 21.78 0 33 0 C38.13 11.969 37 13.274 37 29 C23.8 29 10.6 29 -3 29 C-3 9 -3 9 0 0 Z " fill="none" transform="translate(57,72)"/>
<path d="M0 0 C0.946 -0.016 1.892 -0.032 2.867 -0.049 C11.666 -0.055 11.666 -0.055 15.625 3.312 C18.101 7.027 18.39 10.009 17.625 14.312 C15.58 17.875 14.428 19.781 10.465 20.949 C8.904 21.233 7.34 21.5 5.773 21.75 C2.471 22.615 0.815 24.801 -1.375 27.312 C-5.514 28.692 -9.414 28.576 -13.75 28.625 C-14.601 28.654 -15.452 28.683 -16.328 28.713 C-20.532 28.755 -22.761 28.699 -26.395 26.41 C-29.264 23.371 -30.243 21.549 -30.688 17.375 C-30.331 13.879 -29.471 12.107 -27.375 9.312 C-24.171 7.177 -23.356 7.081 -19.688 7.188 C-19.283 7.197 -19.283 7.197 -17.238 7.242 C-16.931 7.254 -16.931 7.254 -15.375 7.312 C-15.107 6.529 -14.839 5.745 -14.562 4.938 C-11.736 -1.31 -5.88 -0.02 0 0 Z " fill="#EDEDED" transform="translate(83.375,2.6875)"/>
<path d="M0 0 C1.042 -0.041 2.083 -0.082 3.156 -0.125 C10.572 -0.201 10.572 -0.201 13.444 1.711 C15.968 4.542 17.318 7.281 17.25 11.062 C17.03 14.419 16.611 15.521 14.688 18.438 C11.319 20.706 8.883 21.302 4.906 21.75 C2.625 22.5 2.625 22.5 0.562 25.023 C-3.922 28.804 -8.194 28.231 -13.875 28.125 C-14.391 28.135 -14.391 28.135 -17.004 28.184 C-21.821 28.153 -24.538 28.086 -28.555 25.273 C-31.38 20.969 -31.361 17.47 -30.375 12.5 C-28.438 9.375 -28.438 9.375 -25.375 7.5 C-22.325 7.117 -19.429 7.201 -16.375 7.5 C-16.107 6.716 -15.839 5.933 -15.562 5.125 C-12.652 -1.309 -6.065 0.06 0 0 Z " fill="#EAEAEA" transform="translate(134.375,9.5)"/>
<path d="M0 0 C0.784 0.041 1.567 0.083 2.375 0.125 C2.623 0.764 2.87 1.404 3.125 2.062 C4.375 4.125 4.375 4.125 6.5 4.875 C7.119 4.957 7.738 5.04 8.375 5.125 C8.045 5.29 8.045 5.29 6.375 6.125 C6.375 7.115 6.375 8.105 6.375 9.125 C8.072 10.52 8.072 10.52 10.426 11.938 C11.269 12.456 12.113 12.974 12.982 13.508 C13.875 14.041 14.768 14.575 15.688 15.125 C17.436 16.184 19.182 17.246 20.926 18.312 C21.706 18.78 22.486 19.248 23.29 19.73 C25.375 21.125 25.375 21.125 28.375 24.125 C25.405 25.775 22.435 27.425 19.375 29.125 C24.923 28.032 29.36 26.816 34.375 24.125 C35.035 24.125 35.695 24.125 36.375 24.125 C36.375 30.725 36.375 37.325 36.375 44.125 C25.485 44.125 14.595 44.125 3.375 44.125 C2.938 31.75 2.938 31.75 2.807 27.913 C2.562 21.282 2.143 14.716 1.375 8.125 C-0.275 7.795 -1.925 7.465 -3.625 7.125 C-4.25 4.75 -4.25 4.75 -4.625 2.125 C-2.625 0.125 -2.625 0.125 0 0 Z " fill="none" transform="translate(338.625,63.875)"/>
<path d="M0 0 C1.227 -0.004 2.454 -0.009 3.718 -0.013 C5.09 -0.013 6.462 -0.012 7.835 -0.012 C9.27 -0.015 10.705 -0.018 12.141 -0.022 C16.05 -0.031 19.959 -0.033 23.868 -0.034 C27.126 -0.034 30.384 -0.038 33.642 -0.042 C41.326 -0.05 49.01 -0.052 56.694 -0.052 C64.632 -0.051 72.571 -0.062 80.509 -0.077 C87.314 -0.09 94.119 -0.096 100.924 -0.095 C104.993 -0.095 109.062 -0.098 113.131 -0.108 C116.957 -0.118 120.782 -0.118 124.608 -0.111 C126.015 -0.11 127.422 -0.112 128.829 -0.118 C130.744 -0.126 132.659 -0.12 134.574 -0.114 C135.647 -0.114 136.721 -0.115 137.827 -0.115 C140.35 0.134 140.35 0.134 142.35 2.134 C142.02 3.454 141.69 4.774 141.35 6.134 C92.51 6.134 43.67 6.134 -6.65 6.134 C-6.65 -0.72 -6.177 0.01 0 0 Z " fill="#732115" transform="translate(45.64952087402344,124.86628723144531)"/>
<path d="M0 0 C41.25 0 82.5 0 125 0 C125.165 0.825 125.165 0.825 126 5 C124.354 6.646 122.454 6.13 120.186 6.134 C119.144 6.138 118.102 6.142 117.029 6.147 C116.452 6.146 116.452 6.146 113.535 6.145 C112.932 6.147 112.932 6.147 109.88 6.155 C106.562 6.163 103.243 6.167 99.925 6.167 C97.159 6.168 94.393 6.172 91.627 6.175 C85.103 6.184 78.58 6.186 72.056 6.185 C65.317 6.185 58.579 6.195 51.84 6.211 C46.063 6.224 40.285 6.229 34.508 6.229 C31.053 6.229 27.599 6.231 24.145 6.242 C20.295 6.253 16.444 6.249 12.594 6.243 C11.443 6.249 10.293 6.254 9.107 6.26 C8.585 6.258 8.585 6.258 5.941 6.247 C5.03 6.248 4.119 6.248 3.18 6.249 C1 6 1 6 -1 4 C-0.67 2.68 -0.34 1.36 0 0 Z " fill="#60C8F2" transform="translate(218,117)"/>
<path d="M0 0 C0.555 -0.001 0.555 -0.001 3.361 -0.008 C4.52 -0 5.678 0.008 6.871 0.016 C8.033 0.008 9.195 0 10.393 -0.008 C11.501 -0.005 12.608 -0.003 13.75 0 C14.768 0.002 15.786 0.005 16.834 0.007 C19.309 0.266 19.309 0.266 21.309 2.266 C20.934 4.391 20.934 4.391 20.309 6.266 C19.435 6.26 18.562 6.255 17.662 6.25 C14.433 6.233 11.203 6.22 7.973 6.211 C6.574 6.206 5.174 6.199 3.774 6.19 C1.766 6.178 -0.242 6.173 -2.25 6.168 C-3.46 6.163 -4.669 6.157 -5.916 6.152 C-8.691 6.266 -8.691 6.266 -9.691 7.266 C-3.751 7.596 2.189 7.926 8.309 8.266 C8.309 8.596 8.309 8.926 8.309 9.266 C-60.661 9.266 -129.631 9.266 -200.691 9.266 C-200.691 8.936 -200.691 8.606 -200.691 8.266 C-196.071 7.936 -191.451 7.606 -186.691 7.266 C-186.691 6.936 -186.691 6.606 -186.691 6.266 C-177.781 6.101 -177.781 6.101 -132.691 5.266 C-132.691 3.946 -132.691 2.626 -132.691 1.266 C-131.371 1.266 -130.051 1.266 -128.691 1.266 C-128.691 2.916 -128.691 4.566 -128.691 6.266 C-113.341 6.205 -97.99 6.128 -82.639 6.03 C-75.512 5.985 -68.385 5.946 -61.257 5.919 C-54.384 5.894 -47.512 5.853 -40.639 5.802 C-38.011 5.786 -35.384 5.774 -32.756 5.768 C-29.087 5.758 -25.419 5.73 -21.75 5.698 C-21.202 5.699 -21.202 5.699 -18.429 5.702 C-17.433 5.69 -16.437 5.677 -15.412 5.664 C-14.543 5.66 -13.675 5.655 -12.78 5.65 C-12.436 5.587 -12.436 5.587 -10.691 5.266 C-10.031 4.276 -9.371 3.286 -8.691 2.266 C-5.278 -0.01 -4.01 0.009 0 0 Z " fill="#EBD5C6" transform="translate(204.69140625,107.734375)"/>
<path d="M0 0 C0.63 0.425 1.261 0.851 1.91 1.289 C3.904 1.66 5.904 1.997 7.91 2.289 C7.92 2.693 7.92 2.693 7.97 4.736 C8.065 8.379 8.175 12.021 8.285 15.664 C8.316 16.935 8.347 18.206 8.379 19.516 C8.418 20.727 8.456 21.939 8.496 23.188 C8.528 24.308 8.559 25.429 8.591 26.583 C8.91 29.289 8.91 29.289 10.91 31.289 C10.58 32.609 10.25 33.929 9.91 35.289 C-12.53 35.289 -34.97 35.289 -58.09 35.289 C-58.09 30.289 -58.09 30.289 -57.09 29.289 C-55.249 29.195 -53.404 29.172 -51.56 29.176 C-50.379 29.176 -49.198 29.176 -47.981 29.176 C-46.696 29.181 -45.41 29.186 -44.086 29.191 C-43.432 29.192 -43.432 29.192 -40.122 29.196 C-36.638 29.2 -33.155 29.209 -29.671 29.22 C-26.119 29.231 -22.566 29.235 -19.014 29.24 C-12.039 29.25 -5.064 29.27 1.91 29.289 C1.91 20.709 1.91 12.129 1.91 3.289 C-0.194 4.423 -2.297 5.558 -4.465 6.727 C-10.302 9.757 -15.414 11.397 -22.09 11.289 C-18.147 7.932 -14.052 5.379 -9.527 2.914 C-8.868 2.534 -8.209 2.154 -7.529 1.762 C-2.644 -0.899 -2.644 -0.899 0 0 Z " fill="#53C223" transform="translate(287.08984375,78.7109375)"/>
<path d="M0 0 C0.419 0.002 0.419 0.002 2.539 0.011 C3.417 0.011 4.295 0.011 5.2 0.01 C8.116 0.011 11.033 0.019 13.949 0.027 C15.966 0.029 17.982 0.03 19.998 0.031 C25.317 0.035 30.635 0.045 35.953 0.056 C41.376 0.066 46.798 0.071 52.221 0.076 C62.869 0.086 73.516 0.103 84.164 0.124 C84.546 1.781 84.878 3.449 85.164 5.124 C83.33 6.958 80.768 6.244 78.328 6.249 C77.49 6.245 76.652 6.242 75.789 6.238 C75.35 6.238 75.35 6.238 73.128 6.238 C70.212 6.238 67.295 6.23 64.379 6.222 C62.363 6.22 60.346 6.219 58.33 6.218 C53.011 6.214 47.693 6.204 42.375 6.193 C36.952 6.183 31.53 6.178 26.107 6.173 C15.46 6.163 4.812 6.145 -5.836 6.124 C-6.218 4.468 -6.55 2.8 -6.836 1.124 C-5.002 -0.709 -2.44 0.004 0 0 Z " fill="#3E9419" transform="translate(353.8359375,116.87557983398438)"/>
<path d="M0 0 C68.97 0 137.94 0 209 0 C209 0.33 209 0.66 209 1 C189.255 1.888 169.542 2.198 149.781 2.303 C145.761 2.326 141.741 2.353 137.721 2.379 C130.158 2.429 122.594 2.474 115.03 2.517 C106.398 2.567 97.766 2.622 89.135 2.677 C71.423 2.79 53.712 2.897 36 3 C35.732 3.639 35.464 4.279 35.188 4.938 C34 7 34 7 31 8 C29.592 8.08 28.18 8.108 26.77 8.098 C25.967 8.094 25.165 8.091 24.338 8.088 C23.921 8.084 23.921 8.084 21.812 8.062 C21.39 8.06 21.39 8.06 19.252 8.049 C17.168 8.037 15.084 8.019 13 8 C12.957 6.334 12.959 4.666 13 3 C13.33 2.67 13.66 2.34 14 2 C11.69 1.835 11.69 1.835 0 1 C0 0.67 0 0.34 0 0 Z " fill="#FBF8F5" transform="translate(4,123)"/>
<path d="M0 0 C1.31 0.004 2.62 0.009 3.97 0.013 C4.692 0.013 5.414 0.013 6.158 0.013 C8.55 0.014 10.941 0.03 13.333 0.045 C14.989 0.049 16.645 0.052 18.302 0.054 C22.665 0.061 27.028 0.081 31.391 0.103 C35.842 0.124 40.292 0.133 44.743 0.143 C53.479 0.164 62.215 0.198 70.95 0.241 C71.332 1.897 71.664 3.565 71.95 5.241 C70.289 6.902 68.285 6.36 66.066 6.365 C65.368 6.361 64.671 6.358 63.952 6.354 C63.586 6.354 63.586 6.354 61.735 6.354 C59.305 6.354 56.876 6.346 54.446 6.338 C52.766 6.336 51.086 6.335 49.406 6.334 C44.975 6.33 40.545 6.32 36.114 6.309 C31.597 6.299 27.079 6.294 22.561 6.289 C13.691 6.279 4.821 6.262 -4.05 6.241 C-4.675 4.366 -4.675 4.366 -5.05 2.241 C-3.05 0.241 -3.05 0.241 0 0 Z " fill="#A5DBF7" transform="translate(411.0498352050781,124.75949096679688)"/>
<path d="M0 0 C4.907 0.484 7.668 1.826 11.562 4.812 C12.471 5.5 13.38 6.187 14.316 6.895 C15.202 7.589 16.088 8.284 17 9 C17.896 9.684 18.792 10.369 19.715 11.074 C22 13 22 13 24 16 C26.875 15.75 26.875 15.75 30 15 C31.375 12.938 31.375 12.938 32 11 C33.938 11.375 33.938 11.375 36 12 C36.165 12.33 36.165 12.33 37 14 C37.9 14.28 38.8 14.559 39.727 14.848 C43.429 16.151 45.491 17.8 48.375 20.438 C49.249 21.22 50.123 22.002 51.023 22.809 C53 25 53 25 53 28 C52.024 27.362 51.048 26.724 50.043 26.066 C48.758 25.232 47.473 24.397 46.188 23.562 C45.545 23.142 44.902 22.721 44.24 22.287 C41.516 20.523 39.092 19.031 36 18 C35.67 24.93 35.34 31.86 35 39 C33.35 39 31.7 39 30 39 C30 32.4 30 25.8 30 19 C28.68 19.66 28.68 19.66 22 23 C18.149 24.51 15.138 25.243 11 25 C14.201 22.348 17.417 20.102 21 18 C20.476 17.682 19.951 17.365 19.411 17.038 C17.023 15.59 14.636 14.139 12.25 12.688 C11.425 12.188 10.6 11.688 9.75 11.174 C8.951 10.687 8.152 10.201 7.328 9.699 C6.595 9.254 5.862 8.809 5.106 8.35 C2.989 6.993 0.992 5.534 -1 4 C-0.67 2.68 -0.34 1.36 0 0 Z " fill="#7B7B7B" transform="translate(345,69)"/>
<path d="M0 0 C9.9 0 19.8 0 30 0 C30 3.96 30 7.92 30 12 C20.1 12 10.2 12 0 12 C0 8.04 0 4.08 0 0 Z " fill="#B6B6B6" transform="translate(116,91)"/>
<path d="M0 0 C18.15 0 36.3 0 55 0 C55.165 0.825 55.165 0.825 56 5 C55 6 55 6 52.83 6.12 C51.873 6.118 50.916 6.116 49.929 6.114 C48.848 6.113 47.767 6.113 46.654 6.113 C46.066 6.111 46.066 6.111 43.09 6.098 C41.893 6.096 40.696 6.095 39.462 6.093 C35.621 6.088 31.779 6.075 27.938 6.062 C25.34 6.057 22.743 6.053 20.146 6.049 C13.764 6.038 7.382 6.021 1 6 C-0.062 4.125 -0.062 4.125 -1 2 C-0.67 1.34 -0.34 0.68 0 0 Z " fill="#0D629F" transform="translate(442,117)"/>
<path d="M0 0 C0.396 0.002 0.396 0.002 2.402 0.012 C2.809 0.011 2.809 0.011 4.868 0.006 C6.589 0.005 8.311 0.009 10.033 0.017 C12.673 0.028 15.313 0.017 17.953 0.004 C19.624 0.006 21.294 0.008 22.965 0.012 C23.757 0.008 24.55 0.004 25.367 0 C30.954 0.048 30.954 0.048 33.183 2.278 C33.308 4.903 33.308 4.903 33.183 7.278 C33.961 7.267 34.738 7.257 35.538 7.246 C39.045 7.205 42.552 7.179 46.058 7.153 C47.282 7.136 48.505 7.119 49.766 7.102 C50.932 7.096 52.099 7.089 53.301 7.083 C54.379 7.072 55.458 7.062 56.57 7.051 C59.183 7.278 59.183 7.278 61.183 9.278 C61.502 11.892 61.502 11.892 61.598 15.161 C61.636 16.327 61.675 17.494 61.715 18.696 C61.746 19.919 61.777 21.143 61.808 22.403 C61.847 23.634 61.886 24.865 61.926 26.133 C62.02 29.181 62.106 32.229 62.183 35.278 C62.843 35.278 63.503 35.278 64.183 35.278 C64.183 35.938 64.183 36.598 64.183 37.278 C63.193 37.278 62.203 37.278 61.183 37.278 C59.514 30.766 58.924 24.919 59.058 18.215 C59.1 15.266 59.141 12.317 59.183 9.278 C50.273 9.278 41.363 9.278 32.183 9.278 C32.018 8.288 32.018 8.288 31.183 3.278 C25.078 3.113 25.078 3.113 -5.817 2.278 C-5.692 12.153 -5.692 12.153 -5.636 15.199 C-5.586 23.602 -6.829 31.086 -9.942 38.903 C-13.217 48.959 -12.149 59.833 -11.817 70.278 C-12.807 69.948 -13.797 69.618 -14.817 69.278 C-15.153 56.993 -15.245 45.875 -11.061 34.164 C-8.773 27.322 -8.346 20.96 -8.254 13.778 C-8.22 11.642 -8.177 9.507 -8.125 7.372 C-8.113 6.44 -8.1 5.509 -8.088 4.549 C-7.493 -0.429 -4.257 0.037 0 0 Z " fill="#444444" transform="translate(60.8165283203125,36.72210693359375)"/>
<path d="M0 0 C0.33 1.32 0.66 2.64 1 4 C9.832 3.939 18.663 3.862 27.495 3.764 C31.595 3.72 35.696 3.68 39.796 3.654 C43.752 3.628 47.707 3.587 51.662 3.537 C53.173 3.52 54.684 3.509 56.195 3.502 C58.307 3.493 60.419 3.465 62.531 3.432 C63.734 3.421 64.938 3.41 66.178 3.399 C67.109 3.267 68.041 3.136 69 3 C69.66 2.01 70.32 1.02 71 0 C71.66 0 72.32 0 73 0 C73 0.99 73 1.98 73 3 C72.01 3.66 71.02 4.32 70 5 C77.26 5.165 77.26 5.165 114 6 C114 6.33 114 6.66 114 7 C73.41 7 32.82 7 -9 7 C-9 6.67 -9 6.34 -9 6 C-15.6 5.67 -22.2 5.34 -29 5 C-29 4.67 -29 4.34 -29 4 C-28.228 3.985 -27.456 3.971 -26.661 3.956 C-23.169 3.881 -19.679 3.785 -16.188 3.688 C-14.973 3.665 -13.758 3.642 -12.506 3.619 C-11.342 3.584 -10.179 3.548 -8.98 3.512 C-8.444 3.499 -8.444 3.499 -5.727 3.432 C-2.732 2.958 -1.815 2.366 0 0 Z " fill="#D2ECD6" transform="translate(228,110)"/>
<path d="M0 0 C1.739 0.153 3.482 0.249 5.227 0.316 C6.258 0.358 7.289 0.4 8.352 0.443 C9.432 0.483 10.512 0.522 11.625 0.562 C12.169 0.584 12.169 0.584 14.922 0.693 C17.614 0.8 20.307 0.902 23 1 C23.563 2.938 23.563 2.938 24 5 C23 6 23 6 20.792 6.12 C19.817 6.118 18.842 6.116 17.838 6.114 C16.737 6.113 15.636 6.113 14.501 6.113 C13.303 6.108 12.105 6.103 10.871 6.098 C9.652 6.096 8.432 6.095 7.176 6.093 C3.263 6.088 -0.65 6.075 -4.562 6.062 C-7.208 6.057 -9.853 6.053 -12.498 6.049 C-18.999 6.038 -25.499 6.021 -32 6 C-32.043 4.334 -32.041 2.666 -32 1 C-29.364 -1.636 -22.237 -0.443 -18.644 -0.558 C-16.574 -0.625 -14.505 -0.702 -12.436 -0.781 C-11.138 -0.825 -9.841 -0.869 -8.504 -0.914 C-7.306 -0.955 -6.108 -0.996 -4.873 -1.038 C-2 -1 -2 -1 0 0 Z " fill="#DC391F" transform="translate(49,108)"/>
<path d="M0 0 C11.55 0 23.1 0 35 0 C38.985 8.966 40.173 14.45 40.125 23.812 C40.127 24.2 40.127 24.2 40.137 26.162 C40.127 31.873 40.127 31.873 39 33 C37.649 33.093 36.293 33.117 34.939 33.114 C34.078 33.113 33.218 33.113 32.331 33.113 C31.395 33.108 30.46 33.103 29.496 33.098 C28.543 33.096 27.59 33.095 26.608 33.093 C23.551 33.088 20.494 33.075 17.438 33.062 C15.37 33.057 13.303 33.053 11.236 33.049 C6.158 33.038 1.079 33.021 -4 33 C-4.089 29.709 -4.141 26.417 -4.188 23.125 C-4.213 22.207 -4.238 21.289 -4.264 20.344 C-4.34 13.115 -3.26 6.52 0 0 Z M1 2 C-2 11 -2 11 -2 31 C11.2 31 24.4 31 38 31 C38 9.575 38 9.575 35 3 C34 2 34 2 30.857 1.886 C29.466 1.887 28.075 1.892 26.684 1.902 C25.953 1.904 25.221 1.905 24.468 1.907 C22.125 1.912 19.781 1.925 17.438 1.938 C15.852 1.943 14.267 1.947 12.682 1.951 C8.788 1.962 4.894 1.979 1 2 Z " fill="#4D4D4D" transform="translate(56,70)"/>
<path d="M0 0 C5.94 0 11.88 0 18 0 C18.165 0.825 18.165 0.825 19 5 C16.505 7.495 15.327 7.359 11.875 7.625 C10.965 7.7 10.055 7.775 9.117 7.852 C8.419 7.901 7.72 7.95 7 8 C6.34 9.65 5.68 11.3 5 13 C-1.27 13 -7.54 13 -14 13 C-15 9 -15 9 -14 7 C-11.216 6.764 -8.458 6.749 -5.664 6.734 C-4.785 6.492 -3.906 6.25 -3 6 C-2.01 4.02 -1.02 2.04 0 0 Z " fill="#F6F6F6" transform="translate(75,10)"/>
<path d="M0 0 C2.292 -0.118 4.509 -0.065 6.8 0.071 C7.584 0.089 8.369 0.108 9.177 0.127 C14.915 0.311 14.915 0.311 16.112 1.508 C16.153 3.174 16.155 4.842 16.112 6.508 C15.353 6.511 14.594 6.513 13.812 6.516 C12.818 6.555 11.824 6.593 10.8 6.633 C10.307 6.645 10.307 6.645 7.812 6.704 C6.921 6.969 6.03 7.235 5.112 7.508 C4.122 9.488 3.132 11.468 2.112 13.508 C-4.158 13.508 -10.428 13.508 -16.888 13.508 C-17.218 12.188 -17.548 10.868 -17.888 9.508 C-15.001 6.621 -12.346 7.266 -8.396 7.243 C-5.888 6.508 -5.888 6.508 -4.11 3.489 C-1.888 0.508 -1.888 0.508 0 0 Z " fill="#F9F9F9" transform="translate(127.8876953125,16.49169921875)"/>
<path d="M0 0 C4.638 1.915 6.872 3.389 9 8 C9 8.66 9 9.32 9 10 C-0.9 10 -10.8 10 -21 10 C-19.734 3.669 -19.734 3.669 -16.207 0.949 C-11.189 -1.209 -5.313 -0.724 0 0 Z " fill="#515151" transform="translate(137,77)"/>
<path d="M0 0 C1.98 0 3.96 0 6 0 C7.129 7.181 7.114 14.242 7.062 21.5 C7.058 22.704 7.053 23.908 7.049 25.148 C7.037 28.099 7.021 31.049 7 34 C4.36 34 1.72 34 -1 34 C-1.19 22.641 -0.605 11.339 0 0 Z " fill="#414141" transform="translate(335,74)"/>
<path d="M0 0 C0.58 0.365 1.159 0.73 1.756 1.106 C0.417 4.321 -0.681 5.703 -3.798 7.247 C-4.496 7.595 -5.193 7.943 -5.912 8.302 C-6.64 8.65 -7.368 8.998 -8.119 9.356 C-8.839 9.72 -9.56 10.083 -10.302 10.458 C-14.04 12.289 -15.941 13.106 -20.244 13.106 C-18.264 15.746 -16.284 18.386 -14.244 21.106 C-14.904 21.436 -15.564 21.766 -16.244 22.106 C-18.521 20.927 -18.521 20.927 -21.181 19.231 C-23.921 17.497 -26.159 16.135 -29.244 15.106 C-30.265 14.128 -31.264 13.127 -32.244 12.106 C-33.234 11.446 -34.224 10.786 -35.244 10.106 C-35.244 8.786 -35.244 7.466 -35.244 6.106 C-32.196 6.542 -30.369 7.02 -27.806 8.794 C-25.244 10.106 -25.244 10.106 -22.623 9.485 C-17.619 7.444 -13.01 4.749 -8.345 2.032 C-7.618 1.629 -6.891 1.225 -6.142 0.81 C-5.489 0.435 -4.836 0.06 -4.163 -0.326 C-2.244 -0.894 -2.244 -0.894 0 0 Z " fill="#2A2A2A" transform="translate(332.24365234375,70.8935546875)"/>
<path d="M0 0 C4.29 0 8.58 0 13 0 C12.683 0.981 12.366 1.962 12.039 2.973 C10.854 7.119 10.563 11.145 10.375 15.438 C10.356 15.803 10.356 15.803 10.258 17.654 C10.165 19.436 10.081 21.218 10 23 C7.03 23 4.06 23 1 23 C0.67 15.41 0.34 7.82 0 0 Z " fill="#F3F3F3" transform="translate(100,79)"/>
<path d="M0 0 C0.946 -0.016 1.892 -0.032 2.867 -0.049 C11.666 -0.055 11.666 -0.055 15.625 3.312 C18.101 7.027 18.39 10.009 17.625 14.312 C15.58 17.875 14.428 19.781 10.465 20.949 C8.904 21.233 7.34 21.5 5.773 21.75 C2.471 22.615 0.815 24.801 -1.375 27.312 C-5.514 28.692 -9.414 28.576 -13.75 28.625 C-14.601 28.654 -15.452 28.683 -16.328 28.713 C-20.532 28.755 -22.761 28.699 -26.395 26.41 C-29.264 23.371 -30.243 21.549 -30.688 17.375 C-30.331 13.879 -29.471 12.107 -27.375 9.312 C-24.171 7.177 -23.356 7.081 -19.688 7.188 C-19.283 7.197 -19.283 7.197 -17.238 7.242 C-16.931 7.254 -16.931 7.254 -15.375 7.312 C-15.107 6.529 -14.839 5.745 -14.562 4.938 C-11.736 -1.31 -5.88 -0.02 0 0 Z M-13.062 4.219 C-14.375 6.312 -14.375 6.312 -14.375 8.312 C-14.973 8.261 -14.973 8.261 -18 8 C-21.225 8.017 -23.236 8.425 -25.875 10.312 C-28.666 13.662 -29.049 15.069 -29.074 19.25 C-27.901 22.712 -26.307 24.138 -23.375 26.312 C-20.022 27.014 -16.788 26.967 -13.375 26.875 C-12.486 26.886 -11.596 26.897 -10.68 26.908 C-6.414 26.86 -3.996 26.7 -0.312 24.402 C1.625 22.312 1.625 22.312 2.625 20.312 C5.13 19.747 7.636 19.419 10.18 19.07 C13.249 18.119 14.084 17.095 15.625 14.312 C16.059 12.313 16.059 12.313 16.062 10.312 C16.082 9.652 16.101 8.992 16.121 8.312 C15.326 5.108 14.399 4.17 11.625 2.312 C7.951 1.714 4.34 1.755 0.625 1.812 C-0.373 1.797 -1.37 1.782 -2.398 1.766 C-9.659 1.805 -9.659 1.805 -13.062 4.219 Z " fill="#414141" transform="translate(83.375,2.6875)"/>
<path d="M0 0 C9.24 0 18.48 0 28 0 C28 2.31 28 4.62 28 7 C18.43 7 8.86 7 -1 7 C-0.67 4.69 -0.34 2.38 0 0 Z " fill="#ECECEC" transform="translate(60,58)"/>
<path d="M0 0 C8.91 0 17.82 0 27 0 C27 2.31 27 4.62 27 7 C18.09 7 9.18 7 0 7 C0 4.69 0 2.38 0 0 Z " fill="#F2F2F2" transform="translate(60,44)"/>
<path d="M0 0 C0.63 0.425 1.261 0.851 1.91 1.289 C3.901 1.672 5.901 2.015 7.91 2.289 C8.039 11.014 7.707 19.599 6.91 28.289 C5.92 28.289 4.93 28.289 3.91 28.289 C3.91 20.369 3.91 12.449 3.91 4.289 C4.9 3.959 5.89 3.629 6.91 3.289 C5.59 3.289 4.27 3.289 2.91 3.289 C2.91 7.909 2.91 12.529 2.91 17.289 C2.58 17.289 2.25 17.289 1.91 17.289 C1.91 12.669 1.91 8.049 1.91 3.289 C1.016 3.783 0.121 4.276 -0.801 4.785 C-7.877 8.574 -13.857 11.422 -22.09 11.289 C-18.147 7.932 -14.052 5.379 -9.527 2.914 C-8.868 2.534 -8.209 2.154 -7.529 1.762 C-2.644 -0.899 -2.644 -0.899 0 0 Z " fill="#939393" transform="translate(287.08984375,78.7109375)"/>
<path d="M0 0 C1.042 -0.041 2.083 -0.082 3.156 -0.125 C10.572 -0.201 10.572 -0.201 13.444 1.711 C15.968 4.542 17.318 7.281 17.25 11.062 C17.03 14.419 16.611 15.521 14.688 18.438 C11.319 20.706 8.883 21.302 4.906 21.75 C2.625 22.5 2.625 22.5 0.562 25.023 C-3.922 28.804 -8.194 28.231 -13.875 28.125 C-14.391 28.135 -14.391 28.135 -17.004 28.184 C-21.821 28.153 -24.538 28.086 -28.555 25.273 C-31.38 20.969 -31.361 17.47 -30.375 12.5 C-28.438 9.375 -28.438 9.375 -25.375 7.5 C-22.325 7.117 -19.429 7.201 -16.375 7.5 C-16.107 6.716 -15.839 5.933 -15.562 5.125 C-12.652 -1.309 -6.065 0.06 0 0 Z M-14.188 5 C-15.375 6.5 -15.375 6.5 -15.375 8.5 C-16.592 8.418 -17.809 8.335 -19.062 8.25 C-22.448 8.238 -23.314 8.461 -26.312 10.375 C-28.755 12.892 -29.301 13.833 -29.688 17.312 C-29.303 21.231 -28.082 22.713 -25.375 25.5 C-21.875 27.25 -17.919 26.769 -14.062 26.812 C-13.207 26.842 -12.352 26.871 -11.471 26.9 C-7.251 26.943 -4.99 26.883 -1.332 24.605 C0.625 22.5 0.625 22.5 1.625 20.5 C3.77 20.043 3.77 20.043 6.438 19.688 C10.041 19.022 11.401 18.692 14.25 16.25 C15.919 12.911 16.315 11.181 15.625 7.5 C13.452 4.927 11.645 3.01 8.625 1.5 C6.008 1.375 3.43 1.315 0.812 1.312 C0.1 1.3 -0.612 1.288 -1.346 1.275 C-6.397 1.261 -10.241 1.734 -14.188 5 Z " fill="#2D2D2D" transform="translate(134.375,9.5)"/>
<path d="M0 0 C0.414 0.002 0.414 0.002 2.51 0.01 C3.334 -0.006 4.158 -0.022 5.008 -0.039 C5.405 -0.039 5.405 -0.039 7.412 -0.041 C8.138 -0.044 8.863 -0.047 9.611 -0.05 C12.135 0.429 13.022 1.307 14.572 3.322 C14.885 5.885 14.885 5.885 14.572 8.322 C12.572 10.322 12.572 10.322 9.971 10.518 C8.973 10.494 7.975 10.471 6.947 10.447 C6.446 10.438 6.446 10.438 3.908 10.393 C3.137 10.369 2.366 10.346 1.572 10.322 C1.449 11.106 1.325 11.89 1.197 12.697 C0.572 15.322 0.572 15.322 -1.428 17.322 C-3.367 17.581 -3.367 17.581 -5.709 17.588 C-6.551 17.59 -7.392 17.593 -8.26 17.596 C-9.14 17.588 -10.021 17.58 -10.928 17.572 C-11.368 17.576 -11.368 17.576 -13.596 17.596 C-14.437 17.593 -15.279 17.591 -16.146 17.588 C-16.919 17.586 -17.692 17.583 -18.488 17.581 C-20.428 17.322 -20.428 17.322 -22.428 15.322 C-22.678 12.322 -22.678 12.322 -22.428 9.322 C-20.428 7.322 -20.428 7.322 -17.826 7.127 C-16.828 7.15 -15.831 7.173 -14.803 7.197 C-14.301 7.206 -14.301 7.206 -11.764 7.252 C-10.993 7.275 -10.222 7.298 -9.428 7.322 C-9.304 6.539 -9.18 5.755 -9.053 4.947 C-7.764 -0.467 -4.767 0.043 0 0 Z M-9.428 8.322 C-11.936 8.986 -11.936 8.986 -14.553 8.947 C-17.186 8.924 -17.186 8.924 -19.428 9.322 C-20.795 11.221 -20.795 11.221 -21.428 13.322 C-21.098 13.982 -20.768 14.642 -20.428 15.322 C-14.158 15.322 -7.888 15.322 -1.428 15.322 C-0.438 13.342 0.552 11.362 1.572 9.322 C4.271 8.518 4.271 8.518 7.26 8.447 C8.254 8.409 9.248 8.37 10.271 8.33 C11.031 8.328 11.79 8.325 12.572 8.322 C12.615 6.656 12.613 4.988 12.572 3.322 C10.453 1.203 6.165 1.954 3.26 1.885 C2.873 1.862 2.873 1.862 0.918 1.746 C-5.122 1.627 -6.298 3.018 -9.428 8.322 Z " fill="#404040" transform="translate(131.427734375,14.677734375)"/>
<path d="M0 0 C1.171 -0.012 2.342 -0.024 3.549 -0.037 C4.666 -0.039 5.783 -0.041 6.934 -0.043 C7.964 -0.047 8.995 -0.051 10.056 -0.055 C12.562 0.188 12.562 0.188 14.562 2.188 C14.233 3.507 13.903 4.828 13.562 6.188 C4.653 6.188 -4.257 6.188 -13.438 6.188 C-13.438 -2.749 -7.511 0.004 0 0 Z " fill="#DD7E25" transform="translate(211.4375,107.8125)"/>
<path d="M0 0 C0.388 0.002 0.388 0.002 2.352 0.01 C3.12 -0.006 3.888 -0.022 4.68 -0.039 C8.264 -0.042 10.387 -0.03 13.516 1.842 C13.998 2.33 14.48 2.819 14.977 3.322 C14.102 9.197 14.102 9.197 12.977 10.322 C11.128 10.556 9.272 10.735 7.414 10.885 C6.402 10.969 5.39 11.052 4.348 11.139 C3.565 11.199 2.783 11.26 1.977 11.322 C1.667 12.127 1.358 12.931 1.039 13.76 C-0.023 16.322 -0.023 16.322 -1.023 17.322 C-4.162 17.572 -7.314 17.507 -10.461 17.51 C-11.346 17.522 -12.231 17.534 -13.143 17.547 C-13.989 17.549 -14.835 17.551 -15.707 17.553 C-16.486 17.557 -17.265 17.561 -18.068 17.565 C-20.023 17.322 -20.023 17.322 -22.023 15.322 C-22.273 12.322 -22.273 12.322 -22.023 9.322 C-20.023 7.322 -20.023 7.322 -17.422 7.127 C-16.424 7.15 -15.426 7.173 -14.398 7.197 C-13.897 7.206 -13.897 7.206 -11.359 7.252 C-10.589 7.275 -9.818 7.298 -9.023 7.322 C-8.9 6.539 -8.776 5.755 -8.648 4.947 C-7.422 -0.204 -4.812 0.046 0 0 Z M-6.023 2.322 C-7.013 4.302 -8.003 6.282 -9.023 8.322 C-11.723 9.127 -11.723 9.127 -14.711 9.197 C-15.705 9.236 -16.699 9.275 -17.723 9.314 C-18.482 9.317 -19.241 9.32 -20.023 9.322 C-20.406 10.978 -20.737 12.647 -21.023 14.322 C-20.023 15.322 -20.023 15.322 -18.166 15.436 C-17.375 15.431 -16.584 15.425 -15.77 15.42 C-14.916 15.417 -14.062 15.413 -13.182 15.41 C-12.733 15.406 -12.733 15.406 -10.461 15.385 C-9.559 15.38 -8.658 15.376 -7.729 15.371 C-5.493 15.359 -3.258 15.343 -1.023 15.322 C-0.363 13.672 0.297 12.022 0.977 10.322 C1.675 10.273 2.374 10.224 3.094 10.174 C4.004 10.099 4.914 10.024 5.852 9.947 C6.304 9.912 6.304 9.912 8.594 9.736 C10.977 9.322 10.977 9.322 12.977 7.322 C12.812 6.497 12.812 6.497 11.977 2.322 C6.037 2.322 0.097 2.322 -6.023 2.322 Z " fill="#363636" transform="translate(81.0234375,7.677734375)"/>
<path d="M0 0 C0.33 0 0.66 0 1 0 C0.67 10.89 0.34 21.78 0 33 C-1.65 33 -3.3 33 -5 33 C-7.736 24.791 -6.091 13.331 -2.977 5.391 C-2.059 3.555 -1.041 1.769 0 0 Z " fill="#484848" transform="translate(340,28)"/>
<path d="M0 0 C8.58 0 17.16 0 26 0 C26 1.65 26 3.3 26 5 C24.284 6.716 22.026 6.13 19.688 6.133 C18.612 6.134 17.537 6.135 16.43 6.137 C15.298 6.133 14.166 6.129 13 6.125 C11.868 6.129 10.736 6.133 9.57 6.137 C8.495 6.135 7.42 6.134 6.312 6.133 C5.319 6.132 4.325 6.131 3.301 6.129 C1 6 1 6 0 5 C0 3.35 0 1.7 0 0 Z " fill="#5DDD25" transform="translate(427,92)"/>
<path d="M0 0 C1 0.005 2 0.01 3.031 0.016 C4.111 0.019 5.19 0.022 6.302 0.026 C6.871 0.03 6.871 0.03 9.746 0.051 C10.316 0.053 10.316 0.053 13.201 0.065 C16.028 0.077 18.856 0.093 21.683 0.114 C22.066 1.77 22.397 3.438 22.683 5.114 C21.683 6.114 21.683 6.114 19.275 6.227 C18.233 6.222 17.191 6.217 16.117 6.211 C14.992 6.208 13.868 6.205 12.709 6.201 C11.525 6.193 10.341 6.185 9.121 6.176 C7.933 6.172 6.745 6.167 5.521 6.162 C2.575 6.151 -0.371 6.134 -3.317 6.114 C-3.359 4.447 -3.357 2.78 -3.317 1.114 C-2.317 0.114 -2.317 0.114 0 0 Z " fill="#0DB5EB" transform="translate(415.316650390625,82.886474609375)"/>
<path d="M0 0 C6.93 0 13.86 0 21 0 C21 2.31 21 4.62 21 7 C14.07 7 7.14 7 0 7 C0 4.69 0 2.38 0 0 Z " fill="#EEEEEE" transform="translate(94,51)"/>
<path d="M0 0 C7.92 0 15.84 0 24 0 C24 1.65 24 3.3 24 5 C21.582 7.418 15.312 6.185 12.062 6.188 C11.034 6.2 10.006 6.212 8.947 6.225 C8.456 6.226 8.456 6.226 5.973 6.23 C5.52 6.233 5.52 6.233 3.231 6.243 C1 6 1 6 -1 4 C-0.67 2.68 -0.34 1.36 0 0 Z " fill="#449720" transform="translate(414,151)"/>
<path d="M0 0 C0.986 0.003 1.972 0.006 2.988 0.01 C4.021 0.018 5.053 0.027 6.117 0.035 C6.637 0.037 6.637 0.037 9.27 0.049 C11.844 0.061 14.418 0.077 16.992 0.098 C17.374 1.754 17.706 3.422 17.992 5.098 C16.992 6.098 16.992 6.098 14.767 6.211 C13.809 6.206 12.851 6.201 11.863 6.195 C11.346 6.194 11.346 6.194 8.729 6.186 C7.64 6.177 6.551 6.169 5.43 6.16 C4.883 6.158 4.883 6.158 2.119 6.146 C-0.59 6.135 -3.299 6.118 -6.008 6.098 C-6.338 4.448 -6.668 2.798 -7.008 1.098 C-4.503 -0.155 -2.799 -0.016 0 0 Z " fill="#A6DCF7" transform="translate(435.0078125,141.90234375)"/>
<path d="M0 0 C7.26 0 14.52 0 22 0 C22.33 1.65 22.66 3.3 23 5 C20.64 7.36 14.732 6.185 11.562 6.188 C10.582 6.2 9.602 6.212 8.592 6.225 C7.655 6.227 6.719 6.228 5.754 6.23 C4.891 6.235 4.028 6.239 3.139 6.243 C1 6 1 6 -1 4 C-0.67 2.68 -0.34 1.36 0 0 Z " fill="#337518" transform="translate(445,134)"/>
<path d="M0 0 C5.94 0 11.88 0 18 0 C16 5 16 5 15 7 C14.849 8.447 14.751 9.899 14.684 11.352 C14.642 12.202 14.6 13.053 14.557 13.93 C14.517 14.819 14.478 15.709 14.438 16.625 C14.394 17.522 14.351 18.419 14.307 19.344 C14.2 21.562 14.1 23.781 14 26 C9.71 26 5.42 26 1 26 C0.67 17.42 0.34 8.84 0 0 Z M2 2 C2.33 9.59 2.66 17.18 3 25 C5.97 25 8.94 25 12 25 C12.049 23.926 12.098 22.852 12.148 21.746 C12.224 20.31 12.299 18.874 12.375 17.438 C12.39 17.085 12.39 17.085 12.469 15.303 C12.73 10.587 13.547 6.496 15 2 C10.71 2 6.42 2 2 2 Z " fill="#2C2C2C" transform="translate(98,77)"/>
<path d="M0 0 C6.27 0 12.54 0 19 0 C19.33 2.31 19.66 4.62 20 7 C13.73 7 7.46 7 1 7 C0.67 4.69 0.34 2.38 0 0 Z " fill="#EFEFEF" transform="translate(96,65)"/>
<path d="M0 0 C0.833 0.005 1.665 0.01 2.523 0.016 C3.422 0.019 4.321 0.022 5.248 0.026 C5.721 0.03 5.721 0.03 8.113 0.051 C9.062 0.056 10.012 0.06 10.99 0.065 C13.344 0.077 15.697 0.093 18.051 0.114 C18.433 1.77 18.764 3.438 19.051 5.114 C18.051 6.114 18.051 6.114 16.101 6.227 C15.268 6.222 14.436 6.217 13.578 6.211 C12.679 6.208 11.78 6.205 10.853 6.201 C9.908 6.193 8.962 6.185 7.988 6.176 C7.039 6.172 6.089 6.167 5.111 6.162 C2.758 6.151 0.404 6.134 -1.949 6.114 C-2.332 4.457 -2.663 2.789 -2.949 1.114 C-1.949 0.114 -1.949 0.114 0 0 Z " fill="#60C8F2" transform="translate(448.949462890625,99.886474609375)"/>
<path d="M0 0 C8.958 0.897 16.111 7.501 22 14 C21.34 14.66 20.68 15.32 20 16 C16.805 15.626 14.543 14.244 11.891 12.496 C11.137 12.003 10.382 11.51 9.605 11.002 C8.828 10.486 8.051 9.969 7.25 9.438 C6.457 8.917 5.664 8.397 4.848 7.861 C2.895 6.579 0.946 5.292 -1 4 C-0.67 2.68 -0.34 1.36 0 0 Z " fill="#3E3E3E" transform="translate(345,69)"/>
<path d="M0 0 C0.645 0.017 0.645 0.017 3.906 0.102 C4.551 0.105 4.551 0.105 7.812 0.125 C11.835 0.798 13.584 1.828 16.406 4.727 C16.406 5.387 16.406 6.047 16.406 6.727 C8.156 6.727 -0.094 6.727 -8.594 6.727 C-3.594 0.727 -3.594 0.727 0 0 Z " fill="none" transform="translate(126.59375,78.2734375)"/>
<path d="M0 0 C10.23 0 20.46 0 31 0 C31 3.3 31 6.6 31 10 C20.77 10 10.54 10 0 10 C0 6.7 0 3.4 0 0 Z M2 1 C2 3.31 2 5.62 2 8 C10.91 8 19.82 8 29 8 C29 5.69 29 3.38 29 1 C20.09 1 11.18 1 2 1 Z " fill="#3C3C3C" transform="translate(58,43)"/>
<path d="M0 0 C10.23 0 20.46 0 31 0 C31.33 3.3 31.66 6.6 32 10 C21.44 10 10.88 10 0 10 C0 6.7 0 3.4 0 0 Z M2 2 C1.67 4.31 1.34 6.62 1 9 C10.57 9 20.14 9 30 9 C30 6.69 30 4.38 30 2 C20.76 2 11.52 2 2 2 Z " fill="#333333" transform="translate(58,56)"/>
<path d="M0 0 C0.99 0 1.98 0 3 0 C3 10.23 3 20.46 3 31 C1.68 31 0.36 31 -1 31 C-1.03 27.708 -1.047 24.417 -1.062 21.125 C-1.071 20.207 -1.079 19.289 -1.088 18.344 C-1.11 12.166 -0.739 6.133 0 0 Z " fill="#E5E5E5" transform="translate(337,76)"/>
<path d="M0 0 C0.371 -0.006 0.371 -0.006 2.248 -0.037 C4.188 -0.042 6.127 0.066 8.062 0.188 C8.722 0.847 9.383 1.507 10.062 2.188 C9.733 3.507 9.403 4.827 9.062 6.188 C3.122 6.188 -2.818 6.188 -8.938 6.188 C-8.938 -1.522 -6.592 0.006 0 0 Z " fill="#DC7C21" transform="translate(25.9375,124.8125)"/>
<path d="M0 0 C0.33 0 0.66 0 1 0 C1 8.58 1 17.16 1 26 C-0.65 26 -2.3 26 -4 26 C-4.306 17.207 -4.358 7.892 0 0 Z " fill="#7F7F7F" transform="translate(293,45)"/>
<path d="M0 0 C7.59 0 15.18 0 23 0 C23.33 3.3 23.66 6.6 24 10 C16.74 10 9.48 10 2 10 C0 5 0 5 0 0 Z M2 2 C2.33 4.31 2.66 6.62 3 9 C9.27 9 15.54 9 22 9 C21.67 6.69 21.34 4.38 21 2 C14.73 2 8.46 2 2 2 Z " fill="#3A3A3A" transform="translate(94,63)"/>
<path d="M0 0 C0.33 0 0.66 0 1 0 C1.812 2.625 1.812 2.625 2 6 C-0.015 9.493 -1.255 11.48 -5.164 12.645 C-6.724 12.924 -8.287 13.188 -9.852 13.438 C-13.154 14.302 -14.81 16.488 -17 19 C-19.824 19.941 -21.529 20.117 -24.449 20.098 C-25.297 20.094 -26.144 20.091 -27.018 20.088 C-27.458 20.084 -27.458 20.084 -29.688 20.062 C-30.58 20.058 -31.473 20.053 -32.393 20.049 C-34.595 20.037 -36.798 20.021 -39 20 C-39 19.34 -39 18.68 -39 18 C-38.71 17.998 -38.71 17.998 -37.243 17.988 C-34.599 17.955 -31.956 17.884 -29.312 17.812 C-28.4 17.807 -27.488 17.801 -26.549 17.795 C-21.848 17.641 -19.68 17.549 -15.918 14.512 C-15.285 13.683 -14.652 12.854 -14 12 C-11.965 9.965 -8.107 10.132 -5.348 9.695 C-3 9 -3 9 -1 6 C-0.61 4.01 -0.268 2.01 0 0 Z " fill="#4D4D4D" transform="translate(99,11)"/>
<path d="M0 0 C0.279 0.188 0.279 0.188 1.688 1.138 C0.192 5.588 -2.787 6.805 -6.812 8.888 C-7.394 9.195 -7.394 9.195 -10.343 10.748 C-13.312 12.138 -13.312 12.138 -15.312 12.138 C-15.312 11.478 -15.312 10.818 -15.312 10.138 C-13.356 9.133 -11.397 8.134 -9.437 7.138 C-8.346 6.581 -7.255 6.024 -6.132 5.451 C-3.312 4.138 -3.312 4.138 -1.312 4.138 C-1.642 3.478 -1.972 2.818 -2.312 2.138 C-2.816 2.411 -3.321 2.683 -3.84 2.964 C-6.12 4.193 -8.403 5.416 -10.687 6.638 C-11.481 7.067 -12.275 7.497 -13.093 7.939 C-13.473 8.142 -13.473 8.142 -15.397 9.169 C-16.099 9.546 -16.801 9.924 -17.524 10.312 C-19.312 11.138 -19.312 11.138 -21.312 11.138 C-21.642 11.798 -21.972 12.458 -22.312 13.138 C-22.642 12.148 -22.972 11.158 -23.312 10.138 C-19.909 8.237 -16.487 6.372 -13.062 4.513 C-12.577 4.242 -12.577 4.242 -10.128 2.873 C-9.193 2.37 -8.259 1.867 -7.296 1.349 C-6.437 0.878 -5.578 0.406 -4.693 -0.079 C-2.312 -0.862 -2.312 -0.862 0 0 Z " fill="#424242" transform="translate(332.3115234375,70.86181640625)"/>
<path d="M0 0 C0.99 0.33 1.98 0.66 3 1 C5.131 1.118 7.265 1.177 9.399 1.205 C9.721 1.21 9.721 1.21 11.351 1.235 C13.478 1.267 15.604 1.292 17.73 1.316 C19.206 1.337 20.681 1.358 22.157 1.379 C26.038 1.435 29.92 1.484 33.801 1.532 C37.763 1.582 41.724 1.638 45.686 1.693 C53.457 1.801 61.228 1.902 69 2 C69 2.33 69 2.66 69 3 C45.57 3 22.14 3 -2 3 C-1.34 2.01 -0.68 1.02 0 0 Z " fill="none" transform="translate(227,113)"/>
<path d="M0 0 C1.32 0 2.64 0 4 0 C2.955 3 2.175 3.902 -0.645 5.484 C-1.69 5.902 -2.735 6.32 -3.812 6.75 C-4.331 6.964 -4.331 6.964 -6.957 8.047 C-9.854 8.954 -11.994 9.2 -15 9 C-11.803 6.351 -8.605 4.06 -5 2 C-5.99 1.01 -6.98 0.02 -8 -1 C-4.306 -2.231 -3.48 -1.443 0 0 Z " fill="#343434" transform="translate(371,85)"/>
<path d="M0 0 C0.66 0.66 1.32 1.32 2 2 C0.062 6.14 0.062 6.14 -2 8 C-5.332 8.83 -8.575 8.987 -12 9 C-12.33 10.65 -12.66 12.3 -13 14 C-7.39 14 -1.78 14 4 14 C4 14.33 4 14.66 4 15 C1.209 15.221 -1.582 15.427 -4.375 15.625 C-5.169 15.689 -5.963 15.754 -6.781 15.82 C-8.85 15.961 -10.926 15.988 -13 16 C-15 14 -15 14 -15.25 11 C-15 8 -15 8 -13 6 C-10.398 5.805 -10.398 5.805 -7.375 5.875 C-6.874 5.884 -6.874 5.884 -4.336 5.93 C-3.565 5.953 -2.794 5.976 -2 6 C-1.856 5.196 -1.711 4.391 -1.562 3.562 C-1 1 -1 1 0 0 Z " fill="#585858" transform="translate(124,16)"/>
<path d="M0 0 C3.396 -0.087 6.791 -0.141 10.188 -0.188 C11.147 -0.213 12.107 -0.238 13.096 -0.264 C22.095 -0.357 22.095 -0.357 26 3 C28.429 6.644 28.162 8.712 28 13 C27.67 13 27.34 13 27 13 C26.732 11.907 26.464 10.814 26.188 9.688 C24.69 5.037 24.69 5.037 22 3 C19.855 2.599 19.855 2.599 17.402 2.559 C16.519 2.532 15.635 2.506 14.725 2.479 C13.805 2.465 12.885 2.451 11.938 2.438 C10.113 2.403 8.289 2.361 6.465 2.309 C6.061 2.302 6.061 2.302 4.015 2.271 C2 2 2 2 0 0 Z " fill="#474747" transform="translate(73,3)"/>
<path d="M0 0 C4.783 1.297 7.727 3.102 11.375 6.438 C12.249 7.22 13.123 8.002 14.023 8.809 C16 11 16 11 16 14 C13.511 12.431 11.035 10.846 8.562 9.25 C7.855 8.807 7.148 8.363 6.42 7.906 C5.746 7.468 5.073 7.03 4.379 6.578 C3.756 6.18 3.133 5.782 2.49 5.372 C0.66 3.687 0.38 2.42 0 0 Z " fill="#2D2D2D" transform="translate(382,83)"/>
<path d="M0 0 C0.625 1.813 0.625 1.813 1 4 C0.34 4.99 -0.32 5.98 -1 7 C-3.602 7.512 -3.602 7.512 -6.625 7.688 C-7.126 7.72 -7.126 7.72 -9.664 7.887 C-10.435 7.924 -11.206 7.961 -12 8 C-12.268 8.804 -12.536 9.609 -12.812 10.438 C-13.204 11.283 -13.596 12.129 -14 13 C-17.828 14.276 -21.235 13.863 -25.188 13.562 C-25.937 13.51 -26.687 13.458 -27.459 13.404 C-29.306 13.275 -31.153 13.138 -33 13 C-33 12.67 -33 12.34 -33 12 C-27.06 12 -21.12 12 -15 12 C-14.67 10.35 -14.34 8.7 -14 7 C-12.371 5.371 -10.366 5.841 -8.125 5.75 C-5.391 5.52 -5.391 5.52 -3 5 C-0.875 2.438 -0.875 2.438 0 0 Z " fill="#565656" transform="translate(95,11)"/>
<path d="M0 0 C2.438 0.188 2.438 0.188 3.438 1.188 C3.562 3.688 3.562 3.688 3.438 6.188 C2.438 7.188 2.438 7.188 -0.625 7.25 C-1.594 7.229 -2.564 7.209 -3.562 7.188 C-4.188 4.812 -4.188 4.812 -4.562 2.188 C-2.562 0.188 -2.562 0.188 0 0 Z " fill="#3B3B3B" transform="translate(338.5625,63.8125)"/>
<path d="M0 0 C0.33 0 0.66 0 1 0 C1 5.94 1 11.88 1 18 C0.01 18 -0.98 18 -2 18 C-2.054 15.938 -2.093 13.875 -2.125 11.812 C-2.148 10.664 -2.171 9.515 -2.195 8.332 C-2.005 5.083 -1.394 2.913 0 0 Z " fill="#242424" transform="translate(378,60)"/>
<path d="M0 0 C4.95 0.33 9.9 0.66 15 1 C15 1.33 15 1.66 15 2 C10.71 2 6.42 2 2 2 C2.174 2.971 2.348 3.941 2.527 4.941 C3.154 9.325 2.891 13.537 2.562 17.938 C2.536 18.327 2.536 18.327 2.404 20.299 C2.276 22.2 2.139 24.1 2 26 C1.67 26 1.34 26 1 26 C0.67 17.42 0.34 8.84 0 0 Z " fill="#686868" transform="translate(98,77)"/>
<path d="M0 0 C0.66 0 1.32 0 2 0 C1.051 3.512 0.372 4.763 -2.75 6.75 C-6 8 -6 8 -9.062 8.375 C-12.922 9.196 -14.373 11.154 -17 14 C-17.66 14 -18.32 14 -19 14 C-19 12 -19 12 -16.562 9.438 C-15.717 8.633 -14.871 7.829 -14 7 C-13.67 6.67 -13.34 6.34 -13 6 C-10.488 5.545 -7.97 5.165 -5.445 4.793 C-2.452 3.822 -1.727 2.549 0 0 Z " fill="#444444" transform="translate(149,23)"/>
<path d="M0 0 C0.33 0 0.66 0 1 0 C1.103 7.427 0.999 14.635 0 22 C-0.66 22 -1.32 22 -2 22 C-2.214 14.316 -2.017 7.437 0 0 Z " fill="#D4D4D4" transform="translate(338,37)"/>
<path d="M0 0 C0.33 0.99 0.66 1.98 1 3 C-1.763 4.37 -4.537 5.718 -7.312 7.062 C-7.705 7.257 -7.705 7.257 -9.693 8.244 C-10.072 8.426 -10.072 8.426 -11.988 9.348 C-12.685 9.688 -13.381 10.028 -14.099 10.379 C-16 11 -16 11 -19 10 C-12.73 6.7 -6.46 3.4 0 0 Z " fill="#DCDCDC" transform="translate(330,72)"/>
<path d="M0 0 C4.466 0.537 7.107 2.208 10.688 4.875 C11.64 5.574 12.593 6.272 13.574 6.992 C16 9 16 9 18 12 C13.765 10.469 10.008 8.351 6.188 6 C5.59 5.644 4.993 5.288 4.377 4.922 C2.881 4.006 1.435 3.009 0 2 C0 1.34 0 0.68 0 0 Z " fill="#D8D8D8" transform="translate(346,71)"/>
<path d="M0 0 C3.131 3.386 3.336 5.711 3.188 10.25 C3.174 10.789 3.174 10.789 3.105 13.516 C3.071 14.335 3.036 15.155 3 16 C1.68 16 0.36 16 -1 16 C-1.027 14.271 -1.047 12.542 -1.062 10.812 C-1.074 9.85 -1.086 8.887 -1.098 7.895 C-1.005 5.144 -0.621 2.675 0 0 Z " fill="#343434" transform="translate(290,55)"/>
<path d="M0 0 C0.33 0 0.66 0 1 0 C0.67 9.24 0.34 18.48 0 28 C-0.33 28 -0.66 28 -1 28 C-1.226 23.897 -1.428 19.792 -1.625 15.688 C-1.689 14.52 -1.754 13.353 -1.82 12.15 C-1.872 11.032 -1.923 9.914 -1.977 8.762 C-2.029 7.73 -2.081 6.698 -2.135 5.635 C-2 3 -2 3 0 0 Z " fill="#292929" transform="translate(340,28)"/>
<path d="M0 0 C0.66 0.33 1.32 0.66 2 1 C0.647 7.451 -1.031 13.711 -3 20 C-3.66 19.67 -4.32 19.34 -5 19 C-3.647 12.549 -1.969 6.289 0 0 Z " fill="#535353" transform="translate(52,63)"/>
<path d="M0 0 C3.837 1.349 6.652 3.078 9.812 5.625 C10.208 5.941 10.208 5.941 12.207 7.539 C12.799 8.021 13.39 8.503 14 9 C13.34 9.66 12.68 10.32 12 11 C9.36 9.68 6.72 8.36 4 7 C4.66 6.34 5.32 5.68 6 5 C5.01 4.361 4.02 3.721 3 3.062 C2.01 2.382 1.02 1.701 0 1 C0 0.67 0 0.34 0 0 Z " fill="#7B7B7B" transform="translate(299,79)"/>
<path d="M0 0 C4.401 0.503 6.712 2.088 10 5 C8.35 4.67 6.7 4.34 5 4 C6.32 5.32 7.64 6.64 9 8 C5.508 7.353 2.846 6.135 0 4 C0 2.68 0 1.36 0 0 Z " fill="#373737" transform="translate(297,77)"/>
<path d="M0 0 C1.078 0.12 2.155 0.24 3.266 0.363 C4.085 0.47 4.905 0.577 5.75 0.688 C5.75 1.017 5.75 1.347 5.75 1.688 C4.93 1.713 4.11 1.739 3.266 1.766 C2.727 1.794 2.727 1.794 0 1.938 C-0.534 1.961 -0.534 1.961 -3.234 2.078 C-6.8 2.799 -7.883 4.022 -10.25 6.688 C-10.91 6.688 -11.57 6.688 -12.25 6.688 C-9.702 0.53 -6.474 -0.774 0 0 Z " fill="#525252" transform="translate(129.25,77.3125)"/>
<path d="M0 0 C1.32 0 2.64 0 4 0 C4.33 2.31 4.66 4.62 5 7 C3.02 7 1.04 7 -1 7 C-0.67 4.69 -0.34 2.38 0 0 Z " fill="#F5EBE9" transform="translate(72,109)"/>
<path d="M0 0 C11.522 -0.554 11.522 -0.554 17 3 C17 3.99 17 4.98 17 6 C15.866 5.361 14.731 4.721 13.562 4.062 C9.098 1.802 4.954 1.229 0 1 C0 0.67 0 0.34 0 0 Z " fill="#3C3C3C" transform="translate(126,77)"/>
<path d="M0 0 C1.98 0.66 3.96 1.32 6 2 C6 2.66 6 3.32 6 4 C6.66 4.66 7.32 5.32 8 6 C7.01 6.33 6.02 6.66 5 7 C2.312 5.25 2.312 5.25 0 3 C0 2.01 0 1.02 0 0 Z " fill="#3C3C3C" transform="translate(382,83)"/>
<path d="M0 0 C2.31 0 4.62 0 7 0 C6.34 1.98 5.68 3.96 5 6 C4.01 6 3.02 6 2 6 C1.34 4.02 0.68 2.04 0 0 Z " fill="#F3E8E3" transform="translate(34,124)"/>
<path d="M0 0 C0.402 0.01 0.402 0.01 2.438 0.062 C2.438 3.062 2.438 3.062 0.438 6.062 C-0.223 6.062 -0.882 6.062 -1.562 6.062 C-2.223 4.412 -2.882 2.763 -3.562 1.062 C-2.562 0.062 -2.562 0.062 0 0 Z " fill="#EFF8F5" transform="translate(345.5625,114.9375)"/>
<path d="M0 0 C1.675 0.286 3.344 0.618 5 1 C4.67 2.65 4.34 4.3 4 6 C3.01 5.67 2.02 5.34 1 5 C1.66 5 2.32 5 3 5 C3 4.01 3 3.02 3 2 C2.34 2 1.68 2 1 2 C0.67 2.99 0.34 3.98 0 5 C-0.562 3.062 -0.562 3.062 -1 1 C-0.67 0.67 -0.34 0.34 0 0 Z " fill="#444444" transform="translate(290,73)"/>
<path d="M0 0 C2.31 0 4.62 0 7 0 C6.34 1.98 5.68 3.96 5 6 C4.01 5.67 3.02 5.34 2 5 C0.812 2.438 0.812 2.438 0 0 Z " fill="#EAE9E3" transform="translate(186,124)"/>
<path d="M0 0 C5.28 0 10.56 0 16 0 C15.34 1.32 14.68 2.64 14 4 C13.67 3.01 13.34 2.02 13 1 C8.71 1 4.42 1 0 1 C0 0.67 0 0.34 0 0 Z " fill="#252525" transform="translate(100,77)"/>
<path d="M0 0 C0.33 0.66 0.66 1.32 1 2 C3.062 2.625 3.062 2.625 5 3 C4.67 3.165 4.67 3.165 3 4 C2.67 4.495 2.67 4.495 1 7 C0.67 6.67 0.34 6.34 0 6 C-0.66 6.66 -1.32 7.32 -2 8 C-2 7.34 -2 6.68 -2 6 C-2.99 5.67 -3.98 5.34 -5 5 C-3.68 4.67 -2.36 4.34 -1 4 C-0.67 2.68 -0.34 1.36 0 0 Z " fill="#D6D6D6" transform="translate(342,66)"/>
<path d="M0 0 C1.45 2.341 2.043 3.58 1.758 6.359 C1.549 7.148 1.34 7.937 1.125 8.75 C0.921 9.549 0.718 10.348 0.508 11.172 C0.34 11.775 0.173 12.378 0 13 C-0.66 12.34 -1.32 11.68 -2 11 C-1.686 7.044 -1.252 3.755 0 0 Z " fill="#525252" transform="translate(337,33)"/>
<path d="M0 0 C2.932 0.317 4.59 0.632 6.812 2.625 C8.416 5.831 8.204 8.468 8 12 C7.67 12 7.34 12 7 12 C6.887 11.474 6.887 11.474 6.312 8.812 C5.206 4.84 3.114 2.704 0 0 Z " fill="#363636" transform="translate(93,4)"/>
<path d="M0 0 C0.99 0.33 1.98 0.66 3 1 C2.196 1.619 1.391 2.237 0.562 2.875 C-2 5 -2 5 -3 7 C-5.64 7 -8.28 7 -11 7 C-11 6.67 -11 6.34 -11 6 C-8.69 6 -6.38 6 -4 6 C-3.856 5.598 -3.856 5.598 -3.125 3.562 C-2 1 -2 1 0 0 Z " fill="#2F2F2F" transform="translate(72,4)"/>
<path d="M0 0 C-0.33 0.66 -0.66 1.32 -1 2 C-3.285 2.414 -3.285 2.414 -6.062 2.625 C-6.982 2.7 -7.901 2.775 -8.848 2.852 C-9.558 2.901 -10.268 2.95 -11 3 C-7.658 -1.017 -4.968 -0.244 0 0 Z " fill="#242424" transform="translate(276,87)"/>
<path d="M0 0 C2.688 1.938 2.688 1.938 5 4 C3.35 4.66 1.7 5.32 0 6 C0 5.34 0 4.68 0 4 C-1.5 2.375 -1.5 2.375 -3 1 C-2.01 0.67 -1.02 0.34 0 0 Z " fill="#1B1B1B" transform="translate(366,83)"/>
<path d="M0 0 C0.99 0.33 1.98 0.66 3 1 C3 2.32 3 3.64 3 5 C1.68 5 0.36 5 -1 5 C-0.67 3.35 -0.34 1.7 0 0 Z " fill="#434343" transform="translate(377,80)"/>
<path d="M0 0 C4.032 0.275 5.569 0.535 8.375 3.562 C8.911 4.367 9.447 5.171 10 6 C6.005 4.63 3.2 2.743 0 0 Z " fill="#D2D2D2" transform="translate(354,77)"/>
<path d="M0 0 C0.66 0.66 1.32 1.32 2 2 C1.34 2 0.68 2 0 2 C0 2.66 0 3.32 0 4 C-1.875 4.625 -1.875 4.625 -4 5 C-4.66 4.34 -5.32 3.68 -6 3 C-4.02 2.01 -2.04 1.02 0 0 Z " fill="#565656" transform="translate(276,83)"/>
<path d="M0 0 C0.99 0.33 1.98 0.66 3 1 C-0.203 3.834 -2.781 4.521 -7 5 C-4.703 3.257 -2.401 1.601 0 0 Z " fill="#CDCDCD" transform="translate(318,78)"/>
<path d="M0 0 C0.99 0.33 1.98 0.66 3 1 C3 2.32 3 3.64 3 5 C1.68 4.67 0.36 4.34 -1 4 C-0.67 2.68 -0.34 1.36 0 0 Z " fill="#DBDBDB" transform="translate(337,65)"/>
<path d="M0 0 C0.33 0 0.66 0 1 0 C1 2.31 1 4.62 1 7 C0.34 7 -0.32 7 -1 7 C-1.33 7.66 -1.66 8.32 -2 9 C-1.125 2.25 -1.125 2.25 0 0 Z " fill="#272727" transform="translate(293,45)"/>
</svg>
