<?xml version="1.0" encoding="UTF-8"?>
<!-- Generator: visioncortex VTracer 0.6.12 -->
<svg version="1.1" xmlns="http://www.w3.org/2000/svg" width="500" height="603">
<path d="M0 0 C0.562 -0.001 0.562 -0.001 3.406 -0.006 C4.647 -0.003 5.887 -0 7.165 0.003 C8.478 0.002 9.792 0.001 11.145 0 C14.798 -0.002 18.451 0.002 22.104 0.007 C26.041 0.011 29.977 0.01 33.914 0.009 C40.737 0.009 47.56 0.012 54.383 0.017 C64.248 0.025 74.113 0.028 83.977 0.029 C99.982 0.031 115.986 0.038 131.99 0.048 C147.539 0.057 163.088 0.064 178.636 0.068 C179.595 0.068 180.553 0.069 181.54 0.069 C186.346 0.07 191.152 0.071 195.958 0.073 C235.844 0.083 275.731 0.101 315.618 0.123 C315.75 0.527 315.75 0.527 316.42 2.572 C316.773 3.641 317.125 4.71 317.489 5.811 C317.836 6.866 318.183 7.922 318.541 9.01 C319.494 11.766 320.539 14.441 321.68 17.123 C324.42 23.817 326.618 30.861 326.618 38.123 C323.522 39.155 321.393 39.252 318.148 39.26 C317.005 39.265 315.861 39.27 314.683 39.275 C313.421 39.276 312.159 39.276 310.859 39.277 C309.509 39.281 308.159 39.285 306.809 39.29 C303.092 39.302 299.374 39.308 295.657 39.312 C291.65 39.318 287.644 39.33 283.638 39.341 C273.959 39.365 264.279 39.38 254.6 39.393 C251.867 39.396 249.133 39.4 246.4 39.405 C229.429 39.43 212.459 39.452 195.488 39.464 C191.557 39.467 187.625 39.47 183.694 39.473 C182.717 39.474 181.74 39.475 180.733 39.475 C164.902 39.488 149.071 39.521 133.24 39.563 C116.991 39.605 100.741 39.629 84.491 39.634 C75.366 39.638 66.241 39.649 57.116 39.682 C49.345 39.71 41.574 39.721 33.803 39.71 C29.839 39.705 25.875 39.708 21.91 39.733 C18.278 39.755 14.647 39.754 11.016 39.735 C9.084 39.731 7.153 39.752 5.221 39.773 C-2.895 39.699 -8.132 38.373 -13.931 32.574 C-18.748 27.107 -18.73 22.303 -18.66 15.291 C-18.168 9.673 -15.342 6.871 -11.32 3.311 C-7.374 0.372 -4.784 -0.002 0 0 Z " fill="#52DB17" transform="translate(158.38231945037842,266.8769521713257)"/>
<path d="M0 0 C12.772 1.568 23.872 10.588 34 18 C36.502 16.799 38.673 15.538 40.976 13.96 C45.761 11.238 50.429 11.401 55.821 11.398 C56.901 11.382 57.981 11.366 59.093 11.349 C62.706 11.3 66.318 11.28 69.93 11.26 C72.523 11.232 75.115 11.202 77.708 11.171 C85.481 11.083 93.254 11.033 101.027 10.989 C103.958 10.972 106.889 10.953 109.819 10.934 C122.749 10.85 135.678 10.778 148.608 10.739 C151.769 10.729 154.929 10.719 158.089 10.709 C158.875 10.707 159.66 10.705 160.469 10.702 C173.191 10.66 185.911 10.543 198.632 10.395 C211.708 10.244 224.784 10.161 237.862 10.144 C245.199 10.133 252.532 10.092 259.868 9.975 C266.772 9.864 273.67 9.847 280.574 9.891 C283.103 9.892 285.632 9.863 288.159 9.8 C306.755 9.365 306.755 9.365 312.189 13.777 C315.974 18.034 318.626 22.746 321.015 27.894 C322.272 30.582 323.792 33.073 325.359 35.59 C326.164 37.035 326.962 38.484 327.75 39.938 C328.173 40.69 328.596 41.442 329.031 42.217 C332 47.61 332 47.61 332 51 C295.43 51.092 258.859 51.162 222.289 51.204 C217.972 51.209 213.655 51.214 209.338 51.22 C208.908 51.22 208.908 51.22 206.733 51.223 C192.815 51.24 178.898 51.272 164.98 51.309 C150.7 51.346 136.42 51.368 122.14 51.376 C113.328 51.382 104.516 51.399 95.704 51.432 C89.662 51.453 83.62 51.459 77.578 51.454 C74.091 51.451 70.605 51.455 67.119 51.477 C63.337 51.497 59.557 51.492 55.775 51.481 C54.675 51.493 53.575 51.504 52.441 51.516 C46.064 51.466 42.187 50.799 37 47 C33.153 42.737 30.724 39.64 30.875 33.812 C30.893 32.911 30.911 32.01 30.93 31.082 C30.953 30.395 30.976 29.708 31 29 C30.284 28.734 29.569 28.469 28.832 28.195 C25.928 26.97 23.378 25.528 20.691 23.883 C20.194 23.579 20.194 23.579 17.678 22.043 C16.65 21.41 15.622 20.777 14.562 20.125 C13.538 19.5 12.514 18.875 11.459 18.23 C6.577 15.241 1.728 12.228 -3 9 C-2.01 6.03 -1.02 3.06 0 0 Z " fill="#2A6E0D" transform="translate(136,206)"/>
<path d="M0 0 C0.454 -0.004 0.454 -0.004 2.751 -0.021 C5.776 -0.039 8.799 -0.021 11.824 -0.003 C13.999 -0.008 16.175 -0.015 18.35 -0.025 C24.247 -0.043 30.143 -0.03 36.04 -0.011 C42.215 0.006 48.391 -0.003 54.566 -0.008 C64.937 -0.013 75.306 0.003 85.677 0.031 C97.66 0.063 109.643 0.063 121.626 0.046 C133.162 0.03 144.697 0.037 156.232 0.054 C161.138 0.061 166.043 0.06 170.949 0.052 C176.728 0.045 182.506 0.057 188.284 0.084 C190.403 0.091 192.522 0.091 194.64 0.084 C197.537 0.075 200.432 0.091 203.328 0.114 C204.163 0.105 204.998 0.097 205.858 0.089 C212.501 0.182 217.866 1.992 222.758 6.601 C226.766 12.558 227.893 17.507 226.664 24.628 C224.562 31.28 220.959 34.626 215.061 38.209 C210.769 40.002 207.281 40.049 202.682 40.016 C201.788 40.021 200.894 40.027 199.974 40.032 C196.984 40.046 193.995 40.039 191.006 40.032 C188.861 40.038 186.715 40.045 184.57 40.053 C178.745 40.071 172.921 40.07 167.096 40.064 C162.233 40.061 157.37 40.067 152.506 40.073 C141.032 40.087 129.558 40.086 118.084 40.074 C106.249 40.063 94.415 40.077 82.58 40.104 C72.417 40.126 62.254 40.132 52.091 40.127 C46.022 40.123 39.953 40.126 33.884 40.143 C28.176 40.158 22.469 40.154 16.761 40.135 C14.668 40.132 12.575 40.135 10.482 40.145 C7.621 40.159 4.761 40.147 1.9 40.129 C1.075 40.139 0.25 40.149 -0.6 40.159 C-6.843 40.079 -12.189 38.532 -16.866 34.216 C-21.709 28.724 -22.871 23.548 -22.707 16.413 C-22.011 11.189 -19.651 7.553 -15.621 4.203 C-10.335 0.672 -6.286 -0.089 0 0 Z " fill="#A2DAF7" transform="translate(122.336181640625,508.37181091308594)"/>
<path d="M0 0 C0.767 -0.006 1.534 -0.013 2.325 -0.02 C4.909 -0.04 7.494 -0.053 10.079 -0.066 C11.926 -0.079 13.774 -0.092 15.622 -0.106 C32.504 -0.222 49.388 -0.278 66.27 -0.323 C78.751 -0.356 91.231 -0.415 103.711 -0.51 C112.485 -0.574 121.258 -0.608 130.032 -0.619 C135.273 -0.627 140.512 -0.648 145.752 -0.702 C150.687 -0.753 155.619 -0.765 160.554 -0.749 C162.361 -0.75 164.168 -0.764 165.975 -0.793 C181.313 -1.027 181.313 -1.027 187.049 4.021 C188.273 5.383 189.474 6.766 190.645 8.174 C191.917 9.321 193.206 10.45 194.52 11.549 C204.306 20.124 213.433 28.281 220.645 39.174 C191.973 39.243 163.301 39.296 134.629 39.327 C131.243 39.331 127.858 39.335 124.472 39.339 C124.135 39.339 124.135 39.339 122.429 39.341 C111.518 39.354 100.608 39.378 89.697 39.406 C78.5 39.434 67.302 39.45 56.105 39.456 C49.816 39.46 43.528 39.469 37.239 39.491 C31.321 39.512 25.402 39.518 19.483 39.513 C17.311 39.514 15.139 39.52 12.966 39.532 C9.999 39.547 7.033 39.543 4.066 39.535 C3.637 39.539 3.637 39.539 1.464 39.561 C-4.764 39.515 -9.687 38.54 -14.5 34.272 C-14.775 33.936 -14.775 33.936 -16.168 32.237 C-16.731 31.568 -17.294 30.899 -17.875 30.209 C-21.488 25.243 -22.133 21.225 -21.355 15.174 C-19.417 8.415 -15.172 4.813 -9.355 1.174 C-6.361 -0.323 -3.284 0.012 0 0 Z " fill="#369010" transform="translate(217.35511779785156,169.82591247558594)"/>
<path d="M0 0 C0.33 0 0.66 0 1 0 C1.208 20.344 0.578 40.666 0 61 C13.398 54.094 26.764 47.15 39.917 39.784 C44.203 37.409 48.249 35.33 53 34 C54.65 35.98 56.3 37.96 58 40 C55.093 47.4 46.696 50.589 40.125 54.188 C39.157 54.733 38.189 55.279 37.191 55.842 C36.244 56.362 35.296 56.882 34.32 57.418 C33.894 57.654 33.894 57.654 31.735 58.848 C29 60 29 60 22 61 C22 70.24 22 79.48 22 89 C25.341 87.288 28.683 85.576 32.125 83.812 C53.519 73 53.519 73 60 73 C59.988 72.343 59.977 71.685 59.965 71.008 C59.876 61.643 60.419 52.342 61 43 C65.29 43 69.58 43 74 43 C74 50.92 74 58.84 74 67 C75.485 66.67 75.485 66.67 83 65 C85.875 64.625 85.875 64.625 88 65 C92.082 68.791 91.888 73.616 92.312 78.875 C92.241 83.555 90.629 87.172 88 91 C84.389 94.431 81.064 97 76 97 C76 103.27 76 109.54 76 116 C70.39 116 64.78 116 59 116 C59 109.73 59 103.46 59 97 C54.875 97.165 54.875 97.165 34 98 C35.939 99.464 37.877 100.929 39.875 102.438 C50.839 110.845 62.492 119.92 68 133 C64.656 131.742 61.682 130.315 58.656 128.418 C57.831 127.904 57.007 127.39 56.157 126.86 C55.28 126.308 54.403 125.756 53.5 125.188 C51.632 124.021 49.763 122.854 47.895 121.688 C46.931 121.084 45.968 120.481 44.975 119.859 C40.056 116.785 35.121 113.738 30.188 110.688 C28.41 109.587 26.633 108.487 24.855 107.387 C24.482 107.156 24.482 107.156 22.594 105.987 C22.068 105.661 21.542 105.336 21 105 C21.113 106.418 21.24 107.834 21.371 109.25 C21.44 110.039 21.509 110.828 21.58 111.641 C22.022 114.125 22.802 115.828 24.062 118 C26.425 122.254 26.639 126.212 26 131 C25.67 131.33 25.34 131.66 25 132 C25.085 134.084 25.193 136.167 25.312 138.25 C25.353 144.348 25.353 144.348 23.914 147.008 C21.075 149.637 19.057 150.001 15.25 149.938 C12 149 12 149 10 147 C8.012 146.602 6.011 146.262 4 146 C4.495 146.928 4.99 147.856 5.5 148.812 C7 152 7 152 7 155 C6.34 155.66 5.68 156.32 5 157 C4.693 159.577 4.49 162.041 4.375 164.625 C4.313 165.842 4.313 165.842 4 172 C-1.61 172 -7.22 172 -13 172 C-13 170.68 -13 169.36 -13 168 C-13.843 168.361 -14.686 168.722 -15.555 169.094 C-16.65 169.558 -17.746 170.022 -18.875 170.5 C-19.966 170.964 -21.056 171.428 -22.18 171.906 C-25 173 -25 173 -27 173 C-26.938 174.031 -26.876 175.062 -26.812 176.125 C-27.077 181.592 -28.779 184.581 -32.312 188.688 C-37.534 193.181 -42.018 194.445 -48.805 194.293 C-49.529 194.289 -50.253 194.284 -50.999 194.28 C-53.291 194.263 -55.583 194.226 -57.875 194.188 C-59.437 194.172 -61 194.159 -62.562 194.146 C-66.375 194.114 -70.188 194.062 -74 194 C-72.885 190.492 -71.729 187.203 -69.969 183.969 C-69.576 183.247 -69.183 182.525 -68.778 181.781 C-67.003 178.614 -65.202 175.464 -63.366 172.333 C-62.485 170.829 -61.617 169.319 -60.763 167.8 C-54.521 156.833 -54.521 156.833 -48.762 154.93 C-41.801 154.56 -37.819 156.274 -32.68 160.773 C-31 162 -31 162 -28.188 161.75 C-27.136 161.173 -26.084 160.595 -25 160 C-24.082 159.6 -23.164 159.201 -22.219 158.789 C-16.296 156.026 -16.296 156.026 -14 154 C-13.835 152.68 -13.835 152.68 -13 146 C-22.9 146 -32.8 146 -43 146 C-38.923 137.846 -31.785 131.626 -25.375 125.25 C-25.006 124.879 -25.006 124.879 -23.141 123.004 C-17.413 117.287 -17.413 117.287 -14.027 114.938 C-11.058 112.1 -11.299 109.768 -11.188 105.75 C-11.14 104.487 -11.092 103.223 -11.043 101.922 C-11.029 100.958 -11.015 99.993 -11 99 C-6.71 99 -2.42 99 2 99 C2 101.64 2 104.28 2 107 C4.31 107 6.62 107 9 107 C8.859 105.395 8.712 103.791 8.562 102.188 C8.481 101.294 8.4 100.401 8.316 99.48 C8 97 8 97 7 94 C7.672 91.723 7.672 91.723 8.75 89.062 C10.32 84.989 11.563 80.999 12.562 76.75 C13.637 72.216 14.995 68.2 17 64 C16.203 64.217 15.407 64.433 14.586 64.656 C13.526 64.935 12.467 65.213 11.375 65.5 C10.331 65.778 9.287 66.057 8.211 66.344 C5.043 66.991 2.223 67.116 -1 67 C-1 68.32 -1 69.64 -1 71 C-4.3 71 -7.6 71 -11 71 C-16.698 48.21 -11.818 19.957 0 0 Z " fill="#065B99" transform="translate(105,63)"/>
<path d="M0 0 C0.726 -0.005 1.453 -0.01 2.201 -0.015 C4.642 -0.031 7.083 -0.04 9.525 -0.048 C11.272 -0.058 13.02 -0.068 14.768 -0.078 C20.515 -0.109 26.262 -0.129 32.009 -0.148 C32.987 -0.151 33.965 -0.155 34.973 -0.158 C44.2 -0.189 53.428 -0.215 62.655 -0.232 C74.451 -0.254 86.247 -0.296 98.043 -0.366 C106.34 -0.413 114.638 -0.437 122.935 -0.445 C127.889 -0.45 132.842 -0.465 137.795 -0.504 C142.46 -0.541 147.124 -0.55 151.789 -0.536 C153.496 -0.536 155.202 -0.547 156.909 -0.568 C166.428 -0.681 174.369 -0.46 181.911 6.161 C185.993 10.721 187.396 15.596 187.317 21.614 C186.442 27.099 183.392 32.209 179.024 35.645 C177.161 36.723 177.161 36.723 173.911 38.161 C173.581 38.326 173.581 38.326 171.911 39.161 C169.596 39.262 167.277 39.296 164.96 39.301 C164.236 39.304 163.513 39.307 162.767 39.31 C160.33 39.319 157.893 39.32 155.455 39.322 C153.713 39.326 151.97 39.331 150.227 39.337 C145.483 39.35 140.739 39.356 135.995 39.361 C133.032 39.364 130.069 39.368 127.105 39.372 C117.836 39.386 108.566 39.396 99.296 39.4 C88.593 39.404 77.89 39.422 67.187 39.451 C58.916 39.472 50.646 39.482 42.376 39.484 C37.436 39.485 32.495 39.491 27.555 39.508 C22.905 39.525 18.255 39.527 13.606 39.518 C11.901 39.517 10.196 39.522 8.491 39.532 C6.16 39.544 3.829 39.539 1.497 39.528 C0.193 39.53 -1.11 39.531 -2.453 39.533 C-8.479 38.916 -13.043 36.931 -16.964 32.161 C-17.539 31.48 -18.114 30.799 -18.706 30.098 C-22.224 25.169 -21.627 18.944 -21.089 13.161 C-18.733 8.072 -14.63 4.395 -10.089 1.161 C-6.552 -0.018 -3.735 0.02 0 0 Z " fill="#369010" transform="translate(152.08900451660156,314.83937072753906)"/>
<path d="M0 0 C1.454 -0.009 2.909 -0.019 4.363 -0.031 C8.299 -0.058 12.235 -0.059 16.171 -0.054 C19.464 -0.052 22.756 -0.061 26.049 -0.071 C33.821 -0.093 41.592 -0.094 49.364 -0.082 C57.366 -0.07 65.367 -0.095 73.369 -0.137 C80.254 -0.172 87.138 -0.184 94.022 -0.178 C98.128 -0.174 102.233 -0.179 106.339 -0.207 C110.202 -0.233 114.064 -0.229 117.927 -0.203 C119.339 -0.198 120.751 -0.203 122.163 -0.22 C130.922 -0.315 137.102 0.422 143.67 6.549 C147.915 11.334 148.403 16.307 148.19 22.608 C147.129 28.615 143.346 32.03 138.983 35.987 C135.192 38.548 132.211 38.68 127.745 38.703 C126.507 38.712 125.269 38.72 123.994 38.729 C122.619 38.734 121.245 38.738 119.871 38.742 C118.425 38.75 116.98 38.758 115.534 38.767 C110.784 38.793 106.034 38.808 101.284 38.823 C99.647 38.828 98.011 38.833 96.374 38.839 C89.566 38.861 82.757 38.879 75.948 38.891 C66.197 38.907 56.447 38.94 46.697 38.997 C39.837 39.036 32.978 39.055 26.118 39.06 C22.023 39.064 17.928 39.076 13.834 39.109 C9.978 39.139 6.123 39.145 2.268 39.133 C0.857 39.133 -0.554 39.141 -1.965 39.159 C-9.916 39.253 -16.274 39.155 -22.33 33.549 C-27.01 28.336 -28.195 23.513 -27.876 16.522 C-26.728 10.277 -23.56 6.255 -18.6 2.463 C-12.879 -0.706 -6.356 -0.025 0 0 Z " fill="#276D0A" transform="translate(179.32958984375,363.45068359375)"/>
<path d="M0 0 C25.678 -0.093 51.356 -0.164 77.033 -0.207 C88.956 -0.228 100.879 -0.256 112.802 -0.302 C123.194 -0.342 133.586 -0.367 143.979 -0.376 C149.481 -0.382 154.983 -0.394 160.485 -0.423 C165.666 -0.45 170.847 -0.458 176.028 -0.452 C177.927 -0.454 179.827 -0.461 181.726 -0.477 C184.325 -0.497 186.922 -0.492 189.521 -0.481 C190.268 -0.493 191.015 -0.504 191.785 -0.516 C197.788 -0.449 203.095 1.257 207.533 5.447 C211.503 10.04 213.283 13.505 213.25 19.562 C213.253 20.038 213.253 20.038 213.266 22.441 C213 25 213 25 211 28 C208.562 28.959 206.269 29.702 203.75 30.375 C202.985 30.584 202.22 30.793 201.432 31.009 C183.92 35.538 164.813 39.092 146.707 39.203 C146.319 39.207 146.319 39.207 144.357 39.225 C97.15 39.557 52.893 32.26 11.312 8.625 C10.409 8.113 9.506 7.601 8.576 7.074 C2.261 3.392 2.261 3.392 0 0 Z " fill="#035C9B" transform="translate(116,557)"/>
<path d="M0 0 C1.27 -0.004 2.541 -0.008 3.85 -0.012 C5.245 -0.002 6.64 0.009 8.035 0.02 C9.513 0.021 10.992 0.021 12.471 0.019 C16.474 0.018 20.478 0.036 24.482 0.057 C28.67 0.075 32.858 0.077 37.046 0.081 C44.972 0.09 52.897 0.115 60.823 0.145 C69.849 0.178 78.874 0.195 87.899 0.21 C106.461 0.241 125.022 0.294 143.584 0.361 C143.132 9.04 140.335 16.788 137.521 24.923 C137.043 26.327 136.566 27.732 136.09 29.136 C134.931 32.548 133.76 35.955 132.584 39.361 C114.842 39.431 97.101 39.484 79.359 39.516 C71.121 39.532 62.883 39.553 54.645 39.587 C47.463 39.617 40.282 39.636 33.1 39.643 C29.299 39.647 25.497 39.656 21.696 39.678 C18.115 39.698 14.534 39.705 10.953 39.7 C9.018 39.701 7.084 39.717 5.149 39.734 C-2.663 39.706 -7.955 39.258 -14.104 34.111 C-18.291 29.131 -21.125 25.044 -20.736 18.337 C-19.748 12.238 -16.661 7.705 -12.416 3.361 C-8.118 0.799 -4.981 -0.013 0 0 Z " fill="#5BC6F2" transform="translate(341.4161071777344,411.6392364501953)"/>
<path d="M0 0 C6.689 1.084 11.785 3.152 17.5 6.75 C18.175 7.148 18.851 7.547 19.547 7.957 C23.622 10.471 27.189 13.126 30.612 16.474 C40.15 25.564 46.969 28.689 60.177 28.382 C61.119 28.34 62.06 28.298 63.031 28.254 C67.991 28.034 72.954 28.047 77.918 28.02 C78.886 28.007 79.854 27.995 80.851 27.983 C92.489 27.872 103.625 29.614 115 32 C116.509 32.29 118.018 32.581 119.527 32.871 C143.336 37.728 178.579 48.142 196 66 C174.33 66.093 152.659 66.164 130.989 66.207 C120.927 66.228 110.865 66.256 100.803 66.302 C92.033 66.342 83.263 66.367 74.493 66.376 C69.849 66.382 65.206 66.394 60.562 66.423 C56.191 66.45 51.819 66.458 47.448 66.452 C45.844 66.454 44.24 66.461 42.637 66.477 C40.445 66.497 38.254 66.492 36.061 66.481 C35.449 66.483 35.449 66.483 32.346 66.492 C26.048 65.566 21.364 61.156 17.363 56.41 C14.754 51.798 15.115 47.097 16 42 C17.695 37.093 21.028 33.277 25 30 C26.32 30 27.64 30 29 30 C29 29.34 29 28.68 29 28 C28.302 27.743 27.603 27.487 26.884 27.222 C21.832 25.081 17.242 22.089 12.569 19.233 C10.748 18.124 8.917 17.033 7.086 15.941 C5.926 15.235 4.768 14.528 3.609 13.82 C2.557 13.184 1.505 12.547 0.421 11.891 C-2 10 -2 10 -2.94 7.964 C-3.035 4.844 -1.509 2.655 0 0 Z " fill="#015A9A" transform="translate(187,94)"/>
<path d="M0 0 C0.932 -0.007 1.865 -0.013 2.825 -0.02 C5.904 -0.039 8.983 -0.043 12.062 -0.045 C14.208 -0.052 16.354 -0.059 18.5 -0.066 C22.999 -0.078 27.498 -0.081 31.997 -0.08 C37.748 -0.08 43.498 -0.107 49.249 -0.142 C53.683 -0.164 58.116 -0.168 62.55 -0.167 C64.669 -0.169 66.789 -0.178 68.908 -0.194 C71.881 -0.213 74.852 -0.207 77.824 -0.195 C78.691 -0.207 79.558 -0.218 80.451 -0.229 C87.373 -0.159 93.497 1.565 98.827 6.142 C99.271 6.727 99.714 7.313 100.171 7.916 C100.403 8.211 100.403 8.211 101.577 9.705 C104.81 14.392 104.153 19.801 103.671 25.291 C102.153 30.895 99.21 34.19 94.452 37.38 C91.189 39.048 88.064 39.416 84.434 39.438 C84.015 39.441 84.015 39.441 81.894 39.459 C81.438 39.461 81.438 39.461 79.132 39.468 C78.649 39.471 78.649 39.471 76.204 39.487 C73.008 39.507 69.812 39.519 66.616 39.529 C66.07 39.531 66.07 39.531 63.307 39.541 C57.529 39.562 51.752 39.576 45.974 39.586 C40.006 39.597 34.039 39.631 28.072 39.671 C23.482 39.697 18.892 39.705 14.303 39.709 C12.103 39.714 9.903 39.725 7.703 39.744 C4.624 39.768 1.547 39.767 -1.532 39.76 C-1.985 39.767 -1.985 39.767 -4.281 39.799 C-10.83 39.745 -14.229 38.368 -18.938 33.693 C-24.234 26.892 -25.219 22.87 -24.329 14.291 C-22.41 8.239 -17.707 4.083 -12.221 1.172 C-8.128 -0.076 -4.257 -0.004 0 0 Z " fill="#03B2EB" transform="translate(119.3291015625,459.70947265625)"/>
<path d="M0 0 C0.843 -0.01 1.686 -0.02 2.554 -0.03 C5.341 -0.059 8.128 -0.073 10.916 -0.084 C12.859 -0.095 14.802 -0.107 16.745 -0.119 C20.823 -0.14 24.899 -0.151 28.977 -0.158 C34.182 -0.169 39.386 -0.217 44.591 -0.274 C48.608 -0.312 52.624 -0.322 56.641 -0.325 C58.559 -0.331 60.477 -0.347 62.394 -0.373 C82.083 -0.625 82.083 -0.625 89.626 6.322 C93.282 10.346 94.369 14.18 95.001 19.447 C94.382 25.848 91.674 31.222 87.189 35.822 C81.647 39.066 76.478 39.617 70.162 39.597 C69.748 39.599 69.748 39.599 67.651 39.612 C64.926 39.626 62.2 39.625 59.474 39.623 C57.571 39.627 55.669 39.631 53.766 39.636 C49.782 39.643 45.799 39.643 41.815 39.638 C36.72 39.632 31.625 39.649 26.53 39.672 C22.601 39.687 18.673 39.688 14.745 39.685 C12.866 39.685 10.988 39.691 9.11 39.701 C6.48 39.713 3.851 39.706 1.22 39.695 C0.836 39.698 0.836 39.698 -1.112 39.718 C-6.943 39.661 -11.555 38.466 -16.299 34.857 C-16.757 34.371 -17.215 33.885 -17.686 33.385 C-18.157 32.901 -18.627 32.418 -19.112 31.92 C-22.436 27.71 -22.58 24.74 -22.186 19.385 C-22.11 18.179 -22.034 16.974 -21.956 15.732 C-20.851 9.26 -17.5 6.194 -12.374 2.322 C-8.537 -0.264 -4.462 0.013 0 0 Z " fill="#5BC6F2" transform="translate(30.37353515625,314.677734375)"/>
<path d="M0 0 C0.788 -0.007 1.576 -0.014 2.388 -0.021 C4.974 -0.039 7.559 -0.027 10.145 -0.014 C11.954 -0.016 13.763 -0.02 15.573 -0.025 C19.358 -0.031 23.143 -0.023 26.928 -0.004 C31.764 0.019 36.6 0.006 41.436 -0.018 C45.171 -0.033 48.905 -0.028 52.64 -0.018 C54.422 -0.015 56.205 -0.018 57.987 -0.028 C60.485 -0.038 62.982 -0.022 65.48 0 C65.844 -0.004 65.844 -0.004 67.684 -0.025 C73.635 0.073 78.94 1.813 83.338 5.965 C87.501 10.783 89.366 14.702 89.168 21.014 C88.355 26.617 86.082 31.351 81.96 35.273 C73.612 40.958 65.101 40.374 55.391 40.279 C53.608 40.281 51.826 40.284 50.043 40.29 C46.323 40.294 42.603 40.277 38.883 40.245 C34.131 40.205 29.38 40.214 24.627 40.239 C20.952 40.253 17.277 40.243 13.601 40.226 C11.85 40.22 10.098 40.221 8.346 40.23 C-9.348 40.288 -9.348 40.288 -15.195 34.518 C-20.74 28.779 -21.671 24.824 -21.601 16.924 C-20.983 11.741 -18.957 8.103 -15.195 4.518 C-10.049 1.068 -6.236 -0.069 0 0 Z " fill="#5BC6F2" transform="translate(125.195068359375,411.482421875)"/>
<path d="M0 0 C0.755 -0.01 1.51 -0.02 2.288 -0.03 C4.783 -0.059 7.278 -0.073 9.773 -0.084 C11.514 -0.095 13.256 -0.107 14.998 -0.119 C18.651 -0.14 22.304 -0.151 25.958 -0.158 C30.618 -0.169 35.277 -0.217 39.938 -0.274 C43.538 -0.312 47.137 -0.322 50.737 -0.325 C52.454 -0.331 54.171 -0.347 55.887 -0.373 C65.559 -0.511 73.816 -0.466 81.453 6.322 C85.281 10.517 86.762 14.12 87.078 19.822 C86.741 26.76 83.885 31.068 78.89 35.697 C74.042 38.929 70.515 39.623 64.69 39.629 C64.301 39.633 64.301 39.633 62.333 39.654 C59.763 39.678 57.194 39.687 54.625 39.693 C52.833 39.702 51.042 39.711 49.251 39.721 C45.495 39.737 41.739 39.745 37.983 39.748 C33.184 39.753 28.385 39.791 23.586 39.837 C19.885 39.866 16.184 39.874 12.483 39.875 C10.714 39.879 8.946 39.891 7.177 39.912 C-9.506 40.094 -9.506 40.094 -15.205 35.702 C-21.018 29.73 -21.911 24.269 -21.825 16.268 C-21.315 10.859 -18.437 7.998 -14.547 4.572 C-9.563 0.834 -6.204 0.02 0 0 Z " fill="#04B2EB" transform="translate(335.54736328125,459.677734375)"/>
<path d="M0 0 C4.29 0 8.58 0 13 0 C13 2.64 13 5.28 13 8 C15.31 8 17.62 8 20 8 C20.33 14.93 20.66 21.86 21 29 C21.33 28.835 21.33 28.835 23 28 C25.672 27.866 28.323 27.957 31 28 C31 23.71 31 19.42 31 15 C31.66 15 32.32 15 33 15 C36.382 20.814 37.903 25.237 37 32 C36.67 32.33 36.34 32.66 36 33 C36.085 35.084 36.193 37.167 36.312 39.25 C36.353 45.348 36.353 45.348 34.914 48.008 C32.075 50.637 30.057 51.001 26.25 50.938 C23 50 23 50 21 48 C19.012 47.602 17.011 47.262 15 47 C15.495 47.928 15.99 48.856 16.5 49.812 C18 53 18 53 18 56 C17.67 56.33 17.67 56.33 16 58 C15.693 60.577 15.49 63.041 15.375 65.625 C15.313 66.842 15.313 66.842 15 73 C9.39 73 3.78 73 -2 73 C-2 71.68 -2 70.36 -2 69 C-2.843 69.361 -3.686 69.722 -4.555 70.094 C-5.103 70.326 -5.103 70.326 -7.875 71.5 C-8.42 71.732 -8.42 71.732 -11.18 72.906 C-14 74 -14 74 -16 74 C-15.938 75.031 -15.876 76.062 -15.812 77.125 C-16.077 82.592 -17.779 85.581 -21.312 89.688 C-26.534 94.181 -31.018 95.445 -37.805 95.293 C-38.529 95.289 -39.253 95.284 -39.999 95.28 C-42.291 95.263 -44.583 95.226 -46.875 95.188 C-48.437 95.172 -50 95.159 -51.562 95.146 C-55.375 95.114 -59.188 95.062 -63 95 C-61.885 91.492 -60.729 88.203 -58.969 84.969 C-58.576 84.247 -58.183 83.525 -57.778 82.781 C-56.003 79.614 -54.202 76.464 -52.366 73.333 C-51.485 71.829 -50.617 70.319 -49.763 68.8 C-43.521 57.833 -43.521 57.833 -37.762 55.93 C-30.801 55.56 -26.819 57.274 -21.68 61.773 C-20 63 -20 63 -17.188 62.75 C-16.136 62.173 -15.084 61.595 -14 61 C-13.082 60.6 -12.164 60.201 -11.219 59.789 C-5.296 57.026 -5.296 57.026 -3 55 C-2.67 52.36 -2.34 49.72 -2 47 C-11.9 47 -21.8 47 -32 47 C-27.923 38.846 -20.785 32.626 -14.375 26.25 C-14.006 25.879 -14.006 25.879 -12.141 24.004 C-6.413 18.287 -6.413 18.287 -3.027 15.938 C-0.058 13.1 -0.299 10.768 -0.188 6.75 C-0.14 5.487 -0.092 4.223 -0.043 2.922 C-0.029 1.958 -0.015 0.993 0 0 Z " fill="#0C1B06" transform="translate(94,162)"/>
<path d="M0 0 C0.379 -0.004 0.379 -0.004 2.299 -0.021 C4.788 -0.039 7.275 -0.027 9.764 -0.014 C11.506 -0.016 13.248 -0.02 14.99 -0.025 C18.634 -0.031 22.277 -0.023 25.921 -0.004 C30.576 0.019 35.23 0.006 39.885 -0.018 C43.481 -0.033 47.076 -0.028 50.671 -0.018 C52.387 -0.015 54.102 -0.018 55.818 -0.028 C74.187 -0.106 74.187 -0.106 80.612 5.965 C85.193 11.024 85.557 16.026 85.487 22.627 C84.804 27.485 82.541 31.097 79.08 34.518 C73.987 37.928 70.227 39.105 64.053 39.035 C63.668 39.039 63.668 39.039 61.719 39.056 C59.194 39.074 56.669 39.062 54.143 39.049 C52.376 39.052 50.609 39.055 48.842 39.06 C45.147 39.066 41.452 39.058 37.757 39.039 C33.033 39.016 28.309 39.029 23.585 39.053 C19.939 39.068 16.293 39.063 12.646 39.053 C10.905 39.05 9.164 39.053 7.422 39.063 C4.983 39.073 2.546 39.057 0.108 39.035 C-0.248 39.039 -0.248 39.039 -2.05 39.06 C-7.496 38.968 -10.516 37.494 -14.92 34.518 C-20.195 28.815 -21.502 24.317 -21.361 16.631 C-20.654 11.642 -18.516 8.008 -14.92 4.518 C-9.857 1.139 -6.134 -0.071 0 0 Z " fill="#59C6F2" transform="translate(353.919677734375,363.482421875)"/>
<path d="M0 0 C0.771 -0 1.542 -0.001 2.337 -0.001 C4.88 0.001 7.423 0.016 9.966 0.032 C11.731 0.035 13.497 0.038 15.262 0.04 C19.905 0.048 24.547 0.068 29.19 0.09 C33.929 0.11 38.668 0.119 43.407 0.129 C52.703 0.151 61.998 0.185 71.294 0.227 C73.218 9.987 74.758 19.299 74.481 29.29 C74.475 29.776 74.475 29.776 74.44 32.237 C74.406 34.568 74.357 36.897 74.294 39.227 C63.723 39.32 53.153 39.391 42.582 39.434 C37.673 39.455 32.765 39.483 27.856 39.529 C23.116 39.572 18.377 39.596 13.637 39.607 C11.831 39.614 10.026 39.628 8.22 39.65 C5.685 39.679 3.151 39.683 0.616 39.681 C0.245 39.688 0.245 39.688 -1.631 39.725 C-7.775 39.676 -11.851 37.781 -16.413 33.7 C-21.163 27.641 -22.516 22.82 -21.706 15.227 C-19.746 8.426 -15.815 4.908 -10.074 1.162 C-6.739 -0.155 -3.531 -0.035 0 0 Z " fill="#2A6F0D" transform="translate(416.7060546875,314.77294921875)"/>
<path d="M0 0 C1.269 -0.016 2.538 -0.032 3.845 -0.049 C5.228 -0.06 6.612 -0.071 7.996 -0.081 C8.346 -0.083 8.346 -0.083 10.12 -0.097 C13.834 -0.123 17.547 -0.143 21.261 -0.157 C24.319 -0.171 27.375 -0.198 30.432 -0.239 C34.139 -0.289 37.846 -0.313 41.553 -0.32 C42.957 -0.327 44.361 -0.342 45.765 -0.366 C54.444 -0.507 61.529 -0.011 68.738 5.193 C73.032 9.557 74.094 13.61 74.425 19.693 C74.182 26.056 72.371 29.879 67.738 34.193 C62.817 38.462 57.608 39.438 51.217 39.499 C50.579 39.507 50.579 39.507 47.353 39.548 C45.973 39.554 44.594 39.559 43.214 39.564 C41.785 39.573 40.355 39.582 38.926 39.591 C35.935 39.608 32.944 39.616 29.954 39.618 C26.138 39.624 22.324 39.661 18.509 39.707 C15.558 39.737 12.606 39.744 9.655 39.745 C8.249 39.749 6.844 39.762 5.438 39.783 C-2.657 39.894 -9.059 39.838 -15.262 34.193 C-20.606 28.286 -21.773 24.373 -21.641 16.498 C-20.913 10.146 -18.094 6.651 -13.2 2.755 C-8.684 0.354 -5.1 0.059 0 0 Z " fill="#52DB16" transform="translate(241.26220703125,411.80712890625)"/>
<path d="M0 0 C1.308 -0.003 2.615 -0.006 3.963 -0.009 C6.72 -0.013 9.478 -0.007 12.236 0.007 C15.758 0.024 19.28 0.015 22.803 -0.003 C26.181 -0.017 29.559 -0.007 32.938 0 C34.197 -0.006 35.456 -0.012 36.754 -0.018 C37.932 -0.009 39.111 0.001 40.324 0.01 C41.356 0.013 42.387 0.015 43.45 0.017 C49.484 0.796 54.175 4.171 58.402 8.398 C61.354 13.551 62.051 18.559 61.402 24.398 C59.5 29.329 56.311 32.881 52.402 36.398 C51.812 36.933 51.221 37.467 50.613 38.018 C47.753 39.804 45.891 39.761 42.532 39.739 C41.351 39.739 40.17 39.739 38.954 39.738 C37.684 39.723 36.414 39.707 35.105 39.691 C33.802 39.687 32.498 39.683 31.154 39.679 C27.695 39.667 24.236 39.638 20.778 39.604 C17.245 39.574 13.712 39.56 10.18 39.545 C3.254 39.513 -3.672 39.462 -10.598 39.398 C-11.714 36.387 -12.828 33.375 -13.941 30.363 C-14.254 29.519 -14.567 28.675 -14.89 27.806 C-21.564 9.736 -21.564 9.736 -21.629 5.238 C-20.254 2.785 -18.51 2.062 -15.959 1.028 C-10.768 -0.356 -5.335 -0.026 0 0 Z " fill="#52DB17" transform="translate(36.59765625,411.6015625)"/>
<path d="M0 0 C0.912 -0.013 1.823 -0.026 2.762 -0.039 C3.742 -0.041 4.721 -0.043 5.73 -0.045 C6.238 -0.049 6.238 -0.049 8.809 -0.066 C10.96 -0.076 13.111 -0.08 15.262 -0.08 C18.533 -0.084 21.801 -0.121 25.072 -0.159 C27.166 -0.165 29.26 -0.169 31.355 -0.17 C32.324 -0.185 33.293 -0.199 34.291 -0.214 C41.763 -0.164 47.984 1.385 53.749 6.326 C54.286 6.995 54.822 7.664 55.374 8.353 C55.931 9.025 56.488 9.696 57.062 10.388 C60.009 14.66 59.948 19.302 59.374 24.291 C57.3 30.94 53.431 34.877 47.501 38.405 C44.982 39.454 43.075 39.557 40.35 39.581 C39.351 39.594 38.353 39.607 37.325 39.62 C36.788 39.621 36.788 39.621 34.073 39.626 C32.964 39.633 31.854 39.64 30.711 39.647 C28.363 39.657 26.015 39.661 23.667 39.661 C20.086 39.665 16.505 39.702 12.923 39.74 C10.64 39.746 8.357 39.75 6.073 39.751 C5.007 39.766 3.94 39.78 2.84 39.795 C-3.552 39.756 -7.421 39.082 -12.626 35.291 C-16.885 30.795 -19.755 26.118 -20.063 19.853 C-19.837 14.225 -17.876 10.556 -13.942 6.595 C-9.584 2.715 -6 0.057 0 0 Z " fill="#379111" transform="translate(248.625732421875,459.70947265625)"/>
<path d="M0 0 C0.498 -0.006 0.498 -0.006 3.016 -0.039 C4.101 -0.046 5.186 -0.054 6.304 -0.061 C6.86 -0.065 6.86 -0.065 9.673 -0.086 C12.034 -0.1 14.396 -0.11 16.757 -0.118 C20.355 -0.135 23.951 -0.179 27.549 -0.223 C29.842 -0.234 32.136 -0.242 34.429 -0.249 C35.501 -0.266 36.572 -0.284 37.675 -0.302 C45.203 -0.28 50.577 0.864 56.39 5.993 C56.845 6.57 57.3 7.146 57.769 7.74 C58.242 8.318 58.715 8.897 59.203 9.493 C62.166 13.913 62.065 19.086 61.332 24.177 C58.77 30.944 55.305 34.707 49.012 38.106 C44.149 40.049 39.313 39.849 34.14 39.771 C33.568 39.771 33.568 39.771 30.672 39.771 C28.264 39.766 25.856 39.748 23.448 39.719 C19.777 39.677 16.107 39.678 12.435 39.685 C10.087 39.674 7.739 39.661 5.39 39.646 C4.301 39.646 3.211 39.645 2.088 39.645 C-11.408 39.437 -11.408 39.437 -15.668 35.177 C-15.158 29.879 -13.886 24.95 -12.356 19.865 C-12.245 19.494 -12.245 19.494 -11.687 17.616 C-6.371 0.071 -6.371 0.071 0 0 Z " fill="#2B6F0E" transform="translate(30.668212890625,266.822998046875)"/>
<path d="M0 0 C2.226 -0.022 4.451 -0.056 6.677 -0.103 C9.907 -0.17 13.135 -0.197 16.366 -0.216 C17.351 -0.244 18.335 -0.272 19.35 -0.3 C26.549 -0.279 31.105 1.662 36.534 6.405 C40.814 11.189 41.212 16.159 40.983 22.464 C40.052 28.562 37.182 32.12 32.409 35.843 C28.654 37.883 25.923 38.534 21.715 38.582 C20.736 38.595 19.758 38.608 18.75 38.621 C17.694 38.628 16.638 38.636 15.55 38.643 C14.461 38.651 13.372 38.659 12.25 38.668 C9.943 38.682 7.636 38.692 5.33 38.7 C1.812 38.717 -1.706 38.761 -5.224 38.805 C-7.466 38.816 -9.708 38.824 -11.95 38.831 C-12.999 38.848 -14.047 38.866 -15.127 38.884 C-21.484 38.865 -25.285 38.165 -30.466 34.405 C-36.213 28.506 -35.921 21.71 -35.888 13.803 C-35.359 9.544 -34.117 7.557 -31.072 4.639 C-22.605 -1.87 -10.211 0.074 0 0 Z " fill="#286E0B" transform="translate(44.466064453125,363.594970703125)"/>
<path d="M0 0 C1.301 0 2.602 0 3.942 0 C5.347 0.005 6.752 0.011 8.157 0.016 C9.605 0.018 11.054 0.019 12.503 0.02 C16.301 0.024 20.098 0.034 23.896 0.045 C27.777 0.055 31.658 0.06 35.54 0.065 C43.144 0.075 50.748 0.092 58.352 0.114 C56.491 4.118 53.859 7.052 50.852 10.239 C50.315 10.812 49.778 11.385 49.225 11.976 C47.608 13.695 45.982 15.406 44.352 17.114 C43.485 18.024 42.617 18.934 41.723 19.871 C23.702 38.326 23.702 38.326 13.524 38.449 C11.438 38.47 9.352 38.485 7.266 38.484 C5.123 38.488 2.983 38.525 0.84 38.563 C-12.152 38.674 -12.152 38.674 -17.648 34.114 C-21.556 29.754 -24.009 24.872 -24.335 18.989 C-23.886 12.331 -20.509 7.608 -15.71 3.176 C-10.778 -0.146 -5.821 -0.011 0 0 Z " fill="#5AC6F2" transform="translate(378.64794921875,508.886474609375)"/>
<path d="M0 0 C4.29 0 8.58 0 13 0 C13.729 5.969 14.173 11.831 14.281 17.84 C14.29 18.243 14.29 18.243 14.337 20.285 C14.395 22.836 14.448 25.387 14.5 27.938 C15.046 54.788 15.046 54.788 17.562 60.625 C20.04 66.441 19.644 70.962 17.375 76.688 C15.28 81.005 12.952 83.31 9 86 C3.446 87.851 -3.049 88.354 -8.461 85.871 C-12.743 82.823 -14.988 79.92 -17 75 C-18.013 67.721 -18.129 60.601 -13.562 54.555 C-9.809 50.82 -6.411 49 -1 49 C-0.67 32.83 -0.34 16.66 0 0 Z " fill="#59C3EE" transform="translate(115,218)"/>
<path d="M0 0 C0.638 -0.016 0.638 -0.016 3.867 -0.098 C12.033 -0.106 17.576 0.92 23.625 6.625 C27.378 11.017 28.338 15.247 28.066 21 C27.001 27.334 24.509 32.481 19.344 36.379 C13.372 39.883 6.852 39.352 0.125 39.25 C-1.155 39.269 -2.435 39.289 -3.754 39.309 C-11.149 39.27 -16.836 38.857 -22.375 33.625 C-26.439 28.587 -28.287 22.527 -27.922 16.082 C-26.6 10.143 -23.249 6.101 -18.559 2.406 C-12.867 -0.647 -6.283 -0.032 0 0 Z " fill="#A2DAF7" transform="translate(118.375,363.375)"/>
<path d="M0 0 C5.959 -0.124 11.917 -0.215 17.877 -0.275 C19.901 -0.3 21.926 -0.334 23.949 -0.377 C26.871 -0.438 29.792 -0.466 32.715 -0.488 C33.609 -0.514 34.503 -0.54 35.424 -0.566 C42.985 -0.57 48.679 1.863 54.191 7.07 C58.106 12.936 59.384 18 58 25 C55.277 31.619 50.537 36.132 44 39 C36.959 40.415 26.415 41.902 20.139 37.777 C16.928 34.421 14.964 30.393 13.04 26.204 C11.623 23.202 9.948 20.378 8.273 17.516 C0 3.31 0 3.31 0 0 Z " fill="#2B700F" transform="translate(31,460)"/>
<path d="M0 0 C8.58 0 17.16 0 26 0 C26 6.27 26 12.54 26 19 C31.61 19 37.22 19 43 19 C43 17.02 43 15.04 43 13 C48.422 15.957 51.119 19.062 53 25 C53.937 30.018 53.448 33.82 50.875 38.25 C46.942 43.812 42.706 47.28 36 49 C32.538 49.306 29.099 49.325 25.625 49.312 C24.718 49.329 23.81 49.345 22.875 49.361 C16.035 49.366 10.24 48.648 4.758 44.168 C0.593 39.116 -1.626 35.304 -2.375 28.688 C-1.89 23.923 -0.151 20.235 2 16 C12.642 21.886 22.846 28.313 33 35 C31.898 31.695 30.415 29.57 28.375 26.75 C27.723 25.837 27.07 24.925 26.398 23.984 C21.056 17.336 14.895 12.184 8.062 7.125 C6.53 5.985 5 4.841 3.473 3.695 C3.139 3.448 3.139 3.448 1.449 2.196 C0.971 1.801 0.493 1.407 0 1 C0 0.67 0 0.34 0 0 Z " fill="#5BC5EF" transform="translate(138,160)"/>
<path d="M0 0 C0.73 0.001 1.459 0.003 2.211 0.004 C4.544 0.01 6.878 0.022 9.211 0.035 C10.792 0.04 12.372 0.045 13.953 0.049 C17.831 0.06 21.708 0.077 25.586 0.098 C25.752 9.144 25.669 17.976 24.648 26.973 C24.562 27.739 24.475 28.505 24.385 29.294 C24.011 32.366 23.567 35.154 22.586 38.098 C18.423 38.197 14.262 38.269 10.098 38.317 C8.684 38.337 7.27 38.365 5.856 38.399 C3.815 38.448 1.776 38.471 -0.266 38.488 C-1.491 38.509 -2.716 38.53 -3.979 38.552 C-9.151 37.868 -12.946 35.153 -16.164 31.098 C-20.255 25.643 -21.112 21.837 -20.414 15.098 C-18.603 8.533 -14.697 5.068 -9.414 1.098 C-6.402 -0.408 -3.301 -0.024 0 0 Z " fill="#52DB16" transform="translate(465.4140625,363.90234375)"/>
<path d="M0 0 C4.29 0 8.58 0 13 0 C13 7.92 13 15.84 13 24 C15.97 23.34 18.94 22.68 22 22 C24.875 21.625 24.875 21.625 27 22 C31.082 25.791 30.888 30.616 31.312 35.875 C31.241 40.555 29.629 44.172 27 48 C23.389 51.431 20.064 54 15 54 C15 60.27 15 66.54 15 73 C9.39 73 3.78 73 -2 73 C-2.272 48.588 -1.525 24.365 0 0 Z " fill="#0D161C" transform="translate(166,106)"/>
<path d="M0 0 C4.785 2.933 8.212 7.2 10.375 12.375 C11.356 19.022 10.784 24.246 6.797 29.723 C2.281 34.97 -2.36 37.037 -9.211 37.746 C-21.763 37.966 -21.763 37.966 -27.109 33.875 C-32.045 28.99 -33.775 24.355 -33.938 17.562 C-33.874 12.265 -33.336 9.372 -29.625 5.375 C-21.752 -2.194 -10.396 -4.809 0 0 Z " fill="#04B2EB" transform="translate(378.625,316.625)"/>
<path d="M0 0 C0.33 0.66 0.66 1.32 1 2 C1.99 2 2.98 2 4 2 C4 11.9 4 21.8 4 32 C4.33 31.01 4.66 30.02 5 29 C11.147 27.915 14.188 29.415 19.312 32.938 C21.575 34.583 23.795 36.278 26 38 C27.002 38.777 28.003 39.555 29.035 40.355 C38.608 48.006 45.463 55.66 52 66 C48.684 66 47.766 65.478 45 63.797 C44.204 63.317 43.408 62.836 42.588 62.342 C41.734 61.816 40.88 61.291 40 60.75 C39.119 60.215 38.239 59.68 37.332 59.129 C28.822 53.939 20.393 48.619 11.994 43.252 C9.683 41.801 7.34 40.404 5 39 C4.67 46.26 4.34 53.52 4 61 C2.35 61.165 2.35 61.165 -6 62 C-6.847 58.275 -7.171 54.746 -7.281 50.93 C-7.319 49.786 -7.356 48.643 -7.395 47.465 C-7.465 45.064 -7.535 42.663 -7.605 40.262 C-7.643 39.121 -7.68 37.98 -7.719 36.805 C-7.749 35.763 -7.779 34.721 -7.811 33.648 C-8 31 -8 31 -9 28 C-8.328 25.723 -8.328 25.723 -7.25 23.062 C-5.306 18.015 -3.918 12.995 -2.711 7.727 C-2.009 5.035 -1.088 2.557 0 0 Z " fill="#12191C" transform="translate(121,129)"/>
<path d="M0 0 C1.163 0.003 2.327 0.006 3.525 0.01 C4.74 0.018 5.955 0.027 7.207 0.035 C8.434 0.04 9.66 0.044 10.924 0.049 C13.956 0.061 16.988 0.077 20.02 0.098 C18.18 4.862 15.877 9.207 13.395 13.66 C12.952 14.455 12.51 15.25 12.054 16.069 C7.539 24.094 2.598 31.762 -2.98 39.098 C-9.232 38.598 -13.132 37.141 -17.465 32.512 C-21.29 27.419 -21.785 22.495 -21.531 16.227 C-20.442 10.037 -16.803 6.201 -11.793 2.66 C-7.631 0.348 -4.695 -0.023 0 0 Z " fill="#2D7111" transform="translate(448.98046875,459.90234375)"/>
<path d="M0 0 C8.49 4.772 16.841 9.672 25 15 C24.274 23.207 23.47 30.344 17 36 C11.504 39.839 7.681 40.545 1.062 40.25 C0.283 40.232 -0.496 40.214 -1.299 40.195 C-3.2 40.149 -5.1 40.077 -7 40 C-7 42.64 -7 45.28 -7 48 C-7.33 48 -7.66 48 -8 48 C-8.33 32.49 -8.66 16.98 -9 1 C-6.03 1.33 -3.06 1.66 0 2 C0 1.34 0 0.68 0 0 Z " fill="#A0D7F3" transform="translate(137,217)"/>
<path d="M0 0 C5.904 0.657 10.47 2.696 14.375 7.25 C14.375 7.91 14.375 8.57 14.375 9.25 C9.59 11.725 9.59 11.725 -14.625 24.25 C-8.455 24.25 -3.287 24.067 2.625 22.875 C3.306 22.749 3.986 22.622 4.688 22.492 C8.458 21.761 11.83 20.696 15.375 19.25 C16.365 19.25 17.355 19.25 18.375 19.25 C18.209 25.924 17.114 30.431 12.375 35.25 C4.699 40.62 -3.659 39.702 -12.625 39.5 C-14.178 39.48 -15.732 39.462 -17.285 39.445 C-21.066 39.402 -24.845 39.333 -28.625 39.25 C-27.51 35.742 -26.354 32.453 -24.594 29.219 C-24.201 28.497 -23.808 27.775 -23.403 27.031 C-21.628 23.864 -19.827 20.714 -17.991 17.583 C-17.11 16.079 -16.242 14.569 -15.388 13.05 C-8.208 0.436 -8.208 0.436 0 0 Z " fill="#52D917" transform="translate(59.625,217.75)"/>
<path d="M0 0 C0.33 0.66 0.66 1.32 1 2 C1.66 2 2.32 2 3 2 C3 15.86 3 29.72 3 44 C2.67 42.68 2.34 41.36 2 40 C0.998 40.035 -0.003 40.07 -1.035 40.105 C-14.771 40.449 -14.771 40.449 -20 37 C-24.768 32.388 -28.031 27.977 -28.625 21.25 C-28.7 20.451 -28.775 19.652 -28.852 18.828 C-28.901 18.225 -28.95 17.622 -29 17 C-23.375 14 -23.375 14 -20 14 C-20 15.32 -20 16.64 -20 18 C-14.39 18 -8.78 18 -3 18 C-3.188 10.688 -3.188 10.688 -3.27 8.397 C-3.332 3.435 -3.332 3.435 -1.488 1.02 C-0.997 0.683 -0.506 0.347 0 0 Z " fill="#9ED5F1" transform="translate(112,217)"/>
<path d="M0 0 C0.33 0 0.66 0 1 0 C1.172 15.584 0.628 31.117 0 46.688 C-0.097 49.154 -0.193 51.621 -0.289 54.088 C-0.522 60.059 -0.76 66.029 -1 72 C-4.3 72 -7.6 72 -11 72 C-18.437 55.384 -12.437 29.443 -6.66 12.941 C-4.82 8.372 -2.663 4.149 0 0 Z " fill="#1B1B1B" transform="translate(177,6)"/>
<path d="M0 0 C4 5.294 4 5.294 4 9 C-10.228 22.934 -35.787 33.096 -55.504 34.195 C-56.513 34.172 -57.523 34.149 -58.562 34.125 C-59.595 34.107 -60.628 34.089 -61.691 34.07 C-62.072 34.059 -62.072 34.059 -64 34 C-61.626 31.342 -59.179 29.893 -56.012 28.285 C-55.509 28.027 -55.509 28.027 -52.964 26.723 C-51.883 26.175 -50.801 25.627 -49.688 25.062 C-41.124 20.672 -32.618 16.203 -24.188 11.562 C-3.125 0 -3.125 0 0 0 Z " fill="#282828" transform="translate(87,153)"/>
<path d="M0 0 C12.117 1.488 24.836 10.216 34 18 C34 18.66 34 19.32 34 20 C34.583 20.267 35.165 20.534 35.766 20.809 C44.374 25.399 52.412 34.502 57 43 C57 43.66 57 44.32 57 45 C51.894 43.243 47.466 40.413 42.875 37.625 C41.996 37.094 41.116 36.563 40.21 36.016 C31.836 30.941 23.562 25.712 15.3 20.458 C11.482 18.038 7.648 15.643 3.812 13.25 C3.123 12.819 2.433 12.389 1.722 11.945 C0.148 10.963 -1.426 9.981 -3 9 C-2.01 6.03 -1.02 3.06 0 0 Z " fill="#1A1C1E" transform="translate(136,206)"/>
<path d="M0 0 C6.682 1.082 11.797 3.141 17.5 6.75 C18.261 7.223 19.022 7.696 19.806 8.183 C28.234 13.566 37.075 19.734 44 27 C44 27.66 44 28.32 44 29 C44.99 29.33 45.98 29.66 47 30 C48.644 31.907 50.143 33.788 51.625 35.812 C52.032 36.347 52.44 36.881 52.859 37.432 C54.919 40.205 56.514 42.539 57 46 C48.461 41.264 40.137 36.27 31.915 31.005 C27 27.866 22.043 24.809 17.039 21.812 C15.244 20.731 13.449 19.649 11.654 18.567 C10.473 17.858 9.288 17.154 8.102 16.454 C6.434 15.47 4.775 14.47 3.117 13.469 C2.154 12.896 1.191 12.323 0.199 11.732 C-2 10 -2 10 -2.91 7.986 C-3.052 4.846 -1.518 2.672 0 0 Z " fill="#1E1E1E" transform="translate(187,94)"/>
<path d="M0 0 C0.99 0 1.98 0 3 0 C3 2.64 3 5.28 3 8 C5.31 8 7.62 8 10 8 C10.33 14.93 10.66 21.86 11 29 C11.66 28.67 12.32 28.34 13 28 C15.672 27.866 18.323 27.957 21 28 C21 23.71 21 19.42 21 15 C21.66 15 22.32 15 23 15 C26.382 20.814 27.903 25.237 27 32 C26.67 32.33 26.34 32.66 26 33 C26.085 35.084 26.193 37.167 26.312 39.25 C26.353 45.348 26.353 45.348 24.914 48.008 C22.075 50.637 20.057 51.001 16.25 50.938 C13 50 13 50 11 48 C9.012 47.602 7.011 47.262 5 47 C4.67 47.66 4.34 48.32 4 49 C3.711 43.932 3.427 38.864 3.146 33.796 C3.05 32.077 2.953 30.357 2.854 28.638 C2.329 19.421 1.812 10.237 2 1 C1.34 0.67 0.68 0.34 0 0 Z " fill="#368714" transform="translate(104,162)"/>
<path d="M0 0 C1.65 0.025 3.299 0.048 4.949 0.068 C8.967 0.123 12.983 0.209 17 0.312 C14.951 2.506 12.984 4.049 10.367 5.512 C9.652 5.913 8.936 6.313 8.199 6.726 C7.815 6.936 7.815 6.936 5.875 8 C5.478 8.219 5.478 8.219 3.469 9.326 C-1.986 12.299 -7.506 15.101 -13.125 17.75 C-13.798 18.067 -14.471 18.385 -15.165 18.712 C-27.286 24.312 -27.286 24.312 -32 24.312 C-32.688 17.384 -32.493 12.712 -28.094 7.164 C-27.748 6.859 -27.748 6.859 -26 5.312 C-25.548 4.875 -25.095 4.437 -24.629 3.987 C-17.64 -1.617 -8.449 -0.224 0 0 Z " fill="#09609D" transform="translate(367,556.6875)"/>
<path d="M0 0 C2.31 0 4.62 0 7 0 C7.025 0.926 7.05 1.853 7.076 2.807 C7.172 6.315 7.271 9.822 7.372 13.33 C7.415 14.835 7.457 16.34 7.497 17.845 C7.732 26.533 8.126 35.17 8.793 43.838 C9.089 48.355 9.111 52.85 9.062 57.375 C9.058 58.218 9.053 59.061 9.049 59.93 C9.037 61.953 9.019 63.977 9 66 C5.37 66 1.74 66 -2 66 C-2.292 43.909 -1.548 22.036 0 0 Z " fill="none" transform="translate(169,110)"/>
<path d="M0 0 C2.31 0 4.62 0 7 0 C8.767 22.038 9.258 43.897 9 66 C5.7 66 2.4 66 -1 66 C-1.128 43.974 -0.882 22.01 0 0 Z " fill="none" transform="translate(118,222)"/>
<path d="M0 0 C0.203 13.683 -0.416 27.332 -1 41 C-1.33 41 -1.66 41 -2 41 C-2 38.36 -2 35.72 -2 33 C-11.9 33 -21.8 33 -32 33 C-27.923 24.846 -20.785 18.626 -14.375 12.25 C-14.006 11.879 -14.006 11.879 -12.141 10.004 C-2.119 0 -2.119 0 0 0 Z " fill="#3A9015" transform="translate(94,176)"/>
<path d="M0 0 C3.623 1.326 6.635 2.943 9.812 5.125 C10.603 5.664 11.393 6.203 12.207 6.758 C12.799 7.168 13.39 7.578 14 8 C13.472 10.261 12.912 12.192 11.938 14.312 C10.134 19.483 10.645 23.646 12.688 28.625 C14.828 33.019 17.128 36.863 21.875 38.742 C23.562 39.239 25.281 39.629 27 40 C26.01 40.33 25.02 40.66 24 41 C24 41.66 24 42.32 24 43 C23.361 42.732 22.721 42.464 22.062 42.188 C18.088 40.646 14.051 39.324 10 38 C9.856 38.928 9.711 39.856 9.562 40.812 C9 44 9 44 8 47 C8.99 47.66 9.98 48.32 11 49 C11 49.66 11 50.32 11 51 C3.08 51 -4.84 51 -13 51 C-17 44 -17 44 -17 41 C-11.468 40.623 -11.468 40.623 -9.062 42.562 C-7 44 -7 44 -3.438 43.875 C1.11 42.717 1.11 42.717 3 40 C3.258 36.898 3.258 36.898 3.125 33.375 C3.055 31.251 3.006 29.125 3 27 C3.33 26.67 3.66 26.34 4 26 C4.792 20.066 3.818 16.174 0.891 11.062 C-0.659 7.473 -0.319 3.831 0 0 Z " fill="none" transform="translate(126,168)"/>
<path d="M0 0 C1.32 1.65 2.64 3.3 4 5 C3.519 5.336 3.038 5.673 2.543 6.02 C0.243 8.972 0.431 12.089 0.312 15.688 C0.209 18.101 0.106 20.514 0 23 C-5.61 23 -11.22 23 -17 23 C-17 21.68 -17 20.36 -17 19 C-19.145 19.825 -19.145 19.825 -30 24 C-30 23.34 -30 22.68 -30 22 C-30.929 22.277 -31.859 22.554 -32.816 22.84 C-34.053 23.202 -35.289 23.564 -36.562 23.938 C-37.781 24.297 -38.999 24.657 -40.254 25.027 C-43.872 25.967 -47.299 26.547 -51 27 C-48.343 23.874 -44.984 22.263 -41.383 20.453 C-41.056 20.286 -41.056 20.286 -39.404 19.44 C-37.314 18.371 -35.22 17.31 -33.125 16.25 C-31.074 15.206 -29.024 14.161 -26.975 13.114 C-25.625 12.425 -24.274 11.738 -22.923 11.053 C-19.648 9.386 -16.403 7.685 -13.198 5.889 C-12.603 5.557 -12.009 5.226 -11.396 4.884 C-9.782 3.979 -8.176 3.062 -6.57 2.144 C-4 1 -4 1 -1 2 C-0.67 1.34 -0.34 0.68 0 0 Z " fill="#1A1B1C" transform="translate(109,212)"/>
<path d="M0 0 C1.386 1.623 2.726 3.287 4 5 C1.059 12.486 -7.473 15.643 -14.125 19.25 C-15.127 19.804 -16.128 20.359 -17.16 20.93 C-18.121 21.453 -19.081 21.976 -20.07 22.516 C-20.944 22.993 -21.819 23.47 -22.719 23.962 C-25 25 -25 25 -28 25 C-28 24.34 -28 23.68 -28 23 C-28.555 23.187 -29.109 23.374 -29.681 23.567 C-32.2 24.409 -34.725 25.236 -37.25 26.062 C-38.123 26.357 -38.995 26.652 -39.895 26.955 C-40.739 27.229 -41.583 27.503 -42.453 27.785 C-43.228 28.042 -44.003 28.298 -44.802 28.563 C-47.226 29.045 -48.678 28.779 -51 28 C-50.01 27.01 -49.02 26.02 -48 25 C-48.66 24.67 -49.32 24.34 -50 24 C-48.953 23.452 -47.907 22.904 -46.828 22.34 C-45.302 21.539 -43.776 20.738 -42.25 19.938 C-41.839 19.722 -41.839 19.722 -39.758 18.634 C-34.99 16.13 -30.241 13.595 -25.518 11.007 C-22.979 9.616 -20.436 8.232 -17.893 6.847 C-16.631 6.157 -15.37 5.463 -14.111 4.766 C-12.329 3.779 -10.54 2.805 -8.75 1.832 C-7.714 1.262 -6.677 0.692 -5.609 0.105 C-3 -1 -3 -1 0 0 Z " fill="#1C1C1C" transform="translate(159,98)"/>
<path d="M0 0 C0.33 0 0.66 0 1 0 C1.213 20.676 0.571 41.334 0 62 C-0.33 62 -0.66 62 -1 62 C-1.33 55.07 -1.66 48.14 -2 41 C-2.438 50.25 -2.438 50.25 -2.568 53.146 C-2.606 53.907 -2.644 54.669 -2.684 55.453 C-2.702 55.841 -2.702 55.841 -2.795 57.802 C-3 60 -3.257 61.918 -4 64 C-6.562 65.25 -6.562 65.25 -9 66 C-10.351 63.298 -10.339 60.882 -10.562 57.875 C-10.646 56.779 -10.73 55.684 -10.816 54.555 C-10.877 53.712 -10.938 52.869 -11 52 C-11.33 52 -11.66 52 -12 52 C-13.185 33.619 -9.41 15.892 0 0 Z " fill="#121212" transform="translate(105,63)"/>
<path d="M0 0 C4.29 0 8.58 0 13 0 C14.231 8.945 14.348 17.924 14.562 26.938 C14.573 27.355 14.573 27.355 14.627 29.469 C14.993 43.982 15.117 58.482 15 73 C9.39 73 3.78 73 -2 73 C-2.079 66.112 -1.996 59.311 -1.531 52.438 C-0.858 41.779 -0.657 31.113 -0.438 20.438 C-0.394 18.443 -0.351 16.449 -0.307 14.455 C-0.201 9.637 -0.099 4.818 0 0 Z M3 4 C2.118 26.01 1.872 47.974 2 70 C5.3 70 8.6 70 12 70 C12.258 47.897 11.767 26.038 10 4 C7.69 4 5.38 4 3 4 Z " fill="#1B1E1F" transform="translate(115,218)"/>
<path d="M0 0 C19.02 -0.914 19.02 -0.914 24.594 3.57 C29.188 8.241 32.282 12.252 32.312 18.938 C32.245 23.079 31.655 25.681 29 29 C17.304 23.67 7.57 10.971 0 1 C0 0.67 0 0.34 0 0 Z " fill="#3B9215" transform="translate(62,509)"/>
<path d="M0 0 C4.082 3.791 3.888 8.616 4.312 13.875 C4.241 18.555 2.629 22.172 0 26 C-3.611 29.431 -6.936 32 -12 32 C-12 35.96 -12 39.92 -12 44 C-12.33 44 -12.66 44 -13 44 C-13.165 37.07 -13.165 37.07 -14 2 C-2.787 -0.492 -2.787 -0.492 0 0 Z " fill="#085D9A" transform="translate(193,128)"/>
<path d="M0 0 C0.33 0 0.66 0 1 0 C1.33 9.57 1.66 19.14 2 29 C4.31 28.34 6.62 27.68 9 27 C8.67 27.99 8.34 28.98 8 30 C7.34 30.33 6.68 30.66 6 31 C11.483 29.898 16.705 28.518 21.957 26.586 C24 26 24 26 28 26 C27.835 26.495 27.835 26.495 27 29 C26.01 29 25.02 29 24 29 C23.876 33.217 23.786 37.434 23.725 41.653 C23.7 43.087 23.666 44.522 23.623 45.956 C23.562 48.019 23.534 50.081 23.512 52.145 C23.486 53.386 23.459 54.627 23.432 55.906 C24 59 24 59 26.531 60.803 C27.345 61.198 28.16 61.593 29 62 C29 62.66 29 63.32 29 64 C28.01 63.835 28.01 63.835 23 63 C22.67 64.98 22.34 66.96 22 69 C21.67 69 21.34 69 21 69 C20.971 65 20.953 61 20.938 57 C20.929 55.875 20.921 54.749 20.912 53.59 C20.895 47.624 21.082 41.897 22 36 C21.01 36 20.02 36 19 36 C19 34.68 19 33.36 19 32 C18.203 32.217 17.407 32.433 16.586 32.656 C15.526 32.935 14.467 33.213 13.375 33.5 C12.331 33.778 11.287 34.057 10.211 34.344 C7.043 34.991 4.223 35.116 1 35 C1 36.32 1 37.64 1 39 C-2.3 39 -5.6 39 -9 39 C-10.009 34.964 -10.113 31.363 -10.062 27.25 C-10.058 26.553 -10.053 25.855 -10.049 25.137 C-10.037 23.424 -10.019 21.712 -10 20 C-9.34 19.67 -8.68 19.34 -8 19 C-7.67 23.29 -7.34 27.58 -7 32 C-6.01 32 -5.02 32 -4 32 C-3.34 32 -2.68 32 -2 32 C-1.975 31.35 -1.95 30.701 -1.924 30.031 C-1.807 27.042 -1.685 24.052 -1.562 21.062 C-1.523 20.041 -1.484 19.019 -1.443 17.967 C-1.193 11.934 -0.744 5.992 0 0 Z " fill="#0F0F0F" transform="translate(103,95)"/>
<path d="M0 0 C2.31 0 4.62 0 7 0 C7.329 7.537 7.62 15.074 7.875 22.613 C7.986 25.609 8.127 28.6 8.277 31.594 C8.333 33.187 8.386 34.781 8.438 36.375 C8.484 37.098 8.53 37.821 8.578 38.566 C8.621 40.586 8.621 40.586 8 44 C4.868 46.731 3.188 48 -1 48 C-1.067 36.988 -0.877 26.005 -0.5 15 C-0.452 13.531 -0.403 12.063 -0.355 10.594 C-0.24 7.062 -0.121 3.531 0 0 Z " fill="none" transform="translate(97,166)"/>
<path d="M0 0 C0.33 0 0.66 0 1 0 C1.172 18.02 0.639 35.994 0 54 C-1.98 54 -3.96 54 -6 54 C-6.286 41.57 -6.564 29.198 -4.688 16.875 C-4.57 16.09 -4.452 15.306 -4.331 14.497 C-3.464 9.377 -1.948 4.812 0 0 Z " fill="none" transform="translate(123,133)"/>
<path d="M0 0 C0.66 1.32 1.32 2.64 2 4 C-6.804 11.038 -16.778 15.424 -27 20 C-27.999 20.459 -28.998 20.918 -30.027 21.391 C-36.173 24.06 -42.376 25.135 -49 26 C-46.343 22.874 -42.984 21.263 -39.383 19.453 C-39.056 19.286 -39.056 19.286 -37.404 18.44 C-35.314 17.371 -33.22 16.31 -31.125 15.25 C-29.074 14.206 -27.024 13.161 -24.975 12.114 C-23.626 11.425 -22.275 10.737 -20.925 10.051 C-15.38 7.222 -9.916 4.259 -4.472 1.241 C-2 0 -2 0 0 0 Z " fill="none" transform="translate(107,213)"/>
<path d="M0 0 C14.456 1.572 28.244 14.455 38.625 23.812 C39.134 24.269 39.644 24.725 40.168 25.195 C42.758 27.589 44.692 29.7 46 33 C37.926 28.423 30.06 23.566 22.246 18.561 C18.359 16.082 14.464 13.663 10.445 11.402 C9.746 11.005 9.046 10.607 8.325 10.197 C7.015 9.458 5.696 8.735 4.368 8.03 C2.613 7.035 2.613 7.035 0 5 C-0.395 2.246 -0.395 2.246 0 0 Z " fill="none" transform="translate(138,210)"/>
<path d="M0 0 C0.555 0.376 1.11 0.752 1.682 1.139 C0.356 4.263 -0.766 5.759 -3.712 7.436 C-4.411 7.834 -5.109 8.231 -5.829 8.641 C-6.588 9.053 -7.348 9.465 -8.13 9.889 C-8.917 10.322 -9.704 10.754 -10.514 11.2 C-19.064 15.757 -28.027 19.185 -37.16 22.381 C-39.01 23.031 -40.845 23.722 -42.677 24.42 C-45.491 25.186 -46.603 24.945 -49.318 24.139 C-43.108 20.713 -36.882 17.317 -30.644 13.941 C-28.389 12.72 -26.137 11.493 -23.887 10.263 C-20.497 8.414 -17.097 6.587 -13.693 4.764 C-12.621 4.175 -11.549 3.585 -10.445 2.978 C-9.441 2.446 -8.438 1.914 -7.404 1.366 C-6.517 0.887 -5.631 0.408 -4.718 -0.085 C-2.318 -0.861 -2.318 -0.861 0 0 Z " fill="none" transform="translate(157.31787109375,101.86083984375)"/>
<path d="M0 0 C5.084 0.371 8.816 2.297 13.062 4.938 C13.388 5.137 13.388 5.137 15.034 6.144 C26.264 13.154 36.712 21.568 46 31 C45.67 31.66 45.34 32.32 45 33 C43.93 32.319 42.86 31.639 41.758 30.938 C40.214 29.958 38.669 28.979 37.125 28 C36.712 27.737 36.712 27.737 34.622 26.408 C29.448 23.132 24.238 19.928 18.984 16.781 C17.203 15.708 15.421 14.634 13.64 13.559 C12.465 12.854 11.286 12.153 10.106 11.457 C8.436 10.472 6.776 9.471 5.117 8.469 C4.154 7.896 3.191 7.323 2.199 6.732 C0 5 0 5 -0.882 2.846 C-0.921 2.237 -0.96 1.628 -1 1 C-0.67 0.67 -0.34 0.34 0 0 Z " fill="none" transform="translate(189,98)"/>
<path d="M0 0 C0.165 0.825 0.165 0.825 1 5 C-14.593 14.292 -31.588 24.287 -50 26 C-46.452 23.11 -42.526 21.052 -38.488 18.945 C-38.124 18.754 -38.124 18.754 -36.283 17.783 C-33.961 16.561 -31.637 15.343 -29.312 14.125 C-27.011 12.916 -24.71 11.706 -22.409 10.496 C-20.932 9.718 -19.453 8.941 -17.974 8.166 C-13.474 5.801 -9.028 3.365 -4.653 0.773 C-3 0 -3 0 0 0 Z " fill="none" transform="translate(86,157)"/>
<path d="M0 0 C3.96 0.33 7.92 0.66 12 1 C13.501 17.994 14.485 34.948 15 52 C14.67 52.165 14.67 52.165 13 53 C13 52.34 13 51.68 13 51 C10.69 51.99 8.38 52.98 6 54 C5.835 53.505 5.835 53.505 5 51 C5.407 50.855 5.407 50.855 7.469 50.12 C10 48 10 48 10.447 46.024 C10.58 43.364 10.561 40.744 10.488 38.082 C10.481 37.11 10.474 36.137 10.467 35.135 C10.439 32.027 10.376 28.92 10.312 25.812 C10.287 23.706 10.265 21.6 10.244 19.494 C10.189 14.329 10.103 9.165 10 4 C7.69 4 5.38 4 3 4 C3.005 4.886 3.01 5.771 3.016 6.684 C3.183 39.159 3.183 39.159 2 52 C2.66 52.33 3.32 52.66 4 53 C3.01 53 2.02 53 1 53 C1 38.15 1 23.3 1 8 C0.67 8 0.34 8 0 8 C0 5.36 0 2.72 0 0 Z " fill="#2F322E" transform="translate(94,162)"/>
<path d="M0 0 C0.33 0 0.66 0 1 0 C1.179 17.685 0.623 35.329 0 53 C-1.65 53 -3.3 53 -5 53 C-11.86 39.279 -4.369 13.763 0 0 Z " fill="none" transform="translate(173,22)"/>
<path d="M0 0 C0.33 0 0.66 0 1 0 C0.882 6.62 0.758 13.241 0.628 19.861 C0.584 22.113 0.543 24.365 0.503 26.618 C0.445 29.855 0.381 33.091 0.316 36.328 C0.3 37.336 0.283 38.343 0.266 39.381 C0.246 40.322 0.226 41.262 0.205 42.231 C0.198 42.644 0.198 42.644 0.158 44.735 C0.001 46.981 -0.23 48.882 -1 51 C-3.562 52.25 -3.562 52.25 -6 53 C-6.944 16.296 -6.944 16.296 0 0 Z " fill="none" transform="translate(102,76)"/>
<path d="M0 0 C4.43 0.791 5.892 1.99 8.5 5.625 C9.203 9.376 8.765 11.095 7.062 14.5 C3.81 17.197 1.767 17.355 -2.371 17.109 C-4.5 16.625 -4.5 16.625 -7.062 14.5 C-8.765 11.095 -9.203 9.376 -8.5 5.625 C-5.892 1.99 -4.43 0.791 0 0 Z " fill="#1A1A1A" transform="translate(100.5,139.375)"/>
<path d="M0 0 C2.438 1.625 2.438 1.625 4 4 C4.625 7.438 4.625 7.438 4 11 C1.438 14 1.438 14 -2 16 C-5.816 16.065 -7.944 15.852 -10.938 13.438 C-12.478 9.903 -12.813 6.784 -12 3 C-8.373 -1.506 -5.39 -1.568 0 0 Z " fill="#060D03" transform="translate(126,197)"/>
<path d="M0 0 C4.187 0.661 5.859 1.286 8.562 4.562 C9.498 8.566 9.176 11.539 7.062 15.062 C3.544 17.174 0.561 17.505 -3.438 16.562 C-6.437 14.013 -7.292 12.434 -7.938 8.562 C-7.069 3.349 -5.308 0.869 0 0 Z " fill="#171717" transform="translate(171.4375,83.4375)"/>
<path d="M0 0 C4 5.294 4 5.294 4 9 C2.391 10.535 2.391 10.535 0.25 12.062 C-0.446 12.569 -1.142 13.076 -1.859 13.598 C-3.886 14.925 -5.743 16.115 -8 17 C-8.99 16.67 -9.98 16.34 -11 16 C-8.373 13.082 -5.33 11.055 -2 9 C-1.34 9 -0.68 9 0 9 C-0.165 8.175 -0.165 8.175 -1 4 C-3.147 5.059 -5.293 6.122 -7.438 7.188 C-7.782 7.358 -7.782 7.358 -9.526 8.222 C-14.229 10.569 -18.885 12.99 -23.523 15.461 C-24.644 16.055 -25.765 16.649 -26.92 17.261 C-29.17 18.456 -31.415 19.659 -33.656 20.87 C-34.694 21.419 -35.732 21.969 -36.801 22.535 C-37.731 23.034 -38.66 23.533 -39.618 24.047 C-42 25 -42 25 -45 24 C-42.574 21.266 -40.008 19.8 -36.766 18.145 C-35.723 17.608 -34.68 17.071 -33.606 16.518 C-33.052 16.237 -33.052 16.237 -30.25 14.812 C-27.983 13.649 -25.716 12.485 -23.449 11.32 C-22.346 10.755 -21.243 10.189 -20.107 9.606 C-14.895 6.912 -9.745 4.107 -4.598 1.293 C-2 0 -2 0 0 0 Z " fill="#1B1B1B" transform="translate(87,153)"/>
<path d="M0 0 C13.492 3.852 26.526 16.013 36 26 C35.67 26.66 35.34 27.32 35 28 C28.259 23.935 21.534 19.845 14.826 15.727 C12.493 14.301 10.15 12.897 7.801 11.5 C6.732 10.84 5.664 10.18 4.562 9.5 C3.656 8.953 2.75 8.407 1.816 7.844 C0 6 0 6 -0.285 2.781 C-0.191 1.863 -0.097 0.946 0 0 Z " fill="none" transform="translate(126,158)"/>
<path d="M0 0 C8.58 0 17.16 0 26 0 C26 3.3 26 6.6 26 10 C18.763 10.867 12.778 11.173 6.724 6.83 C4.385 4.976 2.144 3.077 0 1 C0 0.67 0 0.34 0 0 Z " fill="none" transform="translate(138,160)"/>
<path d="M0 0 C4.812 0.431 7.449 2.72 10.812 5.938 C11.334 6.427 11.855 6.916 12.392 7.42 C24.866 19.364 24.866 19.364 26 26 C22.526 24.694 19.416 23.17 16.242 21.25 C15.369 20.724 14.497 20.198 13.598 19.656 C12.699 19.11 11.801 18.563 10.875 18 C9.969 17.453 9.063 16.907 8.129 16.344 C4.713 14.279 1.321 12.214 -2 10 C-2 9.01 -2 8.02 -2 7 C2.741 8.353 6.323 10.334 10.375 13.125 C11.435 13.849 12.494 14.574 13.586 15.32 C14.383 15.875 15.179 16.429 16 17 C11.734 11.724 7.095 7.274 1.977 2.82 C1.324 2.22 0.672 1.619 0 1 C0 0.67 0 0.34 0 0 Z " fill="#0E120D" transform="translate(167,225)"/>
<path d="M0 0 C4.29 0 8.58 0 13 0 C13 6.27 13 12.54 13 19 C12.67 19 12.34 19 12 19 C11.67 24.94 11.34 30.88 11 37 C10.67 37 10.34 37 10 37 C10 26.11 10 15.22 10 4 C7.69 4 5.38 4 3 4 C3.012 4.862 3.023 5.725 3.035 6.613 C3.113 17.107 2.631 27.527 2 38 C1.67 38 1.34 38 1 38 C0.67 35.03 0.34 32.06 0 29 C-0.33 29 -0.66 29 -1 29 C-1.192 19.305 -0.596 9.671 0 0 Z " fill="#2D2D2D" transform="translate(166,106)"/>
<path d="M0 0 C0.33 0 0.66 0 1 0 C3.349 13.138 3.232 26.131 3.125 39.438 C3.115 41.633 3.106 43.829 3.098 46.025 C3.076 51.35 3.041 56.675 3 62 C-1.29 62 -5.58 62 -10 62 C-10 61.67 -10 61.34 -10 61 C-6.37 61 -2.74 61 1 61 C0.929 59.809 0.857 58.617 0.783 57.39 C0.061 44.665 -0.123 31.993 -0.062 19.25 C-0.057 17.366 -0.053 15.482 -0.049 13.598 C-0.038 9.065 -0.021 4.533 0 0 Z " fill="#010204" transform="translate(177,116)"/>
<path d="M0 0 C0.33 0.66 0.66 1.32 1 2 C1.99 2 2.98 2 4 2 C4 4.64 4 7.28 4 10 C3.34 8.68 2.68 7.36 2 6 C-2.385 21.96 -3.45 37.541 -4 54 C-4.33 54 -4.66 54 -5 54 C-5.165 51.525 -5.165 51.525 -6 39 C-6.33 39 -6.66 39 -7 39 C-7.228 37.014 -7.456 35.029 -7.684 33.043 C-8 31 -8 31 -9 28 C-8.328 25.723 -8.328 25.723 -7.25 23.062 C-5.306 18.015 -3.918 12.995 -2.711 7.727 C-2.009 5.035 -1.088 2.557 0 0 Z " fill="#242424" transform="translate(121,129)"/>
<path d="M0 0 C1.65 0.33 3.3 0.66 5 1 C5.33 1.99 5.66 2.98 6 4 C6.99 4.33 7.98 4.66 9 5 C10.644 6.907 12.143 8.788 13.625 10.812 C14.032 11.347 14.44 11.881 14.859 12.432 C16.919 15.205 18.514 17.539 19 21 C11.616 16.882 4.295 12.67 -2.875 8.188 C-3.487 7.815 -4.1 7.443 -4.731 7.059 C-6.43 5.98 -6.43 5.98 -9 4 C-9 3.01 -9 2.02 -9 1 C-4.728 2.529 -1.007 4.715 2.812 7.125 C3.41 7.498 4.007 7.87 4.623 8.254 C6.084 9.166 7.542 10.082 9 11 C8.67 10.67 8.34 10.34 8 10 C6.781 8.493 5.563 6.985 4.352 5.473 C3 4 3 4 0 2 C0 1.34 0 0.68 0 0 Z " fill="#0B1116" transform="translate(225,119)"/>
<path d="M0 0 C0.33 0 0.66 0 1 0 C1.33 10.23 1.66 20.46 2 31 C3.65 31 5.3 31 7 31 C6.988 29.915 6.977 28.829 6.965 27.711 C6.955 26.266 6.946 24.82 6.938 23.375 C6.933 23.019 6.933 23.019 6.912 21.215 C6.893 17.027 7.173 13.127 8 9 C8.33 9 8.66 9 9 9 C9 16.92 9 24.84 9 33 C7.515 33.165 7.515 33.165 0 34 C-1.813 32.187 -1.13 29.391 -1.133 26.953 C-1.134 25.716 -1.135 24.478 -1.137 23.203 C-1.133 21.899 -1.129 20.594 -1.125 19.25 C-1.129 17.961 -1.133 16.672 -1.137 15.344 C-1.136 14.722 -1.136 14.722 -1.133 11.578 C-1.132 10.438 -1.131 9.297 -1.129 8.122 C-1.012 5.294 -0.647 2.75 0 0 Z " fill="#090909" transform="translate(166,44)"/>
<path d="M0 0 C0.33 0 0.66 0 1 0 C1.125 16.036 0.898 31.988 0 48 C0.825 47.835 0.825 47.835 5 47 C4.67 47.99 4.34 48.98 4 50 C0.437 51.688 0.437 51.688 -3 53 C-2.74 45.934 -2.472 38.868 -2.2 31.802 C-2.109 29.398 -2.019 26.993 -1.93 24.589 C-1.802 21.136 -1.669 17.683 -1.535 14.23 C-1.497 13.152 -1.458 12.074 -1.418 10.963 C-1.378 9.962 -1.338 8.962 -1.297 7.93 C-1.264 7.049 -1.231 6.167 -1.196 5.259 C-1 3 -1 3 0 0 Z " fill="#080F06" transform="translate(95,167)"/>
<path d="M0 0 C0.33 0 0.66 0 1 0 C1.33 7.92 1.66 15.84 2 24 C3.98 24 5.96 24 8 24 C7.988 22.975 7.977 21.95 7.965 20.895 C7.955 19.534 7.946 18.173 7.938 16.812 C7.929 16.139 7.921 15.465 7.912 14.771 C7.894 11.046 8.107 7.621 9 4 C9.33 4 9.66 4 10 4 C10 11.59 10 19.18 10 27 C8.35 27.165 8.35 27.165 0 28 C-1.188 23.324 -1.148 18.789 -1.125 14 C-1.129 13.206 -1.133 12.412 -1.137 11.594 C-1.13 7.597 -0.991 3.901 0 0 Z " fill="#050A03" transform="translate(115,163)"/>
<path d="M0 0 C0.33 0.66 0.66 1.32 1 2 C1.66 2 2.32 2 3 2 C2.723 3.256 2.446 4.511 2.16 5.805 C0.335 14.192 -1.437 22.415 -2 31 C-2.66 30.34 -3.32 29.68 -4 29 C-4.33 36.92 -4.66 44.84 -5 53 C-5.33 53 -5.66 53 -6 53 C-6.754 34.954 -5.759 17.276 0 0 Z " fill="#343434" transform="translate(170,20)"/>
<path d="M0 0 C0.33 0 0.66 0 1 0 C1 8.58 1 17.16 1 26 C-4.61 26 -10.22 26 -16 26 C-16 21.71 -16 17.42 -16 13 C-15.67 13 -15.34 13 -15 13 C-15 16.96 -15 20.92 -15 25 C-14.34 24.67 -13.68 24.34 -13 24 C-13 18.72 -13 13.44 -13 8 C-12.67 8 -12.34 8 -12 8 C-12 12.95 -12 17.9 -12 23 C-8.7 23 -5.4 23 -2 23 C-2.023 21.675 -2.046 20.35 -2.07 18.984 C-2.089 17.24 -2.107 15.495 -2.125 13.75 C-2.142 12.877 -2.159 12.005 -2.176 11.105 C-2.182 10.261 -2.189 9.417 -2.195 8.547 C-2.206 7.772 -2.216 6.997 -2.227 6.198 C-1.973 3.741 -1.224 2.127 0 0 Z " fill="#31393C" transform="translate(129,265)"/>
<path d="M0 0 C0.33 0 0.66 0 1 0 C1.33 6.6 1.66 13.2 2 20 C2.33 20 2.66 20 3 20 C3.17 33.026 2.643 45.991 2 59 C-0.31 59 -2.62 59 -5 59 C-5 58.67 -5 58.34 -5 58 C-3.02 58 -1.04 58 1 58 C0.67 52.06 0.34 46.12 0 40 C-0.33 40 -0.66 40 -1 40 C-1.025 34.464 -1.043 28.928 -1.055 23.392 C-1.06 21.508 -1.067 19.623 -1.075 17.738 C-1.088 15.035 -1.093 12.332 -1.098 9.629 C-1.103 8.781 -1.108 7.933 -1.113 7.059 C-1.113 5.039 -1.062 3.019 -1 1 C-0.67 0.67 -0.34 0.34 0 0 Z " fill="#4C4C4C" transform="translate(174,19)"/>
<path d="M0 0 C0.33 0 0.66 0 1 0 C1.213 20.676 0.571 41.334 0 62 C-0.33 62 -0.66 62 -1 62 C-1.33 55.07 -1.66 48.14 -2 41 C-2.33 41 -2.66 41 -3 41 C-3.054 38.437 -3.094 35.876 -3.125 33.312 C-3.133 32.952 -3.133 32.952 -3.176 31.127 C-3.215 26.848 -2.591 23.909 -1 20 C-0.865 17.462 -0.83 14.917 -0.875 12.375 C-0.893 11.063 -0.911 9.75 -0.93 8.398 C-0.953 7.277 -0.976 6.155 -1 5 C-1 2 -1 2 0 0 Z " fill="#373737" transform="translate(105,63)"/>
<path d="M0 0 C2.562 0.25 2.562 0.25 5.562 2.25 C5.966 5.407 6.055 7.402 4.438 10.188 C2.562 11.25 2.562 11.25 -0.562 11.062 C-1.511 10.794 -2.46 10.526 -3.438 10.25 C-4.819 7.487 -4.628 5.303 -4.438 2.25 C-2.438 0.25 -2.438 0.25 0 0 Z " fill="none" transform="translate(121.4375,198.75)"/>
<path d="M0 0 C2.562 0.312 2.562 0.312 4.375 1.5 C5.964 3.926 5.927 5.466 5.562 8.312 C3.562 10.312 3.562 10.312 0.062 10.625 C-0.515 10.573 -0.515 10.573 -3.438 10.312 C-5.438 7.312 -5.438 7.312 -5.188 4.75 C-4.193 1.516 -3.412 0.437 0 0 Z " fill="none" transform="translate(100.4375,142.6875)"/>
<path d="M0 0 C0.66 0 1.32 0 2 0 C2.128 10.716 1.796 21.313 1 32 C4.63 32 8.26 32 12 32 C12 32.33 12 32.66 12 33 C7.71 33 3.42 33 -1 33 C-1.023 28.943 -1.043 24.886 -1.055 20.83 C-1.06 19.45 -1.067 18.071 -1.075 16.692 C-1.088 14.706 -1.093 12.72 -1.098 10.734 C-1.103 9.54 -1.108 8.346 -1.114 7.116 C-1.019 4.533 -0.766 2.45 0 0 Z " fill="#0A0B0B" transform="translate(115,257)"/>
<path d="M0 0 C3 0.25 3 0.25 5 2.25 C5.25 5.25 5.25 5.25 5 8.25 C3 10.25 3 10.25 0 10.5 C-3 10.25 -3 10.25 -5 8.25 C-5.25 5.25 -5.25 5.25 -5 2.25 C-3 0.25 -3 0.25 0 0 Z " fill="none" transform="translate(172,86.75)"/>
<path d="M0 0 C2.97 0.33 5.94 0.66 9 1 C9.33 1.99 9.66 2.98 10 4 C7.69 4 5.38 4 3 4 C3.005 4.886 3.01 5.771 3.016 6.684 C3.183 39.159 3.183 39.159 2 52 C2.66 52.33 3.32 52.66 4 53 C3.01 53 2.02 53 1 53 C1 38.15 1 23.3 1 8 C0.67 8 0.34 8 0 8 C0 5.36 0 2.72 0 0 Z " fill="#404040" transform="translate(94,162)"/>
<path d="M0 0 C0.66 0.33 1.32 0.66 2 1 C0.713 4.861 -0.504 5.087 -4.059 6.918 C-5.084 7.45 -6.109 7.981 -7.166 8.529 C-8.246 9.077 -9.325 9.624 -10.438 10.188 C-11.513 10.746 -12.589 11.305 -13.697 11.881 C-21.709 16 -21.709 16 -24 16 C-24.33 15.01 -24.66 14.02 -25 13 C-21.482 11.12 -17.958 9.251 -14.429 7.391 C-13.228 6.756 -12.029 6.119 -10.832 5.479 C-9.113 4.56 -7.389 3.653 -5.664 2.746 C-4.627 2.196 -3.59 1.646 -2.522 1.08 C-1.69 0.723 -0.857 0.367 0 0 Z " fill="#141414" transform="translate(91,217)"/>
<path d="M0 0 C0 6.27 0 12.54 0 19 C-0.33 19 -0.66 19 -1 19 C-1.33 24.94 -1.66 30.88 -2 37 C-2.33 37 -2.66 37 -3 37 C-3 26.11 -3 15.22 -3 4 C-5.31 4 -7.62 4 -10 4 C-9.67 3.01 -9.34 2.02 -9 1 C-2.25 0 -2.25 0 0 0 Z " fill="#393939" transform="translate(179,106)"/>
<path d="M0 0 C1.04 8.904 1.119 17.733 1.062 26.688 C1.057 28.083 1.053 29.478 1.049 30.873 C1.037 34.249 1.021 37.624 1 41 C0.67 41 0.34 41 0 41 C-0.34 36.563 -0.671 32.125 -1 27.688 C-1.095 26.444 -1.191 25.201 -1.289 23.92 C-1.827 16.596 -2.137 9.343 -2 2 C-3.65 2 -5.3 2 -7 2 C-4.353 0.539 -3.106 0 0 0 Z " fill="#010201" transform="translate(106,163)"/>
<path d="M0 0 C0.33 0 0.66 0 1 0 C1.004 0.681 1.008 1.362 1.012 2.064 C1.045 5.148 1.116 8.229 1.188 11.312 C1.193 12.384 1.199 13.456 1.205 14.561 C1.234 15.589 1.263 16.617 1.293 17.676 C1.309 18.624 1.324 19.572 1.341 20.548 C2 23 2 23 4.544 24.708 C4.949 24.921 4.949 24.921 7 26 C7 26.66 7 27.32 7 28 C5.02 27.67 3.04 27.34 1 27 C0.67 28.98 0.34 30.96 0 33 C-0.33 33 -0.66 33 -1 33 C-1.029 29 -1.047 25 -1.062 21 C-1.071 19.875 -1.079 18.749 -1.088 17.59 C-1.105 11.624 -0.918 5.897 0 0 Z " fill="#070808" transform="translate(125,131)"/>
<path d="M0 0 C0.33 0 0.66 0 1 0 C2.679 10.434 3.25 20.445 3 31 C2.67 31 2.34 31 2 31 C1.835 32.65 1.835 32.65 1 41 C0.67 41 0.34 41 0 41 C0 27.47 0 13.94 0 0 Z " fill="#091219" transform="translate(177,116)"/>
<path d="M0 0 C0.33 0.66 0.66 1.32 1 2 C1.99 2 2.98 2 4 2 C4 4.64 4 7.28 4 10 C3.34 8.68 2.68 7.36 2 6 C1.519 7.895 1.041 9.791 0.562 11.688 C0.296 12.743 0.029 13.799 -0.246 14.887 C-0.899 17.583 -1.479 20.276 -2 23 C-2.99 22.34 -3.98 21.68 -5 21 C-4.5 13.506 -2.562 7.043 0 0 Z " fill="#353535" transform="translate(121,129)"/>
<path d="M0 0 C0 2.97 0 5.94 0 9 C-3.63 9 -7.26 9 -11 9 C-11 7.68 -11 6.36 -11 5 C-9.545 4.162 -8.086 3.329 -6.625 2.5 C-6.219 2.268 -6.219 2.268 -4.164 1.094 C-2 0 -2 0 0 0 Z " fill="none" transform="translate(106,223)"/>
<path d="M0 0 C0.99 0.33 1.98 0.66 3 1 C2.34 1 1.68 1 1 1 C1.33 6.61 1.66 12.22 2 18 C2.33 18 2.66 18 3 18 C3.027 20.75 3.047 23.5 3.062 26.25 C3.071 27.027 3.079 27.805 3.088 28.605 C3.091 29.36 3.094 30.114 3.098 30.891 C3.103 31.582 3.108 32.273 3.114 32.985 C2.994 35.1 2.576 36.966 2 39 C1.34 39 0.68 39 0 39 C0 26.13 0 13.26 0 0 Z " fill="#2F383D" transform="translate(115,218)"/>
<path d="M0 0 C2.438 1.062 2.438 1.062 4 3 C4.25 6.688 4.25 6.688 4 10 C3.67 10.165 3.67 10.165 2 11 C1.845 10.515 1.845 10.515 1.062 8.062 C0 5 0 5 -1 4 C-3.375 3.625 -3.375 3.625 -6 4 C-7.688 6.5 -7.688 6.5 -9 9 C-9.66 9 -10.32 9 -11 9 C-11.354 5.811 -11.26 4.384 -9.438 1.688 C-6.093 -0.628 -3.989 -0.499 0 0 Z " fill="#141414" transform="translate(104,140)"/>
<path d="M0 0 C0.66 0.33 1.32 0.66 2 1 C2 3 2 5 2 7 C7.28 7 12.56 7 18 7 C18 7.33 18 7.66 18 8 C12.39 8 6.78 8 1 8 C1 6.68 1 5.36 1 4 C-3.29 5.65 -7.58 7.3 -12 9 C-12 8.34 -12 7.68 -12 7 C-12.66 6.67 -13.32 6.34 -14 6 C-11.712 4.97 -9.42 3.95 -7.125 2.938 C-6.474 2.643 -5.823 2.348 -5.152 2.045 C-3.46 1.303 -1.731 0.646 0 0 Z " fill="#1E2325" transform="translate(91,227)"/>
<path d="M0 0 C2 1 2 1 3 3 C0.942 4.154 -1.121 5.298 -3.188 6.438 C-4.336 7.076 -5.485 7.714 -6.668 8.371 C-9.566 9.788 -11.832 10.576 -15 11 C-15 10.34 -15 9.68 -15 9 C-15.66 8.67 -16.32 8.34 -17 8 C-14.214 6.633 -11.421 5.284 -8.625 3.938 C-7.831 3.548 -7.037 3.158 -6.219 2.756 C-5.458 2.392 -4.698 2.028 -3.914 1.652 C-3.563 1.482 -3.563 1.482 -1.788 0.621 C-1.198 0.416 -0.608 0.211 0 0 Z " fill="#292929" transform="translate(75,168)"/>
<path d="M0 0 C0.33 0 0.66 0 1 0 C1.125 7.75 1.125 7.75 0 10 C0.66 10 1.32 10 2 10 C2 17.92 2 25.84 2 34 C1.67 34 1.34 34 1 34 C0.67 30.04 0.34 26.08 0 22 C-0.33 22 -0.66 22 -1 22 C-1.027 19.458 -1.047 16.917 -1.062 14.375 C-1.071 13.662 -1.079 12.949 -1.088 12.215 C-1.107 8.027 -0.827 4.127 0 0 Z " fill="#3F3F3F" transform="translate(94,93)"/>
<path d="M0 0 C0.33 0 0.66 0 1 0 C1 7.26 1 14.52 1 22 C2.65 21.67 4.3 21.34 6 21 C5.67 21.99 5.34 22.98 5 24 C2.69 24.99 0.38 25.98 -2 27 C-1.34 18.09 -0.68 9.18 0 0 Z " fill="#040503" transform="translate(94,193)"/>
<path d="M0 0 C1.125 3.75 1.125 3.75 0 6 C0.66 6.33 1.32 6.66 2 7 C0.68 13.27 -0.64 19.54 -2 26 C-2.66 26 -3.32 26 -4 26 C-3.613 16.987 -2.524 8.669 0 0 Z " fill="#202020" transform="translate(98,77)"/>
<path d="M0 0 C4.462 1.311 7.996 3.071 11.875 5.625 C12.842 6.257 13.809 6.888 14.805 7.539 C15.529 8.021 16.254 8.503 17 9 C16.01 9.99 15.02 10.98 14 12 C11.658 10.575 9.327 9.136 7 7.688 C6.332 7.283 5.665 6.879 4.977 6.463 C3.265 5.389 1.626 4.201 0 3 C0 2.01 0 1.02 0 0 Z " fill="#10150E" transform="translate(165,232)"/>
<path d="M0 0 C2.64 0.33 5.28 0.66 8 1 C8 1.33 8 1.66 8 2 C6.02 2 4.04 2 2 2 C2.012 2.932 2.023 3.864 2.035 4.824 C2.095 13.273 1.795 21.58 1 30 C0.67 30 0.34 30 0 30 C0 20.1 0 10.2 0 0 Z " fill="#010202" transform="translate(116,219)"/>
<path d="M0 0 C3.394 3.126 5.606 5.565 7 10 C2.224 8.358 -1.794 5.735 -6 3 C-5.67 2.34 -5.34 1.68 -5 1 C-3.68 1 -2.36 1 -1 1 C-0.67 0.67 -0.34 0.34 0 0 Z " fill="#040A01" transform="translate(186,241)"/>
<path d="M0 0 C4.217 1.486 7.625 3.612 11.312 6.125 C12.381 6.849 13.45 7.574 14.551 8.32 C14.955 8.597 14.955 8.597 17 10 C16.34 10.33 16.34 10.33 13 12 C8.38 8.7 3.76 5.4 -1 2 C-0.67 1.34 -0.34 0.68 0 0 Z " fill="#1B1B1B" transform="translate(153,214)"/>
<path d="M0 0 C0.33 0 0.66 0 1 0 C1.33 3.3 1.66 6.6 2 10 C-3.28 10 -8.56 10 -14 10 C-14 8.68 -14 7.36 -14 6 C-14.66 5.67 -15.32 5.34 -16 5 C-15.01 4.34 -14.02 3.68 -13 3 C-13 4.65 -13 6.3 -13 8 C-8.71 8 -4.42 8 0 8 C0 5.36 0 2.72 0 0 Z " fill="#070707" transform="translate(107,224)"/>
<path d="M0 0 C0.33 0 0.66 0 1 0 C1.062 0.887 1.124 1.774 1.188 2.688 C2.191 6.777 3.879 8.259 7 11 C7.66 11.66 8.32 12.32 9 13 C5.25 14.125 5.25 14.125 3 13 C3 15.97 3 18.94 3 22 C2.67 22 2.34 22 2 22 C1.67 20.35 1.34 18.7 1 17 C0.67 17 0.34 17 0 17 C0 11.39 0 5.78 0 0 Z " fill="#2C2C2B" transform="translate(123,155)"/>
<path d="M0 0 C0.33 0 0.66 0 1 0 C1 4.62 1 9.24 1 14 C0.34 13.34 -0.32 12.68 -1 12 C-1.33 19.92 -1.66 27.84 -2 36 C-2.33 36 -2.66 36 -3 36 C-3.029 31.979 -3.047 27.958 -3.062 23.938 C-3.071 22.804 -3.079 21.67 -3.088 20.502 C-3.132 5.221 -3.132 5.221 0 0 Z " fill="#494949" transform="translate(167,37)"/>
<path d="M0 0 C6.302 0.332 10.852 3.673 16 7 C15.01 7.99 14.02 8.98 13 10 C10.828 8.717 8.662 7.424 6.5 6.125 C5.88 5.76 5.26 5.395 4.621 5.02 C3.046 4.068 1.519 3.039 0 2 C0 1.34 0 0.68 0 0 Z " fill="#1E1F20" transform="translate(129,168)"/>
<path d="M0 0 C2.29 3.435 2.178 4.985 2 9 C3.32 9.66 4.64 10.32 6 11 C5.01 11.66 4.02 12.32 3 13 C1.02 11.68 -0.96 10.36 -3 9 C-2.01 6.03 -1.02 3.06 0 0 Z " fill="#2B2C2C" transform="translate(136,206)"/>
<path d="M0 0 C0.33 0 0.66 0 1 0 C1.33 2.31 1.66 4.62 2 7 C7.625 7.25 7.625 7.25 11 5 C9.125 9.875 9.125 9.875 8 11 C4.562 10.75 4.562 10.75 1 10 C-1.567 6.15 -0.833 4.414 0 0 Z " fill="#282828" transform="translate(116,202)"/>
<path d="M0 0 C-2.501 2.91 -5.197 4.168 -8.688 5.688 C-9.681 6.124 -10.675 6.561 -11.699 7.012 C-12.458 7.338 -13.218 7.664 -14 8 C-13.65 5.233 -13.304 4.24 -11.074 2.48 C-10.287 2.054 -9.499 1.627 -8.688 1.188 C-8.298 0.968 -8.298 0.968 -6.324 -0.145 C-3.705 -1.109 -2.574 -0.96 0 0 Z " fill="#131313" transform="translate(75,161)"/>
<path d="M0 0 C3.053 3.053 3.072 5.884 3.188 10.062 C3 14 3 14 1 17 C-0.533 13.935 -0.103 10.732 -0.062 7.375 C-0.058 6.669 -0.053 5.962 -0.049 5.234 C-0.037 3.49 -0.019 1.745 0 0 Z " fill="#74CFF3" transform="translate(131,276)"/>
<path d="M0 0 C-1 3 -1 3 -2.926 3.984 C-3.713 4.237 -4.501 4.49 -5.312 4.75 C-6.092 5.013 -6.872 5.276 -7.676 5.547 C-10.169 6.033 -11.618 5.807 -14 5 C-9.676 1.341 -5.651 0 0 0 Z " fill="#181818" transform="translate(60,177)"/>
<path d="M0 0 C0.33 0 0.66 0 1 0 C1 7.26 1 14.52 1 22 C0.67 22 0.34 22 0 22 C-0.33 18.04 -0.66 14.08 -1 10 C-1.66 10.66 -2.32 11.32 -3 12 C-2.492 7.682 -1.803 3.967 0 0 Z " fill="#BFBFBF" transform="translate(123,133)"/>
<path d="M0 0 C0.66 0.33 1.32 0.66 2 1 C1 4 1 4 -0.961 5.238 C-1.359 5.416 -1.359 5.416 -3.375 6.312 C-4.166 6.68 -4.958 7.047 -5.773 7.426 C-6.508 7.615 -7.243 7.805 -8 8 C-8.99 7.34 -9.98 6.68 -11 6 C-9.214 4.97 -7.421 3.951 -5.625 2.938 C-4.627 2.369 -3.63 1.801 -2.602 1.215 C-1.743 0.814 -0.885 0.413 0 0 Z " fill="#212121" transform="translate(120,116)"/>
<path d="M0 0 C0.66 0.33 1.32 0.66 2 1 C1 4 1 4 -0.777 5.168 C-1.49 5.504 -2.203 5.841 -2.938 6.188 C-3.293 6.36 -3.293 6.36 -5.09 7.23 C-7 8 -7 8 -9 8 C-9.33 7.01 -9.66 6.02 -10 5 C-8.38 4.136 -6.754 3.284 -5.125 2.438 C-4.22 1.962 -3.315 1.486 -2.383 0.996 C-1.99 0.832 -1.99 0.832 0 0 Z " fill="#182313" transform="translate(76,225)"/>
<path d="M0 0 C2 1.062 2 1.062 4 3 C4.562 6.438 4.562 6.438 4 10 C1.5 12.438 1.5 12.438 -1 14 C-0.34 10.37 0.32 6.74 1 3 C0.01 2.67 -0.98 2.34 -2 2 C-1.34 1.34 -0.68 0.68 0 0 Z " fill="#191919" transform="translate(126,198)"/>
<path d="M0 0 C0.33 0.66 0.66 1.32 1 2 C1.99 2 2.98 2 4 2 C4 4.64 4 7.28 4 10 C3.34 8.68 2.68 7.36 2 6 C1.34 7.98 0.68 9.96 0 12 C-0.66 11.67 -1.32 11.34 -2 11 C-1.34 7.37 -0.68 3.74 0 0 Z " fill="#232323" transform="translate(121,129)"/>
<path d="M0 0 C0 0.66 0 1.32 0 2 C-6.625 6 -6.625 6 -10 6 C-10 5.34 -10 4.68 -10 4 C-10.66 3.67 -11.32 3.34 -12 3 C-10.379 2.303 -8.753 1.618 -7.125 0.938 C-6.22 0.555 -5.315 0.172 -4.383 -0.223 C-2 -1 -2 -1 0 0 Z " fill="#282828" transform="translate(141,117)"/>
<path d="M0 0 C0.99 0.33 1.98 0.66 3 1 C2.383 2.922 2.383 2.922 1 5 C-1.82 5.828 -1.82 5.828 -5.125 6.25 C-5.673 6.325 -5.673 6.325 -8.445 6.703 C-8.867 6.752 -8.867 6.752 -11 7 C-7.451 4.286 -3.985 2.029 0 0 Z " fill="#CDCDCD" transform="translate(47,176)"/>
<path d="M0 0 C0.557 0.227 1.114 0.454 1.688 0.688 C-4.098 5.509 -4.098 5.509 -7.312 6.688 C-8.302 6.357 -9.293 6.028 -10.312 5.688 C-7.507 2.587 -4.395 -0.594 0 0 Z " fill="#171717" transform="translate(86.3125,163.3125)"/>
<path d="M0 0 C0 4.29 0 8.58 0 13 C-0.66 13 -1.32 13 -2 13 C-2 9.37 -2 5.74 -2 2 C-3.65 2 -5.3 2 -7 2 C-4.353 0.539 -3.106 0 0 0 Z " fill="#101010" transform="translate(106,163)"/>
<path d="M0 0 C0.103 0.639 0.206 1.279 0.312 1.938 C0.539 2.618 0.766 3.299 1 4 C1.99 4.33 2.98 4.66 4 5 C4.33 5.66 4.66 6.32 5 7 C8.062 7.625 8.062 7.625 11 8 C11 8.33 11 8.66 11 9 C9.35 9 7.7 9 6 9 C6 9.66 6 10.32 6 11 C2.839 9.63 2.007 9.011 0 6 C-0.125 2.812 -0.125 2.812 0 0 Z " fill="#3B3B3B" transform="translate(92,145)"/>
<path d="M0 0 C-2.55 2.975 -5.403 4.501 -9 6 C-9.99 5.67 -10.98 5.34 -12 5 C-8.775 1.237 -4.905 -1.635 0 0 Z " fill="#141414" transform="translate(133,112)"/>
<path d="M0 0 C0.66 0 1.32 0 2 0 C2.322 3.537 2.413 5.396 0.375 8.375 C-2.604 10.413 -4.463 10.322 -8 10 C-8 9.34 -8 8.68 -8 8 C-5.36 7.01 -2.72 6.02 0 5 C0 3.35 0 1.7 0 0 Z " fill="#0E0E0E" transform="translate(178,90)"/>
<path d="M0 0 C0.33 0 0.66 0 1 0 C1 6.93 1 13.86 1 21 C0.67 21 0.34 21 0 21 C-0.061 20.252 -0.121 19.505 -0.184 18.734 C-0.267 17.75 -0.351 16.765 -0.438 15.75 C-0.519 14.775 -0.6 13.801 -0.684 12.797 C-1 10 -1 10 -1.594 7.844 C-2.235 4.936 -1.046 2.708 0 0 Z " fill="#DFDFDF" transform="translate(173,22)"/>
<path d="M0 0 C3 2 3 2 3.875 4.562 C4.061 4.965 4.061 4.965 5 7 C7.625 7.812 7.625 7.812 10 8 C8.68 8.33 7.36 8.66 6 9 C6 9.66 6 10.32 6 11 C2.839 9.63 2.007 9.011 0 6 C-0.125 2.812 -0.125 2.812 0 0 Z " fill="#292929" transform="translate(164,89)"/>
<path d="M0 0 C0.66 0.33 1.32 0.66 2 1 C1.67 1.99 1.34 2.98 1 4 C-2.562 5.688 -2.562 5.688 -6 7 C-6.66 6.01 -7.32 5.02 -8 4 C-6.713 3.303 -5.421 2.618 -4.125 1.938 C-3.406 1.555 -2.686 1.172 -1.945 0.777 C-1.303 0.521 -0.661 0.264 0 0 Z " fill="#262626" transform="translate(81,155)"/>
<path d="M0 0 C1.812 1.312 1.812 1.312 2.812 4.312 C2.153 4.312 1.493 4.312 0.812 4.312 C1.143 5.963 1.472 7.612 1.812 9.312 C1.153 9.642 1.153 9.642 -2.188 11.312 C-1.857 10.653 -1.528 9.993 -1.188 9.312 C-1.148 7.313 -1.144 5.312 -1.188 3.312 C-2.012 2.983 -2.012 2.983 -6.188 1.312 C-2.785 -0.875 -2.785 -0.875 0 0 Z " fill="#2F2F2F" transform="translate(177.1875,85.6875)"/>
<path d="M0 0 C-2.43 3.646 -3.824 3.998 -8 5 C-10.195 4.547 -10.195 4.547 -12 4 C-10.57 3.134 -9.131 2.282 -7.688 1.438 C-6.887 0.962 -6.086 0.486 -5.262 -0.004 C-3 -1 -3 -1 0 0 Z " fill="#C7C7C7" transform="translate(120,122)"/>
<path d="M0 0 C-0.33 0.99 -0.66 1.98 -1 3 C-4.006 4.336 -6.091 5.143 -9.375 4.625 C-9.911 4.419 -10.448 4.213 -11 4 C-4.391 0 -4.391 0 0 0 Z " fill="#0B1109" transform="translate(79,234)"/>
<path d="M0 0 C0 0.33 0 0.66 0 1 C-0.474 1.041 -0.474 1.041 -2.875 1.25 C-6 2 -6 2 -7.312 3.875 C-7.426 4.226 -7.426 4.226 -8 6 C-8.33 6.99 -8.66 7.98 -9 9 C-9.66 9 -10.32 9 -11 9 C-11.354 5.811 -11.26 4.384 -9.438 1.688 C-6.185 -0.564 -3.868 -0.298 0 0 Z " fill="#202020" transform="translate(104,140)"/>
<path d="M0 0 C3.459 1.249 6.147 2.675 9 5 C8.01 5.66 7.02 6.32 6 7 C3.69 5.35 1.38 3.7 -1 2 C-0.67 1.34 -0.34 0.68 0 0 Z " fill="#1F1F1F" transform="translate(208,115)"/>
<path d="M0 0 C0.33 0 0.66 0 1 0 C1.082 4.161 0.982 7.947 0 12 C-0.99 11.67 -1.98 11.34 -3 11 C-2.886 9.541 -2.758 8.083 -2.625 6.625 C-2.555 5.813 -2.486 5.001 -2.414 4.164 C-2 2 -2 2 0 0 Z " fill="#202020" transform="translate(169,29)"/>
<path d="M0 0 C0 0.66 0 1.32 0 2 C-1.485 2.165 -1.485 2.165 -9 3 C-8.67 2.01 -8.34 1.02 -8 0 C-5.042 -1.224 -3.003 -0.965 0 0 Z " fill="#212121" transform="translate(47,182)"/>
<path d="M0 0 C2.5 1.188 2.5 1.188 4.5 3.188 C4.17 3.847 3.84 4.507 3.5 5.188 C0.125 4.002 -2.147 2.912 -4.5 0.188 C-2.5 -0.812 -2.5 -0.812 0 0 Z " fill="#212223" transform="translate(161.5,228.8125)"/>
<path d="M0 0 C-0.33 1.32 -0.66 2.64 -1 4 C-2.98 4 -4.96 4 -7 4 C-7 3.34 -7 2.68 -7 2 C-7.66 1.67 -8.32 1.34 -9 1 C-2.25 -1.125 -2.25 -1.125 0 0 Z " fill="#353535" transform="translate(123,124)"/>
<path d="M0 0 C0 0.33 0 0.66 0 1 C-3.96 1.66 -7.92 2.32 -12 3 C-7.592 -1.408 -5.795 -2.897 0 0 Z " fill="#BDBDBD" transform="translate(70,236)"/>
<path d="M0 0 C0.66 0.33 1.32 0.66 2 1 C1.67 1.99 1.34 2.98 1 4 C-1.562 5.188 -1.562 5.188 -4 6 C-4.66 5.01 -5.32 4.02 -6 3 C-4.035 1.932 -2.031 0.934 0 0 Z " fill="#282828" transform="translate(91,217)"/>
<path d="M0 0 C0.66 0.33 1.32 0.66 2 1 C1.67 1.99 1.34 2.98 1 4 C-1.562 5.188 -1.562 5.188 -4 6 C-4.66 5.01 -5.32 4.02 -6 3 C-4.035 1.932 -2.031 0.934 0 0 Z " fill="#282828" transform="translate(60,166)"/>
<path d="M0 0 C0.33 0.66 0.66 1.32 1 2 C-1.31 2.33 -3.62 2.66 -6 3 C-6 2.34 -6 1.68 -6 1 C-6.66 0.67 -7.32 0.34 -8 0 C-4.979 -0.971 -2.995 -1.136 0 0 Z " fill="#1B2A14" transform="translate(69,238)"/>
<path d="M0 0 C2.64 0.66 5.28 1.32 8 2 C7.67 2.66 7.34 3.32 7 4 C5.02 4 3.04 4 1 4 C0.67 2.68 0.34 1.36 0 0 Z " fill="#191919" transform="translate(137,206)"/>
<path d="M0 0 C0.66 0.33 1.32 0.66 2 1 C-0.64 3.64 -3.28 6.28 -6 9 C-6 6 -6 6 -3.562 3.375 C-2.717 2.591 -1.871 1.808 -1 1 C-0.67 0.67 -0.34 0.34 0 0 Z " fill="#69DF36" transform="translate(229,414)"/>
<path d="M0 0 C0.33 0 0.66 0 1 0 C1.062 0.567 1.062 0.567 1.375 3.438 C1.478 4.025 1.478 4.025 2 7 C2.66 7.33 3.32 7.66 4 8 C3.67 8.66 3.34 9.32 3 10 C1.68 9.34 0.36 8.68 -1 8 C-0.67 5.36 -0.34 2.72 0 0 Z " fill="#383838" transform="translate(116,202)"/>
<path d="M0 0 C0.66 0.33 1.32 0.66 2 1 C-0.31 3.31 -2.62 5.62 -5 8 C-5.33 7.34 -5.66 6.68 -6 6 C-4 4 -2 2 0 0 Z " fill="#74CFF3" transform="translate(106,269)"/>
<path d="M0 0 C0.598 0.206 1.196 0.412 1.812 0.625 C-0.24 2.873 -1.194 3.627 -4.188 4.625 C-4.517 3.635 -4.847 2.645 -5.188 1.625 C-2.188 -0.375 -2.188 -0.375 0 0 Z " fill="#1C1C1C" transform="translate(73.1875,160.375)"/>
<path d="M0 0 C2 1 2 1 3 3 C0.688 4.125 0.688 4.125 -2 5 C-2.99 4.34 -3.98 3.68 -5 3 C-2.625 1.438 -2.625 1.438 0 0 Z " fill="#303030" transform="translate(114,119)"/>
<path d="M0 0 C2 1 2 1 3 3 C1.02 3.66 -0.96 4.32 -3 5 C-3.33 4.01 -3.66 3.02 -4 2 C-2.125 0.938 -2.125 0.938 0 0 Z " fill="#292929" transform="translate(154,98)"/>
<path d="M0 0 C2.31 0.33 4.62 0.66 7 1 C7 1.33 7 1.66 7 2 C5.35 2.33 3.7 2.66 2 3 C1.67 4.65 1.34 6.3 1 8 C0.67 8 0.34 8 0 8 C0 5.36 0 2.72 0 0 Z " fill="#010101" transform="translate(167,107)"/>
</svg>
