<?xml version="1.0" encoding="UTF-8"?>
<!-- Generator: visioncortex VTracer 0.6.12 -->
<svg version="1.1" xmlns="http://www.w3.org/2000/svg" width="500" height="135">
<path d="M0 0 C81.84 0 163.68 0 248 0 C248 0.66 248 1.32 248 2 C247.34 2 246.68 2 246 2 C246 21.47 246 40.94 246 61 C243.36 61 240.72 61 238 61 C238 57.04 238 53.08 238 49 C236.68 49 235.36 49 234 49 C234 52.96 234 56.92 234 61 C231.36 61 228.72 61 226 61 C226 75.52 226 90.04 226 105 C224.026 105.019 224.026 105.019 214.039 105.113 C210.23 105.159 206.421 105.211 202.611 105.262 C199.957 105.296 197.303 105.324 194.649 105.346 C190.841 105.38 187.034 105.432 183.227 105.488 C182.034 105.495 180.841 105.501 179.612 105.508 C179.062 105.518 179.062 105.518 176.276 105.568 C175.303 105.579 174.331 105.59 173.329 105.601 C172.56 105.733 171.792 105.864 171 106 C170.34 106.99 169.68 107.98 169 109 C168.34 109 167.68 109 167 109 C166.67 108.01 166.34 107.02 166 106 C159.07 105.67 152.14 105.34 145 105 C145 96.75 145 88.5 145 80 C143.35 80 141.7 80 140 80 C140 88.25 140 96.5 140 105 C126.14 105 112.28 105 98 105 C96.85 84.294 96.85 84.294 96.938 74.875 C96.942 73.907 96.947 72.939 96.951 71.941 C96.963 69.628 96.979 67.314 97 65 C94.36 65 91.72 65 89 65 C89 64.34 89 63.68 89 63 C88.34 63 87.68 63 87 63 C86.67 62.34 86.34 61.68 86 61 C78.742 62.94 72.43 67.118 65.967 70.832 C65.017 71.364 64.068 71.897 63.09 72.445 C62.661 72.69 62.661 72.69 60.492 73.93 C57.74 75.111 55.963 75.303 53 75 C50.465 73.723 50.465 73.723 47.938 72.062 C43.37 69.085 43.37 69.085 40.816 68.496 C39 68 39 68 37 65 C34.375 64.812 34.375 64.812 32 65 C32 67.31 32 69.62 32 72 C31.126 71.783 30.252 71.566 29.351 71.342 C25.388 70.938 23.844 71.641 20.383 73.527 C19.874 73.8 19.874 73.8 17.297 75.178 C16.25 75.758 15.203 76.339 14.125 76.938 C13.59 77.226 13.59 77.226 10.883 78.686 C8.247 80.109 5.62 81.548 3 83 C3.99 83.66 4.98 84.32 6 85 C4.02 85 2.04 85 0 85 C0 56.95 0 28.9 0 0 Z " fill="none" transform="translate(0,0)"/>
<path d="M0 0 C4.795 1.199 9.315 2.355 13.961 3.91 C15.009 4.26 16.057 4.61 17.137 4.971 C17.671 5.151 17.671 5.151 20.375 6.062 C21.467 6.427 22.559 6.791 23.684 7.166 C31.719 9.859 31.719 9.859 34 11 C34 7.7 34 4.4 34 1 C35.65 1 37.3 1 39 1 C39 4.96 39 8.92 39 13 C40.65 13.33 42.3 13.66 44 14 C44 9.71 44 5.42 44 1 C45.32 1 46.64 1 48 1 C48 5.95 48 10.9 48 16 C49.65 16.33 51.3 16.66 53 17 C53.99 17.33 54.98 17.66 56 18 C56 20.97 56 23.94 56 27 C64.91 27 73.82 27 83 27 C83 51.75 83 76.5 83 102 C84.65 102 86.3 102 88 102 C87.971 101.309 87.942 100.618 87.913 99.906 C87.65 93.319 87.453 86.733 87.326 80.142 C87.259 76.755 87.168 73.372 87.019 69.987 C85.956 43.942 85.956 43.942 94.203 34.586 C95.871 32.868 97.576 31.226 99.344 29.613 C102.125 26.904 104.316 23.777 106.562 20.625 C109.209 17.029 110.957 14.83 115 13 C123.197 22.855 131.277 32.768 139 43 C137.485 47.094 134.982 48.381 131.449 50.773 C127.409 54.033 125.698 56.95 125.006 62.122 C124.559 68.291 124.679 74.447 124.812 80.625 C124.819 82.796 124.821 84.966 124.818 87.137 C124.822 92.426 124.886 97.712 125 103 C126.155 102.835 126.155 102.835 132 102 C131.955 101.491 131.955 101.491 131.73 98.917 C129.262 68.114 129.262 68.114 135.645 60.457 C139.503 56.936 143.935 53.509 149 52 C152.496 52.498 154.19 53.792 156.75 56.188 C160.698 59.861 160.698 59.861 163.031 60.931 C165.765 62.369 167.2 63.459 169 66 C170.026 72.145 169.753 78.171 169.5 84.375 C169.46 86.082 169.423 87.789 169.391 89.496 C169.303 93.666 169.165 97.832 169 102 C173.29 102.33 177.58 102.66 182 103 C182.33 104.65 182.66 106.3 183 108 C180.386 110.614 179.29 110.251 175.648 110.254 C174.512 110.26 173.376 110.265 172.206 110.271 C170.954 110.267 169.702 110.263 168.412 110.259 C167.098 110.262 165.784 110.266 164.431 110.269 C160.821 110.279 157.212 110.275 153.603 110.269 C149.831 110.264 146.059 110.268 142.286 110.271 C135.951 110.275 129.616 110.27 123.281 110.261 C115.95 110.25 108.619 110.253 101.287 110.264 C95 110.273 88.713 110.275 82.426 110.27 C78.668 110.266 74.91 110.266 71.152 110.273 C66.964 110.279 62.776 110.27 58.588 110.259 C57.336 110.263 56.084 110.267 54.794 110.271 C53.658 110.265 52.522 110.26 51.352 110.254 C50.361 110.253 49.37 110.252 48.349 110.252 C46 110 46 110 44 108 C44 106.68 44 105.36 44 104 C43.01 104 42.02 104 41 104 C40.928 104.402 40.928 104.402 40.562 106.438 C40 109 40 109 39 110 C34.884 110.218 30.765 110.186 26.644 110.185 C24.574 110.187 22.505 110.206 20.436 110.225 C19.138 110.227 17.841 110.228 16.504 110.23 C15.306 110.235 14.108 110.239 12.873 110.243 C10 110 10 110 8 108 C8 106.68 8 105.36 8 104 C7.01 104 6.02 104 5 104 C4.928 104.402 4.928 104.402 4.562 106.438 C4 109 4 109 3 110 C0.607 110.106 -1.757 110.147 -4.15 110.145 C-4.898 110.149 -5.646 110.152 -6.417 110.155 C-8.902 110.165 -11.386 110.167 -13.871 110.168 C-15.591 110.171 -17.311 110.175 -19.032 110.178 C-22.642 110.184 -26.253 110.186 -29.864 110.185 C-34.499 110.185 -39.134 110.199 -43.769 110.216 C-47.323 110.227 -50.877 110.229 -54.431 110.229 C-56.14 110.23 -57.85 110.234 -59.559 110.242 C-61.946 110.252 -64.333 110.249 -66.72 110.243 C-67.432 110.249 -68.143 110.254 -68.876 110.26 C-73.772 110.228 -73.772 110.228 -76 108 C-75.67 106.35 -75.34 104.7 -75 103 C-56.85 103 -38.7 103 -20 103 C-20 88.48 -20 73.96 -20 59 C-17.36 59 -14.72 59 -12 59 C-12 55.04 -12 51.08 -12 47 C-10.68 47 -9.36 47 -8 47 C-8 50.96 -8 54.92 -8 59 C-5.36 59 -2.72 59 0 59 C0 39.53 0 20.06 0 0 Z " fill="#478E28" transform="translate(246,2)"/>
<path d="M0 0 C9.001 2.25 9.001 2.25 12.181 3.313 C12.538 3.431 12.538 3.431 14.344 4.031 C15.084 4.28 15.824 4.529 16.586 4.785 C17.369 5.046 18.152 5.307 18.959 5.577 C20.598 6.124 22.236 6.673 23.875 7.223 C26.388 8.067 28.903 8.906 31.418 9.744 C33.016 10.278 34.613 10.813 36.211 11.348 C36.963 11.599 37.715 11.85 38.49 12.108 C43.768 13.884 43.768 13.884 46 15 C46 40.08 46 65.16 46 91 C42.04 91 38.08 91 34 91 C33.561 85.729 33.561 85.729 34 83 C36.438 80.625 36.438 80.625 39 79 C40.528 75.943 40.232 73.37 40 70 C39.062 67.625 39.062 67.625 37 66 C33.935 65.037 31.202 64.686 28 65 C24.938 66.938 24.938 66.938 23 70 C22.33 73.025 22.544 74.808 23 78 C24.87 80.431 26.281 81.641 29 83 C29 85.64 29 88.28 29 91 C25.04 91 21.08 91 17 91 C17 78.13 17 65.26 17 52 C11.39 52 5.78 52 0 52 C0 34.84 0 17.68 0 0 Z " fill="#F3F3F3" transform="translate(251,9)"/>
<path d="M0 0 C3.477 1.622 5.213 3.185 7.562 6.25 C9.997 9.407 12.437 12.55 14.965 15.633 C15.977 16.88 16.988 18.128 18 19.375 C18.247 19.672 18.247 19.672 19.494 21.177 C22.143 24.48 23 25.621 23 30 C21.391 31.781 21.391 31.781 19.25 33.5 C17.827 34.659 16.411 35.826 15 37 C14.308 37.49 13.617 37.98 12.904 38.485 C9.947 42.39 10.397 46.241 10.391 51.016 C10.374 51.987 10.358 52.958 10.341 53.958 C10.292 57.055 10.271 60.152 10.25 63.25 C10.222 65.352 10.192 67.453 10.16 69.555 C10.086 74.703 10.037 79.851 10 85 C8.68 85 7.36 85 6 85 C6 80.38 6 75.76 6 71 C2.7 71 -0.6 71 -4 71 C-4 75.62 -4 80.24 -4 85 C-10.27 85 -16.54 85 -23 85 C-23.249 77.263 -23.429 69.528 -23.549 61.788 C-23.599 59.161 -23.667 56.533 -23.754 53.906 C-24.572 28.562 -24.572 28.562 -18.406 21.25 C-16.649 19.455 -14.85 17.699 -13 16 C-11.699 14.432 -10.423 12.844 -9.18 11.23 C-8.08 9.881 -6.978 8.534 -5.875 7.188 C-5.3 6.483 -4.725 5.779 -4.133 5.053 C-2.757 3.367 -1.379 1.683 0 0 Z " fill="#F4F4F4" transform="translate(359,18)"/>
<path d="M0 0 C0.33 0 0.66 0 1 0 C1 2.97 1 5.94 1 9 C9.91 9 18.82 9 28 9 C28 32.76 28 56.52 28 81 C-4.67 81 -37.34 81 -71 81 C-71 67.8 -71 54.6 -71 41 C-70.67 41 -70.34 41 -70 41 C-70 53.87 -70 66.74 -70 80 C-58.12 80 -46.24 80 -34 80 C-34 67.13 -34 54.26 -34 41 C-33.67 41 -33.34 41 -33 41 C-33 53.87 -33 66.74 -33 80 C-27.72 80 -22.44 80 -17 80 C-17 76.04 -17 72.08 -17 68 C-18.65 67.67 -20.3 67.34 -22 67 C-24 65 -24 65 -24.375 61.125 C-24.287 58.103 -24.077 57.119 -22.375 54.5 C-19.26 52.533 -17.628 52.408 -14 53 C-11.125 54.562 -11.125 54.562 -9 57 C-8.438 60.5 -8.438 60.5 -9 64 C-10.812 66.438 -10.812 66.438 -13 68 C-13.99 68 -14.98 68 -16 68 C-16 71.96 -16 75.92 -16 80 C-10.72 80 -5.44 80 0 80 C0 53.6 0 27.2 0 0 Z " fill="#F2F2F2" transform="translate(299,22)"/>
<path d="M0 0 C0.66 0 1.32 0 2 0 C2 5.28 2 10.56 2 16 C4.31 16.33 6.62 16.66 9 17 C8.67 43.73 8.34 70.46 8 98 C2.72 98 -2.56 98 -8 98 C-8 94.04 -8 90.08 -8 86 C-7.175 85.67 -7.175 85.67 -3 84 C-1.458 80.917 -1.703 78.391 -2 75 C-4.233 72.337 -5.62 72.047 -9.062 71.625 C-12 72 -12 72 -13.875 73 C-15.753 76.339 -15.301 79.21 -15 83 C-13 85 -13 85 -9 86 C-9 89.96 -9 93.92 -9 98 C-26.49 98 -43.98 98 -62 98 C-62 85.13 -62 72.26 -62 59 C-60.02 59 -58.04 59 -56 59 C-56 55.04 -56 51.08 -56 47 C-55.34 47 -54.68 47 -54 47 C-54 50.96 -54 54.92 -54 59 C-50.37 59 -46.74 59 -43 59 C-43 39.86 -43 20.72 -43 1 C-37.947 1.722 -34.121 2.466 -29.41 4.066 C-28.215 4.469 -27.019 4.872 -25.787 5.287 C-24.558 5.708 -23.329 6.129 -22.062 6.562 C-20.794 6.992 -19.525 7.421 -18.256 7.85 C-15.169 8.894 -12.084 9.945 -9 11 C-9 7.7 -9 4.4 -9 1 C-8.67 1 -8.34 1 -8 1 C-8 4.63 -8 8.26 -8 12 C-5.36 12.66 -2.72 13.32 0 14 C0 9.38 0 4.76 0 0 Z M-40 5 C-40 22.16 -40 39.32 -40 57 C-34.39 57 -28.78 57 -23 57 C-23 69.87 -23 82.74 -23 96 C-19.04 96 -15.08 96 -11 96 C-10.561 90.641 -10.561 90.641 -11 88 C-13.438 86.125 -13.438 86.125 -16 85 C-17.617 81.765 -17.567 78.497 -17 75 C-15.062 71.938 -15.062 71.938 -12 70 C-7.81 69.589 -4.283 69.989 -0.938 72.625 C0.392 75.993 0.441 78.408 0 82 C-1.796 84.753 -3.053 86.526 -6 88 C-6 90.64 -6 93.28 -6 96 C-2.04 96 1.92 96 6 96 C6 70.92 6 45.84 6 20 C-3.235 16.702 -12.464 13.45 -21.764 10.35 C-23.791 9.674 -25.818 8.992 -27.844 8.311 C-29.141 7.877 -30.437 7.444 -31.734 7.012 C-32.892 6.625 -34.049 6.237 -35.241 5.839 C-38 5 -38 5 -40 5 Z " fill="#F2F2F2" transform="translate(291,4)"/>
<path d="M0 0 C0 0.66 0 1.32 0 2 C0.66 2 1.32 2 2 2 C6.934 11.868 2.387 35.485 2 44 C-14.83 44 -31.66 44 -49 44 C-49 33.44 -49 22.88 -49 12 C-51.31 12 -53.62 12 -56 12 C-56.098 5.848 -56.098 5.848 -56 4 C-55 3 -55 3 -52.688 2.688 C-49.181 3.095 -48.416 4.511 -46 7 C-44.009 7.693 -42.008 8.357 -40 9 C-39.031 9.722 -38.061 10.444 -37.062 11.188 C-33.928 13.043 -32.721 13.317 -29.219 12.701 C-24.057 11.069 -19.422 8.059 -14.75 5.375 C-12.604 4.144 -10.453 2.923 -8.297 1.711 C-7.352 1.167 -6.406 0.624 -5.433 0.064 C-3 -1 -3 -1 0 0 Z " fill="#F7F9FA" transform="translate(87,61)"/>
<path d="M0 0 C2.31 0 4.62 0 7 0 C7.174 3.291 7.338 6.583 7.5 9.875 C7.524 10.324 7.524 10.324 7.645 12.598 C8.087 21.762 8 30.784 8 40 C21.86 40 35.72 40 50 40 C50 31.75 50 23.5 50 15 C51.65 15 53.3 15 55 15 C55 23.25 55 31.5 55 40 C61.93 40 68.86 40 76 40 C76.33 41.65 76.66 43.3 77 45 C75 47 75 47 72.539 47.249 C71.495 47.248 70.451 47.248 69.375 47.247 C68.179 47.251 66.983 47.256 65.751 47.26 C64.432 47.254 63.113 47.249 61.754 47.243 C60.356 47.244 58.958 47.246 57.561 47.249 C53.759 47.254 49.958 47.246 46.156 47.236 C42.185 47.227 38.213 47.229 34.242 47.229 C27.573 47.228 20.904 47.219 14.235 47.206 C6.514 47.19 -1.206 47.185 -8.927 47.186 C-16.343 47.186 -23.758 47.181 -31.173 47.173 C-34.335 47.169 -37.496 47.167 -40.658 47.167 C-44.377 47.166 -48.096 47.16 -51.814 47.15 C-53.183 47.147 -54.552 47.146 -55.92 47.146 C-57.781 47.147 -59.642 47.14 -61.502 47.134 C-62.546 47.132 -63.59 47.13 -64.665 47.129 C-67 47 -67 47 -68 46 C-68.125 43.5 -68.125 43.5 -68 41 C-67.67 40.67 -67.34 40.34 -67 40 C-64.36 40 -61.72 40 -59 40 C-59 29.77 -59 19.54 -59 9 C-61.104 10.093 -63.207 11.186 -65.375 12.312 C-72.653 16.002 -79.688 19.248 -88 19 C-84.29 14.902 -79.395 12.791 -74.562 10.25 C-73.608 9.731 -72.653 9.211 -71.67 8.676 C-71.209 8.433 -71.209 8.433 -68.879 7.203 C-68.039 6.756 -67.199 6.309 -66.334 5.849 C-63.697 4.89 -62.574 4.974 -60 6 C-59.67 6.33 -59.34 6.66 -59 7 C-56.69 7.33 -54.38 7.66 -52 8 C-52 18.56 -52 29.12 -52 40 C-35.17 40 -18.34 40 -1 40 C-1 32.74 -1 25.48 -1 18 C-0.71 11.989 -0.415 6 0 0 Z " fill="#0EB5EC" transform="translate(90,65)"/>
<path d="M0 0 C2.5 0.25 2.5 0.25 4.5 2.25 C5.197 3.567 5.87 4.899 6.5 6.25 C7.49 5.92 8.48 5.59 9.5 5.25 C19.833 9.359 29.093 17.064 36.5 25.25 C36.5 25.91 36.5 26.57 36.5 27.25 C36.851 26.992 36.851 26.992 38.625 25.688 C42.109 23.946 43.798 24.303 47.5 25.25 C47.17 23.6 46.84 21.95 46.5 20.25 C50.25 19.125 50.25 19.125 52.5 20.25 C52.5 21.24 52.5 22.23 52.5 23.25 C52.985 23.26 52.985 23.26 55.438 23.312 C63.153 24.408 69.027 31.335 73.5 37.25 C70.095 37.25 69.103 36.612 66.27 34.844 C65.467 34.347 64.665 33.851 63.838 33.34 C63.005 32.815 62.171 32.291 61.312 31.75 C60.468 31.225 59.623 30.701 58.752 30.16 C56.664 28.863 54.58 27.559 52.5 26.25 C52.335 26.415 52.335 26.415 51.5 27.25 C49.85 27.25 48.2 27.25 46.5 27.25 C46.5 35.5 46.5 43.75 46.5 52.25 C32.64 52.25 18.78 52.25 4.5 52.25 C3.35 31.544 3.35 31.544 3.438 22.125 C3.442 21.157 3.447 20.189 3.451 19.191 C3.463 16.878 3.479 14.564 3.5 12.25 C2.84 12.25 2.18 12.25 1.5 12.25 C1.5 11.59 1.5 10.93 1.5 10.25 C0.696 9.941 -0.109 9.631 -0.938 9.312 C-3.5 8.25 -3.5 8.25 -4.5 7.25 C-4.688 4.812 -4.688 4.812 -4.5 2.25 C-2.5 0.25 -2.5 0.25 0 0 Z " fill="#F6F8F9" transform="translate(93.5,52.75)"/>
<path d="M0 0 C0.722 -0.002 1.444 -0.005 2.189 -0.007 C4.627 -0.013 7.065 -0.012 9.503 -0.012 C11.244 -0.015 12.985 -0.018 14.726 -0.022 C19.467 -0.031 24.209 -0.033 28.951 -0.034 C32.902 -0.034 36.854 -0.038 40.805 -0.042 C50.124 -0.05 59.443 -0.052 68.762 -0.052 C78.391 -0.051 88.019 -0.062 97.648 -0.077 C105.901 -0.09 114.154 -0.096 122.407 -0.095 C127.343 -0.095 132.278 -0.098 137.213 -0.108 C141.853 -0.118 146.493 -0.118 151.133 -0.111 C152.839 -0.11 154.546 -0.112 156.253 -0.118 C158.576 -0.126 160.898 -0.121 163.22 -0.114 C163.871 -0.114 163.871 -0.114 167.166 -0.115 C170.174 0.134 170.174 0.134 172.174 2.134 C171.799 4.759 171.799 4.759 171.174 7.134 C148 7.18 124.826 7.216 101.652 7.237 C90.893 7.248 80.134 7.262 69.374 7.285 C59.999 7.304 50.625 7.317 41.25 7.322 C36.283 7.325 31.317 7.331 26.35 7.345 C21.68 7.359 17.01 7.363 12.339 7.36 C10.621 7.36 8.903 7.364 7.185 7.372 C4.847 7.382 2.51 7.38 0.172 7.374 C-1.139 7.376 -2.45 7.378 -3.8 7.38 C-6.826 7.134 -6.826 7.134 -8.826 5.134 C-7.93 -0.782 -5.572 0.007 0 0 Z " fill="#0AB4EB" transform="translate(122.82640075683594,123.86628723144531)"/>
<path d="M0 0 C0.694 -0.002 1.387 -0.005 2.102 -0.007 C4.444 -0.013 6.785 -0.012 9.127 -0.012 C10.798 -0.015 12.47 -0.018 14.142 -0.022 C18.696 -0.031 23.249 -0.033 27.803 -0.034 C31.598 -0.034 35.393 -0.038 39.188 -0.042 C48.137 -0.05 57.087 -0.052 66.037 -0.052 C75.284 -0.051 84.531 -0.062 93.778 -0.077 C101.704 -0.09 109.63 -0.096 117.556 -0.095 C122.296 -0.095 127.035 -0.098 131.775 -0.108 C136.231 -0.118 140.687 -0.118 145.143 -0.111 C146.782 -0.11 148.421 -0.112 150.061 -0.118 C152.291 -0.126 154.521 -0.121 156.752 -0.114 C157.377 -0.114 157.377 -0.114 160.541 -0.115 C163.439 0.134 163.439 0.134 165.439 2.134 C165.064 4.759 165.064 4.759 164.439 7.134 C142.178 7.18 119.917 7.216 97.656 7.237 C87.32 7.248 76.985 7.262 66.649 7.285 C57.644 7.304 48.638 7.317 39.632 7.322 C34.861 7.325 30.09 7.331 25.319 7.345 C20.833 7.359 16.347 7.363 11.86 7.36 C10.21 7.36 8.559 7.364 6.909 7.372 C4.663 7.382 2.418 7.38 0.172 7.374 C-0.458 7.375 -0.458 7.375 -3.644 7.38 C-6.561 7.134 -6.561 7.134 -8.561 5.134 C-7.681 -0.674 -5.485 0.007 0 0 Z " fill="#3C9316" transform="translate(306.56065368652344,123.86628723144531)"/>
<path d="M0 0 C1.147 0.853 2.292 1.707 3.438 2.562 C4.076 3.038 4.714 3.514 5.371 4.004 C5.805 4.333 5.805 4.333 8 6 C8.75 6.384 9.501 6.768 10.274 7.164 C13.18 8.879 14.976 10.279 17 13 C18.13 18.848 17.852 24.514 17.562 30.438 C17.517 32.044 17.476 33.65 17.439 35.256 C17.341 39.174 17.186 43.085 17 47 C13.37 47 9.74 47 6 47 C6 42.05 6 37.1 6 32 C2.37 32 -1.26 32 -5 32 C-5 36.95 -5 41.9 -5 47 C-8.63 47 -12.26 47 -16 47 C-18.257 14.759 -18.257 14.759 -13.211 8.363 C-10.138 5.512 -6.809 3.707 -3 2 C-2.01 1.34 -1.02 0.68 0 0 Z " fill="#F4F4F4" transform="translate(396,56)"/>
<path d="M0 0 C0.606 -0.003 0.606 -0.003 3.671 -0.017 C5.021 -0.013 6.371 -0.009 7.72 -0.005 C9.136 -0.008 10.552 -0.011 11.967 -0.015 C15.819 -0.025 19.67 -0.021 23.521 -0.015 C27.545 -0.01 31.569 -0.014 35.594 -0.017 C42.353 -0.021 49.112 -0.016 55.871 -0.007 C63.693 0.004 71.514 0.001 79.336 -0.01 C86.044 -0.019 92.751 -0.021 99.459 -0.016 C103.468 -0.012 107.478 -0.012 111.488 -0.019 C115.257 -0.024 119.026 -0.02 122.795 -0.009 C124.181 -0.006 125.567 -0.007 126.953 -0.011 C128.839 -0.017 130.726 -0.009 132.612 0 C133.67 0.001 134.727 0.002 135.817 0.002 C138.306 0.254 138.306 0.254 140.306 2.254 C139.976 3.904 139.646 5.554 139.306 7.254 C91.126 7.254 42.946 7.254 -6.694 7.254 C-7.024 5.604 -7.354 3.954 -7.694 2.254 C-5.021 -0.419 -3.736 0.003 0 0 Z " fill="#337518" transform="translate(208.69384765625,113.74603271484375)"/>
<path d="M0 0 C1.195 -0.004 2.389 -0.009 3.62 -0.013 C4.279 -0.013 4.279 -0.013 7.613 -0.012 C9.009 -0.015 10.405 -0.018 11.801 -0.022 C15.598 -0.031 19.396 -0.033 23.193 -0.034 C26.359 -0.034 29.525 -0.038 32.692 -0.042 C40.158 -0.05 47.625 -0.052 55.092 -0.052 C62.805 -0.051 70.518 -0.062 78.23 -0.077 C84.845 -0.09 91.459 -0.096 98.073 -0.095 C102.026 -0.095 105.98 -0.098 109.934 -0.108 C113.65 -0.118 117.367 -0.118 121.083 -0.111 C123.104 -0.109 125.124 -0.118 127.144 -0.126 C128.339 -0.122 129.533 -0.118 130.764 -0.114 C131.286 -0.114 131.286 -0.114 133.924 -0.115 C136.382 0.134 136.382 0.134 138.382 2.134 C138.382 3.454 138.382 4.774 138.382 6.134 C135.719 7.465 133.703 7.26 130.719 7.261 C129.515 7.264 128.31 7.266 127.069 7.269 C125.728 7.267 124.386 7.265 123.044 7.263 C121.636 7.264 120.229 7.266 118.821 7.268 C114.993 7.273 111.165 7.271 107.336 7.268 C103.337 7.266 99.338 7.268 95.338 7.269 C88.622 7.271 81.906 7.269 75.19 7.264 C67.415 7.259 59.639 7.26 51.864 7.266 C45.198 7.27 38.532 7.271 31.867 7.268 C27.881 7.267 23.895 7.267 19.91 7.27 C16.164 7.273 12.419 7.271 8.674 7.265 C7.296 7.264 5.917 7.264 4.539 7.266 C2.665 7.269 0.791 7.265 -1.082 7.261 C-2.133 7.26 -3.184 7.26 -4.267 7.26 C-6.618 7.134 -6.618 7.134 -7.618 6.134 C-7.659 4.468 -7.661 2.8 -7.618 1.134 C-4.966 -0.192 -2.971 0.005 0 0 Z " fill="#40951B" transform="translate(359.617919921875,113.86628723144531)"/>
<path d="M0 0 C5.28 0 10.56 0 16 0 C16 15.84 16 31.68 16 48 C10.72 48 5.44 48 0 48 C0 32.16 0 16.32 0 0 Z " fill="#5D5D5D" transform="translate(305,37)"/>
<path d="M0 0 C0.433 -0.003 0.433 -0.003 2.626 -0.017 C3.579 -0.013 4.531 -0.009 5.513 -0.005 C6.014 -0.007 6.014 -0.007 8.549 -0.015 C11.872 -0.024 15.195 -0.018 18.519 -0.012 C20.821 -0.013 23.122 -0.015 25.424 -0.017 C30.253 -0.02 35.081 -0.016 39.91 -0.007 C46.111 0.005 52.312 -0.002 58.513 -0.014 C63.268 -0.021 68.022 -0.019 72.776 -0.014 C75.063 -0.012 77.35 -0.014 79.637 -0.019 C82.829 -0.024 86.02 -0.016 89.212 -0.005 C90.165 -0.009 91.118 -0.013 92.1 -0.017 C92.966 -0.011 93.833 -0.006 94.725 0 C95.103 0 95.103 0 97.014 0.002 C98.863 0.254 98.863 0.254 100.863 2.254 C100.533 3.904 100.203 5.554 99.863 7.254 C65.213 7.254 30.563 7.254 -5.137 7.254 C-5.467 5.604 -5.797 3.954 -6.137 2.254 C-3.747 -0.136 -3.253 0.003 0 0 Z " fill="#62C9F2" transform="translate(97.1373291015625,113.74603271484375)"/>
<path d="M0 0 C4.795 1.199 9.315 2.355 13.961 3.91 C15.009 4.26 16.057 4.61 17.137 4.971 C17.671 5.151 17.671 5.151 20.375 6.062 C21.467 6.427 22.559 6.791 23.684 7.166 C31.719 9.859 31.719 9.859 34 11 C34 7.7 34 4.4 34 1 C35.65 1 37.3 1 39 1 C39 4.96 39 8.92 39 13 C39.825 13.165 39.825 13.165 44 14 C44 9.71 44 5.42 44 1 C45.32 1 46.64 1 48 1 C48 5.95 48 10.9 48 16 C49.65 16.33 51.3 16.66 53 17 C53.495 17.165 53.495 17.165 56 18 C56 21.3 56 24.6 56 28 C64.58 28 73.16 28 82 28 C82 52.75 82 77.5 82 103 C70.718 103.021 59.436 103.041 47.812 103.062 C46.065 103.067 46.065 103.067 37.222 103.09 C18.45 103.118 -0.24 102.767 -19 102 C-19 87.81 -19 73.62 -19 59 C-16.69 59 -14.38 59 -12 59 C-12 55.04 -12 51.08 -12 47 C-10.68 47 -9.36 47 -8 47 C-8 50.96 -8 54.92 -8 59 C-5.36 59 -2.72 59 0 59 C0 39.53 0 20.06 0 0 Z M45 2 C45 6.62 45 11.24 45 16 C42.36 15.34 39.72 14.68 37 14 C37 10.37 37 6.74 37 3 C36.67 3 36.34 3 36 3 C36 6.3 36 9.6 36 13 C35.556 12.849 35.556 12.849 33.31 12.082 C30.009 10.959 26.706 9.841 23.402 8.728 C21.974 8.245 20.546 7.76 19.119 7.272 C17.066 6.572 15.01 5.879 12.953 5.188 C11.717 4.769 10.481 4.35 9.208 3.918 C6 3 6 3 2 3 C2 22.14 2 41.28 2 61 C-1.63 61 -5.26 61 -9 61 C-9 57.04 -9 53.08 -9 49 C-9.66 49 -10.32 49 -11 49 C-11 52.96 -11 56.92 -11 61 C-13.31 61 -15.62 61 -18 61 C-18 74.2 -18 87.4 -18 101 C14.67 101 47.34 101 81 101 C81 77.24 81 53.48 81 29 C72.09 29 63.18 29 54 29 C54 25.7 54 22.4 54 19 C51.69 18.67 49.38 18.34 47 18 C47 12.72 47 7.44 47 2 C46.34 2 45.68 2 45 2 Z " fill="#161A14" transform="translate(246,2)"/>
<path d="M0 0 C7.876 1.125 7.876 1.125 11.634 2.383 C12.471 2.66 13.309 2.937 14.171 3.222 C15.05 3.52 15.93 3.818 16.836 4.125 C17.756 4.432 18.676 4.739 19.624 5.055 C21.556 5.701 23.487 6.35 25.417 7.002 C28.384 8.003 31.354 8.994 34.324 9.984 C36.203 10.614 38.082 11.244 39.961 11.875 C40.853 12.173 41.744 12.471 42.663 12.778 C43.481 13.055 44.299 13.332 45.142 13.617 C45.865 13.861 46.588 14.104 47.332 14.355 C49 15 49 15 50 16 C50.095 18.464 50.126 20.901 50.114 23.365 C50.114 24.136 50.114 24.907 50.114 25.701 C50.113 28.26 50.105 30.82 50.098 33.379 C50.096 35.149 50.094 36.918 50.093 38.688 C50.09 43.356 50.08 48.023 50.069 52.69 C50.058 57.449 50.054 62.208 50.049 66.967 C50.038 76.311 50.02 85.656 50 95 C44.72 95 39.44 95 34 95 C34 91.04 34 87.08 34 83 C34.825 82.67 34.825 82.67 39 81 C40.542 77.917 40.297 75.391 40 72 C37.767 69.337 36.38 69.047 32.938 68.625 C30 69 30 69 28.125 70 C26.247 73.339 26.699 76.21 27 80 C29 82 29 82 33 83 C33 86.96 33 90.92 33 95 C27.72 95 22.44 95 17 95 C17 82.13 17 69.26 17 56 C11.39 56 5.78 56 0 56 C0 37.52 0 19.04 0 0 Z M2 2 C2 19.16 2 36.32 2 54 C7.61 54 13.22 54 19 54 C19 66.87 19 79.74 19 93 C22.96 93 26.92 93 31 93 C31.439 87.641 31.439 87.641 31 85 C28.562 83.125 28.562 83.125 26 82 C24.383 78.765 24.433 75.497 25 72 C26.938 68.938 26.938 68.938 30 67 C34.19 66.589 37.717 66.989 41.062 69.625 C42.392 72.993 42.441 75.408 42 79 C40.204 81.753 38.947 83.526 36 85 C36 87.64 36 90.28 36 93 C39.96 93 43.92 93 48 93 C48 67.92 48 42.84 48 17 C38.765 13.702 29.536 10.45 20.236 7.35 C18.209 6.674 16.182 5.992 14.156 5.311 C12.859 4.877 11.563 4.444 10.266 4.012 C9.108 3.625 7.951 3.237 6.759 2.839 C4 2 4 2 2 2 Z " fill="#333333" transform="translate(249,7)"/>
<path d="M0 0 C0.66 0.99 1.32 1.98 2 3 C4.464 3.385 4.464 3.385 7.631 3.399 C8.23 3.405 8.23 3.405 11.26 3.437 C12.594 3.436 13.928 3.434 15.262 3.432 C16.662 3.441 18.061 3.452 19.46 3.463 C23.266 3.491 27.071 3.5 30.877 3.506 C34.851 3.515 38.826 3.542 42.8 3.566 C50.33 3.61 57.859 3.638 65.388 3.661 C73.959 3.688 82.53 3.732 91.1 3.778 C108.733 3.871 126.367 3.942 144 4 C144 4.33 144 4.66 144 5 C138.39 5 132.78 5 127 5 C127 5.66 127 6.32 127 7 C127.638 6.988 127.638 6.988 130.867 6.93 C132.536 6.911 134.206 6.893 135.875 6.875 C136.717 6.858 137.559 6.841 138.426 6.824 C139.231 6.818 140.037 6.811 140.867 6.805 C141.611 6.794 142.354 6.784 143.121 6.773 C145 7 145 7 147 9 C146.464 12.536 146.464 12.536 145 14 C141.737 14.251 138.459 14.185 135.188 14.188 C134.272 14.2 133.356 14.212 132.412 14.225 C131.527 14.227 130.642 14.228 129.73 14.23 C129.325 14.233 129.325 14.233 127.274 14.243 C124.684 13.966 123.159 13.458 121 12 C120.67 11.34 120.67 11.34 119 8 C63.23 7.67 7.46 7.34 -50 7 C-50 6.67 -50 6.34 -50 6 C-49.433 5.999 -48.865 5.997 -48.281 5.996 C-42.375 5.976 -36.471 5.922 -30.566 5.847 C-28.363 5.824 -26.159 5.81 -23.955 5.804 C-20.787 5.795 -17.621 5.754 -14.453 5.707 C-13.96 5.709 -13.96 5.709 -11.467 5.719 C-4.597 5.572 -4.597 5.572 -1.347 2.456 C-0.902 1.645 -0.458 0.835 0 0 Z " fill="#E2EFDD" transform="translate(351,117)"/>
<path d="M0 0 C0.99 0 1.98 0 3 0 C3.165 0.495 3.165 0.495 4 3 C52.18 3.33 100.36 3.66 150 4 C149.67 4.66 149.34 5.32 149 6 C148.433 6.001 147.865 6.003 147.281 6.004 C141.375 6.024 135.471 6.078 129.566 6.153 C127.363 6.176 125.159 6.19 122.955 6.196 C119.787 6.205 116.621 6.246 113.453 6.293 C112.96 6.291 112.96 6.291 110.467 6.281 C103.568 6.428 103.568 6.428 100.472 9.544 C99.986 10.355 99.5 11.165 99 12 C98.34 12 97.68 12 97 12 C96.67 11.34 96.67 11.34 95 8 C36.92 7.67 -21.16 7.34 -81 7 C-81 6.67 -81 6.34 -81 6 C-88.92 5.67 -96.84 5.34 -105 5 C-105 4.67 -105 4.34 -105 4 C-87.84 3.835 -87.84 3.835 -1 3 C-0.67 2.01 -0.34 1.02 0 0 Z " fill="#D4E8E1" transform="translate(198,117)"/>
<path d="M0 0 C0.797 0.002 1.595 0.004 2.416 0.006 C2.834 0.005 2.834 0.005 4.949 0.001 C7.726 -0.004 10.503 -0.001 13.28 0.003 C15.202 0.002 17.124 0.001 19.046 -0 C23.08 -0.002 27.114 0 31.149 0.005 C36.329 0.011 41.509 0.008 46.689 0.002 C50.66 -0.002 54.631 -0.001 58.602 0.002 C60.512 0.002 62.422 0.002 64.332 -0.001 C67 -0.003 69.667 0.001 72.334 0.006 C72.732 0.005 72.732 0.005 74.745 0 C80.212 0.021 80.212 0.021 82.44 1.136 C82.483 2.802 82.481 4.469 82.44 6.136 C80.643 7.933 78.199 7.262 75.806 7.271 C74.997 7.269 74.189 7.267 73.356 7.265 C72.509 7.267 71.662 7.268 70.789 7.27 C67.975 7.275 65.161 7.272 62.346 7.268 C60.4 7.269 58.453 7.27 56.506 7.271 C52.421 7.273 48.335 7.271 44.249 7.266 C39 7.26 33.75 7.263 28.501 7.269 C24.479 7.273 20.457 7.272 16.436 7.269 C14.5 7.269 12.564 7.27 10.627 7.272 C7.926 7.274 5.225 7.271 2.524 7.265 C2.12 7.266 2.12 7.266 0.075 7.271 C-5.446 7.25 -5.446 7.25 -6.56 6.136 C-6.685 3.636 -6.685 3.636 -6.56 1.136 C-4.776 -0.649 -2.376 0.009 0 0 Z " fill="#A4DBF7" transform="translate(28.55987548828125,123.86447143554688)"/>
<path d="M0 0 C26.07 0 52.14 0 79 0 C79.165 0.825 79.165 0.825 80 5 C77.555 7.445 76.224 7.242 72.887 7.271 C72.532 7.269 72.532 7.269 70.736 7.259 C69.988 7.262 69.24 7.266 68.469 7.269 C65.99 7.278 63.511 7.272 61.031 7.266 C59.313 7.267 57.594 7.269 55.875 7.271 C52.27 7.274 48.666 7.27 45.061 7.261 C40.434 7.249 35.807 7.256 31.179 7.268 C27.629 7.275 24.08 7.273 20.53 7.268 C18.823 7.266 17.117 7.268 15.41 7.273 C13.028 7.278 10.646 7.27 8.264 7.259 C7.554 7.263 6.844 7.267 6.113 7.271 C1.229 7.229 1.229 7.229 -1 5 C-0.67 3.35 -0.34 1.7 0 0 Z " fill="#5ADD22" transform="translate(171,105)"/>
<path d="M0 0 C1.235 -0.006 2.469 -0.013 3.741 -0.019 C5.095 -0.021 6.448 -0.022 7.801 -0.023 C9.183 -0.026 10.566 -0.029 11.948 -0.033 C14.847 -0.039 17.745 -0.041 20.644 -0.04 C24.363 -0.04 28.082 -0.054 31.801 -0.071 C34.656 -0.082 37.511 -0.084 40.366 -0.083 C41.738 -0.085 43.109 -0.089 44.481 -0.097 C46.396 -0.107 48.311 -0.102 50.227 -0.098 C51.318 -0.099 52.408 -0.101 53.532 -0.102 C56.113 0.145 56.113 0.145 58.113 2.145 C57.738 4.77 57.738 4.77 57.113 7.145 C48.786 7.168 40.459 7.186 32.131 7.197 C28.265 7.202 24.399 7.209 20.532 7.221 C16.804 7.232 13.076 7.238 9.348 7.24 C7.922 7.242 6.497 7.246 5.072 7.251 C3.082 7.258 1.092 7.259 -0.898 7.259 C-2.033 7.261 -3.168 7.263 -4.337 7.266 C-6.887 7.145 -6.887 7.145 -7.887 6.145 C-7.927 4.479 -7.929 2.811 -7.887 1.145 C-5.174 -0.211 -3.037 0.011 0 0 Z " fill="#0F64A0" transform="translate(29.88671875,113.854736328125)"/>
<path d="M0 0 C8.18 -0.046 16.359 -0.082 24.539 -0.104 C28.337 -0.114 32.135 -0.128 35.933 -0.151 C39.596 -0.173 43.259 -0.185 46.923 -0.19 C48.322 -0.193 49.722 -0.201 51.121 -0.211 C53.077 -0.226 55.034 -0.227 56.99 -0.227 C57.547 -0.229 57.547 -0.229 60.368 -0.241 C63 0 63 0 65 2 C64.75 4.062 64.75 4.062 64 6 C61.309 7.345 59.218 7.135 56.205 7.145 C55.598 7.148 55.598 7.148 52.524 7.165 C51.207 7.166 49.889 7.167 48.531 7.168 C47.171 7.171 45.811 7.175 44.451 7.178 C41.6 7.184 38.748 7.186 35.897 7.185 C32.238 7.185 28.58 7.199 24.921 7.216 C22.112 7.227 19.304 7.229 16.495 7.229 C14.489 7.23 12.482 7.241 10.476 7.252 C9.868 7.251 9.868 7.251 6.795 7.243 C5.722 7.244 4.649 7.246 3.543 7.247 C1 7 1 7 -1 5 C-0.625 2.375 -0.625 2.375 0 0 Z " fill="#5ADD22" transform="translate(433,105)"/>
<path d="M0 0 C4.266 1.544 6.434 4.752 9.062 8.25 C10.028 9.508 10.995 10.766 11.961 12.023 C12.457 12.674 12.953 13.325 13.464 13.995 C16.006 17.314 18.599 20.592 21.188 23.875 C22.119 25.06 23.05 26.245 23.98 27.43 C24.647 28.278 25.313 29.126 26 30 C24.485 34.094 21.982 35.381 18.449 37.773 C14.409 41.033 12.698 43.95 12.006 49.122 C11.559 55.291 11.679 61.447 11.812 67.625 C11.819 69.796 11.821 71.966 11.818 74.137 C11.822 79.426 11.886 84.712 12 90 C10 90.043 8 90.041 6 90 C5 89 5 89 4.902 85.84 C4.914 84.552 4.926 83.264 4.938 81.938 C4.947 80.647 4.956 79.357 4.965 78.027 C4.976 77.028 4.988 76.029 5 75 C2.36 75 -0.28 75 -3 75 C-2.988 75.999 -2.977 76.998 -2.965 78.027 C-2.956 79.318 -2.947 80.608 -2.938 81.938 C-2.926 83.225 -2.914 84.513 -2.902 85.84 C-3 89 -3 89 -4 90 C-5.403 90.099 -6.812 90.131 -8.219 90.133 C-8.643 90.133 -8.643 90.133 -10.793 90.137 C-11.686 90.133 -12.58 90.129 -13.5 90.125 C-14.393 90.129 -15.287 90.133 -16.207 90.137 C-17.057 90.135 -17.906 90.134 -18.781 90.133 C-19.566 90.132 -20.35 90.131 -21.158 90.129 C-23 90 -23 90 -24 89 C-24.151 87.235 -24.233 85.464 -24.288 83.693 C-24.324 82.557 -24.359 81.421 -24.395 80.25 C-24.503 75.689 -24.592 71.128 -24.652 66.565 C-24.698 63.111 -24.765 59.661 -24.885 56.209 C-25.786 29.67 -25.786 29.67 -18.832 21.59 C-16.959 19.622 -15.018 17.828 -13 16 C-11.829 14.575 -10.685 13.125 -9.59 11.641 C-9.138 11.063 -8.686 10.486 -8.221 9.891 C-7.329 8.751 -6.439 7.61 -5.549 6.469 C-3.777 4.207 -2.034 2.034 0 0 Z M0 3 C-1.75 4.856 -3.381 6.721 -5 8.688 C-5.483 9.267 -5.967 9.846 -6.465 10.443 C-23.257 30.715 -23.257 30.715 -23.227 37.481 C-23.227 38.602 -23.227 39.723 -23.227 40.878 C-23.216 42.087 -23.206 43.297 -23.195 44.543 C-23.192 45.782 -23.19 47.02 -23.187 48.297 C-23.177 51.586 -23.159 54.876 -23.137 58.165 C-23.117 61.524 -23.108 64.882 -23.098 68.24 C-23.076 74.827 -23.041 81.413 -23 88 C-16.73 88 -10.46 88 -4 88 C-4 83.38 -4 78.76 -4 74 C-0.7 74 2.6 74 6 74 C6 78.62 6 83.24 6 88 C7.32 88 8.64 88 10 88 C10.004 86.693 10.008 85.387 10.012 84.04 C10.034 79.185 10.089 74.331 10.153 69.476 C10.176 67.376 10.19 65.276 10.196 63.176 C10.205 60.154 10.246 57.135 10.293 54.113 C10.291 53.645 10.291 53.645 10.281 51.275 C10.383 46.701 10.468 44.666 13.404 40.994 C14.261 40.336 15.117 39.678 16 39 C16.739 38.334 17.477 37.667 18.238 36.98 C18.923 36.389 19.607 35.797 20.312 35.188 C20.661 34.885 20.661 34.885 22.426 33.355 C22.945 32.908 23.465 32.461 24 32 C22.286 28.014 19.625 24.798 16.938 21.438 C16.452 20.826 15.966 20.215 15.465 19.585 C14.467 18.332 13.467 17.081 12.465 15.831 C11.084 14.105 9.713 12.372 8.344 10.637 C7.55 9.643 6.756 8.649 5.938 7.625 C5.581 7.178 5.581 7.178 3.777 4.914 C3.191 4.282 2.604 3.651 2 3 C1.34 3 0.68 3 0 3 Z " fill="#1A1D19" transform="translate(359,15)"/>
<path d="M0 0 C0.33 0.33 0.66 0.66 1 1 C3.31 1.33 5.62 1.66 8 2 C8 12.56 8 23.12 8 34 C5.69 34 3.38 34 1 34 C1 23.77 1 13.54 1 3 C-0.052 3.547 -0.052 3.547 -5.375 6.312 C-12.653 10.002 -19.688 13.248 -28 13 C-24.29 8.902 -19.395 6.791 -14.562 4.25 C-13.608 3.731 -12.653 3.211 -11.67 2.676 C-11.209 2.433 -11.209 2.433 -8.879 1.203 C-8.039 0.756 -7.199 0.309 -6.334 -0.151 C-3.697 -1.11 -2.574 -1.026 0 0 Z " fill="#212627" transform="translate(30,71)"/>
<path d="M0 0 C1.859 1.418 1.859 1.418 3.75 3.188 C7.698 6.861 7.698 6.861 10.031 7.931 C12.765 9.369 14.2 10.459 16 13 C17.026 19.145 16.753 25.171 16.5 31.375 C16.46 33.082 16.423 34.789 16.391 36.496 C16.303 40.666 16.165 44.832 16 49 C13.255 50.373 10.997 50.132 7.938 50.125 C6.853 50.128 5.769 50.13 4.652 50.133 C2 50 2 50 1 49 C0.927 46.647 0.916 44.292 0.938 41.938 C0.947 40.647 0.956 39.357 0.965 38.027 C0.976 37.028 0.988 36.029 1 35 C-1.64 35 -4.28 35 -7 35 C-7 39.95 -7 44.9 -7 50 C-17.059 50.098 -17.059 50.098 -20 50 C-23.82 46.18 -22.153 32.08 -22.235 26.814 C-22.153 13.223 -22.153 13.223 -17.352 7.461 C-6.522 -2.437 -6.522 -2.437 0 0 Z M-3 1 C-9.543 4.082 -15.455 7.484 -19 14 C-21.633 24.79 -19.953 37.055 -19 48 C-15.37 48 -11.74 48 -8 48 C-8 43.05 -8 38.1 -8 33 C-4.37 33 -0.74 33 3 33 C3 37.95 3 42.9 3 48 C6.63 48 10.26 48 14 48 C14.299 43.342 14.516 38.689 14.659 34.023 C14.719 32.441 14.801 30.86 14.905 29.281 C15.725 16.575 15.725 16.575 12.864 12.304 C9.699 8.873 5.992 6.406 2 4 C1.046 3.421 0.092 2.841 -0.892 2.245 C-1.587 1.834 -2.283 1.423 -3 1 Z " fill="#323630" transform="translate(399,55)"/>
<path d="M0 0 C0.688 2.062 0.688 2.062 1 4 C-6.932 10.769 -16.703 15.402 -27 17 C-27 19.589 -26.173 20.201 -24.5 22.125 C-24.087 22.599 -24.087 22.599 -22 25 C-22.33 25.66 -22.66 26.32 -23 27 C-26.825 24.602 -30.633 22.179 -34.438 19.75 C-35.526 19.068 -36.615 18.386 -37.736 17.684 C-38.771 17.02 -39.805 16.356 -40.871 15.672 C-41.829 15.064 -42.788 14.457 -43.775 13.831 C-46.148 11.878 -46.696 11.003 -47 8 C-46.01 7.67 -45.02 7.34 -44 7 C-41.459 8.422 -39.146 10.074 -36.766 11.75 C-33.098 13.408 -30.703 13.285 -27 12 C-22.807 9.98 -18.784 7.693 -14.75 5.375 C-12.604 4.144 -10.453 2.923 -8.297 1.711 C-7.352 1.167 -6.406 0.624 -5.433 0.064 C-3 -1 -3 -1 0 0 Z " fill="#323232" transform="translate(87,61)"/>
<path d="M0 0 C0.33 0 0.66 0 1 0 C1 17.16 1 34.32 1 52 C6.61 52 12.22 52 18 52 C18 64.87 18 77.74 18 91 C21.96 91 25.92 91 30 91 C30 88.36 30 85.72 30 83 C29.216 82.732 28.433 82.464 27.625 82.188 C25 81 25 81 23 78 C22.328 71.053 22.328 71.053 24.875 67.062 C28.003 64.027 28.003 64.027 31.023 63.945 C35.084 64.256 37.36 64.469 40.562 67.125 C42.41 70.82 42.645 72.912 42 77 C40.551 79.437 39.066 80.984 37 83 C36.34 83 35.68 83 35 83 C35 85.31 35 87.62 35 90 C34.67 90 34.34 90 34 90 C33.835 88.515 33.835 88.515 33 81 C33.804 80.711 34.609 80.422 35.438 80.125 C38 79 38 79 39 77 C39.312 73.563 39.312 73.563 39 70 C36.767 67.337 35.38 67.047 31.938 66.625 C29 67 29 67 27.125 68 C25.247 71.339 25.699 74.21 26 78 C28 80 28 80 32 81 C32 84.96 32 88.92 32 93 C26.72 93 21.44 93 16 93 C16 79.8 16 66.6 16 53 C10.72 53 5.44 53 0 53 C0 35.51 0 18.02 0 0 Z " fill="#3B3B3B" transform="translate(250,9)"/>
<path d="M0 0 C0.33 0 0.66 0 1 0 C1 14.19 1 28.38 1 43 C22.45 43 43.9 43 66 43 C65.835 43.33 65.835 43.33 65 45 C63.68 45 62.36 45 61 45 C60.856 45.804 60.711 46.609 60.562 47.438 C60 50 60 50 59 51 C54.884 51.218 50.765 51.186 46.644 51.185 C44.574 51.187 42.505 51.206 40.436 51.225 C39.138 51.227 37.841 51.228 36.504 51.23 C35.306 51.235 34.108 51.239 32.873 51.243 C30 51 30 51 28 49 C28 47.68 28 46.36 28 45 C23.38 44.835 23.38 44.835 0 44 C0 29.48 0 14.96 0 0 Z " fill="#3D7127" transform="translate(226,61)"/>
<path d="M0 0 C10.217 3.092 22.911 10.734 28.277 20.27 C28.516 20.841 28.754 21.412 29 22 C29.743 21.484 30.485 20.969 31.25 20.438 C34 19 34 19 36.312 19.312 C36.869 19.539 37.426 19.766 38 20 C36.676 23.972 35.184 24.274 31.5 26.125 C26.165 28.703 21.894 29.804 16 30 C18.694 27.129 21.393 25.612 25 24 C25.66 24 26.32 24 27 24 C27 23.34 27 22.68 27 22 C26.326 21.758 25.652 21.515 24.957 21.266 C21.347 19.721 18.038 17.78 14.688 15.75 C14.357 15.551 14.357 15.551 12.683 14.543 C7.894 11.625 3.392 8.495 -1 5 C-0.67 3.35 -0.34 1.7 0 0 Z " fill="#353535" transform="translate(101,58)"/>
<path d="M0 0 C0.33 0 0.66 0 1 0 C1 12.54 1 25.08 1 38 C-0.98 38 -2.96 38 -5 38 C-7.377 35.623 -6.309 29.122 -6.326 25.795 C-6.215 16.964 -4.99 7.485 0 0 Z " fill="#424242" transform="translate(95,12)"/>
<path d="M0 0 C2.875 1.562 2.875 1.562 5 4 C5.562 7.5 5.562 7.5 5 11 C3.202 13.441 1.81 14.634 -0.938 15.875 C-3.737 16.045 -5.512 15.244 -8 14 C-10 12 -10 12 -10.375 8.125 C-10.287 5.103 -10.077 4.119 -8.375 1.5 C-5.26 -0.467 -3.628 -0.592 0 0 Z " fill="#F8F8F8" transform="translate(285,75)"/>
<path d="M0 0 C0.887 0.283 1.773 0.566 2.687 0.858 C7.172 2.361 11.643 3.899 16.102 5.48 C17.01 5.801 17.919 6.121 18.855 6.451 C21.063 7.23 23.27 8.011 25.477 8.793 C25.477 5.493 25.477 2.193 25.477 -1.207 C27.127 -1.207 28.777 -1.207 30.477 -1.207 C30.477 2.753 30.477 6.713 30.477 10.793 C31.302 10.958 31.302 10.958 35.477 11.793 C35.477 12.453 35.477 13.113 35.477 13.793 C33.143 13.126 30.81 12.46 28.477 11.793 C27.416 11.495 26.356 11.196 25.264 10.889 C21.71 9.86 18.189 8.765 14.668 7.629 C13.548 7.268 12.429 6.908 11.276 6.537 C9.878 6.085 8.479 5.633 7.039 5.168 C2.563 3.724 -1.912 2.28 -6.523 0.793 C-6.523 19.933 -6.523 39.073 -6.523 58.793 C-10.153 58.793 -13.783 58.793 -17.523 58.793 C-17.523 58.463 -17.523 58.133 -17.523 57.793 C-14.223 57.793 -10.923 57.793 -7.523 57.793 C-7.523 38.653 -7.523 19.513 -7.523 -0.207 C-4.119 -1.342 -3.31 -1.066 0 0 Z " fill="#414141" transform="translate(254.5234375,4.20703125)"/>
<path d="M0 0 C12.21 0 24.42 0 37 0 C37 1.65 37 3.3 37 5 C24.79 5 12.58 5 0 5 C0 3.35 0 1.7 0 0 Z " fill="#575757" transform="translate(255,32)"/>
<path d="M0 0 C11.88 0 23.76 0 36 0 C36 1.65 36 3.3 36 5 C24.12 5 12.24 5 0 5 C0 3.35 0 1.7 0 0 Z " fill="#4F4F4F" transform="translate(256,51)"/>
<path d="M0 0 C5.28 0 10.56 0 16 0 C16 3.63 16 7.26 16 11 C10.72 11 5.44 11 0 11 C0 7.37 0 3.74 0 0 Z " fill="#333333" transform="translate(305,86)"/>
<path d="M0 0 C5.28 0 10.56 0 16 0 C16 3.63 16 7.26 16 11 C10.72 11 5.44 11 0 11 C0 7.37 0 3.74 0 0 Z " fill="#383838" transform="translate(305,74)"/>
<path d="M0 0 C0.33 0.33 0.66 0.66 1 1 C3.31 1.33 5.62 1.66 8 2 C8 7.28 8 12.56 8 18 C7.67 18 7.34 18 7 18 C7 13.05 7 8.1 7 3 C5.35 3 3.7 3 2 3 C2 7.29 2 11.58 2 16 C1.67 16 1.34 16 1 16 C1 11.71 1 7.42 1 3 C0.105 3.471 -0.789 3.941 -1.711 4.426 C-18.791 13.275 -18.791 13.275 -28 13 C-24.29 8.902 -19.395 6.791 -14.562 4.25 C-13.608 3.731 -12.653 3.211 -11.67 2.676 C-11.209 2.433 -11.209 2.433 -8.879 1.203 C-8.039 0.756 -7.199 0.309 -6.334 -0.151 C-3.697 -1.11 -2.574 -1.026 0 0 Z " fill="#707070" transform="translate(30,71)"/>
<path d="M0 0 C0.99 0 1.98 0 3 0 C4.033 12.012 4.113 23.95 4 36 C2.35 36 0.7 36 -1 36 C-1.025 31.516 -1.043 27.032 -1.055 22.548 C-1.06 21.023 -1.067 19.498 -1.075 17.974 C-1.088 15.779 -1.093 13.585 -1.098 11.391 C-1.103 10.071 -1.108 8.751 -1.114 7.392 C-1.023 4.691 -0.819 2.55 0 0 Z " fill="#E5E5E5" transform="translate(92,67)"/>
<path d="M0 0 C2.31 0 4.62 0 7 0 C7.707 13.345 8.148 26.636 8 40 C5.03 40 2.06 40 -1 40 C-1.113 26.622 -0.923 13.348 0 0 Z M2 2 C0.781 5.795 0.887 9.428 0.902 13.391 C0.903 13.743 0.903 13.743 0.907 15.526 C0.912 17.767 0.925 20.009 0.938 22.25 C0.943 23.773 0.947 25.297 0.951 26.82 C0.962 30.547 0.979 34.273 1 38 C2.65 38 4.3 38 6 38 C6.113 25.95 6.033 14.012 5 2 C4.01 2 3.02 2 2 2 Z " fill="#2D2D2D" transform="translate(90,65)"/>
<path d="M0 0 C0.842 -0.003 1.684 -0.005 2.551 -0.008 C2.991 -0.004 2.991 -0.004 5.219 0.016 C6.099 0.008 6.98 0 7.887 -0.008 C8.728 -0.005 9.57 -0.003 10.438 0 C10.824 0.001 10.824 0.001 12.779 0.007 C14.719 0.266 14.719 0.266 16.719 2.266 C16.183 5.801 16.183 5.801 14.719 7.266 C13.23 7.352 11.737 7.373 10.246 7.363 C9.347 7.36 8.448 7.357 7.521 7.354 C6.576 7.345 5.63 7.337 4.656 7.328 C3.707 7.324 2.757 7.319 1.779 7.314 C-0.574 7.303 -2.928 7.286 -5.281 7.266 C-5.906 4.891 -5.906 4.891 -6.281 2.266 C-3.873 -0.143 -3.288 0.01 0 0 Z " fill="#5ADD22" transform="translate(481.28125,123.734375)"/>
<path d="M0 0 C4.015 0.179 7.997 0.621 12 1 C12 4.96 12 8.92 12 13 C3.504 13.098 3.504 13.098 1 13 C-1.094 10.906 -0.735 6.896 -1 4 C-1 1 -1 1 0 0 Z " fill="#626262" transform="translate(339,43)"/>
<path d="M0 0 C2.035 1.523 2.035 1.523 4.062 3.375 C4.734 3.981 5.406 4.587 6.098 5.211 C7.764 6.778 9.395 8.37 11 10 C7.007 10 5.847 8.522 2.812 6 C1.911 5.258 1.01 4.515 0.082 3.75 C-0.605 3.172 -1.292 2.595 -2 2 C-3.356 2.856 -4.702 3.73 -6.014 4.652 C-8 6 -8 6 -10.502 7.379 C-15.113 10.303 -17.622 12.398 -18.905 17.838 C-19.328 22.393 -19.234 26.932 -19.125 31.5 C-19.123 33.102 -19.126 34.703 -19.133 36.305 C-19.141 40.205 -19.087 44.1 -19 48 C-19.33 48.165 -19.33 48.165 -21 49 C-23.944 15.36 -23.944 15.36 -17.355 7.457 C-6.509 -2.441 -6.509 -2.441 0 0 Z " fill="#393939" transform="translate(399,55)"/>
<path d="M0 0 C3.388 0.968 5.924 1.946 8.812 4 C12.763 6.479 16.45 7.232 21 8 C20.01 8.99 19.02 9.98 18 11 C19.98 13.31 21.96 15.62 24 18 C23.67 18.66 23.34 19.32 23 20 C19.175 17.602 15.367 15.179 11.562 12.75 C10.474 12.068 9.385 11.386 8.264 10.684 C7.229 10.02 6.195 9.356 5.129 8.672 C4.171 8.064 3.212 7.457 2.225 6.831 C0 5 0 5 -0.883 2.833 C-0.902 2.531 -0.902 2.531 -1 1 C-0.67 0.67 -0.34 0.34 0 0 Z " fill="#303030" transform="translate(41,68)"/>
<path d="M0 0 C0.33 0 0.66 0 1 0 C1.191 20.532 1.191 20.532 0 30 C-1.65 30 -3.3 30 -5 30 C-5.439 9.89 -5.439 9.89 0 0 Z " fill="#626262" transform="translate(36,31)"/>
<path d="M0 0 C3.63 0 7.26 0 11 0 C11 3.96 11 7.92 11 12 C7.37 12 3.74 12 0 12 C0 8.04 0 4.08 0 0 Z " fill="#575757" transform="translate(340,66)"/>
<path d="M0 0 C1.65 0 3.3 0 5 0 C5 8.25 5 16.5 5 25 C3.35 25 1.7 25 0 25 C0 16.75 0 8.5 0 0 Z " fill="#505354" transform="translate(140,80)"/>
<path d="M0 0 C3.63 0 7.26 0 11 0 C11 3.63 11 7.26 11 11 C7.37 11 3.74 11 0 11 C0 7.37 0 3.74 0 0 Z " fill="#363636" transform="translate(398,74)"/>
<path d="M0 0 C2.64 0 5.28 0 8 0 C8 4.95 8 9.9 8 15 C5.36 15 2.72 15 0 15 C0 10.05 0 5.1 0 0 Z " fill="#DFE2DE" transform="translate(356,90)"/>
<path d="M0 0 C0.66 0 1.32 0 2 0 C2 5.28 2 10.56 2 16 C4.31 16.33 6.62 16.66 9 17 C8.34 17.66 7.68 18.32 7 19 C0.663 16.905 -5.672 14.805 -12.006 12.701 C-14.161 11.986 -16.317 11.272 -18.472 10.56 C-21.571 9.535 -24.668 8.506 -27.766 7.477 C-28.729 7.159 -29.693 6.841 -30.686 6.514 C-31.586 6.213 -32.487 5.913 -33.415 5.604 C-34.206 5.342 -34.996 5.08 -35.811 4.81 C-37.967 4.012 -39.966 3.068 -42 2 C-37.974 0.658 -36.14 1.724 -32.145 3.09 C-31.814 3.202 -31.814 3.202 -30.14 3.767 C-28.028 4.482 -25.92 5.21 -23.812 5.938 C-22.381 6.425 -20.95 6.911 -19.518 7.396 C-16.008 8.588 -12.503 9.791 -9 11 C-9 7.7 -9 4.4 -9 1 C-8.67 1 -8.34 1 -8 1 C-8 4.63 -8 8.26 -8 12 C-5.36 12.66 -2.72 13.32 0 14 C0 9.38 0 4.76 0 0 Z " fill="#C0C0C0" transform="translate(291,4)"/>
<path d="M0 0 C0.66 0.33 1.32 0.66 2 1 C1.353 1.444 0.705 1.889 0.038 2.347 C-3.102 6.435 -2.603 10.43 -2.609 15.453 C-2.626 16.468 -2.642 17.484 -2.659 18.53 C-2.708 21.77 -2.729 25.01 -2.75 28.25 C-2.778 30.448 -2.808 32.646 -2.84 34.844 C-2.914 40.229 -2.965 45.614 -3 51 C-4.98 51 -6.96 51 -9 51 C-9 50.34 -9 49.68 -9 49 C-7.68 49 -6.36 49 -5 49 C-5.026 47.693 -5.052 46.387 -5.079 45.04 C-5.17 40.186 -5.227 35.331 -5.275 30.476 C-5.3 28.376 -5.334 26.276 -5.377 24.176 C-5.438 21.155 -5.466 18.135 -5.488 15.113 C-5.514 14.177 -5.54 13.24 -5.566 12.275 C-5.57 4.992 -5.57 4.992 -2.469 1.868 C-1.655 1.252 -0.84 0.635 0 0 Z " fill="#2B2C2A" transform="translate(374,54)"/>
<path d="M0 0 C3.362 1.441 5.592 3.248 8 6 C8 6.66 8 7.32 8 8 C8.743 7.484 9.485 6.969 10.25 6.438 C13 5 13 5 15.312 5.312 C15.869 5.539 16.426 5.766 17 6 C15.676 9.972 14.184 10.274 10.5 12.125 C5.165 14.703 0.894 15.804 -5 16 C-2.306 13.129 0.393 11.612 4 10 C4.66 10 5.32 10 6 10 C6 9.34 6 8.68 6 8 C5.598 7.856 5.598 7.856 3.562 7.125 C1 6 1 6 0 4 C0.99 4 1.98 4 3 4 C2.01 2.68 1.02 1.36 0 0 Z " fill="#272727" transform="translate(122,72)"/>
<path d="M0 0 C0.29 0.081 0.29 0.081 1.759 0.49 C5.341 1.305 8.967 1.18 12.624 1.205 C13.058 1.21 13.058 1.21 15.256 1.235 C18.124 1.267 20.992 1.292 23.859 1.316 C25.849 1.337 27.839 1.358 29.828 1.379 C35.063 1.435 40.297 1.484 45.532 1.532 C50.874 1.582 56.216 1.638 61.559 1.693 C72.039 1.801 82.519 1.902 93 2 C93 2.33 93 2.66 93 3 C61.65 3 30.3 3 -2 3 C-1.34 2.01 -0.68 1.02 0 0 Z " fill="none" transform="translate(199,120)"/>
<path d="M0 0 C3.3 0 6.6 0 10 0 C10 3.3 10 6.6 10 10 C6.7 10 3.4 10 0 10 C0 6.7 0 3.4 0 0 Z " fill="#888888" transform="translate(384,74)"/>
<path d="M0 0 C3.3 0 6.6 0 10 0 C10 3.3 10 6.6 10 10 C6.7 10 3.4 10 0 10 C0 6.7 0 3.4 0 0 Z " fill="#878787" transform="translate(355,67)"/>
<path d="M0 0 C3.3 0 6.6 0 10 0 C10 3.3 10 6.6 10 10 C6.7 10 3.4 10 0 10 C0 6.7 0 3.4 0 0 Z " fill="#888888" transform="translate(355,45)"/>
<path d="M0 0 C3.63 0 7.26 0 11 0 C11 2.97 11 5.94 11 9 C7.37 9 3.74 9 0 9 C0 6.03 0 3.06 0 0 Z " fill="#323232" transform="translate(234,88)"/>
<path d="M0 0 C3.63 0 7.26 0 11 0 C11 2.97 11 5.94 11 9 C7.37 9 3.74 9 0 9 C0 6.03 0 3.06 0 0 Z " fill="#363636" transform="translate(249,88)"/>
<path d="M0 0 C2.31 0 4.62 0 7 0 C7 4.62 7 9.24 7 14 C4.69 14 2.38 14 0 14 C0 9.38 0 4.76 0 0 Z " fill="#F6F6F6" transform="translate(393,90)"/>
<path d="M0 0 C3.96 0 7.92 0 12 0 C12 2.64 12 5.28 12 8 C8.04 8 4.08 8 0 8 C0 5.36 0 2.72 0 0 Z " fill="#E1E1E1" transform="translate(307,63)"/>
<path d="M0 0 C3.96 0 7.92 0 12 0 C12 2.64 12 5.28 12 8 C8.04 8 4.08 8 0 8 C0 5.36 0 2.72 0 0 Z " fill="#E2E2E2" transform="translate(307,51)"/>
<path d="M0 0 C6.27 0 12.54 0 19 0 C19 1.65 19 3.3 19 5 C12.73 5 6.46 5 0 5 C0 3.35 0 1.7 0 0 Z " fill="#494949" transform="translate(273,61)"/>
<path d="M0 0 C3.63 0 7.26 0 11 0 C11 4.95 11 9.9 11 15 C10.67 15.165 10.67 15.165 9 16 C9 11.38 9 6.76 9 2 C6.36 2 3.72 2 1 2 C1 6.95 1 11.9 1 17 C-3.29 17 -7.58 17 -12 17 C-12 16.34 -12 15.68 -12 15 C-8.04 15 -4.08 15 0 15 C0 10.05 0 5.1 0 0 Z " fill="#272C25" transform="translate(391,88)"/>
<path d="M0 0 C3.63 0 7.26 0 11 0 C11 2.64 11 5.28 11 8 C7.37 8 3.74 8 0 8 C0 5.36 0 2.72 0 0 Z " fill="#2A2A2A" transform="translate(249,79)"/>
<path d="M0 0 C3.63 0 7.26 0 11 0 C11 2.64 11 5.28 11 8 C7.37 8 3.74 8 0 8 C0 5.36 0 2.72 0 0 Z " fill="#383838" transform="translate(234,79)"/>
<path d="M0 0 C3.63 0 7.26 0 11 0 C11 2.64 11 5.28 11 8 C7.37 8 3.74 8 0 8 C0 5.36 0 2.72 0 0 Z " fill="#373737" transform="translate(249,69)"/>
<path d="M0 0 C3.63 0 7.26 0 11 0 C11 2.64 11 5.28 11 8 C7.37 8 3.74 8 0 8 C0 5.36 0 2.72 0 0 Z " fill="#383838" transform="translate(234,69)"/>
<path d="M0 0 C3.96 0 7.92 0 12 0 C12 2.31 12 4.62 12 7 C8.04 7 4.08 7 0 7 C0 4.69 0 2.38 0 0 Z " fill="#F1F1F1" transform="translate(307,88)"/>
<path d="M0 0 C3.96 0 7.92 0 12 0 C12 2.31 12 4.62 12 7 C8.04 7 4.08 7 0 7 C0 4.69 0 2.38 0 0 Z " fill="#EFEFEF" transform="translate(307,76)"/>
<path d="M0 0 C3.96 0 7.92 0 12 0 C12 2.31 12 4.62 12 7 C8.04 7 4.08 7 0 7 C0 4.69 0 2.38 0 0 Z " fill="#F4F4F4" transform="translate(307,39)"/>
<path d="M0 0 C0.66 0 1.32 0 2 0 C2 9.24 2 18.48 2 28 C1.01 28 0.02 28 -1 28 C-1.029 23.521 -1.047 19.042 -1.062 14.562 C-1.071 13.283 -1.079 12.004 -1.088 10.686 C-1.091 9.471 -1.094 8.256 -1.098 7.004 C-1.103 5.878 -1.108 4.752 -1.114 3.592 C-1 1 -1 1 0 0 Z " fill="#D2D2D2" transform="translate(34,75)"/>
<path d="M0 0 C1.32 0.66 2.64 1.32 4 2 C2 4 2 4 0.199 4.727 C-3.039 6.602 -4.969 9.436 -7.188 12.375 C-7.425 12.684 -7.425 12.684 -8.628 14.247 C-10.095 16.158 -11.549 18.077 -13 20 C-13.458 20.605 -13.915 21.209 -14.387 21.832 C-16.94 25.21 -19.477 28.599 -22 32 C-22.66 31.34 -23.32 30.68 -24 30 C-23.334 29.152 -22.667 28.304 -21.98 27.43 C-21.54 26.869 -21.1 26.309 -20.646 25.731 C-19.665 24.483 -18.684 23.235 -17.703 21.987 C-15.095 18.669 -12.49 15.349 -9.891 12.023 C-9.395 11.391 -8.9 10.758 -8.39 10.106 C-7.436 8.886 -6.482 7.666 -5.53 6.445 C-3.765 4.191 -2.026 2.026 0 0 Z " fill="#383838" transform="translate(359,15)"/>
<path d="M0 0 C6.447 0.165 10.423 3.861 15 8 C16.816 9.933 18.398 11.881 20 14 C15.291 14 12.178 11.202 8.312 8.688 C7.515 8.188 6.718 7.688 5.896 7.174 C5.52 6.931 5.52 6.931 3.613 5.699 C2.92 5.254 2.227 4.809 1.513 4.35 C1.014 3.905 0.514 3.459 0 3 C0 2.01 0 1.02 0 0 Z " fill="#2A2A2A" transform="translate(147,76)"/>
<path d="M0 0 C0.33 0 0.66 0 1 0 C1 7.59 1 15.18 1 23 C-0.32 23 -1.64 23 -3 23 C-3.554 7.255 -3.554 7.255 0 0 Z " fill="#353535" transform="translate(143,47)"/>
<path d="M0 0 C6.27 0 12.54 0 19 0 C19 1.32 19 2.64 19 4 C12.73 4 6.46 4 0 4 C0 2.68 0 1.36 0 0 Z " fill="#4A4A4A" transform="translate(256,42)"/>
<path d="M0 0 C0.33 0 0.66 0 1 0 C1.911 11.024 2.114 21.943 2 33 C-0.97 33 -3.94 33 -7 33 C-7 29.04 -7 25.08 -7 21 C-6.67 21 -6.34 21 -6 21 C-6 24.3 -6 27.6 -6 31 C-4.02 31 -2.04 31 0 31 C0 20.77 0 10.54 0 0 Z " fill="#1E2629" transform="translate(96,72)"/>
<path d="M0 0 C4.62 0 9.24 0 14 0 C14 1.65 14 3.3 14 5 C9.38 5 4.76 5 0 5 C0 3.35 0 1.7 0 0 Z " fill="#4C4C4C" transform="translate(256,22)"/>
<path d="M0 0 C2.5 0.25 2.5 0.25 4.5 2.25 C4.125 5.375 4.125 5.375 3.5 8.25 C0.625 8.875 0.625 8.875 -2.5 9.25 C-4.5 7.25 -4.5 7.25 -4.75 4.75 C-4.401 1.256 -3.494 0.349 0 0 Z " fill="#363636" transform="translate(93.5,52.75)"/>
<path d="M0 0 C0.33 0 0.66 0 1 0 C1 8.58 1 17.16 1 26 C0.01 26.33 -0.98 26.66 -2 27 C-2.383 8.66 -2.383 8.66 0 0 Z " fill="#D3D3D3" transform="translate(93,21)"/>
<path d="M0 0 C4.95 0 9.9 0 15 0 C15 3.3 15 6.6 15 10 C10.05 10 5.1 10 0 10 C0 6.7 0 3.4 0 0 Z M2 1 C2 3.31 2 5.62 2 8 C5.96 8 9.92 8 14 8 C14 5.69 14 3.38 14 1 C10.04 1 6.08 1 2 1 Z " fill="#262626" transform="translate(305,38)"/>
<path d="M0 0 C9.419 1.324 17.288 8.673 24 15 C18.757 15 14.662 11.347 10.312 8.625 C9.324 8.022 8.336 7.418 7.318 6.797 C6.384 6.217 5.451 5.637 4.488 5.039 C4.058 4.772 4.058 4.772 1.88 3.42 C1.26 2.952 0.639 2.483 0 2 C0 1.34 0 0.68 0 0 Z " fill="#D9D9D9" transform="translate(102,61)"/>
<path d="M0 0 C-1.044 3.377 -2.135 4.078 -5.266 5.887 C-6.588 6.5 -7.916 7.1 -9.25 7.688 C-9.906 7.995 -10.562 8.302 -11.238 8.619 C-15.145 10.394 -18.697 11.499 -23 12 C-19.05 8.615 -14.948 6.161 -10.375 3.75 C-9.707 3.386 -9.04 3.023 -8.352 2.648 C-3.373 0 -3.373 0 0 0 Z " fill="#DBDBDB" transform="translate(85,63)"/>
<path d="M0 0 C2.31 0 4.62 0 7 0 C7 2.64 7 5.28 7 8 C4.69 8 2.38 8 0 8 C0 5.36 0 2.72 0 0 Z " fill="#E3E3E3" transform="translate(342,46)"/>
<path d="M0 0 C0.66 0 1.32 0 2 0 C2 5.28 2 10.56 2 16 C4.31 16.33 6.62 16.66 9 17 C8.34 17.66 7.68 18.32 7 19 C2.05 17.35 -2.9 15.7 -8 14 C-7.34 13.34 -6.68 12.68 -6 12 C-4.02 12.66 -2.04 13.32 0 14 C0 9.38 0 4.76 0 0 Z " fill="#AFAFAF" transform="translate(291,4)"/>
<path d="M0 0 C4.078 1.439 7.306 3.417 10.812 5.938 C11.3 6.282 11.3 6.282 13.77 8.027 C14.506 8.678 15.242 9.329 16 10 C16 10.99 16 11.98 16 13 C11.335 11.397 6.881 9.056 3 6 C2.67 5.01 2.34 4.02 2 3 C1.34 2.67 0.68 2.34 0 2 C0 1.34 0 0.68 0 0 Z " fill="#707070" transform="translate(42,70)"/>
<path d="M0 0 C0.33 0 0.66 0 1 0 C1.027 3 1.047 6 1.062 9 C1.071 9.839 1.079 10.678 1.088 11.543 C1.108 16.793 0.764 21.805 0 27 C-0.33 27 -0.66 27 -1 27 C-1.061 25.819 -1.121 24.638 -1.184 23.422 C-1.268 21.865 -1.353 20.307 -1.438 18.75 C-1.477 17.973 -1.516 17.195 -1.557 16.395 C-1.599 15.64 -1.64 14.886 -1.684 14.109 C-1.72 13.418 -1.757 12.727 -1.795 12.015 C-2 10 -2 10 -2.61 7.946 C-3.244 4.782 -1.534 2.7 0 0 Z " fill="#323232" transform="translate(36,31)"/>
<path d="M0 0 C1.65 0 3.3 0 5 0 C5 3.96 5 7.92 5 12 C6.65 12.33 8.3 12.66 10 13 C10 13.66 10 14.32 10 15 C3.25 13.125 3.25 13.125 1 12 C0.586 9.277 0.586 9.277 0.375 5.938 C0.3 4.833 0.225 3.728 0.148 2.59 C0.099 1.735 0.05 0.881 0 0 Z " fill="#313131" transform="translate(280,3)"/>
<path d="M0 0 C2.31 0 4.62 0 7 0 C7 2.31 7 4.62 7 7 C4.69 7 2.38 7 0 7 C0 4.69 0 2.38 0 0 Z " fill="#F1F1F1" transform="translate(400,76)"/>
<path d="M0 0 C3.96 0 7.92 0 12 0 C12 1.32 12 2.64 12 4 C8.04 4 4.08 4 0 4 C0 2.68 0 1.36 0 0 Z " fill="#414141" transform="translate(280,42)"/>
<path d="M0 0 C-0.825 0.495 -0.825 0.495 -5 3 C-3.35 2.67 -1.7 2.34 0 2 C-1 4 -1 4 -3.109 4.852 C-3.981 5.107 -4.852 5.362 -5.75 5.625 C-6.181 5.755 -6.181 5.755 -8.359 6.414 C-10.997 6.999 -13.308 7.107 -16 7 C-13.629 4.348 -11.164 2.851 -8 1.25 C-7.134 0.801 -6.268 0.353 -5.375 -0.109 C-3 -1 -3 -1 0 0 Z " fill="#242424" transform="translate(18,77)"/>
<path d="M0 0 C2.31 0 4.62 0 7 0 C7 1.98 7 3.96 7 6 C4.69 6 2.38 6 0 6 C0 4.02 0 2.04 0 0 Z " fill="#F9F9F9" transform="translate(342,69)"/>
<path d="M0 0 C3.362 1.441 5.592 3.248 8 6 C8 6.66 8 7.32 8 8 C9.65 7.67 11.3 7.34 13 7 C10.378 9.154 8.356 10.401 5 11 C5.33 10.01 5.66 9.02 6 8 C5.598 7.856 5.598 7.856 3.562 7.125 C1 6 1 6 0 4 C0.99 4 1.98 4 3 4 C2.01 2.68 1.02 1.36 0 0 Z " fill="#252525" transform="translate(122,72)"/>
<path d="M0 0 C0.402 0.01 0.402 0.01 2.438 0.062 C3.062 2.438 3.062 2.438 3.438 5.062 C2.778 5.722 2.117 6.382 1.438 7.062 C-0.688 6.688 -0.688 6.688 -2.562 6.062 C-2.945 4.406 -3.276 2.738 -3.562 1.062 C-2.562 0.062 -2.562 0.062 0 0 Z " fill="#575757" transform="translate(34.5625,63.9375)"/>
<path d="M0 0 C2.64 0 5.28 0 8 0 C8 1.65 8 3.3 8 5 C5.36 5 2.72 5 0 5 C0 3.35 0 1.7 0 0 Z " fill="#B6B6B6" transform="translate(236,90)"/>
<path d="M0 0 C2.625 0.375 2.625 0.375 5 1 C4.505 1.495 4.505 1.495 2 4 C3.98 6.31 5.96 8.62 8 11 C7.67 11.66 7.34 12.32 7 13 C1.198 9.543 1.198 9.543 0.25 6.938 C0.167 6.298 0.085 5.659 0 5 C-0.66 4.01 -1.32 3.02 -2 2 C-1.34 1.34 -0.68 0.68 0 0 Z " fill="#1D1D1D" transform="translate(57,75)"/>
<path d="M0 0 C2.31 0 4.62 0 7 0 C6.67 5.61 6.34 11.22 6 17 C5.67 17 5.34 17 5 17 C5 12.05 5 7.1 5 2 C4.01 2 3.02 2 2 2 C1.67 3.32 1.34 4.64 1 6 C0.67 4.02 0.34 2.04 0 0 Z " fill="#3F3F3F" transform="translate(90,65)"/>
<path d="M0 0 C0.66 0 1.32 0 2 0 C0.499 4.423 -2.445 5.698 -6.438 7.812 C-7.591 8.438 -8.745 9.063 -9.934 9.707 C-13 11 -13 11 -16 10 C-13.711 8.661 -11.419 7.329 -9.125 6 C-8.474 5.618 -7.823 5.237 -7.152 4.844 C-2.227 2 -2.227 2 0 2 C0 1.34 0 0.68 0 0 Z " fill="#2D2D2D" transform="translate(86,63)"/>
<path d="M0 0 C2.31 0 4.62 0 7 0 C7 1.65 7 3.3 7 5 C4.69 5 2.38 5 0 5 C0 3.35 0 1.7 0 0 Z " fill="#E7E7E7" transform="translate(251,90)"/>
<path d="M0 0 C2.31 0 4.62 0 7 0 C7 1.65 7 3.3 7 5 C4.69 5 2.38 5 0 5 C0 3.35 0 1.7 0 0 Z " fill="#E5E5E5" transform="translate(251,80)"/>
<path d="M0 0 C0.33 0 0.66 0 1 0 C0.511 6.357 0.511 6.357 -1.938 9.438 C-4 11 -4 11 -6 11 C-6 13.31 -6 15.62 -6 18 C-6.33 18 -6.66 18 -7 18 C-7.33 15.03 -7.66 12.06 -8 9 C-7.237 8.814 -6.474 8.629 -5.688 8.438 C-1.814 6.366 -1.435 4.077 0 0 Z " fill="#343434" transform="translate(291,81)"/>
<path d="M0 0 C2.125 0.375 2.125 0.375 4 1 C3 4 3 4 -0.062 5.688 C-1.032 6.121 -2.001 6.554 -3 7 C-3.99 6.34 -4.98 5.68 -6 5 C-5.381 4.546 -4.762 4.093 -4.125 3.625 C-2 2 -2 2 0 0 Z " fill="#3A3A3A" transform="translate(135,77)"/>
<path d="M0 0 C3.795 1.491 5.61 3.757 8 7 C4.604 7 3.934 6.478 1.312 4.5 C0.69 4.036 0.067 3.572 -0.574 3.094 C-1.045 2.733 -1.515 2.372 -2 2 C-1.34 1.34 -0.68 0.68 0 0 Z " fill="#272727" transform="translate(159,83)"/>
<path d="M0 0 C2.31 0 4.62 0 7 0 C7 1.32 7 2.64 7 4 C4.69 4 2.38 4 0 4 C0 2.68 0 1.36 0 0 Z " fill="#F5F5F5" transform="translate(236,81)"/>
<path d="M0 0 C2.31 0 4.62 0 7 0 C7 1.32 7 2.64 7 4 C4.69 4 2.38 4 0 4 C0 2.68 0 1.36 0 0 Z " fill="#F9F9F9" transform="translate(251,71)"/>
<path d="M0 0 C2.31 0 4.62 0 7 0 C7 1.32 7 2.64 7 4 C4.69 4 2.38 4 0 4 C0 2.68 0 1.36 0 0 Z " fill="#F7F7F7" transform="translate(236,71)"/>
<path d="M0 0 C3.57 0.659 6.177 2.162 9.25 4.062 C10.142 4.61 11.034 5.158 11.953 5.723 C12.291 5.933 12.291 5.933 14 7 C13.34 7.66 12.68 8.32 12 9 C9.997 7.692 7.998 6.379 6 5.062 C5.428 4.689 4.855 4.316 4.266 3.932 C2.826 2.981 1.411 1.993 0 1 C0 0.67 0 0.34 0 0 Z " fill="#303030" transform="translate(109,68)"/>
<path d="M0 0 C0.66 0.165 0.66 0.165 4 1 C3.67 2.65 3.34 4.3 3 6 C1.68 5.67 0.36 5.34 -1 5 C-0.67 3.35 -0.34 1.7 0 0 Z " fill="#414141" transform="translate(141,72)"/>
<path d="M0 0 C2.25 -0.25 2.25 -0.25 5 0 C7.312 2 7.312 2 9 4 C8.34 4.33 8.34 4.33 5 6 C3.106 4.106 1.58 2.155 0 0 Z " fill="#3C3C3C" transform="translate(151,79)"/>
<path d="M0 0 C0.33 0 0.66 0 1 0 C1 3.3 1 6.6 1 10 C0.01 10 -0.98 10 -2 10 C-1.86 8.52 -1.712 7.041 -1.562 5.562 C-1.481 4.739 -1.4 3.915 -1.316 3.066 C-1 1 -1 1 0 0 Z " fill="#1A1A1A" transform="translate(143,47)"/>
<path d="M0 0 C3.941 1.668 6.789 4.227 10 7 C6.587 7 5.605 6.331 2.812 4.5 C2.097 4.036 1.382 3.572 0.645 3.094 C0.102 2.733 -0.441 2.372 -1 2 C-0.67 1.34 -0.34 0.68 0 0 Z " fill="#C6C6C6" transform="translate(116,69)"/>
<path d="M0 0 C0.66 0.33 1.32 0.66 2 1 C2 2.32 2 3.64 2 5 C3.32 5.66 4.64 6.32 6 7 C3.625 7.625 3.625 7.625 1 8 C-1 6 -1 6 -1.188 3.438 C-1 1 -1 1 0 0 Z " fill="#2F2F2F" transform="translate(90,54)"/>
<path d="M0 0 C0.33 0 0.66 0 1 0 C1 4.29 1 8.58 1 13 C0.67 13 0.34 13 0 13 C0 11.02 0 9.04 0 7 C-0.66 7 -1.32 7 -2 7 C-1.125 1.125 -1.125 1.125 0 0 Z " fill="#1C1C1C" transform="translate(95,12)"/>
<path d="M0 0 C0.825 0.165 0.825 0.165 5 1 C4.67 2.32 4.34 3.64 4 5 C2.68 4.67 1.36 4.34 0 4 C0 2.68 0 1.36 0 0 Z " fill="#E6E6E6" transform="translate(91,55)"/>
<path d="M0 0 C2.863 1.05 3.85 1.734 5.375 4.438 C5.478 4.86 5.478 4.86 6 7 C5.67 7.495 5.67 7.495 4 10 C3.732 9.072 3.464 8.144 3.188 7.188 C2.089 4.238 1.376 2.944 -1 1 C-0.67 0.67 -0.34 0.34 0 0 Z " fill="#414141" transform="translate(286,74)"/>
<path d="M0 0 C-2.799 2.799 -5.131 2.724 -9 3 C-9.66 2.34 -10.32 1.68 -11 1 C-10.237 0.856 -9.474 0.711 -8.688 0.562 C-2.314 -0.771 -2.314 -0.771 0 0 Z " fill="#464646" transform="translate(71,74)"/>
<path d="M0 0 C-0.66 1.32 -1.32 2.64 -2 4 C-2 3.34 -2 2.68 -2 2 C-3.65 2.66 -5.3 3.32 -7 4 C-7.66 3.34 -8.32 2.68 -9 2 C-3.375 -1.125 -3.375 -1.125 0 0 Z " fill="#494949" transform="translate(87,61)"/>
<path d="M0 0 C4.435 1.394 6.874 3.606 10 7 C6.433 7 5.895 6.363 3.312 4.062 C2.69 3.517 2.067 2.972 1.426 2.41 C0.955 1.945 0.485 1.479 0 1 C0 0.67 0 0.34 0 0 Z " fill="#303030" transform="translate(400,58)"/>
<path d="M0 0 C2.438 0.812 2.438 0.812 5 2 C5.33 2.99 5.66 3.98 6 5 C2.73 4.436 1.174 3.5 -1 1 C-0.67 0.67 -0.34 0.34 0 0 Z " fill="#E1E1E1" transform="translate(110,65)"/>
<path d="M0 0 C2 0.188 2 0.188 4 1 C4.66 1.99 5.32 2.98 6 4 C4 4 2 4 0 4 C-0.66 3.34 -1.32 2.68 -2 2 C-1.34 1.34 -0.68 0.68 0 0 Z " fill="#444444" transform="translate(395,54)"/>
<path d="M0 0 C1.98 0 3.96 0 6 0 C6 0.99 6 1.98 6 3 C4.02 3 2.04 3 0 3 C0 2.01 0 1.02 0 0 Z " fill="none" transform="translate(237,91)"/>
<path d="M0 0 C0.33 0 0.66 0 1 0 C3 6.625 3 6.625 3 10 C0.938 8.375 0.938 8.375 -1 6 C-0.75 2.75 -0.75 2.75 0 0 Z " fill="#4F4F4F" transform="translate(274,81)"/>
<path d="M0 0 C2.64 0.33 5.28 0.66 8 1 C5.378 3.154 3.356 4.401 0 5 C0 3.35 0 1.7 0 0 Z " fill="#0F0F0F" transform="translate(127,78)"/>
<path d="M0 0 C-1.152 2.468 -2.048 4.048 -4 6 C-4.99 5.67 -5.98 5.34 -7 5 C-2.25 0 -2.25 0 0 0 Z " fill="#393939" transform="translate(382,48)"/>
</svg>
