<?xml version="1.0" encoding="UTF-8"?>
<!-- Generator: visioncortex VTracer 0.6.12 -->
<svg version="1.1" xmlns="http://www.w3.org/2000/svg" width="500" height="135">
<path d="M0 0 C63.69 0 127.38 0 193 0 C192.175 0.66 192.175 0.66 188 4 C187.423 4.557 186.845 5.114 186.25 5.688 C183.79 7.122 182.604 7.167 179.812 7.312 C174.853 7.678 172.184 9.757 168.266 12.648 C165.173 14.493 162.542 14.56 159.012 14.738 C155.812 15.155 154.162 16.707 152 19 C149.711 22.269 149.528 25.07 150 29 C151.873 32.607 153.09 34.545 156.75 36.375 C157.493 36.581 158.235 36.788 159 37 C159.019 37.338 159.019 37.338 159.113 39.047 C159.179 39.939 159.245 40.831 159.312 41.75 C159.342 42.191 159.342 42.191 159.488 44.422 C160.087 47.44 160.786 48.863 163 51 C165.48 51.609 165.48 51.609 168.188 51.75 C168.638 51.778 168.638 51.778 170.918 51.922 C171.262 51.935 171.262 51.935 173 52 C173.037 52.603 173.075 53.207 173.113 53.828 C173.179 54.627 173.245 55.427 173.312 56.25 C173.342 56.644 173.342 56.644 173.488 58.641 C174.123 61.565 174.803 62.95 177 65 C179.996 65.469 179.996 65.469 183.438 65.5 C189.377 65.554 189.377 65.554 192.171 67.554 C194.634 70.848 194.507 73.661 194.391 77.609 C194.387 78.254 194.383 78.899 194.378 79.563 C194.358 81.959 194.302 84.355 194.25 86.75 C194.167 92.112 194.085 97.475 194 103 C181.46 103.33 168.92 103.66 156 104 C156 104.99 156 105.98 156 107 C155.34 107 154.68 107 154 107 C153.34 106.01 152.68 105.02 152 104 C149.427 103.631 149.427 103.631 146.103 103.639 C144.846 103.635 143.59 103.631 142.295 103.627 C140.895 103.637 139.495 103.648 138.095 103.659 C136.627 103.66 135.159 103.66 133.69 103.658 C129.697 103.657 125.703 103.675 121.71 103.696 C117.539 103.715 113.368 103.716 109.198 103.72 C101.296 103.729 93.395 103.754 85.494 103.784 C76.5 103.817 67.506 103.834 58.512 103.849 C40.008 103.88 21.504 103.933 3 104 C2.34 105.65 1.68 107.3 1 109 C0.67 109 0.34 109 0 109 C0 73.03 0 37.06 0 0 Z " fill="none" transform="translate(0,0)"/>
<path d="M0 0 C3.312 1.875 3.312 1.875 6 4 C9.239 6.16 10.309 6.274 14.07 6.379 C15.049 6.413 16.027 6.447 17.035 6.482 C18.055 6.509 19.074 6.535 20.125 6.562 C22.149 6.622 24.172 6.686 26.195 6.754 C27.093 6.778 27.99 6.802 28.915 6.826 C31 7 31 7 32 8 C32.019 9.926 32.035 11.853 32.037 13.779 C32.145 23.765 32.145 23.765 34.809 27.613 C36.798 29.27 38.807 30.634 41 32 C42.34 34.681 42.12 36.733 42.114 39.735 C42.113 40.936 42.113 42.137 42.113 43.375 C42.108 44.677 42.103 45.979 42.098 47.32 C42.096 48.663 42.094 50.005 42.093 51.347 C42.09 54.882 42.08 58.416 42.069 61.951 C42.058 65.557 42.054 69.163 42.049 72.77 C42.038 79.846 42.021 86.923 42 94 C43.32 94 44.64 94 46 94 C46 95.32 46 96.64 46 98 C46.574 97.998 47.148 97.996 47.74 97.993 C53.693 97.971 59.645 97.956 65.598 97.945 C67.823 97.94 70.047 97.933 72.271 97.925 C75.461 97.912 78.65 97.907 81.84 97.902 C82.34 97.9 82.34 97.9 84.873 97.887 C85.794 97.887 86.715 97.887 87.664 97.886 C88.479 97.884 89.294 97.882 90.133 97.88 C92 98 92 98 93 99 C93.125 101.5 93.125 101.5 93 104 C91.188 105.812 88.39 105.137 85.951 105.145 C84.657 105.152 83.362 105.158 82.028 105.165 C80.603 105.166 79.179 105.167 77.754 105.168 C76.303 105.171 74.852 105.175 73.401 105.178 C70.355 105.184 67.309 105.186 64.263 105.185 C60.355 105.185 56.446 105.199 52.537 105.216 C49.539 105.227 46.541 105.229 43.543 105.229 C42.101 105.23 40.66 105.234 39.219 105.242 C37.205 105.252 35.192 105.248 33.178 105.243 C32.031 105.244 30.883 105.246 29.701 105.247 C27 105 27 105 25 103 C25 101.68 25 100.36 25 99 C24.01 99 23.02 99 22 99 C21.928 99.402 21.928 99.402 21.562 101.438 C21 104 21 104 20 105 C18.182 105.101 16.361 105.131 14.54 105.134 C13.355 105.138 12.171 105.142 10.95 105.147 C9.638 105.146 8.326 105.146 6.975 105.145 C5.589 105.148 4.203 105.152 2.817 105.155 C-0.958 105.164 -4.733 105.167 -8.508 105.167 C-11.654 105.168 -14.8 105.172 -17.946 105.175 C-25.367 105.184 -32.787 105.186 -40.207 105.185 C-47.873 105.185 -55.539 105.195 -63.204 105.211 C-69.776 105.224 -76.347 105.229 -82.919 105.229 C-86.848 105.229 -90.777 105.231 -94.706 105.242 C-98.401 105.252 -102.095 105.252 -105.789 105.245 C-107.798 105.243 -109.806 105.251 -111.814 105.26 C-113.002 105.256 -114.19 105.252 -115.413 105.247 C-116.45 105.248 -117.487 105.248 -118.555 105.249 C-121 105 -121 105 -123 103 C-122.67 101.35 -122.34 99.7 -122 98 C-113.42 97.67 -104.84 97.34 -96 97 C-97.32 95.68 -98.64 94.36 -100 93 C-100 92.01 -100 91.02 -100 90 C-108.91 90 -117.82 90 -127 90 C-128 95 -128 95 -128 97 C-127.67 97.33 -127.67 97.33 -126 99 C-126.556 103.556 -126.556 103.556 -128 105 C-132.257 105.218 -136.52 105.186 -140.783 105.185 C-142.925 105.187 -145.067 105.206 -147.209 105.225 C-148.565 105.228 -149.921 105.23 -151.277 105.23 C-152.517 105.235 -153.757 105.239 -155.035 105.243 C-158 105 -158 105 -160 103 C-159.67 101.35 -159.34 99.7 -159 98 C-153.06 97.67 -147.12 97.34 -141 97 C-142.32 95.68 -143.64 94.36 -145 93 C-145.502 90.498 -145.502 90.498 -145.496 87.719 C-145.497 86.712 -145.497 85.705 -145.498 84.668 C-145.478 83.623 -145.458 82.577 -145.438 81.5 C-145.445 80.455 -145.452 79.409 -145.459 78.332 C-145.388 69.842 -145.388 69.842 -142 66 C-142.495 65.67 -142.495 65.67 -145 64 C-145 63.01 -145 62.02 -145 61 C-142.614 61.576 -140.333 62.222 -138 63 C-137.945 62.71 -137.945 62.71 -137.668 61.242 C-136.503 55.502 -135.27 50.27 -131 46 C-128.394 45.776 -125.898 45.672 -123.289 45.664 C-122.525 45.657 -121.76 45.651 -120.972 45.644 C-119.353 45.634 -117.734 45.629 -116.115 45.629 C-113.641 45.625 -111.169 45.589 -108.695 45.551 C-107.122 45.545 -105.549 45.541 -103.977 45.539 C-103.607 45.532 -103.607 45.532 -101.738 45.496 C-98.246 45.526 -96.363 45.718 -93.567 47.89 C-91.937 50.085 -91.053 51.895 -90.25 54.5 C-90.008 55.253 -89.765 56.006 -89.516 56.781 C-89 59 -89 59 -89 63 C-88.402 62.67 -87.804 62.34 -87.188 62 C-85 61 -85 61 -82 61 C-82.573 63.867 -82.861 64.861 -85 67 C-84.756 67.194 -84.756 67.194 -83.523 68.174 C-81.49 70.612 -81.627 72.073 -81.637 75.219 C-81.637 75.726 -81.637 75.726 -81.639 78.293 C-81.655 79.351 -81.671 80.41 -81.688 81.5 C-81.684 82.558 -81.681 83.617 -81.678 84.707 C-81.733 92.599 -81.733 92.599 -84 96 C-79.05 96.165 -79.05 96.165 -54 97 C-53.835 96.505 -53.835 96.505 -53 94 C-51.68 94 -50.36 94 -49 94 C-49.016 93.266 -49.031 92.532 -49.047 91.776 C-49.188 84.833 -49.294 77.89 -49.363 70.945 C-49.399 67.376 -49.448 63.807 -49.528 60.238 C-49.605 56.789 -49.646 53.34 -49.664 49.89 C-49.683 47.944 -49.738 45.999 -49.793 44.054 C-49.796 38.03 -49.673 33.978 -45.647 29.292 C-44.469 28.155 -43.255 27.053 -42 26 C-40.998 25.148 -39.997 24.296 -38.965 23.418 C-37.966 22.682 -36.967 21.946 -35.938 21.188 C-34.808 20.345 -33.679 19.501 -32.551 18.656 C-31.972 18.226 -31.392 17.795 -30.795 17.352 C-27.121 14.585 -23.534 11.705 -19.933 8.843 C-18.298 7.55 -16.653 6.271 -15 5 C-14.397 4.533 -13.794 4.066 -13.173 3.585 C-12.568 3.131 -11.963 2.678 -11.34 2.211 C-10.797 1.8 -10.254 1.389 -9.695 0.966 C-6.34 -0.947 -3.791 -0.542 0 0 Z " fill="#1467A0" transform="translate(404,5)"/>
<path d="M0 0 C4.837 1.582 8.153 4.048 11.867 7.484 C12.527 7.154 13.187 6.824 13.867 6.484 C19.597 5.888 23.916 6.301 28.867 9.484 C29.086 9.741 29.086 9.741 30.195 11.039 C32.473 13.008 34.275 12.992 37.242 13.297 C41.165 13.904 43.431 14.373 45.992 17.484 C48.557 21.588 49.337 23.602 48.867 28.484 C47.102 31.545 45.361 33.99 42.867 36.484 C42.594 38.473 42.594 38.473 42.492 40.797 C42.109 45.124 41.057 47.391 37.867 50.484 C34.653 52.092 31.431 51.542 27.867 51.484 C27.914 52.509 27.96 53.534 28.008 54.59 C28.045 55.95 28.082 57.311 28.117 58.672 C28.151 59.345 28.184 60.019 28.219 60.713 C28.288 64.269 27.977 66.304 26.113 69.363 C23.921 71.434 22.524 72.359 19.68 73.234 C15.916 74.435 15.916 74.435 14.867 75.484 C14.709 77.482 14.616 79.485 14.551 81.488 C14.509 82.703 14.467 83.918 14.424 85.17 C14.385 86.449 14.345 87.729 14.305 89.047 C14.283 89.689 14.283 89.689 14.174 92.936 C14.067 96.118 13.965 99.301 13.867 102.484 C14.493 102.474 15.119 102.463 15.763 102.453 C18.589 102.411 21.416 102.385 24.242 102.359 C25.227 102.343 26.212 102.326 27.227 102.309 C28.168 102.302 29.109 102.296 30.078 102.289 C30.513 102.284 30.513 102.284 32.712 102.257 C34.867 102.484 34.867 102.484 36.867 104.484 C36.331 108.02 36.331 108.02 34.867 109.484 C32.353 109.59 29.865 109.631 27.35 109.63 C26.563 109.633 25.776 109.636 24.965 109.64 C22.35 109.649 19.736 109.651 17.121 109.652 C15.311 109.656 13.501 109.659 11.692 109.662 C7.893 109.668 4.094 109.67 0.295 109.67 C-4.583 109.67 -9.46 109.683 -14.337 109.7 C-18.076 109.712 -21.816 109.714 -25.555 109.713 C-27.354 109.714 -29.152 109.719 -30.951 109.726 C-33.463 109.736 -35.974 109.733 -38.486 109.727 C-39.235 109.733 -39.983 109.739 -40.755 109.744 C-45.904 109.713 -45.904 109.713 -48.133 107.484 C-48.133 106.164 -48.133 104.844 -48.133 103.484 C-44.96 101.898 -41.545 102.364 -38.062 102.387 C-37.664 102.387 -37.664 102.387 -35.65 102.391 C-33.102 102.397 -30.555 102.409 -28.008 102.422 C-26.283 102.427 -24.557 102.431 -22.832 102.436 C-18.599 102.447 -14.366 102.464 -10.133 102.484 C-10.202 97.839 -10.29 93.195 -10.395 88.55 C-10.429 86.97 -10.457 85.39 -10.479 83.81 C-10.513 81.538 -10.565 79.267 -10.621 76.996 C-10.627 76.29 -10.634 75.583 -10.64 74.856 C-10.727 71.968 -10.812 69.95 -12.478 67.536 C-15.83 65.406 -20.152 66.112 -24.004 66.086 C-27.133 65.484 -27.133 65.484 -29.527 63.246 C-31.216 60.341 -31.58 58.972 -31.383 55.672 C-31.347 54.882 -31.311 54.091 -31.273 53.277 C-31.227 52.686 -31.181 52.094 -31.133 51.484 C-31.808 51.542 -32.484 51.6 -33.18 51.66 C-40.377 52.024 -40.377 52.024 -43.758 49.609 C-45.697 45.203 -45.464 41.226 -45.133 36.484 C-45.504 36.453 -45.504 36.453 -47.383 36.297 C-50.982 35.234 -52.051 33.532 -54.133 30.484 C-55.566 27.618 -55.439 25.671 -55.133 22.484 C-53.051 18.692 -51.024 15.483 -47.133 13.484 C-45.74 13.35 -44.343 13.25 -42.945 13.172 C-38.97 12.879 -36.832 11.843 -33.633 9.484 C-29.701 6.59 -27.167 6.086 -22.383 5.895 C-19.521 5.373 -17.951 4.156 -15.633 2.422 C-10.345 -1.404 -6.225 -1.505 0 0 Z " fill="#40951C" transform="translate(204.1328125,0.515625)"/>
<path d="M0 0 C3.168 1.836 3.168 1.836 6.188 4.375 C7.313 5.299 8.44 6.222 9.566 7.145 C10.134 7.62 10.701 8.095 11.286 8.584 C14.002 10.827 16.817 12.936 19.625 15.062 C34.316 26.316 34.316 26.316 38 30 C38.094 31.872 38.117 33.747 38.114 35.621 C38.113 36.222 38.113 36.222 38.113 39.261 C38.108 40.569 38.103 41.876 38.098 43.223 C38.096 44.566 38.094 45.91 38.093 47.254 C38.09 50.797 38.08 54.34 38.069 57.882 C38.058 61.495 38.054 65.108 38.049 68.721 C38.039 75.814 38.019 82.907 38 90 C28.76 90 19.52 90 10 90 C9.812 80.75 9.812 80.75 9.792 77.854 C9.643 73.8 9.52 71.645 6.918 68.418 C3.244 66.633 0.576 66.501 -3.5 66.562 C-4.789 66.564 -6.078 66.565 -7.406 66.566 C-13.315 67.279 -13.315 67.279 -16 70 C-16.763 73.394 -16.79 76.719 -16.812 80.188 C-16.843 81.807 -16.843 81.807 -17 90 C-26.24 90 -35.48 90 -45 90 C-45.189 82.319 -45.369 74.647 -45.466 66.966 C-45.513 63.389 -45.576 59.814 -45.679 56.238 C-45.777 52.789 -45.831 49.341 -45.854 45.89 C-45.878 43.944 -45.949 41.999 -46.02 40.054 C-46.025 31.35 -46.025 31.35 -43.085 27.476 C-40.816 25.435 -38.528 23.705 -36 22 C-34.591 20.904 -33.186 19.803 -31.789 18.691 C-30.404 17.645 -29.016 16.602 -27.625 15.562 C-19.26 9.291 -19.26 9.291 -15.738 6.164 C-14.814 5.347 -13.89 4.53 -12.938 3.688 C-12.55 3.328 -12.55 3.328 -10.59 1.512 C-7.057 -0.551 -3.938 -0.787 0 0 Z " fill="none" transform="translate(404,9)"/>
<path d="M0 0 C0.549 0 0.549 0 3.327 0.003 C4.582 0.001 5.837 0 7.13 -0.001 C8.534 0.002 9.938 0.006 11.341 0.01 C12.809 0.01 14.277 0.01 15.746 0.009 C19.743 0.009 23.741 0.015 27.739 0.022 C31.912 0.028 36.086 0.028 40.259 0.03 C48.167 0.033 56.076 0.041 63.984 0.051 C72.985 0.062 81.986 0.068 90.987 0.073 C109.508 0.083 128.029 0.101 146.55 0.123 C147.175 2.436 147.175 2.436 147.55 5.123 C146.89 6.113 146.23 7.103 145.55 8.123 C146.029 8.133 146.029 8.133 148.456 8.183 C152.008 8.259 155.56 8.348 159.112 8.44 C160.65 8.479 162.189 8.514 163.727 8.545 C165.937 8.591 168.146 8.649 170.355 8.709 C171.044 8.721 171.734 8.732 172.444 8.744 C177.322 8.895 177.322 8.895 179.55 11.123 C179.8 13.623 179.8 13.623 179.55 16.123 C178.89 16.783 178.23 17.443 177.55 18.123 C178.811 18.131 180.072 18.139 181.371 18.148 C193.232 18.225 205.092 18.313 216.953 18.411 C223.051 18.461 229.149 18.507 235.247 18.545 C241.128 18.582 247.009 18.628 252.89 18.681 C255.138 18.7 257.386 18.715 259.634 18.726 C262.773 18.743 265.912 18.772 269.051 18.804 C269.989 18.806 270.926 18.809 271.892 18.811 C272.744 18.822 273.597 18.833 274.475 18.845 C275.218 18.85 275.961 18.856 276.727 18.861 C278.55 19.123 278.55 19.123 280.55 21.123 C280.737 23.686 280.737 23.686 280.55 26.123 C278.871 27.802 276.808 27.25 274.567 27.261 C273.848 27.26 273.129 27.258 272.389 27.257 C271.63 27.259 270.872 27.261 270.091 27.264 C267.53 27.27 264.97 27.269 262.41 27.268 C260.582 27.271 258.754 27.275 256.927 27.278 C251.947 27.287 246.968 27.29 241.989 27.29 C237.838 27.291 233.688 27.295 229.538 27.298 C219.749 27.307 209.96 27.309 200.172 27.308 C190.06 27.308 179.948 27.318 169.837 27.334 C161.168 27.347 152.5 27.353 143.832 27.352 C138.649 27.352 133.466 27.355 128.283 27.365 C123.409 27.375 118.535 27.375 113.662 27.368 C111.87 27.367 110.078 27.369 108.286 27.375 C105.846 27.383 103.406 27.378 100.965 27.37 C100.608 27.373 100.608 27.373 98.801 27.386 C95.151 27.36 93.678 27.208 90.55 25.123 C89.89 25.783 89.23 26.443 88.55 27.123 C85.669 27.322 82.884 27.396 80.001 27.382 C79.116 27.385 78.232 27.389 77.32 27.392 C74.386 27.401 71.453 27.395 68.519 27.389 C66.486 27.39 64.454 27.392 62.421 27.394 C58.157 27.397 53.893 27.393 49.63 27.384 C44.155 27.372 38.68 27.379 33.205 27.391 C29.007 27.398 24.809 27.396 20.61 27.391 C18.591 27.389 16.572 27.391 14.553 27.396 C11.735 27.401 8.917 27.393 6.099 27.382 C5.258 27.386 4.418 27.39 3.552 27.394 C-2.222 27.352 -2.222 27.352 -4.45 25.123 C-4.061 22.11 -3.185 20.726 -1.45 18.123 C-1.928 17.718 -2.407 17.314 -2.899 16.896 C-5.589 13.821 -5.471 10.084 -5.45 6.123 C-3.719 0.187 -3.719 0.187 0 0 Z " fill="#E9F5E3" transform="translate(5.45003604888916,102.87695217132568)"/>
<path d="M0 0 C1.254 -0.003 2.507 -0.006 3.799 -0.009 C5.201 -0.007 6.603 -0.005 8.005 -0.002 C9.472 -0.004 10.938 -0.006 12.405 -0.008 C16.398 -0.012 20.392 -0.011 24.386 -0.007 C28.556 -0.005 32.726 -0.007 36.896 -0.009 C43.901 -0.011 50.906 -0.008 57.91 -0.003 C66.02 0.002 74.13 0 82.24 -0.005 C89.19 -0.01 96.14 -0.01 103.091 -0.008 C107.247 -0.006 111.404 -0.006 115.561 -0.009 C119.467 -0.012 123.374 -0.01 127.281 -0.004 C128.719 -0.003 130.157 -0.003 131.595 -0.006 C133.55 -0.008 135.505 -0.004 137.46 0 C138.008 0 138.008 0 140.783 0.001 C143.23 0.127 143.23 0.127 144.23 1.127 C144.524 4.849 144.378 5.905 142.23 9.127 C142.56 9.457 142.56 9.457 144.23 11.127 C144.417 13.689 144.417 13.689 144.23 16.127 C141.877 18.479 136.014 17.312 132.855 17.314 C131.883 17.327 130.911 17.339 129.91 17.352 C129.443 17.353 129.443 17.353 127.081 17.357 C126.653 17.36 126.653 17.36 124.482 17.37 C122.23 17.127 122.23 17.127 119.23 15.127 C118.24 15.787 117.25 16.447 116.23 17.127 C113.084 17.376 113.084 17.376 109.118 17.374 C108.754 17.375 108.754 17.375 106.91 17.382 C104.462 17.387 102.014 17.379 99.565 17.37 C97.813 17.371 96.06 17.373 94.308 17.376 C89.544 17.381 84.779 17.373 80.015 17.363 C75.038 17.354 70.06 17.356 65.082 17.356 C56.724 17.355 48.367 17.346 40.009 17.333 C30.332 17.317 20.656 17.312 10.979 17.313 C1.685 17.313 -7.609 17.308 -16.904 17.3 C-20.866 17.296 -24.829 17.294 -28.791 17.294 C-33.452 17.293 -38.112 17.287 -42.772 17.277 C-44.488 17.274 -46.203 17.273 -47.918 17.273 C-50.25 17.274 -52.581 17.268 -54.913 17.261 C-56.22 17.259 -57.528 17.257 -58.876 17.256 C-61.77 17.127 -61.77 17.127 -62.77 16.127 C-62.895 13.627 -62.895 13.627 -62.77 11.127 C-60.864 9.221 -57.455 9.981 -54.93 9.969 C-54.207 9.964 -53.483 9.959 -52.737 9.954 C-50.294 9.938 -47.852 9.93 -45.409 9.922 C-43.665 9.912 -41.921 9.902 -40.177 9.892 C-35.427 9.865 -30.677 9.844 -25.927 9.824 C-20.969 9.802 -16.011 9.774 -11.053 9.748 C-1.657 9.698 7.739 9.653 17.135 9.61 C27.829 9.56 38.522 9.505 49.216 9.45 C71.221 9.336 93.225 9.229 115.23 9.127 C114.922 9.126 114.922 9.126 113.364 9.12 C98.392 9.061 83.419 8.985 68.447 8.891 C61.207 8.846 53.966 8.807 46.726 8.781 C40.416 8.758 34.106 8.724 27.796 8.678 C24.454 8.654 21.113 8.636 17.771 8.629 C14.042 8.62 10.314 8.592 6.586 8.559 C5.475 8.561 4.363 8.562 3.218 8.564 C2.712 8.557 2.712 8.557 0.146 8.526 C-0.736 8.521 -1.618 8.516 -2.527 8.512 C-5.231 8.048 -6.163 7.322 -7.77 5.127 C-7.125 -0.358 -5.071 0.002 0 0 Z " fill="#54DB19" transform="translate(352.7701416015625,112.87301635742188)"/>
<path d="M0 0 C3.312 1.875 3.312 1.875 6 4 C9.239 6.16 10.309 6.274 14.07 6.379 C15.049 6.413 16.027 6.447 17.035 6.482 C18.055 6.509 19.074 6.535 20.125 6.562 C22.149 6.622 24.172 6.686 26.195 6.754 C27.093 6.778 27.99 6.802 28.915 6.826 C31 7 31 7 32 8 C32.019 9.926 32.035 11.853 32.037 13.779 C32.145 23.765 32.145 23.765 34.809 27.613 C36.798 29.27 38.807 30.634 41 32 C42.34 34.681 42.12 36.733 42.114 39.735 C42.113 40.936 42.113 42.137 42.113 43.375 C42.108 44.677 42.103 45.979 42.098 47.32 C42.096 48.663 42.094 50.005 42.093 51.347 C42.09 54.882 42.08 58.416 42.069 61.951 C42.058 65.557 42.054 69.163 42.049 72.77 C42.038 79.846 42.021 86.923 42 94 C43.32 94 44.64 94 46 94 C46 95.32 46 96.64 46 98 C46.574 97.998 47.148 97.996 47.74 97.993 C53.693 97.971 59.645 97.956 65.598 97.945 C67.823 97.94 70.047 97.933 72.271 97.925 C75.461 97.912 78.65 97.907 81.84 97.902 C82.34 97.9 82.34 97.9 84.873 97.887 C85.794 97.887 86.715 97.887 87.664 97.886 C88.479 97.884 89.294 97.882 90.133 97.88 C92 98 92 98 93 99 C93.125 101.5 93.125 101.5 93 104 C91.188 105.812 88.39 105.137 85.951 105.145 C84.657 105.152 83.362 105.158 82.028 105.165 C80.603 105.166 79.179 105.167 77.754 105.168 C76.303 105.171 74.852 105.175 73.401 105.178 C70.355 105.184 67.309 105.186 64.263 105.185 C60.355 105.185 56.446 105.199 52.537 105.216 C49.539 105.227 46.541 105.229 43.543 105.229 C42.101 105.23 40.66 105.234 39.219 105.242 C37.205 105.252 35.192 105.248 33.178 105.243 C32.031 105.244 30.883 105.246 29.701 105.247 C27 105 27 105 25 103 C25 101.68 25 100.36 25 99 C-12.29 98.67 -49.58 98.34 -88 98 C-84.23 95.487 -82.414 95.84 -77.926 96.023 C-77.242 96.048 -76.558 96.073 -75.854 96.099 C-73.673 96.181 -71.493 96.278 -69.312 96.375 C-67.833 96.433 -66.353 96.491 -64.873 96.547 C-61.248 96.687 -57.624 96.84 -54 97 C-53.835 96.505 -53.835 96.505 -53 94 C-51.68 94 -50.36 94 -49 94 C-49.016 93.266 -49.031 92.532 -49.047 91.776 C-49.188 84.833 -49.294 77.89 -49.363 70.945 C-49.399 67.376 -49.448 63.807 -49.528 60.238 C-49.605 56.789 -49.646 53.34 -49.664 49.89 C-49.683 47.944 -49.738 45.999 -49.793 44.054 C-49.796 38.03 -49.673 33.978 -45.647 29.292 C-44.469 28.155 -43.255 27.053 -42 26 C-40.998 25.148 -39.997 24.296 -38.965 23.418 C-37.966 22.682 -36.967 21.946 -35.938 21.188 C-34.808 20.345 -33.679 19.501 -32.551 18.656 C-31.972 18.226 -31.392 17.795 -30.795 17.352 C-27.121 14.585 -23.534 11.705 -19.933 8.843 C-18.298 7.55 -16.653 6.271 -15 5 C-14.397 4.533 -13.794 4.066 -13.173 3.585 C-12.568 3.131 -11.963 2.678 -11.34 2.211 C-10.797 1.8 -10.254 1.389 -9.695 0.966 C-6.34 -0.947 -3.791 -0.542 0 0 Z M-18.379 12.58 C-21.024 14.897 -23.82 17.006 -26.625 19.125 C-41.328 30.328 -41.328 30.328 -45 34 C-45.241 36.518 -45.241 36.518 -45.227 39.735 C-45.227 40.936 -45.227 42.137 -45.227 43.375 C-45.216 44.677 -45.206 45.979 -45.195 47.32 C-45.192 48.663 -45.189 50.005 -45.187 51.347 C-45.179 54.882 -45.159 58.416 -45.137 61.951 C-45.117 65.557 -45.108 69.163 -45.098 72.77 C-45.077 79.846 -45.038 86.923 -45 94 C-35.76 94 -26.52 94 -17 94 C-16.812 84.188 -16.812 84.188 -16.792 81.106 C-16.564 74.571 -16.564 74.571 -13.918 71.891 C-10.333 70.796 -7.251 70.566 -3.5 70.562 C-2.211 70.543 -0.922 70.524 0.406 70.504 C4.689 71.095 6.277 71.624 9 75 C9.736 78.255 9.789 81.422 9.812 84.75 C9.874 87.802 9.936 90.855 10 94 C19.24 94 28.48 94 38 94 C38.168 86.303 38.328 78.612 38.414 70.915 C38.456 67.33 38.512 63.747 38.604 60.163 C38.691 56.707 38.738 53.252 38.759 49.795 C38.781 47.843 38.843 45.892 38.906 43.941 C38.911 35.227 38.911 35.227 36.276 31.677 C34.266 29.898 32.262 28.437 30 27 C29.483 26.59 29.483 26.59 26.867 24.516 C25.88 23.768 24.892 23.02 23.875 22.25 C22.76 21.402 21.645 20.553 20.531 19.703 C19.959 19.267 19.387 18.83 18.797 18.381 C15.029 15.485 11.306 12.53 7.582 9.579 C-0.527 3.176 -0.527 3.176 -5.578 3.305 C-10.716 4.78 -14.484 9.063 -18.379 12.58 Z " fill="#18B7E7" transform="translate(404,5)"/>
<path d="M0 0 C4.092 3.61 6.794 6.298 7.938 11.75 C7.999 12.781 8.061 13.812 8.125 14.875 C8.785 14.875 9.445 14.875 10.125 14.875 C10.104 13.576 10.084 12.276 10.062 10.938 C10.041 9.583 10.054 8.227 10.125 6.875 C11.765 5.235 13.62 5.626 15.875 5.562 C19.711 5.579 20.912 5.739 24.25 7.875 C24.869 8.535 25.488 9.195 26.125 9.875 C24.792 12.542 23.458 15.208 22.125 17.875 C23.445 17.875 24.765 17.875 26.125 17.875 C26.259 17.566 26.259 17.566 26.938 16 C28.125 13.875 28.125 13.875 31.125 11.875 C34.892 12.012 37.372 12.392 40.562 14.438 C42.777 17.892 42.962 20.879 42.125 24.875 C40.255 27.306 38.844 28.516 36.125 29.875 C33.467 29.999 30.834 30.064 28.175 30.084 C27.764 30.089 27.764 30.089 25.686 30.113 C22.961 30.143 20.236 30.165 17.512 30.184 C17.047 30.187 17.047 30.187 14.694 30.204 C9.774 30.236 4.853 30.261 -0.067 30.28 C-4.142 30.298 -8.217 30.333 -12.292 30.383 C-17.209 30.443 -22.125 30.473 -27.043 30.483 C-28.917 30.492 -30.792 30.511 -32.666 30.54 C-35.29 30.579 -37.912 30.58 -40.536 30.572 C-40.923 30.582 -40.923 30.582 -42.881 30.633 C-45.78 30.594 -48.144 30.449 -50.476 28.618 C-52.879 25.889 -53.871 23.893 -54.562 20.312 C-53.829 16.647 -52.845 14.911 -49.809 12.676 C-46.182 11.174 -42.603 12.038 -38.875 12.875 C-38.727 12.562 -38.727 12.562 -37.98 10.98 C-36.596 8.344 -35.469 7.347 -32.875 5.875 C-29.125 5.188 -29.125 5.188 -25.875 4.875 C-26.205 8.505 -26.535 12.135 -26.875 15.875 C-26.215 15.545 -25.555 15.215 -24.875 14.875 C-24.607 13.658 -24.339 12.441 -24.062 11.188 C-23.009 6.565 -21.22 4.22 -17.875 0.875 C-12.645 -2.406 -5.628 -2.202 0 0 Z " fill="none" transform="translate(206.875,5.125)"/>
<path d="M0 0 C1 1 1 1 1.188 3.938 C1 7 1 7 -1 9 C-0.01 9.66 0.98 10.32 2 11 C2.708 12.752 2.708 12.752 3.168 14.852 C3.339 15.621 3.51 16.391 3.686 17.184 C3.851 17.989 4.017 18.795 4.188 19.625 C4.365 20.407 4.542 21.19 4.725 21.996 C5.821 27.099 6.173 31.784 6 37 C5.01 37 4.02 37 3 37 C3 42.61 3 48.22 3 54 C9.93 54.33 16.86 54.66 24 55 C24 55.33 24 55.66 24 56 C-24.51 56 -73.02 56 -123 56 C-123 55.67 -123 55.34 -123 55 C-97.59 55 -72.18 55 -46 55 C-45 37 -45 37 -47 29 C-47.269 26.506 -47.481 24.005 -47.625 21.5 C-47.662 20.886 -47.662 20.886 -47.852 17.781 C-47.901 16.863 -47.95 15.946 -48 15 C-42.43 12.914 -42.43 12.914 -38.562 13.688 C-34.64 14.032 -34.253 13.812 -31.312 11.562 C-31.042 11.326 -31.042 11.326 -29.676 10.129 C-28 9 -28 9 -24 9 C-24.152 10.766 -24.152 10.766 -25 13 C-27.504 14.922 -27.504 14.922 -30.562 16.75 C-31.574 17.364 -32.586 17.977 -33.629 18.609 C-34.411 19.068 -35.194 19.527 -36 20 C-35.77 21.898 -35.515 23.794 -35.25 25.688 C-35.18 26.215 -35.18 26.215 -34.828 28.887 C-34 32 -34 32 -31.969 34.312 C-29.136 38.179 -29.333 41.638 -29.25 46.312 C-29.168 49.179 -29.085 52.046 -29 55 C-22.4 55 -15.8 55 -9 55 C-9 49.06 -9 43.12 -9 37 C-10.32 37 -11.64 37 -13 37 C-12.859 35.375 -12.712 33.75 -12.562 32.125 C-12.522 31.673 -12.522 31.673 -12.316 29.383 C-12 27 -12 27 -11 25 C-7.938 24.375 -7.938 24.375 -5 24 C-4.67 22.68 -4.34 21.36 -4 20 C-4.33 20.495 -4.33 20.495 -6 23 C-8.82 23.293 -8.82 23.293 -12.125 23.188 C-13.221 23.16 -14.316 23.133 -15.445 23.105 C-16.288 23.071 -17.131 23.036 -18 23 C-18.165 22.34 -18.165 22.34 -19 19 C-19.592 19.277 -20.183 19.554 -20.793 19.84 C-28.641 23.438 -28.641 23.438 -33 24 C-32.812 22.188 -32.812 22.188 -32 20 C-30.369 18.942 -28.697 17.947 -27 17 C-24.688 15.188 -24.688 15.188 -23 13 C-22.75 9.75 -22.75 9.75 -23 7 C-22.01 7.33 -21.02 7.66 -20 8 C-19.312 10.063 -19.312 10.063 -19 12 C-16.355 8.875 -15.156 5.912 -14 2 C-13.257 1.876 -12.515 1.752 -11.75 1.625 C-9 1 -9 1 -7 -0.125 C-4.328 -1.294 -2.746 -0.816 0 0 Z " fill="#67CAF2" transform="translate(127,47)"/>
<path d="M0 0 C3.63 0 7.26 0 11 0 C11.019 0.554 11.019 0.554 11.113 3.359 C11.179 4.823 11.245 6.286 11.312 7.75 C11.324 8.115 11.324 8.115 11.381 9.961 C11.533 13.008 11.864 15.659 13 18.5 C16.279 20.96 19.717 20.419 23.688 20.25 C24.086 20.241 24.086 20.241 26.104 20.195 C28.07 20.148 30.035 20.076 32 20 C32.195 27.703 32.195 27.703 30.438 30.375 C28 32 28 32 24.438 33 C20.591 34.119 19.961 34.654 18 38 C17.488 40.578 17.488 40.578 17.312 43.25 C17.247 44.142 17.181 45.034 17.113 45.953 C17.076 46.629 17.039 47.304 17 48 C15.02 48 13.04 48 11 48 C11 49.32 11 50.64 11 52 C12.98 52 14.96 52 17 52 C17 55.3 17 58.6 17 62 C11.39 62 5.78 62 0 62 C0 54.08 0 46.16 0 38 C0.99 37.835 0.99 37.835 6 37 C6 36.34 6 35.68 6 35 C5.051 34.938 4.102 34.876 3.125 34.812 C2.094 34.544 1.062 34.276 0 34 C-1.188 31.625 -1.188 31.625 -2 29 C-3.145 27.367 -3.145 27.367 -5 26 C-8.031 25.594 -8.031 25.594 -11.5 25.5 C-17.482 25.338 -17.482 25.338 -19.895 23.762 C-21.331 21.472 -21.304 19.995 -21.188 17.312 C-21.16 16.504 -21.133 15.696 -21.105 14.863 C-21.071 14.248 -21.036 13.634 -21 13 C-19.975 13.058 -18.95 13.116 -17.895 13.176 C-16.534 13.223 -15.173 13.268 -13.812 13.312 C-13.139 13.354 -12.465 13.396 -11.771 13.439 C-7.881 13.534 -6.181 13.139 -3.062 10.75 C-1.073 8.097 -0.352 6.919 -0.188 3.688 C-0.126 2.471 -0.064 1.254 0 0 Z " fill="#F8FBF7" transform="translate(197,38)"/>
<path d="M0 0 C0.713 0.005 1.427 0.01 2.162 0.016 C2.918 0.013 3.674 0.011 4.454 0.008 C7.002 0.003 9.55 0.011 12.098 0.02 C13.919 0.019 15.741 0.017 17.562 0.014 C22.518 0.009 27.475 0.017 32.431 0.027 C37.608 0.036 42.784 0.034 47.961 0.034 C56.654 0.035 65.348 0.043 74.041 0.057 C84.107 0.073 94.172 0.078 104.238 0.077 C113.903 0.077 123.568 0.082 133.234 0.09 C137.355 0.094 141.477 0.095 145.599 0.096 C150.447 0.097 155.295 0.103 160.144 0.113 C161.928 0.116 163.713 0.117 165.498 0.117 C167.923 0.116 170.349 0.122 172.774 0.129 C173.132 0.128 173.132 0.128 174.943 0.124 C179.79 0.149 179.79 0.149 180.904 1.263 C181.029 3.763 181.029 3.763 180.904 6.263 C179.223 7.945 177.152 7.385 174.907 7.392 C174.547 7.39 174.547 7.39 172.723 7.383 C172.343 7.384 172.343 7.384 170.419 7.386 C167.851 7.387 165.284 7.382 162.717 7.376 C160.884 7.376 159.051 7.376 157.219 7.377 C152.227 7.377 147.236 7.371 142.244 7.364 C137.034 7.358 131.823 7.357 126.613 7.356 C116.739 7.353 106.865 7.345 96.991 7.335 C85.753 7.324 74.515 7.318 63.277 7.313 C40.153 7.303 17.029 7.285 -6.096 7.263 C-6.721 4.888 -6.721 4.888 -7.096 2.263 C-4.652 -0.181 -3.335 0.024 0 0 Z " fill="#54DB19" transform="translate(105.09552675485611,122.73717528581619)"/>
<path d="M0 0 C0.726 -0.002 1.453 -0.005 2.201 -0.007 C4.653 -0.013 7.105 -0.012 9.557 -0.012 C11.308 -0.015 13.058 -0.018 14.809 -0.022 C19.578 -0.031 24.346 -0.033 29.115 -0.034 C33.088 -0.034 37.062 -0.038 41.036 -0.042 C50.408 -0.05 59.779 -0.052 69.151 -0.052 C78.834 -0.051 88.518 -0.062 98.201 -0.077 C106.501 -0.09 114.8 -0.096 123.1 -0.095 C128.063 -0.095 133.027 -0.098 137.99 -0.108 C142.656 -0.118 147.322 -0.118 151.988 -0.111 C153.705 -0.11 155.421 -0.112 157.138 -0.118 C159.473 -0.126 161.809 -0.121 164.144 -0.114 C165.454 -0.114 166.763 -0.115 168.112 -0.115 C171.136 0.134 171.136 0.134 173.136 2.134 C173.136 3.454 173.136 4.774 173.136 6.134 C170.157 7.623 167.469 7.26 164.144 7.261 C163.78 7.261 163.78 7.261 161.939 7.265 C159.487 7.269 157.036 7.266 154.585 7.263 C152.832 7.264 151.08 7.266 149.328 7.268 C144.559 7.273 139.791 7.271 135.022 7.268 C130.042 7.266 125.062 7.268 120.081 7.269 C111.718 7.271 103.354 7.269 94.99 7.264 C85.306 7.259 75.622 7.26 65.938 7.266 C57.637 7.27 49.337 7.271 41.036 7.268 C36.073 7.267 31.109 7.267 26.145 7.27 C21.481 7.273 16.816 7.271 12.152 7.265 C10.435 7.264 8.718 7.264 7.001 7.266 C4.667 7.269 2.334 7.266 0 7.261 C-1.309 7.26 -2.618 7.26 -3.967 7.26 C-6.864 7.134 -6.864 7.134 -7.864 6.134 C-7.989 3.634 -7.989 3.634 -7.864 1.134 C-5.956 -0.775 -2.526 0.003 0 0 Z " fill="#399112" transform="translate(297.86436462402344,122.86628723144531)"/>
<path d="M0 0 C1.072 -0.004 2.145 -0.008 3.25 -0.012 C5.516 -0.014 7.782 -0.007 10.048 0.01 C13.519 0.031 16.987 0.01 20.457 -0.016 C22.659 -0.013 24.861 -0.008 27.062 0 C28.101 -0.008 29.14 -0.016 30.21 -0.025 C37.331 0.068 37.331 0.068 40.688 2.287 C42.174 4.77 42.523 6.099 42.492 8.973 C42.488 9.803 42.484 10.634 42.48 11.49 C42.468 11.92 42.468 11.92 42.406 14.094 C42.405 14.957 42.404 15.82 42.402 16.709 C42.313 23.109 42.313 23.109 40.031 26.531 C34.044 27.184 34.044 27.184 31.094 25.281 C30.031 23.531 30.031 23.531 30.031 19.531 C24.751 19.696 24.751 19.696 -1.969 20.531 C-2.299 21.356 -2.299 21.356 -3.969 25.531 C-6.767 26.931 -8.874 26.784 -11.969 26.531 C-14.044 24.977 -14.861 24.072 -15.373 21.51 C-15.405 19.037 -15.427 16.567 -15.406 14.094 C-15.426 13.235 -15.446 12.375 -15.467 11.49 C-15.466 10.659 -15.466 9.829 -15.465 8.973 C-15.467 8.217 -15.469 7.461 -15.47 6.682 C-13.65 -1.123 -6.51 -0.051 0 0 Z " fill="#F5F8FB" transform="translate(276.96875,72.46875)"/>
<path d="M0 0 C0.635 -0.001 0.635 -0.001 3.85 -0.009 C5.271 -0.007 6.692 -0.005 8.113 -0.002 C9.599 -0.004 11.085 -0.006 12.571 -0.008 C16.619 -0.012 20.666 -0.011 24.714 -0.007 C28.94 -0.005 33.166 -0.007 37.393 -0.009 C44.491 -0.011 51.59 -0.008 58.689 -0.003 C66.908 0.002 75.126 0 83.345 -0.005 C90.389 -0.01 97.433 -0.01 104.477 -0.008 C108.689 -0.006 112.902 -0.006 117.114 -0.009 C121.074 -0.012 125.033 -0.01 128.992 -0.004 C130.45 -0.003 131.907 -0.003 133.364 -0.006 C135.346 -0.008 137.327 -0.004 139.308 0 C139.864 0 139.864 0 142.675 0.001 C145.154 0.127 145.154 0.127 146.154 1.127 C146.279 3.627 146.279 3.627 146.154 6.127 C144.368 7.913 141.728 7.257 139.315 7.261 C138.046 7.265 136.777 7.269 135.469 7.274 C134.05 7.273 132.63 7.273 131.211 7.272 C129.726 7.275 128.242 7.279 126.757 7.282 C122.714 7.291 118.67 7.294 114.627 7.294 C111.257 7.295 107.887 7.299 104.517 7.302 C96.57 7.311 88.622 7.313 80.674 7.312 C72.463 7.312 64.252 7.322 56.041 7.338 C49.003 7.351 41.964 7.356 34.925 7.356 C30.717 7.356 26.508 7.358 22.299 7.369 C18.342 7.379 14.385 7.379 10.428 7.371 C8.973 7.37 7.518 7.373 6.063 7.379 C4.082 7.387 2.101 7.381 0.12 7.374 C-0.99 7.375 -2.101 7.375 -3.245 7.376 C-5.846 7.127 -5.846 7.127 -7.846 5.127 C-7.013 -0.374 -5.232 0.002 0 0 Z " fill="#2C7010" transform="translate(195.8460693359375,112.87301635742188)"/>
<path d="M0 0 C0.549 0 0.549 0 3.327 0.003 C4.582 0.001 5.837 0 7.13 -0.001 C8.534 0.002 9.938 0.006 11.341 0.01 C12.809 0.01 14.277 0.01 15.746 0.009 C19.743 0.009 23.741 0.015 27.739 0.022 C31.912 0.028 36.086 0.028 40.259 0.03 C48.167 0.033 56.076 0.041 63.984 0.051 C72.985 0.062 81.986 0.068 90.987 0.073 C109.508 0.083 128.029 0.101 146.55 0.123 C147.175 2.498 147.175 2.498 147.55 5.123 C145.55 7.123 145.55 7.123 142.995 7.372 C141.907 7.371 140.819 7.371 139.698 7.37 C138.451 7.374 137.204 7.379 135.92 7.383 C134.531 7.378 133.142 7.372 131.753 7.366 C130.296 7.367 128.839 7.369 127.382 7.372 C123.42 7.377 119.457 7.369 115.495 7.359 C111.355 7.35 107.216 7.352 103.076 7.352 C96.124 7.351 89.173 7.342 82.222 7.329 C74.174 7.313 66.126 7.308 58.078 7.309 C50.348 7.309 42.619 7.304 34.89 7.296 C31.594 7.292 28.299 7.29 25.004 7.29 C21.127 7.289 17.25 7.283 13.374 7.273 C11.947 7.27 10.521 7.269 9.094 7.269 C7.154 7.27 5.215 7.263 3.275 7.257 C2.188 7.255 1.1 7.253 -0.021 7.252 C-2.45 7.123 -2.45 7.123 -3.45 6.123 C-3.575 3.623 -3.575 3.623 -3.45 1.123 C-2.45 0.123 -2.45 0.123 0 0 Z " fill="#2E7212" transform="translate(5.45003604888916,102.87695217132568)"/>
<path d="M0 0 C47.19 0 94.38 0 143 0 C143.33 1.65 143.66 3.3 144 5 C141.347 7.653 140.125 7.251 136.42 7.254 C135.234 7.26 134.048 7.265 132.825 7.271 C132.171 7.269 132.171 7.269 128.861 7.259 C127.475 7.261 126.089 7.265 124.703 7.269 C120.932 7.279 117.162 7.275 113.391 7.269 C109.451 7.264 105.511 7.268 101.57 7.271 C94.953 7.275 88.335 7.27 81.717 7.261 C74.059 7.25 66.401 7.253 58.742 7.264 C52.175 7.273 45.608 7.275 39.04 7.27 C35.115 7.266 31.189 7.266 27.263 7.273 C23.573 7.278 19.883 7.274 16.192 7.263 C14.186 7.259 12.181 7.265 10.175 7.271 C8.988 7.265 7.802 7.26 6.58 7.254 C5.545 7.253 4.509 7.252 3.443 7.252 C1 7 1 7 -1 5 C-0.67 3.35 -0.34 1.7 0 0 Z " fill="#3B9316" transform="translate(282,103)"/>
<path d="M0 0 C3.875 0.875 3.875 0.875 5 2 C7.082 2.106 9.166 2.185 11.25 2.25 C18.636 2.761 18.636 2.761 21.312 5.312 C23 8 23 8 23 12 C24.98 12 26.96 12 29 12 C29 13.32 29 14.64 29 16 C27.02 16 25.04 16 23 16 C23 23.92 23 31.84 23 40 C28.61 40 34.22 40 40 40 C40 36.7 40 33.4 40 30 C38.02 30 36.04 30 34 30 C34 28.68 34 27.36 34 26 C35.98 26 37.96 26 40 26 C39.942 25.348 39.884 24.695 39.824 24.023 C39.41 15.996 39.41 15.996 42.5 12.375 C43.325 11.591 44.15 10.808 45 10 C46.32 10.33 47.64 10.66 49 11 C48.353 11.693 47.705 12.386 47.038 13.1 C44.644 16.506 44.469 18.277 44.391 22.395 C44.358 23.597 44.326 24.799 44.293 26.037 C44.279 27.283 44.265 28.529 44.25 29.812 C44.235 30.445 44.235 30.445 44.16 33.646 C44.09 36.764 44.037 39.882 44 43 C44.313 42.995 44.313 42.995 45.896 42.968 C48.722 42.927 51.549 42.901 54.375 42.875 C55.36 42.858 56.345 42.841 57.359 42.824 C57.83 42.821 57.83 42.821 60.211 42.805 C60.646 42.799 60.646 42.799 62.845 42.773 C65 43 65 43 67 45 C66.464 48.536 66.464 48.536 65 50 C62.485 50.106 59.998 50.147 57.483 50.145 C56.696 50.149 55.909 50.152 55.098 50.155 C52.483 50.165 49.869 50.167 47.254 50.168 C45.444 50.171 43.634 50.175 41.824 50.178 C38.025 50.184 34.226 50.186 30.427 50.185 C25.55 50.185 20.673 50.199 15.796 50.216 C12.056 50.227 8.317 50.229 4.578 50.229 C2.779 50.23 0.98 50.234 -0.818 50.242 C-3.33 50.252 -5.841 50.249 -8.353 50.243 C-9.102 50.249 -9.851 50.254 -10.622 50.26 C-15.772 50.228 -15.772 50.228 -18 48 C-18 46.68 -18 45.36 -18 44 C-14.827 42.414 -11.412 42.879 -7.93 42.902 C-7.133 42.904 -6.337 42.905 -5.517 42.907 C-2.97 42.912 -0.422 42.925 2.125 42.938 C3.85 42.943 5.576 42.947 7.301 42.951 C11.534 42.962 15.767 42.979 20 43 C19.931 38.355 19.843 33.71 19.738 29.066 C19.704 27.486 19.676 25.906 19.654 24.325 C19.62 22.054 19.568 19.783 19.512 17.512 C19.505 16.805 19.499 16.099 19.492 15.371 C19.406 12.487 19.323 10.467 17.657 8.056 C15.043 6.39 12.558 6.583 9.5 6.5 C3.478 6.337 3.478 6.337 1.094 4.656 C0 3 0 3 0 0 Z " fill="#56DC1D" transform="translate(174,60)"/>
<path d="M0 0 C8.91 0 17.82 0 27 0 C27.33 0.99 27.33 0.99 29 6 C29.99 6.33 30.98 6.66 32 7 C32 7.33 32 7.66 32 8 C27.545 8.165 27.545 8.165 5 9 C5.165 9.825 5.165 9.825 6 14 C52.53 14 99.06 14 147 14 C148 9 148 9 148 8 C149.65 8 151.3 8 153 8 C152.979 8.804 152.959 9.609 152.938 10.438 C153 13 153 13 154 14 C155.994 14.124 157.991 14.178 159.989 14.205 C161.27 14.225 162.551 14.245 163.871 14.266 C165.28 14.283 166.689 14.3 168.098 14.316 C169.531 14.337 170.965 14.358 172.398 14.379 C176.178 14.435 179.957 14.484 183.737 14.532 C187.591 14.582 191.445 14.638 195.299 14.693 C202.866 14.801 210.433 14.902 218 15 C218 15.99 218 16.98 218 18 C217.241 18.001 216.482 18.003 215.7 18.004 C197.239 18.041 178.778 18.1 160.317 18.184 C151.389 18.224 142.462 18.256 133.534 18.271 C125.754 18.284 117.974 18.311 110.193 18.355 C106.073 18.377 101.952 18.393 97.832 18.392 C93.954 18.391 90.077 18.409 86.2 18.441 C84.776 18.45 83.352 18.451 81.928 18.446 C79.985 18.439 78.042 18.459 76.1 18.481 C75.012 18.485 73.924 18.488 72.804 18.492 C69.37 19.114 68.181 20.349 66 23 C65.67 22.34 65.67 22.34 64 19 C14.5 18.67 -35 18.34 -86 18 C-86 17.67 -86 17.34 -86 17 C-57.95 16.67 -29.9 16.34 -1 16 C0 9 0 9 -1.438 7.062 C-1.953 6.712 -2.469 6.361 -3 6 C-2.01 4.02 -1.02 2.04 0 0 Z " fill="#E8F3E3" transform="translate(277,95)"/>
<path d="M0 0 C21.78 0 43.56 0 66 0 C67.469 2.937 67.248 5.606 67.312 8.875 C67.331 9.492 67.331 9.492 67.426 12.617 C67 16 67 16 65.332 18.422 C62.459 20.366 60.818 20.477 57.375 20.375 C56.413 20.362 55.452 20.349 54.461 20.336 C52 20 52 20 50 18 C48.68 18 47.36 18 46 18 C46 12.72 46 7.44 46 2 C42.37 2 38.74 2 35 2 C35.083 3.217 35.165 4.434 35.25 5.688 C35.262 9.073 35.039 9.939 33.125 12.938 C29.599 16.359 27.326 16.136 22.5 16.125 C21.335 16.128 20.169 16.13 18.969 16.133 C16 16 16 16 14 15 C14 17.97 14 20.94 14 24 C13.01 24.33 12.02 24.66 11 25 C10.67 22.03 10.34 19.06 10 16 C8.35 15.67 6.7 15.34 5 15 C5 14.67 5 14.34 5 14 C6.98 14 8.96 14 11 14 C11 10.04 11 6.08 11 2 C7.37 2 3.74 2 0 2 C0 1.34 0 0.68 0 0 Z " fill="#3C9317" transform="translate(162,36)"/>
<path d="M0 0 C0.917 -0.003 1.834 -0.006 2.779 -0.009 C3.793 -0.007 4.807 -0.004 5.852 -0.002 C6.914 -0.004 7.975 -0.006 9.069 -0.008 C12.598 -0.012 16.126 -0.009 19.655 -0.006 C22.095 -0.007 24.535 -0.007 26.975 -0.009 C32.096 -0.01 37.217 -0.008 42.339 -0.003 C48.92 0.002 55.501 -0.001 62.083 -0.007 C67.123 -0.011 72.164 -0.009 77.205 -0.007 C79.632 -0.006 82.059 -0.007 84.487 -0.009 C87.873 -0.012 91.259 -0.008 94.645 -0.002 C95.659 -0.004 96.673 -0.006 97.718 -0.009 C98.176 -0.007 98.176 -0.007 100.497 0 C101.298 0 102.1 0.001 102.926 0.001 C104.748 0.127 104.748 0.127 105.748 1.127 C105.873 3.627 105.873 3.627 105.748 6.127 C104.185 7.69 102.67 7.253 100.497 7.254 C99.58 7.257 98.663 7.26 97.718 7.263 C96.704 7.26 95.69 7.258 94.645 7.256 C93.583 7.258 92.522 7.26 91.428 7.262 C87.899 7.266 84.371 7.263 80.842 7.26 C78.402 7.26 75.962 7.261 73.522 7.263 C68.401 7.264 63.279 7.262 58.158 7.257 C51.577 7.252 44.996 7.255 38.414 7.261 C33.374 7.265 28.333 7.263 23.292 7.261 C20.865 7.26 18.437 7.261 16.01 7.263 C12.624 7.266 9.238 7.262 5.852 7.256 C4.838 7.258 3.824 7.26 2.779 7.263 C2.32 7.261 2.32 7.261 0 7.254 C-0.802 7.254 -1.603 7.253 -2.429 7.253 C-4.252 7.127 -4.252 7.127 -5.252 6.127 C-5.377 3.627 -5.377 3.627 -5.252 1.127 C-3.688 -0.436 -2.174 0.001 0 0 Z " fill="#399113" transform="translate(79.2515869140625,112.87301635742188)"/>
<path d="M0 0 C-0.152 1.766 -0.152 1.766 -1 4 C-3.504 5.922 -3.504 5.922 -6.562 7.75 C-7.574 8.364 -8.586 8.977 -9.629 9.609 C-10.411 10.068 -11.194 10.527 -12 11 C-11.77 12.898 -11.515 14.794 -11.25 16.688 C-11.18 17.215 -11.18 17.215 -10.828 19.887 C-10 23 -10 23 -6 28 C-5.835 30.97 -5.835 30.97 -5 46 C12.49 46 29.98 46 48 46 C48 46.33 48 46.66 48 47 C-0.51 47 -49.02 47 -99 47 C-99 46.67 -99 46.34 -99 46 C-73.59 46 -48.18 46 -22 46 C-21 28 -21 28 -23 20 C-23.269 17.506 -23.481 15.005 -23.625 12.5 C-23.662 11.886 -23.662 11.886 -23.852 8.781 C-23.901 7.863 -23.95 6.946 -24 6 C-18.43 3.914 -18.43 3.914 -14.562 4.688 C-10.64 5.032 -10.253 4.812 -7.312 2.562 C-7.042 2.326 -7.042 2.326 -5.676 1.129 C-4 0 -4 0 0 0 Z " fill="#71C7DF" transform="translate(103,56)"/>
<path d="M0 0 C0.835 0 1.67 0.001 2.53 0.001 C2.967 -0 2.967 -0 5.181 -0.009 C8.087 -0.018 10.994 -0.02 13.901 -0.021 C15.913 -0.025 17.924 -0.028 19.936 -0.031 C24.159 -0.037 28.381 -0.039 32.604 -0.039 C38.026 -0.039 43.448 -0.052 48.87 -0.069 C53.027 -0.081 57.183 -0.083 61.339 -0.082 C63.339 -0.083 65.338 -0.088 67.338 -0.095 C70.13 -0.105 72.921 -0.102 75.713 -0.096 C76.546 -0.102 77.379 -0.108 78.237 -0.113 C83.958 -0.082 83.958 -0.082 86.186 2.147 C85.811 4.772 85.811 4.772 85.186 7.147 C73.356 7.193 61.526 7.228 49.695 7.25 C44.202 7.261 38.709 7.275 33.217 7.298 C27.919 7.319 22.622 7.331 17.325 7.336 C15.3 7.34 13.275 7.347 11.251 7.358 C8.423 7.373 5.595 7.375 2.767 7.374 C1.923 7.381 1.079 7.388 0.21 7.395 C-5.586 7.375 -5.586 7.375 -7.814 5.147 C-6.987 -0.311 -5.241 0.03 0 0 Z " fill="#2D7110" transform="translate(8.813720703125,122.85336303710938)"/>
<path d="M0 0 C0.165 0.33 0.165 0.33 1 2 C4.631 4.553 8.545 4.296 12.81 4.291 C13.202 4.294 13.202 4.294 15.182 4.311 C17.766 4.33 20.35 4.334 22.934 4.336 C24.732 4.342 26.53 4.349 28.329 4.356 C32.097 4.368 35.866 4.372 39.634 4.371 C44.461 4.37 49.287 4.398 54.113 4.432 C57.827 4.454 61.541 4.458 65.255 4.457 C67.034 4.46 68.813 4.469 70.593 4.484 C73.082 4.504 75.571 4.498 78.06 4.486 C78.793 4.497 79.527 4.508 80.282 4.52 C85.128 4.46 87.555 3.387 91 0 C91.33 0.66 91.33 0.66 93 4 C103.23 4.33 113.46 4.66 124 5 C123.67 5.66 123.34 6.32 123 7 C121.94 7.008 120.879 7.016 119.787 7.025 C109.809 7.102 99.833 7.19 89.856 7.288 C84.726 7.338 79.597 7.384 74.467 7.422 C69.519 7.459 64.572 7.505 59.625 7.558 C57.735 7.577 55.844 7.592 53.953 7.603 C51.312 7.62 48.671 7.649 46.03 7.681 C45.636 7.682 45.636 7.682 43.643 7.688 C38.228 7.772 38.228 7.772 36 10 C36.165 10.66 36.165 10.66 37 14 C61.75 14.165 61.75 14.165 187 15 C187 15.33 187 15.66 187 16 C164.063 16.173 141.125 16.339 118.188 16.5 C117.341 16.506 116.494 16.512 115.621 16.518 C71.477 16.828 27.334 17.102 -16.812 17.062 C-17.773 17.062 -18.734 17.061 -19.723 17.06 C-30.816 17.049 -41.908 17.03 -53 17 C-53 16.67 -53 16.34 -53 16 C-51.962 15.99 -50.925 15.979 -49.856 15.969 C-40.099 15.871 -30.343 15.768 -20.586 15.661 C-15.57 15.605 -10.553 15.552 -5.537 15.503 C-0.7 15.455 4.137 15.403 8.974 15.347 C10.824 15.327 12.673 15.308 14.523 15.291 C17.105 15.267 19.686 15.237 22.267 15.205 C23.04 15.2 23.812 15.194 24.608 15.188 C29.886 15.114 29.886 15.114 31 14 C31.125 11.5 31.125 11.5 31 9 C29.443 7.443 27.946 7.859 25.78 7.842 C25.325 7.837 25.325 7.837 23.022 7.812 C22.519 7.809 22.519 7.809 19.972 7.795 C18.919 7.785 17.865 7.775 16.78 7.765 C13.279 7.733 9.778 7.708 6.277 7.684 C3.857 7.663 1.437 7.642 -0.983 7.621 C-7.366 7.565 -13.75 7.516 -20.133 7.468 C-26.642 7.418 -33.15 7.362 -39.658 7.307 C-52.439 7.199 -65.219 7.097 -78 7 C-78 6.67 -78 6.34 -78 6 C-52.92 6 -27.84 6 -2 6 C-1.34 4.02 -0.68 2.04 0 0 Z " fill="#F5F9F4" transform="translate(153,105)"/>
<path d="M0 0 C2.518 -0.33 4.786 -0.468 7.309 -0.469 C8.031 -0.476 8.754 -0.484 9.498 -0.492 C11.027 -0.503 12.556 -0.505 14.085 -0.501 C16.426 -0.5 18.763 -0.542 21.104 -0.586 C22.589 -0.591 24.074 -0.594 25.559 -0.594 C26.259 -0.61 26.959 -0.627 27.68 -0.643 C29.662 -0.615 29.662 -0.615 33 0 C36.766 4.041 36.755 8.398 38 14 C23.81 14 9.62 14 -5 14 C-2 3 -2 3 0 0 Z " fill="#F8FAFC" transform="translate(274,55)"/>
<path d="M0 0 C4.837 1.582 8.153 4.048 11.867 7.484 C12.527 7.154 13.187 6.824 13.867 6.484 C19.597 5.888 23.916 6.301 28.867 9.484 C29.086 9.741 29.086 9.741 30.195 11.039 C32.473 13.008 34.275 12.992 37.242 13.297 C41.165 13.904 43.431 14.373 45.992 17.484 C48.557 21.588 49.337 23.602 48.867 28.484 C47.102 31.545 45.361 33.99 42.867 36.484 C42.453 38.648 42.453 38.648 42.242 41.109 C42.205 41.518 42.205 41.518 42.016 43.586 C41.967 44.212 41.918 44.839 41.867 45.484 C41.537 45.484 41.207 45.484 40.867 45.484 C40.867 41.194 40.867 36.904 40.867 32.484 C41.527 32.484 42.187 32.484 42.867 32.484 C43.759 29.808 44.003 28.231 43.992 25.484 C43.995 24.804 43.997 24.123 44 23.422 C43.867 21.484 43.867 21.484 42.867 18.484 C39.84 17.818 36.972 17.338 33.867 17.484 C31.055 19.922 31.055 19.922 28.867 22.484 C27.547 22.484 26.227 22.484 24.867 22.484 C25.197 21.742 25.527 20.999 25.867 20.234 C26.867 17.484 26.867 17.484 26.867 13.484 C23.553 11.275 22.523 11.26 18.68 11.359 C18.229 11.368 18.229 11.368 15.949 11.414 C15.606 11.426 15.606 11.426 13.867 11.484 C13.867 14.124 13.867 16.764 13.867 19.484 C12.547 19.484 11.227 19.484 9.867 19.484 C9.781 18.893 9.694 18.301 9.605 17.691 C8.622 12.162 7.469 9.076 2.867 5.484 C-2.98 3.535 -9.072 3.491 -14.633 6.172 C-19.182 10.38 -20.616 14.534 -22.133 20.484 C-22.793 20.484 -23.453 20.484 -24.133 20.484 C-24.258 12.859 -24.258 12.859 -23.133 9.484 C-31.584 11.706 -31.584 11.706 -34.07 15.234 C-34.751 15.977 -35.432 16.719 -36.133 17.484 C-39.554 17.62 -42.779 17.131 -46.133 16.484 C-45.803 15.824 -45.473 15.164 -45.133 14.484 C-42.823 14.484 -40.513 14.484 -38.133 14.484 C-37.947 13.907 -37.762 13.329 -37.57 12.734 C-35.477 9.457 -32.684 7.857 -29.133 6.484 C-27.68 6.307 -26.22 6.184 -24.758 6.109 C-20.815 5.862 -18.786 4.779 -15.633 2.422 C-10.345 -1.404 -6.225 -1.505 0 0 Z " fill="#4C9C2A" transform="translate(204.1328125,0.515625)"/>
<path d="M0 0 C1.318 -0.003 2.636 -0.006 3.994 -0.01 C5.444 -0.008 6.894 -0.006 8.344 -0.003 C9.82 -0.004 11.296 -0.005 12.771 -0.006 C15.869 -0.008 18.965 -0.006 22.062 -0.001 C26.041 0.005 30.019 0.001 33.997 -0.005 C37.046 -0.008 40.095 -0.007 43.144 -0.004 C44.611 -0.004 46.078 -0.005 47.546 -0.007 C49.593 -0.009 51.64 -0.005 53.688 0 C54.271 0 54.271 0 57.225 0.002 C59.844 0.129 59.844 0.129 60.844 1.129 C60.969 3.629 60.969 3.629 60.844 6.129 C59.018 7.955 56.138 7.257 53.688 7.259 C52.369 7.262 51.051 7.265 49.693 7.268 C48.243 7.267 46.794 7.265 45.344 7.262 C43.868 7.263 42.392 7.264 40.916 7.265 C37.819 7.267 34.722 7.264 31.625 7.26 C27.647 7.254 23.668 7.257 19.69 7.263 C16.641 7.267 13.592 7.266 10.544 7.263 C9.076 7.263 7.609 7.263 6.142 7.266 C4.095 7.268 2.047 7.264 0 7.259 C-0.584 7.258 -0.584 7.258 -3.537 7.256 C-6.156 7.129 -6.156 7.129 -7.156 6.129 C-7.281 3.629 -7.281 3.629 -7.156 1.129 C-5.331 -0.696 -2.451 0.002 0 0 Z " fill="#54DB1A" transform="translate(9.15625,112.87060546875)"/>
<path d="M0 0 C8.588 -0.023 17.176 -0.041 25.764 -0.052 C29.752 -0.057 33.739 -0.064 37.726 -0.075 C41.571 -0.086 45.416 -0.092 49.261 -0.095 C50.731 -0.097 52.201 -0.1 53.671 -0.106 C55.724 -0.113 57.776 -0.114 59.828 -0.114 C60.413 -0.115 60.413 -0.115 63.374 -0.12 C66 0 66 0 67 1 C67.125 3.5 67.125 3.5 67 6 C65.188 7.812 62.39 7.137 59.951 7.145 C58.657 7.152 57.362 7.158 56.028 7.165 C54.603 7.166 53.179 7.167 51.754 7.168 C50.303 7.171 48.852 7.175 47.401 7.178 C44.355 7.184 41.309 7.186 38.263 7.185 C34.355 7.185 30.446 7.199 26.537 7.216 C23.539 7.227 20.541 7.229 17.543 7.229 C16.101 7.23 14.66 7.234 13.219 7.242 C11.205 7.252 9.192 7.248 7.178 7.243 C6.604 7.244 6.604 7.244 3.701 7.247 C1 7 1 7 -1 5 C-0.625 2.375 -0.625 2.375 0 0 Z " fill="#2F7213" transform="translate(430,103)"/>
<path d="M0 0 C1.205 -0.01 2.411 -0.021 3.652 -0.031 C7.699 0.599 9.358 1.432 12.062 4.5 C12.691 7.594 12.691 7.594 12.625 11 C12.626 12.124 12.628 13.248 12.629 14.406 C12.062 17.5 12.062 17.5 10.496 19.875 C7.107 22.138 4.608 22.032 0.562 22 C-0.092 22.005 -0.092 22.005 -3.406 22.031 C-6.938 21.5 -6.938 21.5 -9.375 19.875 C-11.419 16.767 -11.471 14.701 -11.438 11 C-11.443 10.438 -11.443 10.438 -11.469 7.594 C-10.938 4.5 -10.938 4.5 -9.34 2.125 C-6.107 -0.062 -3.88 -0.033 0 0 Z " fill="#1DB9ED" transform="translate(382.9375,41.5)"/>
<path d="M0 0 C1.205 -0.01 2.411 -0.021 3.652 -0.031 C7.684 0.597 9.346 1.469 12.062 4.5 C13.307 9.82 12.874 14.877 10.438 19.75 C4.991 22.574 -0.94 22.537 -6.938 21.5 C-9.34 19.871 -9.34 19.871 -10.938 17.5 C-11.469 14.406 -11.469 14.406 -11.438 11 C-11.443 10.438 -11.443 10.438 -11.469 7.594 C-10.938 4.5 -10.938 4.5 -9.34 2.125 C-6.107 -0.062 -3.88 -0.033 0 0 Z " fill="#1CB9ED" transform="translate(416.9375,41.5)"/>
<path d="M0 0 C3.875 0.875 3.875 0.875 5 2 C7.082 2.106 9.166 2.185 11.25 2.25 C18.636 2.761 18.636 2.761 21.312 5.312 C23 8 23 8 23 12 C24.98 12 26.96 12 29 12 C29 13.32 29 14.64 29 16 C27.02 16 25.04 16 23 16 C23 23.92 23 31.84 23 40 C28.61 40 34.22 40 40 40 C40 36.7 40 33.4 40 30 C38.02 30 36.04 30 34 30 C34 28.68 34 27.36 34 26 C35.98 26 37.96 26 40 26 C39.942 25.348 39.884 24.695 39.824 24.023 C39.41 15.996 39.41 15.996 42.5 12.375 C43.325 11.591 44.15 10.808 45 10 C46.32 10.33 47.64 10.66 49 11 C48.353 11.693 47.705 12.386 47.038 13.1 C44.644 16.506 44.469 18.277 44.391 22.395 C44.358 23.597 44.326 24.799 44.293 26.037 C44.279 27.283 44.265 28.529 44.25 29.812 C44.235 30.445 44.235 30.445 44.16 33.646 C44.09 36.764 44.043 39.882 44 43 C36.08 43 28.16 43 20 43 C19.963 40.653 19.925 38.305 19.887 35.887 C19.841 33.613 19.789 31.339 19.738 29.066 C19.704 27.486 19.676 25.906 19.654 24.325 C19.62 22.054 19.568 19.783 19.512 17.512 C19.505 16.805 19.499 16.099 19.492 15.371 C19.406 12.487 19.323 10.467 17.657 8.056 C15.043 6.39 12.558 6.583 9.5 6.5 C3.478 6.337 3.478 6.337 1.094 4.656 C0 3 0 3 0 0 Z " fill="#41991C" transform="translate(174,60)"/>
<path d="M0 0 C2.739 -0.304 5.203 -0.418 7.938 -0.375 C8.666 -0.387 9.395 -0.398 10.146 -0.41 C15.488 -0.381 15.488 -0.381 17.714 1.274 C19.28 3.376 19.352 4.416 19.293 7.012 C19.289 7.353 19.289 7.353 19.27 9.081 C19.243 9.941 19.216 10.801 19.188 11.688 C19.126 14.431 19.064 17.174 19 20 C12.07 20 5.14 20 -2 20 C-2.041 17.257 -2.082 14.514 -2.125 11.688 C-2.143 10.827 -2.161 9.967 -2.18 9.081 C-2.185 8.398 -2.19 7.715 -2.195 7.012 C-2.206 6.315 -2.216 5.619 -2.227 4.901 C-2 3 -2 3 0 0 Z " fill="#F7FCFE" transform="translate(392,79)"/>
<path d="M0 0 C0 0.33 0 0.66 0 1 C-2.31 1.33 -4.62 1.66 -7 2 C-7 2.66 -7 3.32 -7 4 C-7.412 4.278 -7.412 4.278 -9.5 5.688 C-12 8 -12 8 -12.562 11.438 C-11.897 15.651 -11.1 17.096 -8 20 C-5.087 20.507 -2.749 20.692 0.165 20.659 C0.575 20.665 0.575 20.665 2.65 20.691 C5.355 20.72 8.06 20.714 10.766 20.707 C12.643 20.72 14.521 20.735 16.398 20.753 C21.337 20.793 26.275 20.803 31.214 20.807 C36.255 20.816 41.295 20.854 46.336 20.889 C56.224 20.953 66.112 20.986 76 21 C76 21.33 76 21.66 76 22 C49.6 22 23.2 22 -4 22 C-4 22.66 -4 23.32 -4 24 C-0.37 24 3.26 24 7 24 C7.027 25.958 7.046 27.917 7.062 29.875 C7.074 30.966 7.086 32.056 7.098 33.18 C7 36 7 36 6 38 C-1.955 38.765 -1.955 38.765 -5.562 36.125 C-7.588 31.722 -7.333 27.769 -7 23 C-7.371 22.969 -7.371 22.969 -9.25 22.812 C-12.849 21.749 -13.919 20.048 -16 17 C-17.433 14.134 -17.306 12.187 -17 9 C-12.505 0.813 -8.905 -0.514 0 0 Z " fill="#479924" transform="translate(166,14)"/>
<path d="M0 0 C48.51 0 97.02 0 147 0 C148.874 3.748 149.321 5.036 149 9 C146.655 11.345 140.837 10.185 137.688 10.188 C136.724 10.2 135.76 10.212 134.768 10.225 C134.303 10.226 134.303 10.226 131.949 10.23 C131.097 10.235 130.244 10.239 129.366 10.243 C126.647 9.964 125.221 9.609 123 8 C122.01 6.02 121.02 4.04 120 2 C80.4 1.67 40.8 1.34 0 1 C0 0.67 0 0.34 0 0 Z " fill="#EAFAE2" transform="translate(348,120)"/>
<path d="M0 0 C1 1 1 1 1.375 3.875 C1.313 4.391 1.313 4.391 1 7 C-0.648 8.03 -2.315 9.031 -4 10 C-4.043 11.666 -4.041 13.334 -4 15 C-5.375 17.312 -5.375 17.312 -8 19 C-11.36 19.332 -14.636 19.231 -18 19 C-18.33 19.99 -18.66 20.98 -19 22 C-19 21.01 -19 20.02 -19 19 C-19.296 19.139 -19.296 19.139 -20.793 19.84 C-28.641 23.438 -28.641 23.438 -33 24 C-32.812 22.188 -32.812 22.188 -32 20 C-30.369 18.942 -28.697 17.947 -27 17 C-24.688 15.188 -24.688 15.188 -23 13 C-22.75 9.75 -22.75 9.75 -23 7 C-22.01 7.33 -21.02 7.66 -20 8 C-19.312 10.062 -19.312 10.062 -19 12 C-16.355 8.875 -15.156 5.912 -14 2 C-13.629 1.938 -13.629 1.938 -11.75 1.625 C-9 1 -9 1 -7 -0.125 C-4.328 -1.294 -2.746 -0.816 0 0 Z " fill="#D9F1FB" transform="translate(127,47)"/>
<path d="M0 0 C5.94 0 11.88 0 18 0 C18.492 13.284 18.492 13.284 16.332 16.426 C13.482 18.349 11.852 18.507 8.438 18.438 C7.487 18.436 6.537 18.435 5.559 18.434 C3 18 3 18 1.172 16.953 C-0.663 13.895 -0.312 10.761 -0.188 7.312 C-0.126 4.899 -0.064 2.486 0 0 Z " fill="#F4F9F2" transform="translate(211,38)"/>
<path d="M0 0 C8.91 0 17.82 0 27 0 C27.66 1.98 28.32 3.96 29 6 C29.99 6.33 30.98 6.66 32 7 C32 7.33 32 7.66 32 8 C31.193 8.015 30.385 8.029 29.553 8.044 C25.91 8.118 22.268 8.215 18.625 8.312 C17.354 8.335 16.083 8.358 14.773 8.381 C14.168 8.399 14.168 8.399 11.102 8.488 C10.541 8.501 10.541 8.501 7.706 8.568 C6.813 8.71 5.92 8.853 5 9 C4.67 9.495 4.67 9.495 3 12 C1.02 10.35 -0.96 8.7 -3 7 C-2.01 4.69 -1.02 2.38 0 0 Z " fill="#ECF3F0" transform="translate(277,95)"/>
<path d="M0 0 C10.56 0 21.12 0 32 0 C32.165 0.825 32.165 0.825 33 5 C30.167 7.833 28.273 7.258 24.312 7.266 C23.654 7.268 22.996 7.269 22.318 7.271 C20.926 7.273 19.534 7.269 18.142 7.261 C16.008 7.25 13.876 7.261 11.742 7.273 C10.391 7.272 9.039 7.27 7.688 7.266 C6.454 7.263 5.22 7.261 3.949 7.259 C1 7 1 7 -1 5 C-0.67 3.35 -0.34 1.7 0 0 Z " fill="#2F7213" transform="translate(245,103)"/>
<path d="M0 0 C1.186 0.003 2.372 0.005 3.594 0.008 C4.78 0.005 5.966 0.003 7.188 0 C10.094 0.133 10.094 0.133 11.094 1.133 C11.192 2.964 11.223 4.799 11.219 6.633 C11.221 7.633 11.224 8.633 11.227 9.664 C11.094 12.133 11.094 12.133 10.094 13.133 C7.741 13.206 5.385 13.217 3.031 13.195 C1.741 13.186 0.451 13.177 -0.879 13.168 C-1.878 13.156 -2.877 13.145 -3.906 13.133 C-3.933 11.154 -3.953 9.175 -3.969 7.195 C-3.98 6.093 -3.992 4.991 -4.004 3.855 C-3.869 0.084 -3.791 0.173 0 0 Z " fill="none" transform="translate(413.90625,45.8671875)"/>
<path d="M0 0 C1.186 0.003 2.372 0.005 3.594 0.008 C4.78 0.005 5.966 0.003 7.188 0 C10.094 0.133 10.094 0.133 11.094 1.133 C11.192 2.964 11.223 4.799 11.219 6.633 C11.221 7.633 11.224 8.633 11.227 9.664 C11.094 12.133 11.094 12.133 10.094 13.133 C7.929 13.232 5.761 13.263 3.594 13.258 C2.408 13.26 1.222 13.263 0 13.266 C-2.906 13.133 -2.906 13.133 -3.906 12.133 C-4.005 10.302 -4.036 8.467 -4.031 6.633 C-4.034 5.633 -4.036 4.632 -4.039 3.602 C-3.847 0.023 -3.629 0.166 0 0 Z " fill="none" transform="translate(379.90625,45.8671875)"/>
<path d="M0 0 C5.94 0 11.88 0 18 0 C18 7 18 7 16.688 9.438 C12.44 11.907 7.793 11.812 3 11 C1.16 9.973 1.16 9.973 0 8 C0 5.36 0 2.72 0 0 Z " fill="#F1F7EE" transform="translate(176,38)"/>
<path d="M0 0 C1.32 0.33 2.64 0.66 4 1 C3.353 1.693 2.705 2.386 2.038 3.1 C-0.356 6.506 -0.531 8.277 -0.609 12.395 C-0.642 13.597 -0.674 14.799 -0.707 16.037 C-0.714 16.66 -0.714 16.66 -0.75 19.812 C-0.765 20.445 -0.765 20.445 -0.84 23.646 C-0.91 26.764 -0.963 29.882 -1 33 C-1.743 32.842 -2.485 32.683 -3.251 32.52 C-5.534 32.088 -7.675 31.815 -9.988 31.684 C-10.694 31.642 -11.4 31.6 -12.127 31.557 C-12.848 31.517 -13.569 31.478 -14.312 31.438 C-15.053 31.394 -15.794 31.351 -16.557 31.307 C-18.371 31.201 -20.185 31.1 -22 31 C-22 30.67 -22 30.34 -22 30 C-16.39 30 -10.78 30 -5 30 C-5 26.7 -5 23.4 -5 20 C-6.98 20 -8.96 20 -11 20 C-11 18.68 -11 17.36 -11 16 C-9.02 16 -7.04 16 -5 16 C-5.058 15.348 -5.116 14.695 -5.176 14.023 C-5.59 5.996 -5.59 5.996 -2.5 2.375 C-1.675 1.591 -0.85 0.808 0 0 Z " fill="#4E9D2C" transform="translate(219,70)"/>
<path d="M0 0 C0.47 -0.001 0.47 -0.001 2.848 -0.004 C3.836 -0 4.825 0.004 5.844 0.008 C6.338 0.006 6.338 0.006 8.84 -0.004 C9.78 -0.003 10.719 -0.001 11.688 0 C12.556 0.001 13.424 0.002 14.318 0.003 C16.344 0.133 16.344 0.133 17.344 1.133 C17.469 3.633 17.469 3.633 17.344 6.133 C15.722 7.755 13.924 7.263 11.688 7.266 C11.218 7.266 11.218 7.266 8.84 7.27 C7.851 7.266 6.862 7.262 5.844 7.258 C4.855 7.262 3.866 7.266 2.848 7.27 C1.908 7.268 0.968 7.267 0 7.266 C-0.868 7.264 -1.736 7.263 -2.631 7.262 C-4.656 7.133 -4.656 7.133 -5.656 6.133 C-5.781 3.633 -5.781 3.633 -5.656 1.133 C-4.034 -0.489 -2.236 0.003 0 0 Z " fill="#2B6F0E" transform="translate(479.65625,122.8671875)"/>
<path d="M0 0 C0.66 0.33 1.32 0.66 2 1 C0.852 3.487 -0.404 5.568 -2 7.812 C-4.186 11.296 -5.049 14.037 -6 18 C-6.66 18 -7.32 18 -8 18 C-8.125 10.375 -8.125 10.375 -7 7 C-15.451 9.221 -15.451 9.221 -17.938 12.75 C-18.618 13.492 -19.299 14.235 -20 15 C-23.421 15.136 -26.646 14.646 -30 14 C-29.67 13.34 -29.34 12.68 -29 12 C-26.69 12 -24.38 12 -22 12 C-21.814 11.422 -21.629 10.845 -21.438 10.25 C-19.342 6.969 -16.55 5.38 -13 4 C-10.67 3.631 -8.376 3.442 -6.023 3.281 C-3.382 2.914 -1.868 1.868 0 0 Z " fill="#469822" transform="translate(188,3)"/>
<path d="M0 0 C3.63 0 7.26 0 11 0 C11 3.63 11 7.26 11 11 C3.716 11.358 3.716 11.358 1 10 C-0.64 6.72 -0.178 3.629 0 0 Z " fill="#ECF4E8" transform="translate(162,38)"/>
<path d="M0 0 C4.556 0.556 4.556 0.556 6 2 C6.125 5 6.125 5 6 8 C5 9 5 9 2.125 9.062 C1.609 9.052 1.609 9.052 -1 9 C-1.99 9 -2.98 9 -4 9 C-5.667 9 -7.333 9 -9 9 C-9.625 6.625 -9.625 6.625 -10 4 C-9.34 3.34 -8.68 2.68 -8 2 C-6 2 -4 2 -2 2 C-1.34 1.34 -0.68 0.68 0 0 Z " fill="#65CAF2" transform="translate(122,46)"/>
<path d="M0 0 C3.63 0 7.26 0 11 0 C11.481 6.25 11.481 6.25 9.438 9.438 C6.181 11.525 3.79 11.292 0 11 C0 7.37 0 3.74 0 0 Z " fill="#EEF5EB" transform="translate(232,38)"/>
<path d="M0 0 C0.66 0 1.32 0 2 0 C7.328 6.875 6.799 14.648 7 23 C4.36 23 1.72 23 -1 23 C-0.67 21.845 -0.34 20.69 0 19.5 C1.643 12.893 1.111 6.663 0 0 Z " fill="#EFF9FD" transform="translate(86,79)"/>
<path d="M0 0 C0.66 0 1.32 0 2 0 C2 4.29 2 8.58 2 13 C-6.625 17 -6.625 17 -10 17 C-9.812 15.188 -9.812 15.188 -9 13 C-7.369 11.942 -5.697 10.947 -4 10 C-1.688 8.188 -1.688 8.188 0 6 C0.25 2.75 0.25 2.75 0 0 Z " fill="#67CAF2" transform="translate(104,54)"/>
<path d="M0 0 C3.96 0 7.92 0 12 0 C12 3.3 12 6.6 12 10 C8.98 8.261 6.058 6.41 3.188 4.438 C2.583 4.024 1.978 3.61 1.355 3.184 C0.908 2.793 0.461 2.402 0 2 C0 1.34 0 0.68 0 0 Z " fill="#F2FAFD" transform="translate(420,16)"/>
<path d="M0 0 C0.99 0 1.98 0 3 0 C3 0.66 3 1.32 3 2 C5.31 2 7.62 2 10 2 C10 3.32 10 4.64 10 6 C8.02 6 6.04 6 4 6 C4 6.66 4 7.32 4 8 C2.02 8 0.04 8 -2 8 C-2.125 5.125 -2.125 5.125 -2 2 C-1.34 1.34 -0.68 0.68 0 0 Z " fill="#6ECDF3" transform="translate(111,56)"/>
<path d="M0 0 C0.99 0.33 1.98 0.66 3 1 C3.5 3.563 3.5 3.563 3 7 C0.14 10.212 -3.14 13.07 -7 15 C-7.33 15.495 -7.33 15.495 -9 18 C-9.66 17.67 -10.32 17.34 -11 17 C-11 16.01 -11 15.02 -11 14 C-12.65 14 -14.3 14 -16 14 C-16 13.67 -16 13.34 -16 13 C-15.432 12.914 -14.863 12.827 -14.277 12.738 C-8.324 11.655 -4.615 9.942 0 6 C0.33 5.01 0.66 4.02 1 3 C0.01 2.67 -0.98 2.34 -2 2 C-1.34 2 -0.68 2 0 2 C0 1.34 0 0.68 0 0 Z " fill="#E3F5FC" transform="translate(102,53)"/>
<path d="M0 0 C4.556 0.556 4.556 0.556 6 2 C6.188 4.437 6.188 4.437 6 7 C5.34 7.66 4.68 8.32 4 9 C-0.556 8.444 -0.556 8.444 -2 7 C-2.188 4.562 -2.188 4.562 -2 2 C-1.34 1.34 -0.68 0.68 0 0 Z " fill="#6ACBF3" transform="translate(84,49)"/>
<path d="M0 0 C1.084 0.047 2.168 0.094 3.285 0.143 C3.87 0.167 3.87 0.167 6.83 0.289 C7.446 0.317 7.446 0.317 10.562 0.459 C11.798 0.511 13.033 0.564 14.306 0.617 C17.371 0.748 20.435 0.883 23.5 1.022 C23.5 1.352 23.5 1.682 23.5 2.022 C16.9 2.352 10.3 2.682 3.5 3.022 C2.84 4.342 2.18 5.662 1.5 7.022 C0.84 7.022 0.18 7.022 -0.5 7.022 C-1.49 5.042 -2.48 3.062 -3.5 1.022 C-2.5 0.022 -2.5 0.022 0 0 Z " fill="#F0F5EE" transform="translate(471.500244140625,120.978271484375)"/>
<path d="M0 0 C0.99 0.33 1.98 0.66 3 1 C1.339 4.086 -0.325 6.707 -3 9 C-6.513 9.413 -9.588 8.863 -13 8 C-12.67 7.34 -12.34 6.68 -12 6 C-9.69 6 -7.38 6 -5 6 C-4.732 5.381 -4.464 4.762 -4.188 4.125 C-3 2 -3 2 0 0 Z " fill="#3F951B" transform="translate(171,9)"/>
<path d="M0 0 C3.96 0 7.92 0 12 0 C12 1.32 12 2.64 12 4 C8.04 4 4.08 4 0 4 C0 2.68 0 1.36 0 0 Z " fill="#2572A8" transform="translate(268,78)"/>
<path d="M0 0 C3.96 0 7.92 0 12 0 C12 1.32 12 2.64 12 4 C8.37 4 4.74 4 1 4 C0.67 2.68 0.34 1.36 0 0 Z " fill="#2270A7" transform="translate(301,78)"/>
<path d="M0 0 C3.875 0.875 3.875 0.875 5 2 C7.183 2.235 9.372 2.414 11.562 2.562 C12.161 2.604 12.161 2.604 15.191 2.816 C16.118 2.877 17.045 2.938 18 3 C16.153 5.424 15.262 5.963 12.188 6.398 C11.136 6.391 10.084 6.383 9 6.375 C7.948 6.383 6.896 6.39 5.812 6.398 C3 6 3 6 1.125 4.664 C0 3 0 3 0 0 Z " fill="#489A25" transform="translate(174,60)"/>
<path d="M0 0 C2.375 -0.125 2.375 -0.125 5 0 C5.66 0.66 6.32 1.32 7 2 C6.625 4.125 6.625 4.125 6 6 C3.625 6.625 3.625 6.625 1 7 C0.34 6.34 -0.32 5.68 -1 5 C-0.625 2.375 -0.625 2.375 0 0 Z " fill="#6FCDF3" transform="translate(97,46)"/>
<path d="M0 0 C2.31 0.66 4.62 1.32 7 2 C6.01 2.66 5.02 3.32 4 4 C3.312 6.125 3.312 6.125 3 8 C2.67 7.34 2.34 6.68 2 6 C-0.322 5.593 -2.657 5.256 -5 5 C-5 4.34 -5 3.68 -5 3 C-5.99 2.67 -6.98 2.34 -8 2 C-5.539 0.77 -3.72 1 -1 1 C-0.67 0.67 -0.34 0.34 0 0 Z " fill="#E6F6FC" transform="translate(119,53)"/>
<path d="M0 0 C0.99 0.33 1.98 0.66 3 1 C2.67 5.29 2.34 9.58 2 14 C1.01 13.67 0.02 13.34 -1 13 C-0.67 10.03 -0.34 7.06 0 4 C-3.63 4 -7.26 4 -11 4 C-11 3.67 -11 3.34 -11 3 C-10.29 2.951 -9.579 2.902 -8.848 2.852 C-8.388 2.814 -8.388 2.814 -6.062 2.625 C-5.146 2.555 -4.229 2.486 -3.285 2.414 C-2.908 2.346 -2.908 2.346 -1 2 C-0.67 1.34 -0.34 0.68 0 0 Z " fill="#3A9214" transform="translate(243,34)"/>
<path d="M0 0 C0 0.33 0 0.66 0 1 C-2.31 1.33 -4.62 1.66 -7 2 C-7 2.66 -7 3.32 -7 4 C-9.962 6.172 -12.507 7.836 -16 9 C-13.372 0.401 -8.118 -0.637 0 0 Z " fill="#529F30" transform="translate(166,14)"/>
<path d="M0 0 C0.33 0.66 0.66 1.32 1 2 C1.639 2.309 2.279 2.619 2.938 2.938 C5 4 5 4 7 7 C4.03 7 1.06 7 -2 7 C-1 3 -1 3 0 0 Z " fill="#F0F6EE" transform="translate(153,105)"/>
<path d="M0 0 C1.98 0 3.96 0 6 0 C6 3 6 3 4 5.188 C3.34 5.786 2.68 6.384 2 7 C0.539 4.353 0 3.106 0 0 Z " fill="#F1F6EF" transform="translate(184,111)"/>
<path d="M0 0 C0.33 0.99 0.66 1.98 1 3 C0.361 3.474 -0.279 3.949 -0.938 4.438 C-3.849 8.054 -3.806 11.472 -4 16 C-4.33 16 -4.66 16 -5 16 C-5.135 13.898 -5.232 11.793 -5.312 9.688 C-5.371 8.516 -5.429 7.344 -5.488 6.137 C-5 3 -5 3 -2.48 1.082 C-1.662 0.725 -0.843 0.368 0 0 Z " fill="#519F30" transform="translate(250,30)"/>
<path d="M0 0 C0.289 0.598 0.578 1.196 0.875 1.812 C2 4 2 4 4 7 C3.34 7.66 2.68 8.32 2 9 C1.303 10.317 0.63 11.649 0 13 C-0.197 11.585 -0.382 10.168 -0.562 8.75 C-0.667 7.961 -0.771 7.172 -0.879 6.359 C-1 3.995 -0.696 2.249 0 0 Z " fill="#E6F3E0" transform="translate(1,105)"/>
<path d="M0 0 C0.99 0.33 1.98 0.66 3 1 C3.312 3.75 3.312 3.75 3 7 C0.5 9.375 0.5 9.375 -2 11 C-2.33 10.01 -2.66 9.02 -3 8 C-2.01 7.34 -1.02 6.68 0 6 C0.33 5.01 0.66 4.02 1 3 C0.01 2.67 -0.98 2.34 -2 2 C-1.34 2 -0.68 2 0 2 C0 1.34 0 0.68 0 0 Z " fill="#D4F0FB" transform="translate(102,53)"/>
<path d="M0 0 C3.796 0.542 5.472 2.201 8 5 C5.688 5.688 5.688 5.688 3 6 C1.188 4.75 1.188 4.75 0 3 C0 2.01 0 1.02 0 0 Z " fill="#489A25" transform="translate(209,53)"/>
<path d="M0 0 C6.93 0 13.86 0 21 0 C21 0.33 21 0.66 21 1 C20.44 1.025 19.88 1.05 19.303 1.076 C16.765 1.192 14.226 1.315 11.688 1.438 C11.247 1.457 11.247 1.457 9.018 1.557 C8.594 1.578 8.594 1.578 6.449 1.684 C5.669 1.72 4.889 1.757 4.085 1.795 C2 2 2 2 -1 3 C-0.67 2.01 -0.34 1.02 0 0 Z " fill="#498431" transform="translate(475,123)"/>
<path d="M0 0 C0.99 0 1.98 0 3 0 C2.67 2.64 2.34 5.28 2 8 C1.01 8 0.02 8 -1 8 C-2 6 -2 6 -1.062 2.875 C-0.887 2.401 -0.887 2.401 0 0 Z " fill="#1D6CA5" transform="translate(268,59)"/>
<path d="M0 0 C0.99 0 1.98 0 3 0 C2.688 1.875 2.688 1.875 2 4 C-1.435 6.29 -2.985 6.178 -7 6 C-6.402 5.752 -5.804 5.505 -5.188 5.25 C-3 4 -3 4 -1.438 1.875 C-0.963 1.256 -0.489 0.638 0 0 Z " fill="#469923" transform="translate(241,46)"/>
<path d="M0 0 C0.33 0.66 0.66 1.32 1 2 C0.066 4.031 -0.932 6.035 -2 8 C-3.98 8 -5.96 8 -8 8 C-8 7.34 -8 6.68 -8 6 C-6.35 6 -4.7 6 -3 6 C-2.691 5.196 -2.381 4.391 -2.062 3.562 C-1 1 -1 1 0 0 Z " fill="#DEF3FB" transform="translate(124,64)"/>
<path d="M0 0 C0 0.99 0 1.98 0 3 C-1.98 3.99 -3.96 4.98 -6 6 C-3.846 0 -3.846 0 0 0 Z " fill="#F0F9FD" transform="translate(100,62)"/>
</svg>
